<svg id="Layer_1" data-name="Layer 1" xmlns="http://www.w3.org/2000/svg" viewBox="0 0 390.76 1313.15"><defs><style>.cls-1{fill:#e84325;}.cls-2{fill:#5c7dba;}.cls-3{fill:#e38425;}.cls-4{fill:#1d7e40;}</style></defs><path class="cls-1" d="M.11,920.14c-.58-15.14,1-27.23,9.15-37.85,37.2-48.6,83.44-83.41,145.31-92.88,92-14.07,178,17.46,233.29,104.54,4.9,7.72,1.87,16.13,2.48,26.66-55.33-53.91-119.7-81.09-195.24-81C119.81,839.64,55.49,866.26.11,920.14Z"/><path class="cls-2" d="M390.36,330.94c-103.15-105.19-281-110.52-389.9-1.6-1.29-13.49.21-25.53,8.15-36C43.18,247.85,85.84,213.63,143,202c94.26-19.22,186.74,10.88,244.64,101.79C392.77,311.8,389.72,320.48,390.36,330.94Z"/><path class="cls-1" d="M390.29,134.28c-55.21-53.81-119.53-81.08-195-81.06S55.37,80,.33,133.61c-.92-14.28.37-26.07,8.13-36.42C48.07,44.35,98.51,8.26,165.54,1.53,256.85-7.64,334.25,24.06,388,107.92,392.84,115.53,389.75,124,390.29,134.28Z"/><path class="cls-2" d="M389.73,1312c-54.81-52.71-119.6-79.55-195.06-79.43-74.92.12-139.47,26.71-194.35,80.56-.88-14.67.41-26.5,8.21-36.81,36.71-48.53,82.61-83.65,144-93.41,93-14.77,179.11,16,235.31,104.08C392.82,1294.85,389.25,1303.37,389.73,1312Z"/><path class="cls-3" d="M.32,723.28C-.51,708.56.93,696.63,9,686c39.74-52.3,89.93-88.1,156.65-94.73,89-8.84,166.65,20.54,222.1,105.78,5.08,7.82,1.42,16.36,2.17,25.4C335.39,670.23,271,643,195.7,642.87S55.56,669.51.32,723.28Z"/><path class="cls-4" d="M390,527c-55.59-53.59-119.63-80.63-195.11-80.51-75.12.12-139.09,26.62-194.18,79.89C-.59,513,.19,501.76,7.34,492.12,58,423.74,124.24,387.88,211.07,393.9c75,5.2,131.69,40.48,173.59,101.93C391,505.14,390.56,514.4,390,527Z"/><path class="cls-4" d="M389.38,1116.05c-55-52.89-119-80-194.48-79.89-75.14.09-139,26.7-194.26,79.92-1.39-13.51-.21-25.06,7.08-34.83,49.91-67,115-102.69,200.22-97.85,74.21,4.22,131.2,37.85,173.92,97.9C389.15,1091.55,392.13,1101.75,389.38,1116.05Z"/></svg>