<?xml version="1.0" encoding="utf-8"?>
<!-- Generator: Adobe Illustrator 24.1.2, SVG Export Plug-In . SVG Version: 6.00 Build 0)  -->
<svg version="1.1" id="Layer_1" xmlns="http://www.w3.org/2000/svg" xmlns:xlink="http://www.w3.org/1999/xlink" x="0px" y="0px"
	 viewBox="0 0 228.43 263.83" style="enable-background:new 0 0 228.43 263.83;" xml:space="preserve">
<style type="text/css">
	.st0{fill:#E94325;}
</style>
<g>
	<path class="st0" d="M98.93,209.57c0-1.96,0-3.92,0-5.89c0-65.96,0.05-131.91-0.1-197.87c-0.01-4.53,1.09-6.06,5.72-5.79
		c6.81,0.39,13.66,0.32,20.48,0.02c3.84-0.17,4.73,1.16,4.7,4.82c-0.15,23.98-0.08,47.97-0.08,71.95c0,42.47,0,84.94,0,127.41
		c0,1.76,0,3.52,0,5.52c2.63-0.58,3.55-2.28,4.78-3.51c22.17-22.11,44.35-44.22,66.41-66.44c5.09-5.12,10.85-7.16,17.63-4.6
		c10.89,4.12,13.34,17.2,4.88,25.68c-21.16,21.24-42.39,42.41-63.59,63.61c-11.31,11.31-22.59,22.64-33.93,33.91
		c-7.23,7.19-16.07,7.24-23.33-0.01c-32.31-32.23-64.58-64.51-96.82-96.8c-7.18-7.2-7.57-16.68-1.14-23.04
		c6.41-6.32,15.84-5.78,23.01,1.39c22.15,22.13,44.3,44.27,66.4,66.45c1.27,1.27,2.13,2.96,3.17,4.45
		C97.74,210.43,98.33,210,98.93,209.57z"/>
</g>
</svg>
