<?xml version="1.0" encoding="utf-8"?>
<!-- Generator: Adobe Illustrator 24.1.2, SVG Export Plug-In . SVG Version: 6.00 Build 0)  -->
<svg version="1.1" id="Layer_1" xmlns="http://www.w3.org/2000/svg" xmlns:xlink="http://www.w3.org/1999/xlink" x="0px" y="0px"
	 viewBox="0 0 1881.62 1723.46" style="enable-background:new 0 0 1881.62 1723.46;" xml:space="preserve">
<style type="text/css">
	.st0{fill:#2F71B7;}
	.st1{fill:#E94325;}
	.st2{fill:#D83E25;}
	.st3{fill:#EB4325;}
</style>
<g>
	<path class="st0" d="M462.56,1719.05c-80.59,0.3-161.17,0.7-241.76,0.88c-65.95,0.15-131.92-0.56-197.86,0.44
		c-16.67,0.25-20.84-4.19-20.8-20.83c0.55-263.14,0.39-526.29,0.39-789.43c0-295.12,0.17-590.24-0.42-885.36
		C2.08,6.48,6.73,1.67,25.06,1.74c188.53,0.69,377.08-0.13,565.61,0.64C695.41,2.81,795.6,22.17,883.56,83.7
		c93.89,65.68,147.58,156.88,166.13,268.86c13.08,79,12.63,158.35-12.89,234.91C999.59,699.1,917.26,766.46,810.65,807.94
		c-2.47,0.96-4.99,1.79-7.45,2.76c-4.75,1.86-12.35,1.2-12.7,7.66c-0.45,8.39,8.45,7.26,13.4,8.61
		c74.55,20.39,143.75,50.88,201.79,103.54c43.65,39.6,78.19,84.83,92.22,143.37c-70.23,0.14-140.45,0.27-210.68,0.41
		c-29.59-75.14-87.69-117.8-162.21-140.9c-41.5-12.86-84.57-17.02-127.86-17.13c-123.11-0.31-246.22,0.16-369.32-0.45
		c-15.49-0.08-20.31,3.8-20.26,19.82c0.54,194.97,0.56,389.94-0.03,584.91c-0.05,17.02,5.29,21.02,21.47,20.89
		c77.85-0.64,155.7-0.08,233.56,0.06C462.57,1600.68,462.56,1659.86,462.56,1719.05z M207.91,466.27
		c0,87.21,0.42,174.43-0.38,261.64c-0.15,16.36,3.98,21.39,20.81,21.28c112.51-0.72,225.03-0.37,337.55-0.38
		c31.31,0,62.32-2.57,93.12-8.74c102.64-20.56,170.24-87.69,179.02-179.56c5.77-60.38,6.31-120.93,0.29-181.31
		c-8.18-82.08-51.08-138.87-126.92-171.31c-45.44-19.43-93.35-26.18-141.97-26.57c-113.84-0.92-227.7-0.01-341.54-0.63
		c-15.54-0.08-20.49,3.85-20.35,19.94C208.31,289.18,207.91,377.73,207.91,466.27z"/>
	<path class="st1" d="M887.22,1074.29c70.23-0.14,140.46-0.27,210.68-0.41c18.32,41.59,21.58,86.2,22.69,130.43
		c3.55,141.64-34.17,269.43-133.62,374.4c-83.24,87.85-184.97,137.45-306.82,140.51c-72.48,1.82-145.06,0-217.59-0.19
		c0-59.19,0.01-118.37,0.01-177.56c42.54-0.14,85.08-0.33,127.62-0.42c43.26-0.09,86.32-2.55,128.23-14.15
		c94.4-26.12,163.92-80.46,177.53-181.77C908.04,1255.23,911.37,1163.87,887.22,1074.29z"/>
	<path class="st2" d="M1032.15,95.37c95.33,111.11,142.57,238.84,129.3,385.12c-10.28,113.27-52.24,214.56-128.38,300.73
		C1194.28,552.2,1201.04,324.15,1032.15,95.37z"/>
	<path class="st3" d="M268.53,1481.97c0-165.71,0-331.43,0-497.14c1.38,0,2.75-0.01,4.13-0.01c0,165.72,0,331.43,0,497.15
		C271.28,1481.97,269.9,1481.97,268.53,1481.97z"/>
</g>
</svg>
