<svg id="Layer_1" data-name="Layer 1" xmlns="http://www.w3.org/2000/svg" viewBox="0 0 390.76 1527.02"><defs><style>.cls-1{fill:#e84325;}.cls-2{fill:#5c7dba;}.cls-3{fill:#e38425;}.cls-4{fill:#1d7e40;}</style></defs><path class="cls-1" d="M.11,1134c-.58-15.14,1-27.22,9.15-37.84,37.2-48.61,83.44-83.42,145.31-92.88,92-14.08,178,17.46,233.29,104.54,4.9,7.71,1.87,16.13,2.48,26.66-55.33-53.92-119.7-81.09-195.24-81C119.81,1053.52,55.49,1080.14.11,1134Z"/><path class="cls-2" d="M390.36,544.81c-103.15-105.19-281-110.52-389.9-1.6-1.29-13.49.21-25.53,8.15-36,34.57-45.5,77.23-79.73,134.4-91.39,94.26-19.21,186.74,10.88,244.64,101.8C392.77,525.67,389.72,534.36,390.36,544.81Z"/><path class="cls-1" d="M390.29,348.16c-55.21-53.82-119.53-81.08-195-81.07S55.37,293.86.33,347.49c-.92-14.29.37-26.08,8.13-36.43,39.61-52.84,90.05-88.93,157.08-95.66,91.31-9.17,168.71,22.53,222.43,106.39C392.84,329.4,389.75,337.86,390.29,348.16Z"/><path class="cls-3" d="M389.73,1525.89c-54.81-52.71-119.6-79.54-195.06-79.42-74.92.12-139.47,26.7-194.35,80.55-.88-14.67.41-26.5,8.21-36.8,36.71-48.54,82.61-83.66,144-93.41,93-14.78,179.11,16,235.31,104.07C392.82,1508.73,389.25,1517.25,389.73,1525.89Z"/><path class="cls-3" d="M.32,937.15C-.51,922.43.93,910.5,9,899.85c39.74-52.3,89.93-88.09,156.65-94.72,89-8.85,166.65,20.53,222.1,105.77,5.08,7.82,1.42,16.36,2.17,25.41-54.56-52.2-119-79.47-194.25-79.56S55.56,883.38.32,937.15Z"/><path class="cls-4" d="M390,740.85c-55.59-53.59-119.63-80.63-195.11-80.51C119.74,660.47,55.77,687,.68,740.23-.59,726.92.19,715.64,7.34,706,58,637.62,124.24,601.75,211.07,607.77c75,5.2,131.69,40.49,173.59,101.94C391,719,390.56,728.27,390,740.85Z"/><path class="cls-4" d="M389.38,1329.92c-55-52.89-119-80-194.48-79.89-75.14.1-139,26.71-194.26,79.93-1.39-13.51-.21-25.06,7.08-34.84,49.91-66.94,115-102.69,200.22-97.84,74.21,4.21,131.2,37.85,173.92,97.9C389.15,1305.43,392.13,1315.62,389.38,1329.92Z"/><path class="cls-4" d="M.19,147.4C0,136.06.73,125,8,115.32,43.4,68.06,87.48,33.17,146.77,21.93c92-17.46,182.65,12.43,240.13,101.37,5.29,8.19,3,16.71,3.24,24.66C260.4,42.92,130.94,43,.19,147.4Z"/></svg>