<svg id="Layer_1" data-name="Layer 1" xmlns="http://www.w3.org/2000/svg" viewBox="0 0 2046.61 1313.42"><defs><style>.cls-1{fill:#fcfcfb;}.cls-2{fill:#eb4425;}.cls-3{fill:#e54325;}.cls-4{fill:#fefcfc;}</style></defs><path class="cls-1" d="M1121.92,1201.12q0-455.74.29-911.5c0-13.89-2-18.77-17.69-18.59-84.23,1-168.48.05-252.72.85-14.53.14-17.56-4.05-17-17.64,1.13-26.91.81-53.91.09-80.85-.27-10.27,2.43-13.24,13-13.2,112.32.48,224.64.4,337,.47-11.32,41.64-14,83.4-3.8,125.82,12.33,51.46,40.94,92.34,79.9,126.87-.2,7.28-.55,14.57-.55,21.85q-.06,383-.06,766Z"/><path class="cls-2" d="M1121.92,1201.12l138.44,0c89.29.15,178.59.75,267.89,0,15.87-.12,19.75,4.57,19.08,19.58-1.17,26.35-.75,52.79-.11,79.17.25,10.33-3,14.64-13.32,13.12a34,34,0,0,0-5.05,0q-337.84,0-675.67.39c-15.2,0-19-4-18.29-18.66,1.25-25.78,1-51.68.06-77.48-.47-12.5,2.91-16.07,15.72-16,84.25.61,168.5.33,252.74.29C1109.58,1201.59,1115.75,1201.29,1121.92,1201.12Z"/><path class="cls-3" d="M1261,413.35c-39-34.53-67.57-75.41-79.9-126.87-10.16-42.42-7.52-84.18,3.8-125.82,20.54-55.52,54.49-99.93,106.46-129.79,146.39-84.1,336.15,12.83,348.46,179.5,7.06,95.57-30.91,171.67-113.84,220.49-82.07,48.31-165.56,44.15-246.73-5.5C1273,421.56,1267,417.36,1261,413.35Zm-1.49-37.19c52,52.86,115.79,72.71,187.34,58.6,82.76-16.33,138.94-67.1,161.3-148.93,22.21-81.3-1-151.71-62.76-209-104.59-97-287-51.14-332.43,83.41C1183.19,230.06,1203.49,324.19,1259.48,376.16Z"/><path class="cls-4" d="M1212.93,160.27c106,.06,212.09.33,318.14-.1,12.71,0,17.52,2.46,16.91,16.28-1.19,26.88-1,53.88,0,80.77.45,12.08-3.37,14.59-14.85,14.53-85.29-.5-170.58.1-255.85-.64-14.31-.12-17.65,3.82-17.22,17.62.89,29.11-.24,58.28-.54,87.43C1203.49,324.19,1183.19,230.06,1212.93,160.27Z"/></svg>