<?xml version="1.0" encoding="utf-8"?>
<!-- Generator: Adobe Illustrator 24.1.2, SVG Export Plug-In . SVG Version: 6.00 Build 0)  -->
<svg version="1.1" id="Layer_1" xmlns="http://www.w3.org/2000/svg" xmlns:xlink="http://www.w3.org/1999/xlink" x="0px" y="0px"
	 viewBox="0 0 1272 95" style="enable-background:new 0 0 1272 95;" xml:space="preserve">
<style type="text/css">
	.st0{fill:#0C0500;}
	.st1{fill:#DC7F25;}
	.st2{fill:#E18225;}
</style>
<g>
	<path class="st0" d="M635.5,94.91c-210.3,0-420.6-0.01-630.9,0.09c-3.75,0-4.62-0.84-4.6-4.59C0.18,61.47,0.16,32.52,0.01,3.57
		C0,0.6,0.62,0,3.6,0c421.6,0.08,843.2,0.08,1264.8,0c2.98,0,3.6,0.6,3.58,3.57c-0.14,29.11-0.16,58.23,0.02,87.34
		c0.02,3.42-0.68,4.09-4.1,4.09C1057.1,94.9,846.3,94.91,635.5,94.91z M496.14,36.81c9.99,0,19.98-0.05,29.97,0.04
		c2.62,0.02,4.35-0.08,4.38-3.58c0.02-3.47-1.63-3.64-4.29-3.64c-19.81,0.07-39.62,0.06-59.43,0.01c-2.54-0.01-4.47-0.03-4.43,3.53
		c0.03,3.38,1.64,3.7,4.35,3.68C476.5,36.75,486.32,36.81,496.14,36.81z M1139.89,36.81c10.15,0,20.3-0.11,30.45,0.06
		c3.05,0.05,4-0.89,4.02-3.93c0.03-3.28-1.71-3.3-4.09-3.3c-19.97,0.04-39.93,0.05-59.9,0c-2.61-0.01-4.38,0.12-4.35,3.61
		c0.03,3.5,1.84,3.61,4.43,3.59C1120.26,36.77,1130.08,36.81,1139.89,36.81z M1231.89,29.67c-10.14,0-20.28,0.07-30.42-0.05
		c-2.75-0.03-3.75,0.74-3.74,3.63c0.01,2.93,1.12,3.61,3.82,3.6c20.28-0.08,40.56-0.09,60.85,0c2.8,0.01,3.73-0.85,3.78-3.69
		c0.05-3.01-1.24-3.57-3.86-3.54C1252.18,29.73,1242.03,29.67,1231.89,29.67z M588.31,29.68c-10.32,0-20.65,0.06-30.97-0.04
		c-2.53-0.02-3.5,0.72-3.45,3.4c0.05,2.64,0.56,3.85,3.58,3.84c20.32-0.11,40.63-0.11,60.95,0c2.86,0.01,3.65-0.92,3.7-3.71
		c0.06-3.02-1.2-3.55-3.83-3.52C608.3,29.74,598.3,29.67,588.31,29.68z M130.17,36.81c9.99,0,19.99-0.1,29.98,0.06
		c2.98,0.05,4.02-0.76,4.05-3.89c0.03-3.27-1.61-3.34-4.02-3.34c-19.82,0.04-39.64,0.05-59.47,0c-2.41-0.01-4.1,0.06-4.09,3.32
		c0.02,3.08,1.03,3.96,4.05,3.91C110.51,36.71,120.34,36.81,130.17,36.81z M956.96,36.81c9.81,0,19.61-0.03,29.42,0.02
		c2.54,0.01,4.44,0.01,4.47-3.53c0.02-3.42-1.62-3.68-4.29-3.67c-19.61,0.06-39.22,0.05-58.83,0.01c-2.49,0-4.45-0.11-4.47,3.48
		c-0.03,3.87,2.12,3.73,4.8,3.71C937.68,36.78,947.32,36.81,956.96,36.81z M39.03,36.81c9.81,0,19.62-0.1,29.43,0.06
		c2.98,0.05,4.06-0.77,4.07-3.88c0.01-3.21-1.59-3.36-4.04-3.35c-19.79,0.05-39.58,0.05-59.37,0.01c-2.36,0-4.09,0.01-4.07,3.3
		c0.02,3.1,1.04,3.96,4.04,3.92C19.08,36.72,29.06,36.81,39.03,36.81z M313.2,36.81c9.81,0,19.62-0.03,29.42,0.02
		c2.5,0.01,4.43,0.07,4.46-3.51c0.03-3.41-1.51-3.7-4.21-3.69c-19.78,0.07-39.57,0.07-59.35,0c-2.57-0.01-3.92,0.39-3.93,3.47
		c-0.02,3.25,1.33,3.81,4.18,3.77C293.59,36.73,303.4,36.81,313.2,36.81z M773.95,36.81c9.97,0,19.95-0.08,29.92,0.05
		c2.89,0.04,4.12-0.66,4.14-3.85c0.01-3.23-1.59-3.37-4.01-3.36c-19.78,0.05-39.56,0.04-59.35,0c-2.36,0-4.15-0.03-4.11,3.27
		c0.04,3,0.87,4.02,3.99,3.96C754.33,36.69,764.14,36.81,773.95,36.81z M221.57,36.81c9.97,0,19.94-0.07,29.91,0.04
		c2.69,0.03,3.85-0.65,3.86-3.6c0.01-2.9-1.04-3.64-3.77-3.63c-19.94,0.08-39.88,0.08-59.81,0c-2.65-0.01-3.84,0.56-3.8,3.54
		c0.05,2.79,0.87,3.73,3.7,3.7C201.63,36.73,211.6,36.81,221.57,36.81z M404.42,29.67c-9.8,0-19.61,0.07-29.41-0.04
		c-2.78-0.03-4.21,0.41-4.12,3.75c0.08,3.06,1.37,3.48,3.94,3.47c19.78-0.07,39.55-0.08,59.33,0.01c2.85,0.01,4.18-0.57,4.17-3.8
		c-0.01-3.14-1.5-3.43-3.99-3.42C424.36,29.72,414.39,29.67,404.42,29.67z M682.52,36.81c9.97,0,19.94-0.07,29.91,0.05
		c2.73,0.03,3.81-0.72,3.83-3.63c0.02-2.94-1.11-3.61-3.8-3.6c-19.94,0.08-39.88,0.08-59.81,0c-2.69-0.01-3.8,0.64-3.77,3.57
		c0.03,2.84,0.94,3.7,3.73,3.66C662.59,36.73,672.56,36.81,682.52,36.81z M865.54,36.81c9.97,0,19.94-0.08,29.91,0.05
		c2.79,0.04,3.74-0.84,3.78-3.68c0.05-3-1.22-3.56-3.85-3.55c-19.94,0.07-39.88,0.08-59.82-0.01c-2.75-0.01-3.74,0.74-3.73,3.63
		c0.01,2.92,1.08,3.64,3.8,3.61C845.6,36.74,855.57,36.81,865.54,36.81z M1047.93,36.81c10,0,20-0.07,29.99,0.05
		c2.8,0.03,4.23-0.44,4.2-3.76c-0.03-3.09-1.37-3.48-3.92-3.47c-19.83,0.07-39.66,0.06-59.48,0c-2.53-0.01-3.91,0.32-3.93,3.44
		c-0.02,3.27,1.31,3.83,4.16,3.79C1028.6,36.73,1038.27,36.81,1047.93,36.81z M1140.15,53.98c-9.98,0-19.97,0.08-29.95-0.05
		c-2.81-0.04-4.2,0.45-4.16,3.75c0.04,3.17,1.54,3.41,4.02,3.4c20.13-0.06,40.27-0.07,60.4,0.01c2.63,0.01,3.91-0.51,3.88-3.52
		c-0.02-2.84-0.94-3.69-3.74-3.65C1160.45,54.06,1150.3,53.98,1140.15,53.98z M1048.43,61.05c10.16,0,20.33-0.08,30.49,0.05
		c2.8,0.03,4.21-0.37,4.13-3.73c-0.07-3.07-1.33-3.44-3.9-3.43c-20.16,0.08-40.32,0.08-60.48,0c-2.58-0.01-3.83,0.37-3.89,3.45
		c-0.07,3.37,1.38,3.75,4.15,3.71C1028.77,60.97,1038.6,61.05,1048.43,61.05z M956.98,61.04c9.98,0,19.96-0.06,29.93,0.04
		c2.6,0.03,3.94-0.45,3.91-3.5c-0.03-2.84-0.94-3.67-3.74-3.66c-19.96,0.1-39.91,0.09-59.87,0.01c-2.61-0.01-3.87,0.44-3.93,3.48
		c-0.07,3.4,1.52,3.71,4.26,3.68C937.35,60.97,947.16,61.05,956.98,61.04z M496.54,53.98c-9.49,0-18.98-0.06-28.46,0.04
		c-2.49,0.02-5.83-1.39-5.73,3.61c0.1,5.12,3.64,3.34,5.97,3.36c18.81,0.12,37.62,0.1,56.42,0.03c2.49-0.01,5.81,1.37,5.7-3.63
		c-0.11-5.14-3.64-3.28-5.95-3.33C515.18,53.88,505.86,53.98,496.54,53.98z M404.54,61.05c10.16,0,20.33-0.07,30.49,0.05
		c2.79,0.03,4.22-0.35,4.15-3.72c-0.06-3.08-1.32-3.45-3.9-3.44c-20.16,0.08-40.33,0.08-60.49,0c-2.57-0.01-3.84,0.35-3.9,3.44
		c-0.07,3.36,1.36,3.75,4.15,3.72C384.87,60.97,394.7,61.05,404.54,61.05z M864.93,61.04c10.14,0,20.29-0.07,30.43,0.05
		c2.63,0.03,3.9-0.48,3.86-3.51c-0.04-2.8-0.85-3.68-3.69-3.66c-19.96,0.1-39.91,0.09-59.87,0.01c-2.63-0.01-3.77,0.47-3.84,3.48
		c-0.08,3.4,1.44,3.71,4.17,3.68C845.64,60.97,855.29,61.05,864.93,61.04z M774.5,53.98c-9.97,0-19.95,0.05-29.92-0.03
		c-2.45-0.02-3.99,0.16-4.03,3.35c-0.03,3.22,1.21,3.82,4.1,3.81c19.78-0.1,39.56-0.08,59.34-0.03c2.45,0.01,3.97-0.16,4.01-3.36
		c0.04-3.27-1.22-3.83-4.09-3.79C794.11,54.06,784.3,53.98,774.5,53.98z M682.47,53.98c-9.81,0-19.62,0.07-29.43-0.04
		c-2.71-0.03-4.27,0.22-4.17,3.65c0.09,2.99,1.18,3.52,3.83,3.51c19.95-0.09,39.91-0.1,59.86,0.01c2.83,0.01,3.65-0.89,3.69-3.67
		c0.05-3.03-1.22-3.52-3.85-3.49C702.43,54.05,692.45,53.98,682.47,53.98z M588.47,53.98c-9.98,0-19.95,0.08-29.93-0.05
		c-2.69-0.03-3.82,0.59-3.8,3.55c0.02,2.86,0.97,3.64,3.74,3.62c19.95-0.1,39.91-0.1,59.86,0c2.72,0.01,3.78-0.63,3.76-3.57
		c-0.02-2.85-0.92-3.65-3.7-3.61C608.43,54.06,598.45,53.98,588.47,53.98z M313.57,53.98c-9.97,0-19.95,0.05-29.92-0.03
		c-2.45-0.02-3.99,0.16-4.03,3.35c-0.03,3.22,1.21,3.82,4.1,3.81c19.78-0.1,39.56-0.08,59.34-0.03c2.45,0.01,3.97-0.16,4.01-3.36
		c0.04-3.27-1.22-3.83-4.09-3.79C333.18,54.06,323.37,53.98,313.57,53.98z M221.6,61.04c9.98,0,19.95-0.08,29.93,0.05
		c2.71,0.03,3.81-0.63,3.8-3.57c-0.01-2.87-0.99-3.61-3.74-3.6c-19.95,0.1-39.9,0.1-59.86,0c-2.71-0.01-3.78,0.61-3.76,3.55
		c0.02,2.85,0.91,3.67,3.71,3.63C201.65,60.96,211.62,61.04,221.6,61.04z M130.58,61.05c9.49,0,18.99,0.01,28.48-0.01
		c2.52-0.01,5.27,0.9,5.17-3.66c-0.09-4.19-2.55-3.39-4.91-3.39c-19.32-0.01-38.64,0.01-57.96-0.03c-2.62-0.01-4.78-0.3-4.73,3.66
		c0.05,4.16,2.58,3.41,4.97,3.42C111.26,61.05,120.92,61.05,130.58,61.05z M39.11,53.98c-9.97,0-19.95,0.08-29.92-0.05
		c-2.82-0.04-4.18,0.44-4.12,3.75c0.05,3.15,1.48,3.41,3.97,3.4C28.82,61.02,48.6,61,68.38,61.1c2.84,0.01,4.19-0.49,4.14-3.77
		c-0.05-3.14-1.5-3.41-3.99-3.38C58.72,54.03,48.91,53.98,39.11,53.98z M1232.02,61.04c10.14,0,20.28-0.09,30.42,0.06
		c2.81,0.04,3.7-0.81,3.72-3.65c0.03-2.98-1.15-3.53-3.82-3.52c-19.95,0.09-39.9,0.07-59.85,0.01c-2.46-0.01-3.98,0.18-4.02,3.35
		c-0.04,3.24,1.23,3.84,4.12,3.8C1212.4,60.96,1222.21,61.04,1232.02,61.04z M1206.53,78.86c13.74,11.93,41.59,9.31,50.79,0
		C1240.51,78.86,1223.96,78.86,1206.53,78.86z M983.1,78.96c-17.5,0-34.13,0-51.13,0C943.12,89.37,969.03,89.69,983.1,78.96z
		 M12.88,78.87c16.42,12.51,43.94,8.6,51.2,0C47.33,78.87,30.65,78.87,12.88,78.87z M287.59,78.93c14.12,11.4,40.44,9.74,51.18,0
		C321.78,78.93,305.16,78.93,287.59,78.93z M748.52,78.93c14.12,11.4,40.45,9.74,51.18,0C782.71,78.93,766.08,78.93,748.52,78.93z
		 M1206.34,11.88c17.54,0,34.38,0,51.51,0C1246.16,1.72,1219.83,1.62,1206.34,11.88z M748.48,11.76c17.25,0,33.9,0,51.05,0
		C785.85,1.69,761.47,1.69,748.48,11.76z M562.47,11.79c17.39,0,34,0,51.03,0C601.63,2.26,576.99,1.21,562.47,11.79z M155.92,11.99
		c-13.25-10.49-40.27-10.16-50.8,0C121.85,11.99,138.44,11.99,155.92,11.99z M156.14,78.98c-17.37,0-33.98,0-50.99,0
		C116.45,89.48,143.11,89.56,156.14,78.98z M196.51,78.95c12.39,11.24,39.74,10,50.88,0C230.29,78.95,213.58,78.95,196.51,78.95z
		 M471.11,78.78c14.14,12.2,42.37,9.27,50.34,0C504.86,78.78,488.41,78.78,471.11,78.78z M657.16,78.88
		c12.74,10.75,39.97,10.63,51.04,0C691.25,78.88,674.58,78.88,657.16,78.88z M891.71,78.93c-17.58,0-34.26,0-51.28,0
		C851.72,89.47,877.81,89.6,891.71,78.93z M1115.04,78.97c13.01,10.6,38.11,10.52,50.67,0
		C1148.78,78.97,1132.28,78.97,1115.04,78.97z M64.74,11.96c-15.17-11.08-42.22-9.4-50.72,0C30.62,11.96,47.18,11.96,64.74,11.96z
		 M471.53,11.86c16.93,0,33.55,0,50.4,0C510.8,1.98,483.77,1.36,471.53,11.86z M982.48,11.92c-12.26-10.22-38.97-10.28-50.02,0
		C949.05,11.92,965.42,11.92,982.48,11.92z M288.17,11.68c17.16,0,33.58,0,50.67,0C324.15,1.67,302.26,1.69,288.17,11.68z
		 M379.48,78.89c15.3,11.9,41.29,9.25,50.76,0C413.5,78.89,397.04,78.89,379.48,78.89z M1166.54,11.96
		c-14.94-10.9-41.66-9.64-50.8,0C1132.36,11.96,1148.95,11.96,1166.54,11.96z M890.94,11.87c-11.67-9.94-38.22-10.48-49.94,0
		C857.67,11.87,874.14,11.87,890.94,11.87z M708.13,11.95c-12.85-10.42-40.11-10.11-50.59,0C674.26,11.95,690.79,11.95,708.13,11.95
		z M379.25,11.85c17.49,0,33.97,0,50.78,0C418.06,1.78,394.04,1.61,379.25,11.85z M1074.42,78.99c-17.12,0-33.57,0-50.45,0
		C1036.24,90.01,1062.3,89.03,1074.42,78.99z M613.42,79.01c-17.09,0-33.54,0-50.43,0C574.65,89.52,600.37,89.53,613.42,79.01z
		 M247.71,11.96c-14.97-11.01-41.05-9.51-50.3,0C213.87,11.96,230.29,11.96,247.71,11.96z M1023.43,11.67c17.08,0,33.5,0,50.58,0
		C1059.65,1.7,1037.22,1.73,1023.43,11.67z"/>
	<path class="st1" d="M496.14,36.81c-9.82,0-19.65-0.06-29.47,0.04c-2.71,0.03-4.32-0.3-4.35-3.68c-0.04-3.56,1.89-3.54,4.43-3.53
		c19.81,0.04,39.62,0.06,59.43-0.01c2.67-0.01,4.31,0.17,4.29,3.64c-0.02,3.5-1.75,3.6-4.38,3.58
		C516.12,36.76,506.13,36.81,496.14,36.81z"/>
	<path class="st1" d="M1139.89,36.81c-9.82,0-19.63-0.04-29.45,0.03c-2.59,0.02-4.4-0.09-4.43-3.59c-0.03-3.49,1.74-3.62,4.35-3.61
		c19.97,0.05,39.93,0.05,59.9,0c2.38-0.01,4.12,0.02,4.09,3.3c-0.03,3.04-0.97,3.99-4.02,3.93
		C1160.19,36.71,1150.04,36.81,1139.89,36.81z"/>
	<path class="st1" d="M1231.89,29.67c10.14,0,20.28,0.06,30.42-0.04c2.63-0.03,3.91,0.53,3.86,3.54c-0.05,2.83-0.98,3.7-3.78,3.69
		c-20.28-0.09-40.56-0.09-60.85,0c-2.7,0.01-3.81-0.67-3.82-3.6c-0.01-2.89,0.99-3.67,3.74-3.63
		C1211.61,29.75,1221.75,29.67,1231.89,29.67z"/>
	<path class="st1" d="M588.31,29.67c9.99,0,19.98,0.06,29.97-0.04c2.63-0.03,3.89,0.5,3.83,3.52c-0.05,2.79-0.84,3.73-3.7,3.71
		c-20.32-0.1-40.63-0.11-60.95,0c-3.01,0.02-3.53-1.2-3.58-3.84c-0.05-2.68,0.92-3.42,3.45-3.4
		C567.66,29.73,577.99,29.68,588.31,29.67z"/>
	<path class="st1" d="M130.17,36.81c-9.83,0-19.66-0.1-29.48,0.06c-3.02,0.05-4.04-0.83-4.05-3.91c-0.02-3.26,1.68-3.33,4.09-3.32
		c19.82,0.05,39.64,0.05,59.47,0c2.4-0.01,4.05,0.06,4.02,3.34c-0.03,3.13-1.07,3.93-4.05,3.89
		C150.16,36.72,140.17,36.81,130.17,36.81z"/>
	<path class="st1" d="M956.96,36.81c-9.64,0-19.28-0.04-28.92,0.02c-2.67,0.02-4.82,0.16-4.8-3.71c0.03-3.59,1.98-3.49,4.47-3.48
		c19.61,0.04,39.22,0.05,58.83-0.01c2.68-0.01,4.32,0.25,4.29,3.67c-0.02,3.54-1.93,3.55-4.47,3.53
		C976.57,36.78,966.77,36.81,956.96,36.81z"/>
	<path class="st1" d="M39.03,36.81c-9.98,0-19.96-0.09-29.93,0.06c-2.99,0.05-4.01-0.82-4.04-3.92c-0.02-3.29,1.71-3.31,4.07-3.3
		c19.79,0.04,39.58,0.04,59.37-0.01c2.45-0.01,4.05,0.15,4.04,3.35c-0.01,3.11-1.09,3.93-4.07,3.88
		C58.66,36.71,48.84,36.81,39.03,36.81z"/>
	<path class="st1" d="M313.2,36.81c-9.81,0-19.62-0.08-29.42,0.05c-2.85,0.04-4.2-0.52-4.18-3.77c0.02-3.07,1.36-3.48,3.93-3.47
		c19.78,0.07,39.56,0.07,59.35,0c2.7-0.01,4.24,0.28,4.21,3.69c-0.04,3.58-1.96,3.52-4.46,3.51
		C332.82,36.78,323.01,36.81,313.2,36.81z"/>
	<path class="st1" d="M773.95,36.81c-9.81,0-19.62-0.12-29.42,0.07c-3.12,0.06-3.95-0.97-3.99-3.96c-0.04-3.3,1.75-3.28,4.11-3.27
		c19.78,0.04,39.56,0.04,59.35,0c2.43-0.01,4.03,0.14,4.01,3.36c-0.01,3.2-1.25,3.89-4.14,3.85
		C793.9,36.73,783.92,36.81,773.95,36.81z"/>
	<path class="st1" d="M221.57,36.81c-9.97,0-19.94-0.08-29.91,0.05c-2.83,0.04-3.66-0.9-3.7-3.7c-0.05-2.98,1.15-3.55,3.8-3.54
		c19.94,0.08,39.88,0.08,59.81,0c2.73-0.01,3.78,0.73,3.77,3.63c-0.01,2.95-1.18,3.63-3.86,3.6
		C241.51,36.74,231.54,36.81,221.57,36.81z"/>
	<path class="st1" d="M404.42,29.67c9.97,0,19.94,0.05,29.91-0.03c2.48-0.02,3.98,0.27,3.99,3.42c0.01,3.24-1.32,3.82-4.17,3.8
		c-19.78-0.09-39.55-0.08-59.33-0.01c-2.56,0.01-3.86-0.41-3.94-3.47c-0.09-3.34,1.34-3.78,4.12-3.75
		C384.81,29.74,394.62,29.67,404.42,29.67z"/>
	<path class="st1" d="M682.52,36.81c-9.97,0-19.94-0.08-29.91,0.05c-2.79,0.04-3.7-0.83-3.73-3.66c-0.03-2.94,1.08-3.58,3.77-3.57
		c19.94,0.08,39.88,0.08,59.81,0c2.69-0.01,3.82,0.67,3.8,3.6c-0.02,2.91-1.11,3.66-3.83,3.63
		C702.46,36.74,692.49,36.81,682.52,36.81z"/>
	<path class="st1" d="M865.54,36.81c-9.97,0-19.94-0.07-29.91,0.05c-2.72,0.03-3.79-0.69-3.8-3.61c-0.01-2.88,0.98-3.64,3.73-3.63
		c19.94,0.09,39.88,0.08,59.82,0.01c2.63-0.01,3.9,0.54,3.85,3.55c-0.05,2.84-0.99,3.72-3.78,3.68
		C885.48,36.73,875.51,36.81,865.54,36.81z"/>
	<path class="st1" d="M1047.93,36.81c-9.66,0-19.33-0.08-28.99,0.05c-2.85,0.04-4.18-0.52-4.16-3.79c0.02-3.12,1.41-3.45,3.93-3.44
		c19.83,0.06,39.66,0.07,59.48,0c2.55-0.01,3.89,0.38,3.92,3.47c0.03,3.32-1.4,3.79-4.2,3.76
		C1067.93,36.74,1057.93,36.81,1047.93,36.81z"/>
	<path class="st2" d="M1140.15,53.98c10.15,0,20.3,0.09,30.45-0.05c2.8-0.04,3.72,0.81,3.74,3.65c0.02,3.01-1.25,3.53-3.88,3.52
		c-20.13-0.08-40.27-0.07-60.4-0.01c-2.48,0.01-3.98-0.22-4.02-3.4c-0.04-3.3,1.35-3.78,4.16-3.75
		C1120.18,54.05,1130.16,53.98,1140.15,53.98z"/>
	<path class="st2" d="M1048.43,61.05c-9.83,0-19.66-0.07-29.49,0.05c-2.78,0.03-4.22-0.34-4.15-3.71c0.06-3.07,1.31-3.46,3.89-3.45
		c20.16,0.08,40.32,0.08,60.48,0c2.57-0.01,3.83,0.36,3.9,3.43c0.08,3.35-1.33,3.76-4.13,3.73
		C1068.76,60.97,1058.6,61.05,1048.43,61.05z"/>
	<path class="st2" d="M956.98,61.04c-9.81,0-19.62-0.07-29.44,0.05c-2.74,0.03-4.33-0.28-4.26-3.68c0.06-3.03,1.33-3.49,3.93-3.48
		c19.96,0.08,39.91,0.09,59.87-0.01c2.8-0.01,3.71,0.81,3.74,3.66c0.03,3.06-1.31,3.53-3.91,3.5
		C976.93,60.98,966.95,61.04,956.98,61.04z"/>
	<path class="st2" d="M496.54,53.98c9.32,0,18.64-0.1,27.96,0.07c2.31,0.04,5.85-1.81,5.95,3.33c0.1,5.01-3.22,3.62-5.7,3.63
		c-18.81,0.07-37.62,0.09-56.42-0.03c-2.34-0.01-5.87,1.76-5.97-3.36c-0.1-5,3.24-3.58,5.73-3.61
		C477.56,53.92,487.05,53.98,496.54,53.98z"/>
	<path class="st2" d="M404.54,61.05c-9.83,0-19.66-0.08-29.49,0.05c-2.79,0.04-4.22-0.35-4.15-3.72c0.06-3.09,1.32-3.45,3.9-3.44
		c20.16,0.08,40.33,0.08,60.49,0c2.57-0.01,3.84,0.35,3.9,3.44c0.07,3.37-1.36,3.75-4.15,3.72
		C424.87,60.97,414.7,61.05,404.54,61.05z"/>
	<path class="st2" d="M864.93,61.04c-9.65,0-19.29-0.07-28.94,0.05c-2.73,0.03-4.26-0.27-4.17-3.68c0.08-3.01,1.21-3.49,3.84-3.48
		c19.96,0.09,39.91,0.1,59.87-0.01c2.83-0.01,3.65,0.86,3.69,3.66c0.04,3.02-1.23,3.53-3.86,3.51
		C885.22,60.98,875.08,61.04,864.93,61.04z"/>
	<path class="st2" d="M774.5,53.98c9.81,0,19.61,0.09,29.42-0.05c2.87-0.04,4.13,0.52,4.09,3.79c-0.04,3.2-1.56,3.37-4.01,3.36
		c-19.78-0.05-39.56-0.08-59.34,0.03c-2.9,0.02-4.14-0.59-4.1-3.81c0.03-3.18,1.57-3.37,4.03-3.35
		C754.55,54.02,764.52,53.98,774.5,53.98z"/>
	<path class="st2" d="M682.47,53.98c9.98,0,19.95,0.07,29.93-0.05c2.63-0.03,3.9,0.46,3.85,3.49c-0.04,2.79-0.86,3.69-3.69,3.67
		c-19.95-0.1-39.9-0.09-59.86-0.01c-2.65,0.01-3.74-0.52-3.83-3.51c-0.1-3.43,1.46-3.68,4.17-3.65
		C662.85,54.05,672.66,53.98,682.47,53.98z"/>
	<path class="st2" d="M588.47,53.98c9.98,0,19.95,0.09,29.93-0.06c2.78-0.04,3.68,0.76,3.7,3.61c0.02,2.94-1.04,3.58-3.76,3.57
		c-19.95-0.09-39.91-0.1-59.86,0c-2.78,0.01-3.73-0.76-3.74-3.62c-0.02-2.96,1.11-3.58,3.8-3.55
		C568.52,54.06,578.5,53.98,588.47,53.98z"/>
	<path class="st2" d="M313.57,53.98c9.81,0,19.61,0.09,29.42-0.05c2.87-0.04,4.13,0.52,4.09,3.79c-0.04,3.2-1.56,3.37-4.01,3.36
		c-19.78-0.05-39.56-0.08-59.34,0.03c-2.9,0.02-4.14-0.59-4.1-3.81c0.03-3.18,1.57-3.37,4.03-3.35
		C293.62,54.02,303.6,53.98,313.57,53.98z"/>
	<path class="st2" d="M221.6,61.04c-9.98,0-19.95-0.09-29.93,0.06c-2.8,0.04-3.69-0.77-3.71-3.63c-0.02-2.94,1.05-3.56,3.76-3.55
		c19.95,0.1,39.9,0.1,59.86,0c2.75-0.01,3.73,0.73,3.74,3.6c0.01,2.94-1.09,3.6-3.8,3.57C241.55,60.97,231.58,61.04,221.6,61.04z"/>
	<path class="st2" d="M130.58,61.05c-9.66,0-19.32,0.01-28.98-0.01c-2.39,0-4.92,0.74-4.97-3.42c-0.04-3.97,2.11-3.67,4.73-3.66
		c19.32,0.04,38.64,0.01,57.96,0.03c2.36,0,4.82-0.8,4.91,3.39c0.1,4.56-2.65,3.65-5.17,3.66
		C149.56,61.06,140.07,61.05,130.58,61.05z"/>
	<path class="st2" d="M39.11,53.98c9.81,0,19.61,0.05,29.42-0.04c2.49-0.02,3.95,0.25,3.99,3.38c0.05,3.28-1.3,3.79-4.14,3.77
		C48.6,61,28.82,61.02,9.04,61.08c-2.5,0.01-3.92-0.25-3.97-3.4c-0.05-3.31,1.3-3.79,4.12-3.75C19.16,54.06,29.13,53.98,39.11,53.98
		z"/>
	<path class="st2" d="M1232.02,61.04c-9.81,0-19.62-0.09-29.43,0.06c-2.89,0.04-4.15-0.56-4.12-3.8c0.04-3.17,1.56-3.36,4.02-3.35
		c19.95,0.06,39.9,0.07,59.85-0.01c2.67-0.01,3.85,0.54,3.82,3.52c-0.03,2.84-0.91,3.69-3.72,3.65
		C1252.31,60.96,1242.16,61.04,1232.02,61.04z"/>
	<path class="st2" d="M1206.53,78.86c17.44,0,33.99,0,50.79,0C1248.11,88.17,1220.27,90.79,1206.53,78.86z"/>
	<path class="st2" d="M983.1,78.96c-14.07,10.73-39.99,10.41-51.13,0C948.98,78.96,965.6,78.96,983.1,78.96z"/>
	<path class="st2" d="M12.88,78.87c17.78,0,34.46,0,51.2,0C56.81,87.47,29.29,91.38,12.88,78.87z"/>
	<path class="st2" d="M287.59,78.93c17.57,0,34.19,0,51.18,0C328.04,88.67,301.71,90.33,287.59,78.93z"/>
	<path class="st2" d="M748.52,78.93c17.57,0,34.19,0,51.18,0C788.96,88.67,762.64,90.33,748.52,78.93z"/>
	<path class="st2" d="M1206.34,11.88c13.49-10.26,39.83-10.16,51.51,0C1240.72,11.88,1223.88,11.88,1206.34,11.88z"/>
	<path class="st2" d="M748.48,11.76c12.99-10.08,37.37-10.07,51.05,0C782.39,11.76,765.74,11.76,748.48,11.76z"/>
	<path class="st2" d="M562.47,11.79c14.52-10.58,39.16-9.53,51.03,0C596.47,11.79,579.86,11.79,562.47,11.79z"/>
	<path class="st2" d="M155.92,11.99c-17.48,0-34.07,0-50.8,0C115.65,1.83,142.67,1.5,155.92,11.99z"/>
	<path class="st2" d="M156.14,78.98c-13.03,10.58-39.69,10.5-50.99,0C122.15,78.98,138.77,78.98,156.14,78.98z"/>
	<path class="st2" d="M196.51,78.95c17.07,0,33.78,0,50.88,0C236.25,88.95,208.9,90.18,196.51,78.95z"/>
	<path class="st2" d="M471.11,78.78c17.3,0,33.75,0,50.34,0C513.48,88.05,485.25,90.98,471.11,78.78z"/>
	<path class="st2" d="M657.16,78.88c17.42,0,34.09,0,51.04,0C697.13,89.51,669.9,89.64,657.16,78.88z"/>
	<path class="st2" d="M891.71,78.93c-13.9,10.68-39.99,10.54-51.28,0C857.45,78.93,874.13,78.93,891.71,78.93z"/>
	<path class="st2" d="M1115.04,78.97c17.24,0,33.74,0,50.67,0C1153.15,89.5,1128.04,89.57,1115.04,78.97z"/>
	<path class="st2" d="M64.74,11.96c-17.56,0-34.12,0-50.72,0C22.52,2.55,49.57,0.87,64.74,11.96z"/>
	<path class="st2" d="M471.53,11.86c12.25-10.5,39.27-9.88,50.4,0C505.08,11.86,488.46,11.86,471.53,11.86z"/>
	<path class="st2" d="M982.48,11.92c-17.06,0-33.43,0-50.02,0C943.51,1.65,970.22,1.7,982.48,11.92z"/>
	<path class="st2" d="M288.17,11.68c14.09-9.99,35.98-10,50.67,0C321.76,11.68,305.34,11.68,288.17,11.68z"/>
	<path class="st2" d="M379.48,78.89c17.56,0,34.02,0,50.76,0C420.76,88.14,394.78,90.79,379.48,78.89z"/>
	<path class="st2" d="M1166.54,11.96c-17.59,0-34.18,0-50.8,0C1124.87,2.32,1151.59,1.06,1166.54,11.96z"/>
	<path class="st2" d="M890.94,11.87c-16.79,0-33.27,0-49.94,0C852.72,1.38,879.27,1.93,890.94,11.87z"/>
	<path class="st2" d="M708.13,11.95c-17.34,0-33.87,0-50.59,0C668.02,1.84,695.28,1.53,708.13,11.95z"/>
	<path class="st2" d="M379.25,11.85c14.79-10.25,38.81-10.08,50.78,0C413.22,11.85,396.74,11.85,379.25,11.85z"/>
	<path class="st2" d="M1074.42,78.99c-12.12,10.04-38.18,11.03-50.45,0C1040.85,78.99,1057.3,78.99,1074.42,78.99z"/>
	<path class="st2" d="M613.42,79.01c-13.05,10.52-38.78,10.51-50.43,0C579.88,79.01,596.34,79.01,613.42,79.01z"/>
	<path class="st2" d="M247.71,11.96c-17.42,0-33.84,0-50.3,0C206.67,2.44,232.75,0.95,247.71,11.96z"/>
	<path class="st2" d="M1023.43,11.67c13.79-9.94,36.22-9.97,50.58,0C1056.93,11.67,1040.51,11.67,1023.43,11.67z"/>
</g>
</svg>
