<?xml version="1.0" encoding="utf-8"?>
<!-- Generator: Adobe Illustrator 24.1.2, SVG Export Plug-In . SVG Version: 6.00 Build 0)  -->
<svg version="1.1" id="Layer_1" xmlns="http://www.w3.org/2000/svg" xmlns:xlink="http://www.w3.org/1999/xlink" x="0px" y="0px"
	 viewBox="0 0 1078 275" style="enable-background:new 0 0 1078 275;" xml:space="preserve">
<style type="text/css">
	.st0{fill:#EB4425;}
	.st1{fill:#1D7F41;}
	.st2{fill:#E58525;}
	.st3{fill:#B7772F;}
	.st4{fill:#5D7EBB;}
	.st5{fill:#242F46;}
	.st6{fill:#A0682A;}
	.st7{fill:#0E2115;}
	.st8{fill:#1A6E3A;}
	.st9{fill:#CF3C28;}
</style>
<g>
	<path class="st0" d="M716.95,274.91c0.14-2.31,0.41-4.62,0.41-6.93c0.02-86.32,0.01-172.64,0.03-258.96c0-7.91-0.49-6.69,6.59-6.71
		c9.65-0.03,19.31,0.07,28.96,0.12c0.28,0.26,0.56,0.53,0.84,0.79c0.06,2.16,0.16,4.32,0.16,6.48c0.01,88.4,0.01,176.81,0.01,265.21
		C741.61,274.91,729.28,274.91,716.95,274.91z"/>
	<path class="st0" d="M1039.48,275.45c0.14-2.33,0.41-4.67,0.41-7c0.02-87.2,0.01-174.41,0.03-261.61c0-7.99-0.49-6.76,6.59-6.78
		c9.65-0.03,19.31,0.07,28.96,0.12c0.28,0.27,0.56,0.53,0.84,0.8c0.06,2.18,0.16,4.37,0.16,6.55c0.01,89.31,0.01,178.62,0.01,267.92
		C1064.14,275.45,1051.81,275.45,1039.48,275.45z"/>
	<path class="st1" d="M959.14,273.91c-0.04-1.83-0.13-3.66-0.13-5.49c-0.01-86.38-0.01-172.77,0-259.15c0-6.96,0.01-6.96,7.06-6.96
		c8.5,0,16.99,0.09,25.49-0.04c2.98-0.04,4.37,0.95,4.12,4.02c-0.12,1.49-0.01,2.99-0.01,4.49c0,85.72,0,171.44,0.01,257.16
		c0,2.33,0.14,4.65,0.22,6.98c-12,0-24,0-35.99,0C959.65,274.57,959.4,274.24,959.14,273.91z"/>
	<path class="st0" d="M484,274.91c0.08-2.16,0.22-4.32,0.22-6.47c0.01-86.72,0.05-173.44-0.1-260.16c-0.01-4.71,0.98-6.36,5.96-6.11
		c8.64,0.44,17.33,0.35,25.98,0.02c4.09-0.15,4.94,1.25,4.93,5.07c-0.12,43.11-0.06,86.22-0.08,129.33
		c-0.02,45.77-0.09,91.54-0.13,137.32c-0.26,0.33-0.52,0.67-0.78,1C507.99,274.91,496,274.91,484,274.91z"/>
	<path class="st2" d="M555.98,274.91c0.07-2.16,0.21-4.32,0.21-6.48c0.01-86.73,0.05-173.46-0.1-260.19
		c-0.01-4.75,1.04-6.32,5.98-6.08c8.64,0.43,17.33,0.35,25.98,0.02c4.11-0.16,4.92,1.28,4.91,5.08
		c-0.12,48.61-0.06,97.22-0.08,145.83c-0.02,40.28-0.07,80.57-0.1,120.85c-0.27,0.32-0.54,0.64-0.8,0.97
		C579.98,274.91,567.98,274.91,555.98,274.91z"/>
	<path class="st3" d="M324.04,2.51c10.82-0.07,21.63-0.1,32.45-0.23c2.33-0.03,3.4,0.85,3.29,3.2c-0.07,1.49,0,2.99,0,4.49
		c0,85.99,0,171.98,0.01,257.97c0,2.32,0.15,4.65,0.23,6.97c-12,0-24,0-35.99,0c-0.26-0.34-0.51-0.67-0.77-1.01
		c-0.04-1.83-0.13-3.65-0.13-5.48c-0.01-86.42-0.01-172.83,0-259.25c0-1.99,0.13-3.98,0.2-5.97C323.58,2.97,323.81,2.74,324.04,2.51
		z"/>
	<path class="st1" d="M82.08,274.91c-0.13-2.32-0.37-4.64-0.37-6.95c-0.02-78.74-0.01-157.49-0.03-236.23
		c0-8.16,0.04-16.32-0.27-24.47c-0.15-4,1.3-5.13,5.18-5.03c10.16,0.27,20.32,0.16,30.48,0.21c0.28,0.26,0.56,0.51,0.83,0.77
		c0.05,2.32,0.16,4.65,0.16,6.97c0.01,88.24,0.01,176.49,0.01,264.73C106.07,274.91,94.08,274.91,82.08,274.91z"/>
	<path class="st4" d="M242.77,4.13c0.49-2.89,2.79-1.79,4.36-1.81c9.15-0.09,18.32,0.18,27.46-0.15c3.99-0.14,4.55,1.3,4.54,4.82
		c-0.11,44.57-0.07,89.14-0.08,133.71c0,44.73-0.02,89.47-0.02,134.2c-12,0-24,0-35.99,0c0-88.11,0-176.21-0.01-264.32
		C243.03,8.44,242.86,6.29,242.77,4.13z"/>
	<path class="st4" d="M797.93,274.91c0-88.93,0.04-177.86-0.12-266.8c-0.01-4.81,1.11-6.16,5.96-5.96
		c9.96,0.42,19.96,0.13,29.94,0.14c0.1,2.16,0.3,4.31,0.3,6.47c0.02,61.42,0.02,122.84,0.01,184.26c-0.01,27.3-0.06,54.59-0.1,81.89
		C821.93,274.91,809.93,274.91,797.93,274.91z"/>
	<path class="st1" d="M637.97,2.44c9.98-0.04,19.97,0.11,29.94-0.22c4.29-0.14,5.28,1.43,5.25,5.44
		c-0.17,21.77-0.08,43.55-0.08,65.32c0,64.66,0,129.32,0.01,193.98c0,2.32,0.11,4.65,0.16,6.97c-0.1,0.32-0.19,0.65-0.29,0.97
		c-12,0-24,0-35.99,0c-0.01-89.24-0.01-178.49-0.01-267.73c0-1.33,0.11-2.65,0.16-3.98C637.4,2.95,637.68,2.69,637.97,2.44z"/>
	<path class="st2" d="M2.07,2.4c11.35,0,22.7,0,34.04,0c0.31,0.25,0.62,0.5,0.93,0.76c0.07,1.32,0.2,2.65,0.2,3.97
		c0.01,87.93,0.01,175.87,0,263.8c0,1.33-0.11,2.65-0.16,3.98c-12,0-24,0-35.99,0C1.09,185.32,1.08,95.74,1.08,6.16
		c0-0.99,0.09-1.99,0.14-2.98C1.5,2.92,1.79,2.66,2.07,2.4z"/>
	<path class="st0" d="M198.1,3.2c0.09,1.65,0.27,3.31,0.27,4.96c0.01,87.27,0.01,174.53,0,261.8c0,1.65-0.2,3.3-0.31,4.95
		c-12,0-24,0-35.99,0c0-88.41,0-176.82,0.01-265.23c0-2.16,0.1-4.31,0.16-6.47c0.28-0.26,0.57-0.52,0.85-0.78
		c11.33,0,22.65,0,33.98,0C197.4,2.68,197.75,2.94,198.1,3.2z"/>
	<path class="st3" d="M878.92,274.91c-0.1-1.65-0.27-3.31-0.27-4.96c-0.01-87.26-0.01-174.52,0-261.78c0-1.66,0.16-3.31,0.25-4.97
		c0.35-0.25,0.69-0.51,1.04-0.76c11.33,0,22.65,0,33.98,0c0.28,0.26,0.57,0.52,0.85,0.77c0.06,1.16,0.16,2.32,0.16,3.48
		c0,89.41-0.01,178.81-0.01,268.22C902.91,274.91,890.92,274.91,878.92,274.91z"/>
	<path class="st1" d="M403.81,273.92c0.05-2.32,0.14-4.65,0.14-6.97c0.01-85.59,0-171.19,0.01-256.78c0-2.32,0.11-4.65,0.17-6.97
		c0.29-0.25,0.59-0.51,0.88-0.76c11.33,0,22.66,0,34,0c0.29,0.25,0.58,0.51,0.87,0.76c0.06,2.32,0.17,4.65,0.17,6.97
		c0.01,85.59,0.01,171.18,0.01,256.77c0,2.32,0.09,4.65,0.14,6.97c-0.07,0.33-0.14,0.66-0.21,0.99c-12,0-24,0-35.99,0
		C403.95,274.58,403.88,274.25,403.81,273.92z"/>
	<path class="st5" d="M833.93,274.91c0.03-27.3,0.09-54.59,0.1-81.89c0.01-61.42,0.01-122.84-0.01-184.26c0-2.16-0.2-4.31-0.3-6.47
		c1.66,1.17,1.3,2.95,1.3,4.56c-0.02,89.35-0.05,178.7-0.09,268.05C834.59,274.91,834.26,274.91,833.93,274.91z"/>
	<path class="st5" d="M242.77,4.13c0.09,2.15,0.26,4.31,0.26,6.46c0.01,88.11,0.01,176.21,0.01,264.32c-0.33,0-0.67,0-1,0
		c0-87.8,0-175.61,0.02-263.41C242.07,9.04,241.59,6.5,242.77,4.13z"/>
	<path class="st6" d="M323.26,273.9c0.26,0.34,0.51,0.67,0.77,1.01c-0.33,0-0.67,0-1,0C323.11,274.57,323.19,274.23,323.26,273.9z"
		/>
	<path class="st7" d="M403.81,273.92c0.07,0.33,0.14,0.66,0.21,0.99c-0.33,0-0.67,0-1,0C403.28,274.58,403.54,274.25,403.81,273.92z
		"/>
	<path class="st7" d="M440.01,274.91c0.07-0.33,0.14-0.66,0.21-0.99c0.26,0.33,0.53,0.66,0.79,0.99
		C440.67,274.91,440.34,274.91,440.01,274.91z"/>
	<path class="st3" d="M591.98,274.91c0.27-0.32,0.54-0.65,0.8-0.97c0.07,0.32,0.13,0.65,0.2,0.97
		C592.64,274.91,592.31,274.91,591.98,274.91z"/>
	<path class="st7" d="M672.96,274.91c0.1-0.32,0.19-0.65,0.29-0.97c0.24,0.32,0.47,0.65,0.71,0.97
		C673.63,274.91,673.29,274.91,672.96,274.91z"/>
	<path class="st8" d="M959.14,273.91c0.25,0.33,0.5,0.67,0.76,1c-0.33,0-0.67,0-1,0C958.98,274.57,959.06,274.24,959.14,273.91z"/>
	<path class="st9" d="M519.99,274.91c0.26-0.33,0.52-0.67,0.78-1c0.07,0.33,0.15,0.67,0.22,1
		C520.66,274.91,520.32,274.91,519.99,274.91z"/>
	<path class="st3" d="M2.07,2.4C1.79,2.66,1.5,2.92,1.22,3.18C1.17,2.55,1.44,2.27,2.07,2.4z"/>
	<path class="st3" d="M37.05,3.15c-0.31-0.25-0.62-0.5-0.93-0.76C36.74,2.27,37.07,2.5,37.05,3.15z"/>
	<path class="st8" d="M637.97,2.44c-0.28,0.25-0.57,0.51-0.85,0.76C637.4,2.95,637.68,2.69,637.97,2.44z"/>
	<path class="st8" d="M439.88,3.2c-0.29-0.25-0.58-0.51-0.87-0.76C439.3,2.69,439.59,2.95,439.88,3.2z"/>
	<path class="st6" d="M879.93,2.43c-0.35,0.25-0.69,0.51-1.04,0.76C878.96,2.57,879.33,2.35,879.93,2.43z"/>
	<path class="st8" d="M405.01,2.44c-0.29,0.25-0.59,0.51-0.88,0.76C404.43,2.94,404.72,2.69,405.01,2.44z"/>
	<path class="st6" d="M914.76,3.21c-0.28-0.26-0.57-0.52-0.85-0.77C914.52,2.33,914.78,2.61,914.76,3.21z"/>
	<path class="st6" d="M324.04,2.51c-0.23,0.23-0.47,0.46-0.7,0.69C323.29,2.68,323.52,2.45,324.04,2.51z"/>
	<path class="st9" d="M1040.9,2.42c-0.3,0.26-0.6,0.52-0.89,0.78C1039.95,2.54,1040.26,2.3,1040.9,2.42z"/>
	<path class="st9" d="M198.1,3.2c-0.35-0.26-0.7-0.52-1.04-0.78C197.68,2.3,198.08,2.49,198.1,3.2z"/>
	<path class="st9" d="M1075.75,3.23c-0.29-0.27-0.59-0.54-0.88-0.81C1075.53,2.3,1075.81,2.59,1075.75,3.23z"/>
	<path class="st9" d="M163.08,2.42c-0.28,0.26-0.57,0.52-0.85,0.78C162.17,2.58,162.44,2.3,163.08,2.42z"/>
	<path class="st8" d="M117.91,3.2c-0.28-0.26-0.56-0.51-0.83-0.77C117.35,2.69,117.63,2.95,117.91,3.2z"/>
	<path class="st9" d="M753.78,3.21c-0.28-0.26-0.56-0.53-0.84-0.79C753.58,2.3,753.84,2.59,753.78,3.21z"/>
</g>
</svg>
