<?xml version="1.0" encoding="utf-8"?>
<!-- Generator: Adobe Illustrator 24.1.2, SVG Export Plug-In . SVG Version: 6.00 Build 0)  -->
<svg version="1.1" id="Layer_1" xmlns="http://www.w3.org/2000/svg" xmlns:xlink="http://www.w3.org/1999/xlink" x="0px" y="0px"
	 viewBox="0 0 840 453.71" style="enable-background:new 0 0 840 453.71;" xml:space="preserve">
<style type="text/css">
	.st0{fill:#1D7F41;}
	.st1{fill:#EB4425;}
	.st2{fill:#B7772F;}
	.st3{fill:#5D7EBB;}
	.st4{fill:#E58525;}
	.st5{fill:#E5D9CC;}
	.st6{fill:#3A4F75;}
	.st7{fill:#122F1B;}
	.st8{fill:#391510;}
	.st9{fill:#885924;}
</style>
<g>
	<path class="st0" d="M156.19,0.1c0.08,1.99,0.22,3.99,0.22,5.98c0.01,147.06,0.01,294.13,0,441.19c0,8.58,0.56,7.48-7.49,7.5
		c-16.16,0.05-32.32-0.17-48.48,0.13c-4.84,0.09-6.1-1.34-6.1-6.13c0.13-103.76,0.1-207.52,0.1-311.28c0-43.64,0-87.27-0.01-130.91
		c0-2.16-0.14-4.32-0.22-6.48C114.87,0.1,135.53,0.1,156.19,0.1z"/>
	<path class="st1" d="M293.13,0.1c0.11,1.99,0.31,3.97,0.31,5.96c0.01,147.39,0.02,294.77,0,442.16c0,7.74,0.73,6.53-6.69,6.56
		c-16.99,0.06-33.98-0.07-50.97,0.09c-3.27,0.03-4.59-0.9-4.22-4.18c0.17-1.48,0.03-2.99,0.03-4.49c0-146.39,0-292.77-0.02-439.16
		c0-2.31-0.27-4.62-0.41-6.94C251.81,0.1,272.47,0.1,293.13,0.1z"/>
	<path class="st0" d="M704.95,0.1c-0.08,2.49-0.22,4.99-0.22,7.48c-0.01,146.55-0.01,293.1-0.02,439.66c0,8.63,0.59,7.52-7.45,7.54
		c-15.99,0.05-31.98,0.02-47.97,0.01c-6.42,0-6.43-0.01-6.43-6.54c0-132.9,0-265.79-0.01-398.69c0-16.15-0.08-32.3-0.13-48.46
		c0.08-0.34,0.17-0.67,0.25-1.01C663.64,0.1,684.3,0.1,704.95,0.1z"/>
	<path class="st2" d="M568.01,0.1c-0.08,2.49-0.23,4.98-0.23,7.48c-0.01,146.22-0.01,292.43-0.01,438.65c0,2.5-0.05,4.99-0.08,7.49
		c-0.24,0.31-0.48,0.62-0.72,0.92c-19.15,0.05-38.3,0.06-57.45,0.19c-2.78,0.02-4.03-0.85-3.77-3.69c0.12-1.32,0.01-2.66,0.01-3.99
		c0-146.86,0-293.72,0.01-440.58c0-2.16,0.18-4.31,0.27-6.47C526.7,0.1,547.35,0.1,568.01,0.1z"/>
	<path class="st3" d="M429.98,454.66c-20.27,0-40.53,0-60.8,0c-0.03-2.5-0.08-4.99-0.08-7.49c0-149.02,0-298.05,0-447.07
		c20.32,0,40.65,0,60.97,0c0,149.02,0,298.05,0,447.07C430.07,449.66,430.01,452.16,429.98,454.66z"/>
	<path class="st1" d="M839.9,454.79c-18.15,0-36.31-0.17-54.46,0.12c-4.63,0.07-5.68-1.25-5.68-5.75
		c0.12-147.19,0.1-294.38,0.09-441.57c0-2.16-0.09-4.32-0.14-6.49c0.07-0.34,0.14-0.67,0.21-1.01c18.47,0,36.95,0.11,55.42-0.09
		c3.65-0.04,4.66,0.65,4.66,4.53c-0.13,119.47-0.1,238.94-0.1,358.41C839.9,393.56,839.9,424.17,839.9,454.79z"/>
	<path class="st4" d="M19.25,0.1c0.06,1.83,0.16,3.66,0.16,5.49c0.01,147.55,0.01,295.11-0.01,442.66c0,7.66,0.94,6.44-6.66,6.53
		c-3.83,0.04-7.66-0.09-11.48-0.15c0-151.51,0-303.02,0-454.53C7.25,0.1,13.25,0.1,19.25,0.1z"/>
	<path class="st5" d="M1.25,0.1c0,151.51,0,303.02,0,454.53c-0.33,0.06-0.67,0.11-1,0.17c0-150.07,0-300.13,0.06-450.2
		C0.32,3.13-0.84,1.21,1.25,0.1z"/>
	<path class="st6" d="M369.1,0.1c0,149.02,0,298.05,0,447.07c0,2.5,0.06,4.99,0.08,7.49c-2.1-1.9-1.03-4.38-1.03-6.55
		c-0.06-149.34-0.06-298.67-0.06-448.01C368.43,0.1,368.76,0.1,369.1,0.1z"/>
	<path class="st6" d="M429.98,454.66c0.03-2.5,0.08-4.99,0.08-7.49c0-149.02,0-298.05,0-447.07c0.33,0,0.67,0,1,0
		c0,149.34,0.01,298.67-0.06,448.01C431.01,450.27,432.08,452.76,429.98,454.66z"/>
	<path class="st7" d="M642.98,0.1c-0.08,0.34-0.17,0.67-0.25,1.01c-0.25-0.34-0.5-0.67-0.75-1.01C642.31,0.1,642.65,0.1,642.98,0.1z
		"/>
	<path class="st8" d="M779.92,0.1c-0.07,0.34-0.14,0.67-0.21,1.01c-0.26-0.34-0.53-0.67-0.79-1.01C779.26,0.1,779.59,0.1,779.92,0.1
		z"/>
</g>
</svg>
