<svg id="Layer_1" data-name="Layer 1" xmlns="http://www.w3.org/2000/svg" viewBox="0 0 2046.61 1720.67"><defs><style>.cls-1{fill:#ad6528;}.cls-2{fill:#176031;}.cls-3{fill:#b13325;}.cls-4{fill:#455e8d;}.cls-5{fill:#885924;}.cls-6{fill:#e58525;}.cls-7{fill:#1d7f41;}.cls-8{fill:#eb4425;}.cls-9{fill:#5d7ebb;}.cls-10{fill:#b7772f;}.cls-11{fill:#fff;}</style></defs><path class="cls-1" d="M9.36,1720.44,9.27,1718l141.2-.17.26,2.65Z"/><path class="cls-2" d="M466.12,1717.82l.18,2.62H324.93c.05-.87.11-1.74.16-2.61Z"/><path class="cls-3" d="M640.5,1720.44l.12-2.58,141.09,0,.16,2.6Z"/><path class="cls-4" d="M956.07,1720.44c.09-.89.18-1.77.26-2.66l141.2.06-.09,2.6Z"/><path class="cls-5" d="M1271.64,1720.44l.27-2.65,141.15.16a4.78,4.78,0,0,1,0,2.49Z"/><path class="cls-2" d="M1902.78,1720.44c.1-.9.21-1.79.31-2.68l141.24.28a6.08,6.08,0,0,1-.18,2.4Z"/><path class="cls-6" d="M150.47,1717.79,9.27,1718c-.24-5-.69-10.06-.69-15.09q0-841.54,0-1683.1C8.58.37,6.89,3.09,25.47,3c38.28-.12,76.56.17,114.83-.2,8-.07,11.92,1.88,10.67,10.43a53.07,53.07,0,0,0-.05,7.57q0,840.92,0,1681.84C150.9,1707.71,150.62,1712.75,150.47,1717.79Z"/><path class="cls-7" d="M466.55,1698.9c0,6.31-.28,12.61-.43,18.92h-141c-.14-5-.41-10.09-.41-15.13q0-840.51,0-1681c0-21-2.12-18.56,19.17-18.63,34.92-.11,69.84,0,104.77,0,17.93,0,17.94,0,17.94,17.39"/><path class="cls-8" d="M781.71,1717.84l-141.09,0c-.18-4.62-.51-9.24-.52-13.85q0-842.13,0-1684.26c0-19.3-2-16.66,16.81-16.73,38.27-.13,76.55.18,114.82-.2,8.2-.09,11.72,2.25,10.6,10.61-.39,2.89-.06,5.88-.06,8.83q0,839.6,0,1679.21C782.26,1706.92,781.9,1712.38,781.71,1717.84Z"/><path class="cls-9" d="M1097.53,1717.84l-141.2-.06c-.15-4.61-.43-9.23-.43-13.85q0-842.23,0-1684.45C955.93.22,953.29,3.1,972.72,3c38.28-.16,76.57.16,114.84-.21,8-.07,11.9,1.9,10.7,10.45-.41,2.89-.06,5.88-.06,8.83q0,839.7,0,1679.4C1098.17,1706.94,1097.76,1712.39,1097.53,1717.84Z"/><path class="cls-10" d="M1413.06,1718l-141.15-.16c-.15-5.46-.42-10.93-.42-16.39q0-839.78,0-1679.56c0-3.37.25-6.75,0-10.1-.56-6.47,2-8.85,8.66-8.82q62.48.33,125,0c6.69,0,9.08,2.68,8.66,9-.22,3.35,0,6.73,0,10.09q0,839.79,0,1679.56C1413.66,1707,1413.27,1712.49,1413.06,1718Z"/><path class="cls-11" d="M1728.36,3.47c0,5.89-.14,11.78-.14,17.67V1697a70.25,70.25,0,0,0,0,8.83c1.22,9.33-2.47,12.42-12,12.32-42.91-.48-85.82-.27-128.74-.3-.14-4.62-.4-9.24-.4-13.86q0-842.84-.31-1685.67c0-12.35,2.36-16.08,15.39-15.72C1644.25,3.7,1686.32,3.28,1728.36,3.47Z"/><path class="cls-7" d="M2044.33,1718l-141.24-.28c-.12-5.46-.36-10.93-.36-16.4q0-839.67,0-1679.34c0-21.24-2.47-18.9,18.73-19,36.18-.11,72.37.49,108.53-.31,12.5-.28,15.26,4,15.23,15.8q-.59,202-.25,404,0,638.28,0,1276.56C2045,1705.44,2044.55,1711.74,2044.33,1718Z"/></svg>