<?xml version="1.0" encoding="utf-8"?>
<!-- Generator: Adobe Illustrator 24.1.2, SVG Export Plug-In . SVG Version: 6.00 Build 0)  -->
<svg version="1.1" id="Layer_1" xmlns="http://www.w3.org/2000/svg" xmlns:xlink="http://www.w3.org/1999/xlink" x="0px" y="0px"
	 viewBox="0 0 4081.9 1881.3" style="enable-background:new 0 0 4081.9 1881.3;" xml:space="preserve">
<style type="text/css">
	.st0{fill:#FFFFFF;}
	.st1{fill:#EB4425;}
	.st2{fill:#1D7F41;}
	.st3{fill:#E48425;}
	.st4{fill:#E58525;}
	.st5{fill:#5D7EBB;}
	.st6{fill:#ED465F;}
	.st7{fill:#EE465F;}
	.st8{fill:#5D7DBA;}
	.st9{fill:#5C7DBA;}
	.st10{fill:#5C7DB9;}
	.st11{fill:#5C7CB9;}
	.st12{fill:#E58625;}
	.st13{fill:#5C7EBC;}
	.st14{fill:#5C7DB7;}
	.st15{fill:#5F7DBB;}
	.st16{fill:#5B7FBB;}
	.st17{fill:#B7772F;}
</style>
<g>
	<path class="st0" d="M806.3,730.7c195.2,4.5,346.4,91.3,460,247.5c42.2,58,42.1,118.1,4.1,178.7
		c-45.4,72.2-110.9,121.9-183.3,163.8c-89.2,51.6-183.1,90.3-288.4,83.3c-188.3-12.5-341.5-90.7-451.3-248
		c-41.4-59.3-43.6-118.5-4.4-178.2c84.1-128,200.3-209.3,352.3-236.5C731.9,734.7,768.6,729.5,806.3,730.7z M803.6,777
		c-160.2,1-288.6,130.4-288,290.4c0.5,159.5,130.4,287.1,291.4,286.4c160.2-0.7,287.3-129.7,286.5-290.9
		C1092.7,904.6,962.3,776,803.6,777z"/>
	<path class="st1" d="M333.1,765.5c-9.4-43.6-4.2-79.6,19.8-115.1c95.5-141.3,228.7-218.8,396.6-237
		c186.9-20.2,342.4,45.5,469.3,181.1c34.6,37,62.6,79.3,70.8,131.4c2.3,14.2,0.3,28.2-1.8,46.5c-18.1-15-34-28.3-50.1-41.5
		c-88.7-72.7-184.1-133.6-297.5-160c-145-33.8-281.8-8-412.3,60.1C458.4,667.3,395.6,713.7,333.1,765.5z"/>
	<path class="st2" d="M1458.5,1093c0.7-34.4,30-77.7,83.4-103.4c86.7-41.7,174.4-81.2,261.7-121.7c6.4-3,12.8-6.2,19.4-8.7
		c4.1-1.6,8.7-5.7,13-1.7c4.2,4,1,8.7-0.5,13.1c-33.1,100.3-64.7,201-99.8,300.6c-22.1,62.9-92.9,100.9-155.8,88.6
		C1504.9,1245.2,1458.5,1191.5,1458.5,1093z"/>
	<path class="st2" d="M2189.8,853.1c39.9,12.5,71.4,30.5,104.1,45.2c66.2,29.8,131.8,61,197.7,91.5c53.9,25,89.3,87.7,81.8,145.4
		c-8,62-56.3,112.7-117.6,123.4c-68.9,12-136.3-21.8-159.1-85.9C2259.7,1068.8,2226.4,963.5,2189.8,853.1z"/>
	<path class="st3" d="M2016.4,1051.3c-54.5,0-109-0.4-163.5,0.2c-13.9,0.2-19-3.5-19.3-18.4c-1.4-64.7-1.9-64.7,62.3-64.7
		c94,0,188,0.3,282-0.3c15.9-0.1,21.6,3.1,21.6,20.5c-0.2,62.8,0.5,62.8-62.2,62.8C2096.9,1051.4,2056.7,1051.4,2016.4,1051.3z"/>
	<path class="st4" d="M2198.4,1153.8c-0.2,22.7,7.9,51.3-2.8,66.6c-10.7,15.2-41.1,4.7-62.7,4.8c-92.2,0.7-184.4-0.1-276.6,0.6
		c-16,0.1-23-3.7-21.5-20.8c1.4-15.6,0.1-31.5,0.4-47.3c0.1-5.8-2.1-13.5,8-13.8c3.5,15.7,16.2,9.6,25.1,9.6
		C1978.3,1153.9,2088.4,1153.8,2198.4,1153.8z"/>
	<path class="st5" d="M3267.7,679.5c4.9-15.8,9.5-29.9,13.4-44.1c2.8-10.4,9.4-12.5,19.4-12.5c122.4,0.3,244.7,0.4,367.1-0.2
		c15.2-0.1,19.6,5.6,18,19.3c-0.6,4.7-0.7,9.5,0,14.2c2.7,18.1-3.7,24-22.9,23.8c-81.3-1.1-162.6-0.5-243.9-0.5
		C3369,679.5,3319.4,679.5,3267.7,679.5z"/>
	<path class="st4" d="M2176.4,1326.7c-23.6,46.2-59.3,75.8-107.4,90.3c-77,23.1-164-10.5-201.6-76.7c-6.4-11.3-7.3-16.2,8.5-16.1
		c97.2,0.4,194.4,0.3,291.6,0.4C2169.6,1324.6,2171.7,1325.5,2176.4,1326.7z"/>
	<path class="st6" d="M2008.7,688.9c-0.3,46-38.5,84.3-84.3,84.5c-46.4,0.2-86.2-40.3-85-86.4c1.2-46.1,40-83.7,85.7-83.1
		C1971.1,604.5,2009,643,2008.7,688.9z"/>
	<path class="st7" d="M2199.1,689.3c-0.4,46-38.6,84-84.6,84.2c-45.4,0.1-84.4-38.7-84.7-84.3c-0.4-46.8,39.2-86,86.1-85.2
		C2162,604.7,2199.4,643.1,2199.1,689.3z"/>
	<path class="st4" d="M1860.5,877.5c21.8-57.3,94.9-101.7,161.5-97.2c61.2,4.1,109.7,31,143.5,83c6.4,9.9,8.7,17-8,16.9
		c-97.8-0.4-195.5-0.3-293.3-0.5C1863,879.7,1861.8,878.3,1860.5,877.5z"/>
	<path class="st8" d="M3495.5,561.5c-56.1,0-112.3-0.4-168.4,0.3c-15.9,0.2-20.9-2.6-15.1-19.8c12.1-35.8,11.1-36.2,49.6-36.2
		c100.4,0,200.8,0.9,301.1-0.7c26-0.4,22.7,13.5,22.7,29.5c0,15.2,2.8,28.5-21.6,27.6C3607.8,560.2,3551.6,561.5,3495.5,561.5z"/>
	<path class="st5" d="M3080.2,627.6c6.1,16,12.2,32.1,19.8,51.9c-10.6,0-18.7,0-26.9,0c-118.2,0-236.4,0-354.7,0
		c-31.3,0-31.4,0-31.1-31.1c0.1-5.5,0.6-11,0.9-16.5c8.5-5.5,18.1-4.6,27.6-4.6c75,0,150.1-1.5,225.1,0.6
		c44.4,1.3,89.5-9.6,133.3,6.4C3075.2,634.6,3078.1,629.9,3080.2,627.6z"/>
	<path class="st8" d="M3186.6,917.8c-51.3,0-100.4-2.2-149.1,1.3c-14.2,1-19.2,0.3-40.5,0.1c-19.5,0.6-35.8-1.6-54-1.4
		c-17.4,0.2-34.8,0-52.2,0c-17.4,0-34.8,0.5-52.2-0.2c-9-0.4-23.5,5.1-26-4.2c-3.9-14.7-1.9-31.3-0.5-46.9c0.6-6.6,9-4.8,14.2-4.8
		c109.1-0.1,218.3,0,327.4-0.2c8.1,0,13.7,2.2,16.4,10.1C3175.4,886.3,3180.6,900.9,3186.6,917.8z"/>
	<path class="st8" d="M2869.9,561.5c-54.5,0-109-0.6-163.4,0.4c-16,0.3-19.7-5-19.4-20.1c0.6-35.9-0.2-36,36.6-36c60,0,120,0,180,0
		c37.1,0,74.2,0,111.3,0c17.8,0,43.6,33.6,38.9,50.6c-2.5,9-10.5,4.8-15.8,4.8C2982.1,561.7,2926,561.5,2869.9,561.5z"/>
	<path class="st8" d="M3378.5,861.7c52.1,0,104.1,0.6,156.1-0.3c16.2-0.3,23.8,4.1,21.1,21c-0.5,3.1-0.5,6.4,0,9.4
		c3.2,19.8-2.8,27.7-25,26.6c-44.1-2-88.3-1-132.5-0.5c-17.6,0.2-28.6,1-52.7,0.6c-22.9,0-44.3-0.7-66.4-0.7s-44.3-1.4-66.2,0.4
		c-22.8,1.9-23-5.9-17.7-25c6.6-24.2,17.3-33.8,43.7-32.3C3285.3,863.5,3331.9,861.7,3378.5,861.7z"/>
	<path class="st8" d="M2839.1,1275.9c-46.5,0-93.1-0.7-139.6,0.4c-16.1,0.4-21.9-3.4-21.6-20.6c0.7-39.6-0.2-39.6,40-39.6
		c86.8,0,173.6,0.4,260.3-0.4c16.9-0.2,23.5,3.1,22.9,21.8c-1.2,38.5-0.1,38.5-39,38.4C2921.1,1275.8,2880.1,1275.9,2839.1,1275.9z"
		/>
	<path class="st5" d="M3142,802.6c-66.6,0-132.8,0-199,0c-37.9,0-75.9-0.7-113.8,0.3c-14.7,0.4-18.6-4-18.6-18.6
		c0.2-38.5-0.6-38.5,38.6-38.5c81.4,0,162.8,0.9,244.1-0.6c23.2-0.4,37.6,4,41.3,28.8C3136.1,783.2,3142.6,791.1,3142,802.6z"/>
	<path class="st5" d="M3532.4,1214.8c45,0,90,0.6,135-0.3c15.9-0.3,24,3.3,21.2,20.6c-0.6,3.8-0.6,8,0,11.8
		c3.4,20.2-3.4,26.6-25.1,26.3c-90-1.4-180-1-270-0.2c-17,0.2-25.6-3.2-22.3-21.8c0.8-4.6,0.7-9.5,0-14.2
		c-2.6-17.1,3-23.3,21.5-22.7C3439.2,1215.8,3485.9,1214.8,3532.4,1214.8z"/>
	<path class="st5" d="M3529.7,1396.8c-45.8,0-91.6-0.6-137.3,0.3c-16.1,0.3-24-3.6-21.1-20.7c0.1-0.8,0-1.6,0-2.4
		c-0.2-35.4-0.2-35.3,34.2-35.3c85.2,0,170.5,0.9,255.7-0.6c22.9-0.4,29.3,7.2,26.1,27.8c-0.5,3.1-0.5,6.4,0,9.4
		c3.2,18.7-5.8,22.2-22.7,21.8C3619.7,1396.1,3574.7,1396.8,3529.7,1396.8z"/>
	<path class="st5" d="M2981.9,1343.7c14.3-3.8,19,1.1,19.1,16.3c0.1,40.5,0.8,40.5-38.6,40.5c-86.6,0-173.2-0.5-259.8,0.4
		c-18.2,0.2-26.4-4.1-23.5-23.2c1-6.2,0.7-12.6,0.1-18.8c-1.2-12.1,3.4-17.4,15.9-16.4c11.7,0.9,23.6,0.8,35.3,1.2
		c12.6,15,25.3,14.9,37.9,0c58.5,0,117.1,0,175.6-0.1C2956.6,1358.7,2969.3,1358.6,2981.9,1343.7z"/>
	<path class="st5" d="M3390.6,802.7c-47.4,0-94.8-0.5-142.2,0.3c-16.1,0.3-23-1-16-20.2c13.3-36.3,12.1-36.7,51-36.7
		c83.7,0,167.4,0.6,251.1-0.5c18.4-0.2,22.4,5.3,21.9,22.6c-1.1,34.5-0.2,34.5-35.5,34.5C3477.5,802.7,3434.1,802.7,3390.6,802.7z"
		/>
	<path class="st5" d="M3329.5,1012.4c-5.3,25.7-18.4,33.7-45.8,32.6c-65.5-2.4-131.2-2.4-196.7,0c-27.1,1-39.4-7-45.8-33.1
		c-6.7-27.4-8.7-27,19.9-27c85.3,0,170.7-0.2,256,0.3c5.3,0,16.4-0.1,16.3,8.1"/>
	<path class="st9" d="M3292,1102.3c0.2,3.5,0.6,5.1,0.2,6.5c-15.5,53.5-15.5,53.5-70.9,53.5c-32.4,0-64.9-1.7-97.2,0.6
		c-23.4,1.7-33.1-6.9-39.3-28.7c-9.1-32.3-10.6-31.9,22.9-31.9C3169.1,1102.3,3230.6,1102.3,3292,1102.3z"/>
	<path class="st10" d="M2901.1,1044.2c-25.3,0-50.6-0.8-75.8,0.3c-15.8,0.7-22.6-3.1-22-20.5c1.5-47.2-4.5-38.6,38.7-39.1
		c45.8-0.5,91.6,0.5,137.3-0.4c16-0.3,22,3.7,21.7,20.9c-0.8,38.8,0.2,38.9-38.4,38.8C2942.1,1044.2,2921.6,1044.2,2901.1,1044.2z"
		/>
	<path class="st9" d="M3466,1157.6c-25.2,0-50.4-0.9-75.6,0.3c-16.1,0.8-19.6-5.3-19.4-20.3c0.4-40-0.3-40,39.7-40
		c43.3,0,86.6,0.6,129.9-0.3c15.5-0.3,22.7,2.6,22,20.3c-1.8,48.8,5.2,38.9-39.9,39.9C3503.8,1158,3484.9,1157.7,3466,1157.6z"/>
	<path class="st5" d="M3465.9,1040.1c-26.1,0-52.2-0.5-78.3,0.2c-11.7,0.3-16.4-2.4-16.7-15.5c-1.1-42.3-1.7-42.3,39.7-42.3
		c43.5,0,87,0.7,130.4-0.3c16-0.4,24.1,3.2,21.4,20.6c-0.8,5.4-0.8,11.1,0,16.6c2.4,16.4-3.7,22.1-20.6,21.2
		C3516.6,1039.1,3491.2,1040.1,3465.9,1040.1z"/>
	<path class="st5" d="M2903.4,1101.3c26.8,0,53.6,0.7,80.3-0.3c13.4-0.5,17.2,3.9,17.3,17.3c0.3,40.7,0.9,40.7-38.6,40.7
		c-46.5,0-92.9-0.7-139.4,0.3c-15.3,0.4-22.1-3.8-21.2-17.4c0.2-2.7,0.3-5.4,0.2-8.2c-0.1-3.7-0.2-6.9,0-10.2c0.1-2.6,0-5.1-0.1-7.7
		c-0.6-12,5.8-15.4,18.9-14.9C2848.2,1102.1,2875.8,1101.3,2903.4,1101.3z"/>
	<path class="st11" d="M3184.4,1225.7c6.3,0,12.7-0.7,18.9,0.1c14.4,1.9,36.7-7.5,41.4,4.3c5.6,14.2-9.4,31.7-14.6,48
		c-2.7,8.3-9,7.5-15.2,7.5c-11.1,0-22.1,0-33.1,0c-46.7,0-46.2-0.2-59.2-46.2c-3.2-11.4-0.8-13.9,9.9-13.7
		C3149.6,1225.9,3167,1225.7,3184.4,1225.7z"/>
	<path class="st12" d="M2198.4,1153.8c-110.1,0-220.1,0.1-330.2-0.3c-8.9,0-21.6,6.1-25.1-9.6c114.2-0.4,228.3-0.7,342.4-1.1
		C2192.9,1142.8,2200.6,1142.6,2198.4,1153.8z"/>
	<path class="st14" d="M3080.2,627.6c-2.1,2.3-5,7-6.1,6.6c-43.8-15.9-88.9-5.1-133.3-6.4c-75-2.1-150-0.6-225.1-0.6
		c-9.5,0-19-0.9-27.6,4.6c-1.4-8.2,3.7-8.9,9.9-8.9c124.9,0.1,249.7,0.1,374.6,0.3C3075.2,623.3,3077.7,626.1,3080.2,627.6z"/>
	<path class="st15" d="M3181.5,1341.8c7.9,2.9,21.6-3.4,18.4,9.5c-3.3,13.8-4.4,37.9-18.8,37.5c-15.7-0.4-15.9-24.8-18-38.8
		C3160.9,1335.3,3177.1,1348.1,3181.5,1341.8z"/>
	<path class="st16" d="M2981.9,1343.7c-12.7,14.9-25.3,15-37.9-0.1C2956.6,1343.7,2969.3,1343.7,2981.9,1343.7z"/>
	<path class="st16" d="M2768.4,1343.7c-12.7,14.9-25.3,15-37.9,0C2743.1,1343.7,2755.8,1343.7,2768.4,1343.7z"/>
	<path class="st17" d="M803.6,777c158.7-1,289.1,127.6,289.9,285.8c0.8,161.2-126.3,290.3-286.5,290.9
		c-161,0.7-290.9-126.9-291.4-286.4C515,907.4,643.4,777.9,803.6,777z M936.1,1067.8c0.2-70.4-57-127.7-128.1-128.3
		c-72.1-0.6-131.3,57-131.1,127.5c0.2,67.1,61.9,132.4,126.7,133.9C870.1,1202.4,935.9,1136.3,936.1,1067.8z"/>
</g>
</svg>
