<svg id="Layer_1" data-name="Layer 1" xmlns="http://www.w3.org/2000/svg" viewBox="0 0 2415.24 1927.56"><defs><style>.cls-1{fill:#030303;}.cls-2{fill:#171717;}.cls-3{fill:#fdfdfd;}.cls-4{fill:#fefefe;}.cls-5{fill:#fafafa;}.cls-6{fill:#f3f2f2;}.cls-7{fill:#f9f8f8;}.cls-8{fill:#e84325;}.cls-9{fill:#f7f6f5;}.cls-10{fill:#edeceb;}.cls-11{fill:#dbd9d9;}.cls-12{fill:#cdcbcb;}.cls-13{fill:#b0afaf;}.cls-14{fill:#454545;}.cls-15{fill:#656565;}.cls-16{fill:#7e7e7e;}.cls-17{fill:none;stroke:#fff;stroke-miterlimit:10;stroke-width:0.5px;}.cls-18,.cls-19,.cls-20,.cls-21,.cls-22,.cls-23,.cls-24,.cls-25,.cls-26,.cls-27,.cls-28{font-size:24px;fill:#fff;}.cls-18{font-family:IBMPlexMono-Thin, IBM Plex Mono;}.cls-18,.cls-19,.cls-24,.cls-25{font-weight:200;}.cls-19{font-family:IBMPlexMono-ExtraLight, IBM Plex Mono;}.cls-20{font-family:IBMPlexMono-Light, IBM Plex Mono;}.cls-20,.cls-26{font-weight:300;}.cls-21{font-family:IBMPlexMono-Bold, IBM Plex Mono;font-weight:700;}.cls-22{font-family:IBMPlexMono-SemiBold, IBM Plex Mono;font-weight:600;}.cls-23{font-family:IBMPlexMono-Medium, IBM Plex Mono;font-weight:500;}.cls-24{font-family:IBMPlexMono-ThinItalic, IBM Plex Mono;}.cls-24,.cls-25,.cls-26,.cls-27{font-style:italic;}.cls-25{font-family:IBMPlexMono-ExtraLightItalic, IBM Plex Mono;}.cls-26{font-family:IBMPlexMono-LightItalic, IBM Plex Mono;}.cls-27{font-family:IBMPlexMono-Italic, IBM Plex Mono;}.cls-28{font-family:IBMPlexMono-Regular, IBM Plex Mono;}</style></defs><path class="cls-1" d="M0,.22Q1202.26.22,2404.55,0c8.69,0,11,1.3,11,10.62q-.47,691.92-.27,1383.83c-5.26,0-10.52-.06-15.79-.06H201.89a59.15,59.15,0,0,1-6.66,0c-4.54-.52-7,1.4-9.81,5.17-19.11,25.82-54.07,26.69-73.74,1.6-4.25-5.41-8.33-6.92-14.7-6.85-27.74.29-55.51-.42-83.23.39-10.87.32-14-2.05-14-13.62Q.3,768.33.05,155.62.05,77.92,0,.22ZM1241,1152.67c-1.68-.21-2.35.44-1.81,2.12l-.4,4.41c-6.93-1.55-10.91,1-10.42,8.32.43,6.62,4.13,9,10.56,6.47C1247.3,1167.63,1243.7,1160.11,1241,1152.67Zm725.69,11.15c4.81,1.67,6.84,5.51,8,10.53a48.45,48.45,0,0,0,1-13.83c-.11-2.29,1.53-5.91-2-6.46-2.87-.46-3.41,3.15-4.69,5.22-3.41,0-3.84-10.61-7.87-3.57-2.74,4.8-2.67,12.79,1,19.34C1967,1171.67,1962.08,1166.18,1966.65,1163.82Zm-361.85,3.4c7,8.45,4.57-4.73,7.44-3.93,4.47,3-.78,9.32,5.33,11.37,2.4-5.05-1.65-11.5,5.26-14.75-7.65-2.76-12.65.74-17.81,3.57-2.19-5.38-6.32-5.82-10.67-3.43s-3.74,7.12-2.42,10.85c1.72,4.89,6.19,4.39,10.29,3.4a2.65,2.65,0,0,0,2-3.09c-2.47-1.75-5.62,3-8.1-1.54C1598.29,1166.53,1602.33,1169.13,1604.8,1167.22Zm388.71.49c4.25-1.56,3.6,2.37,4.68,4.25,2.47,4.32,6.33,2.27,9.81,2.46,2.49.14,3.27-.86,3.28-3,0-6.19,0-12.39,0-18.58-3.2,8.47-15.8,4.66-16.12,14.59-2-7.54-6.2-11-12.39-7.41-4.69,2.71-4.9,8.49-1.37,12.43,3.77,4.21,8.33,4,11.46-1.58C1993.08,1169.82,1993.3,1168.77,1993.51,1167.71ZM1838.07,295.08c1.49.3,2.13-.22,1.7-1.77l-.12-28.92c.44-1.47-.07-2-1.55-1.56l-53.3-.13q-100.42-.21-200.85-.45c-3.49,0-6.17.52-8.54,3.71-6.59,8.85-12.24,18-14.76,29.57h53.92c2.53,0,4.8.19,6.66-2.56,12.87-19,33.09-23.52,53.81-26.24,36.46-4.79,73.14-1.62,109.71-2.23l.54,28.81c-.45,1.54.19,2.07,1.69,1.77Zm-336.38,757.58H1195.23c-19.16,0-18.83,0-19,19,0,6.72,1.54,8.85,8.53,8.73,24.76-.44,49.53-.17,74.29-.17,17.69,0,17.68,0,19.26-17.85.17-2-.91-4.91,2.36-5.17,2.73-.21,3.21,2.6,4.17,4.44,2,3.91,4,7.87,5.73,11.9,2.18,5,5.56,6.82,11.21,6.8,59.51-.2,119-.13,178.52-.1,3.76,0,7,0,9.4-4C1494.1,1069.09,1498.38,1061.93,1501.69,1052.66Zm275.43,27.61h77.62c18.7,0,24.63-4.38,31.13-22.29,1.38-3.8,1.18-5.51-3.3-5.33-43.08,1.79-86.36-3.78-129.31,3.3-9.57,1.58-19.48,2.49-28.68.3-17.16-4.1-34.38-3.55-51.68-3.58q-38.25,0-76.52,0c-18.4,0-18,0-18.33,18.6-.13,7.37,2,9.36,9.22,9.17,18.47-.49,37-.1,55.45-.2,7,0,15.28,1.79,20.52-1.35,4.59-2.75,1-11.59,1.67-17.69.19-1.72-.46-4,2-4.45,2.07-.41,3.4,1,4.29,2.73a87.7,87.7,0,0,1,4.46,8.88c3.65,9.57,10.16,12.5,20.5,12.19C1723.13,1079.73,1750.13,1080.27,1777.12,1080.27Zm262.52-21.74c4.64,2.15,5.89,6.25,7.54,9.78,4.17,8.91,10.1,12.39,20.63,12.26,55.77-.65,111.55-.28,167.33-.35,4.25,0,9.1,1.48,12.2-3.11,5.07-7.5,11-14.55,13-24.45-28.64,0-56.69.11-84.74-.08a33.47,33.47,0,0,0-15.75,3.86c-18.73,9.35-39.77,14.42-58.93,7.52-37.93-13.66-76.57-11-115.31-11.29h-2.21c-19.23,0-18.71,0-19.13,18.93-.18,8,3,9,9.58,8.79,14.39-.37,28.81-.11,43.21-.11,19.48,0,19.47,0,21-19.33C2038.1,1060.37,2038.76,1059.84,2039.64,1058.53ZM1447.58,852.78c17.76,0,35.52.07,53.27-.09,2.16,0,5.42,1.75,6.37-2.15,1.81-7.41-9.89-21.91-17.69-21.93-16.28,0-32.56,0-48.84,0H1343c-16.28,0-32.71-1.35-48.8.38-15.53,1.67-30.68-1.32-46.06-.56-16.24.79-32.55.18-48.83.18-4.8,0-9.66.4-14.42-.08-13.11-1.34-7.41,8.48-8.4,14.07-1.16,6.51-.4,10.6,8.65,10.43,33.66-.63,67.33-.33,101-.18a31.6,31.6,0,0,0,15.59-4c23.4-12.32,48.7-15.18,72.47-4.28,14.9,6.83,29.07,8.59,44.5,8.25C1428.33,852.6,1438,852.78,1447.58,852.78ZM1441.38,101c-48.37-60.65-179-51.08-214.1,0,22.91-1.88,45.49,2.8,67.66-3.09s44.84-7.89,66.71-1.81C1387.63,103.27,1413.6,99,1441.38,101Zm153.69-1h212.57C1764.69,50.11,1644.7,50.05,1595.07,100ZM188.79,1371.21c.05-24.52-17.66-43.49-40.61-43.49-22.68,0-41.51,19.36-41.71,42.92-.2,24,18.93,43.74,42.19,43.62C170.9,1414.14,188.75,1395,188.79,1371.21Zm0-548c.14-24.53-17.54-43.77-40.27-43.83S106.75,798.49,106.47,822c-.29,24.15,18.42,43.78,41.84,43.92C170.52,866,188.66,846.88,188.79,823.19Zm0-187.12c.37-24.92-17.56-44.9-40.49-45.12-22.08-.21-41.55,19.87-41.84,43.15-.29,23.72,18.11,43.16,41,43.36C170.76,677.67,188.43,660,188.79,636.07Zm0,369.92c.15-24.23-17.89-44.07-40.26-44.27-22.65-.21-42.06,20.13-42.07,44.09,0,23.13,18.26,42.13,40.8,42.43C171,1048.55,188.64,1030.59,188.79,1006Zm0,182.64c.07-24.67-17.32-43.41-40.43-43.55-22.79-.13-41.68,19.08-41.89,42.62-.22,24.38,18.21,43.46,42,43.49C171,1231.22,188.73,1212.46,188.79,1188.63ZM1605.05,244.35h27.72q98.74,0,197.49-.06c3.15,0,8.55,1.62,9.08-1.54,1.28-7.53,1.88-15.66.33-23-1.28-6.06-8.18-2.67-12.48-2.88-10-.48-20.15,1-29.9-.48-10.24-1.58-16.25,7.45-26.6,7-31.35-1.36-62.84-1.38-94.2,1.11C1651.54,226.44,1627.09,230.58,1605.05,244.35Zm-532-144c-43.38-59.24-169.58-51.18-204.24.07,15.93.48,30.56-.21,45.84-7.49,36.61-17.42,75.39-19,111.87-.67C1041.84,100,1055.93,100.72,1073,100.36Zm174,144h200.52c21.32,0,21.15,0,20-21.29-.25-4.64-1.28-6.6-6.23-6.43-9.22.31-18.46,0-27.69.11-2.81,0-6.66-.73-6.11,4,.9,7.59-4.32,5.95-8.43,6-31.39.07-62.8-.43-94.17.29C1298,227.53,1271.66,231.72,1247,244.34Zm-22.8,163.09c39.94,38.07,146.31,35,172,0ZM2247.37,810.19c-8.15-14.91-18.69-20.63-35.34-20.12q-64.25,2-128.58,0c-16.32-.52-23.35,7.66-30.75,20.14Zm-373,0c-13.62-19.67-13.62-19.67-34.6-19.67-42.87,0-85.77,1-128.59-.49-16.52-.56-23.58,7.45-30.29,20.16Zm-579.06-.36h191.4c-7.57-13.85-16.93-20.4-33.57-19.8-41.27,1.49-82.67,1.42-124,0C1312.54,789.5,1301.88,794.42,1295.33,809.83Zm174.5,289.84H1310.22C1343.14,1140.23,1429.41,1139.28,1469.83,1099.67ZM1758,407.83c-22-1.82-155.44-1.18-164.24.67C1629.93,443.92,1722.49,444,1758,407.83Zm29-39.13c3,2.45,2.14,5.28,2.47,7.67,1.34,9.45,5.72,13.14,16.06,12.77,25.48-.91,51-.26,76.54-.34,3.32,0,7.43,1.55,7.51-4.82s-3.31-6.15-7.72-6.1c-11.83.13-23.67-.17-35.5.14-4.86.13-6.09-1.44-6.29-6.25-.67-16.06-.92-16-17.4-16-3.69,0-7.4.14-11.09,0-20.55-.93-39.94-1.33-57,15.08-12,11.48-29.73,14.42-46.39,17.13a7.93,7.93,0,0,0,3.42.8c13.69.06,27.46-.87,41,.38,15.93,1.48,28.11-1.23,32.13-19C1784.84,369.62,1785.89,369.36,1787,368.7ZM1227.15,730.05H1256c22.81,0,22.35,0,22.65-22.4.11-8.08-3.11-8.84-9.62-8.77-23.25.28-46.51.11-69.77.11-24,0-23.72,0-23,23.86.2,6,2.09,7.45,7.71,7.31C1198.35,729.82,1212.76,730.05,1227.15,730.05Zm166.54,304.63h92.45c24.71,0,24.52,0,29.35-24.54,1.16-5.87-.65-6.8-5.91-6.76-30.62.18-61.25.13-91.87,0-4,0-6.88.52-8.23,5.21C1406.8,1017.91,1400.83,1025.46,1393.69,1034.68ZM1041.69,407c-17.92.8-33.39-.7-49.18,3.1-21.59,5.18-44,5.91-65.85.93-20.18-4.6-40.29-4.41-61.62-3.46C903.06,444.06,1002.89,444.13,1041.69,407Zm250.56,627.68c-7.82-8.87-12.46-17.46-13.52-27.45-.5-4.7-3.7-3.73-6.41-3.73-29.86,0-59.73,0-89.59-.12-4.61,0-6.7,1-6.38,6.07a178.43,178.43,0,0,1,0,18.79c-.18,4.43.73,6.58,5.93,6.55C1218.29,1034.58,1254.27,1034.68,1292.25,1034.68ZM1469,955.17h-32.16c-20.25,0-19.94,0-21.6,20.33-.58,7.2.92,9.64,8.57,9.5,25.13-.46,50.27-.18,75.4-.18,22.19,0,21.94,0,21.65-22.4-.07-5.92-1.75-7.53-7.51-7.38C1498.52,955.42,1483.73,955.17,1469,955.17Zm-240.72,0h-32.14c-19.93,0-19.61,0-19.83,20.51-.08,7.1,1.59,9.48,9.06,9.32,24-.48,48-.18,72-.18,22.46,0,22.27,0,21.12-22.76-.26-5.23-1.72-7.09-7-7C1257.05,955.35,1242.64,955.17,1228.23,955.17Zm625,143.76H1699.88C1735.4,1135.08,1812,1135.07,1853.21,1098.93ZM1226.43,680.11h32.11c20.2,0,19.81,0,20-20.43.06-7.6-2.52-9.13-9.5-9-23.62.4-47.24.15-70.86.15-23,0-22.76,0-21.9,22.7.2,5.42,1.78,6.81,7,6.7C1197.64,679.9,1212,680.11,1226.43,680.11Zm846.23,419.17c38.71,39.27,123.76,31.42,151.14,0Zm-276.31-64.59h77.2c22.74,0,22.74,0,27.82-22.28.17-.71.46-1.4.66-2.11,1.51-5.25-.25-7-5.87-6.95-25.84.26-51.69.09-77.54.15-2.77,0-6-.8-7.08,3.37C1808.88,1016.86,1802.78,1025.11,1796.35,1034.69ZM707,100c-36.77-55.53-153.09-55.51-196.82,1,7.72-1.47,14.54,2,21-3.2,20.56-16.47,44.68-23.9,70.47-25.71,29-2,57.1,2.15,80.21,21.32C690,100.19,697.43,101.7,707,100ZM1620.9,730.05h21c23.85,0,23.61,0,23.17-23.79-.1-5.81-1.58-7.5-7.39-7.4-19.17.35-38.36.13-57.55.13-22.94,0-22.74,0-22.07,23.58.15,5.59,1.39,7.83,7.39,7.61C1597.27,729.74,1609.09,730.05,1620.9,730.05ZM1721,828.61H1593c-15,0-14.68,0-14.89,15.46-.09,6.22.65,9,8.13,8.91,27.73-.52,55.47-.19,83.2-.23,2.88,0,5.92.69,8.37-1.79C1689.76,838.84,1705.28,833.66,1721,828.61Zm-202.62,68.45c-1.52-7.7-3.09-14.44-4.1-21.26-.54-3.62-2-5.06-5.62-5-34.14.08-68.29,0-102.66,0,2.34,7.58,4.43,14.17,6.39,20.8,1,3.42,2.26,5.6,6.69,5.58C1451.94,897,1484.75,897.06,1518.42,897.06Zm157.72,137.62c-4.91-8.18-9.05-15.15-9.9-23.31-.63-6.14-3.17-8.33-9.84-8.11-18.47.6-37,.21-55.45.21-23.62,0-23.4,0-22.86,24,.14,5.81,1.71,7.42,7.49,7.36C1615.15,1034.53,1644.73,1034.68,1676.14,1034.68Zm184.29-49.86h25.47c20.93,0,20.51,0,21.58-20.93.41-8-2.65-9-9.35-8.85-19.55.35-39.12.13-58.68.13-22.23,0-21.84,0-22.75,22.33-.27,6.46,1.76,7.49,7.19,7.39C1836.07,984.67,1848.25,984.82,1860.43,984.82ZM897.62,244.35H1077.3c21.52,0,21.41,0,19.67-21.63-.31-3.9-.85-6.35-5.49-6.08-4.42.25-8.87.17-13.31,0-4.22-.14-6.45,1.64-5.65,5.9,1.73,9.2-3.91,8.65-10.29,8.74-41,.54-82.08-2.06-123,2.06C924.83,234.81,910.69,237.51,897.62,244.35Zm855.79,584.26c9.89,3.06,21.25,4.57,28,11.76,12.89,13.69,28.34,12.9,44.46,12.46,10.33-.28,20.68-.05,31-.05h38.95c-2.71-7.09-4.79-12.55-6.88-18-1.55-4-3.73-6.33-8.81-6.31C1837.92,828.71,1795.67,828.61,1753.41,828.61Zm-524.53,42.18h-35.51c-17.08,0-16.66,0-17.14,16.6-.21,7.55,1.49,10.08,9.54,9.88,23.28-.59,46.6-.18,69.9-.23,7,0,15.36,2.06,20.64-1s.58-12.52,3.26-18.56-.1-6.76-5.2-6.71C1259.21,870.89,1244,870.79,1228.88,870.79Zm392.35,114h22.16c22.28,0,22,0,21.72-22-.08-6.51-2.13-8-8.23-7.84-19.2.37-38.42.14-57.63.14-23,0-22.8,0-21.16,23.6.34,5,2,6.21,6.56,6.13C1596.84,984.68,1609,984.82,1621.23,984.82Zm-.64-304.71h23.25c22,0,21.72,0,21.25-22.22-.12-6.07-2.07-7.28-7.63-7.18-19.18.31-38.38.12-57.57.12-22.94,0-22.69,0-21.82,22.79.22,5.63,2,6.73,7.09,6.59C1597,679.89,1608.78,680.11,1620.59,680.11Zm-394.13,92.12h35.48c18,0,18.18-.37,16.57-18.47-.41-4.51-2-5.52-6-5.51q-45.45.15-90.91,0c-3.67,0-5.51.9-5.2,5a58.48,58.48,0,0,1,0,11.07c-.73,6.3,1.64,8.3,8,8.1C1198.36,771.93,1212.42,772.23,1226.46,772.23Zm959.72,262.46c26.42,0,51.41-.1,76.39.09,4.83,0,7.49-1.28,8.44-6.31,1.09-5.74,2.87-11.35,4.33-17s.47-8.45-6.6-8.18c-15.08.58-30.27,1.08-45.29-.07s-27,.43-30.21,18.39C2192.52,1025.65,2189.21,1029.24,2186.18,1034.69ZM2002.33,699c-10.33,0-20.65-.06-31,0-3,0-7-1.25-6.88,4.3.16,7.37.14,14.76,0,22.13-.08,4.24,2.43,4.62,5.73,4.61q31-.08,62,0c3.27,0,5.16-.44,5.85-4.54,3.83-22.86,1-26.54-21.3-26.54Zm-193,171.8c1.8,6.75,3.65,12.29,4.7,18,1.18,6.38,4,8.65,10.91,8.49,23.23-.52,46.49,0,69.72-.4,3.51-.06,10.2,4,10.15-5.1-.08-13.78-3.51-20.9-11.34-20.93C1865.78,870.72,1838.13,870.79,1809.3,870.79Zm433.61,84.38h-16.59c-22.76,0-22.5,0-22.37,22.45,0,6.07,2,7.41,7.59,7.31,15.48-.3,31-.11,46.45-.11,23,0,22.78,0,23.56-22.67.19-5.31-1.13-7.24-6.57-7.08C2264.3,955.4,2253.6,955.17,2242.91,955.17Zm-196.6,79.51c-4.59-9-7.65-16.94-8.11-25.41-.27-5.09-2.23-6-6.71-5.89-14.78.23-29.56.09-44.35.09-23.56,0-23.32,0-22.79,24,.13,5.92,1.8,7.39,7.53,7.31C1996.27,1034.51,2020.66,1034.68,2046.31,1034.68ZM1666.69,870.79h-72.48c-16.09,0-16.09,0-16,16.43a5.87,5.87,0,0,1,0,1.11c-1.42,7.59,2.25,9,9.15,8.88,18.83-.43,37.68-.1,56.52-.17,6.59,0,14.61,1.84,19.37-1.21s.72-11.67,2-17.71C1665.73,876,1666.09,873.93,1666.69,870.79ZM1467.33,915c-14.43,0-28.9.72-43.26-.25-10.11-.68-8.5,5.4-8.26,11.08.22,5.15-2.92,11.73,7.62,11.5,30-.66,59.93-.47,89.89-.06,6.92.1,8.57-2.67,7.26-8.32-1.22-5.29,4.68-14.42-7.75-14.06C1497.68,915.36,1482.5,915,1467.33,915Zm196.44-526.19c-13-5.11-28.5-7.53-35.89-19.34-8.71-13.93-19.86-14.82-33.32-13.81-4.78.36-9.61.06-14.41.06-23.86,0-24,.06-12.82,21.86,2.49,4.86,3.39,11.41,11.56,11.33C1607.18,388.67,1635.48,388.83,1663.77,388.83Zm409.31,439.78c-35.86,0-69,.13-102-.13-5.72,0-7,2.19-6.58,7.17a35.81,35.81,0,0,1,0,8.84c-1.11,7,1.73,8.59,8.47,8.46,22.15-.46,44.32-.14,66.48-.22,2.78,0,6,1.12,8.14-1.88C2053.76,842.23,2062,835.74,2073.08,828.61ZM2001.2,984.82h15.52c22.07,0,21.84,0,21.31-22.32-.14-5.73-1.56-7.63-7.46-7.47-14.76.41-29.55.14-44.32.14-23,0-22.82,0-21.89,22.85.21,5.28,1.58,7.1,6.93,6.91C1981.25,984.56,1991.23,984.82,2001.2,984.82Zm-773.6,136.63c14,0,28.1-.65,42.07.22,9.29.58,9.28-4.28,8.64-10.65-.54-5.49,3.07-12.58-8.15-12.31-28.78.69-57.59.58-86.37.06-11.93-.22-6.38,8-7.19,12.88-.91,5.54-1.31,10.64,7.83,10C1198.77,1120.76,1213.21,1121.45,1227.6,1121.45Zm-1.1-184.33c14.78,0,29.58-.54,44.33.2,9.5.47,7.66-5.49,7.42-10.64s3-12-7.53-11.85c-29.18.53-58.38.41-87.56.07-11.22-.13-5.88,7.82-6.51,12.4s-2.47,10.44,6.63,10C1197.66,936.62,1212.09,937.12,1226.5,937.12ZM536.75,243.59c3.61.54,4.32.74,5,.74q84.16,0,168.34,0c20.76,0,20.49,0,19.26-21.19-.33-5.75-2.72-6.54-7.49-6.59s-8.23.64-7.11,6.47c1.72,9-2.87,10-10.49,9.89-32.48-.38-65-.18-97.46-.15C584,232.8,561.41,234.68,536.75,243.59Zm1732.8,609.19c-2.77-7-5.05-13.09-7.6-19.08-1.12-2.63-2.29-5.17-6.18-5.15-31.12.13-62.24.07-95.8.07,10.37,7.09,18.14,13.19,24.16,21.11,2.12,2.78,4.67,3.08,7.73,3.07C2217.3,852.75,2242.73,852.78,2269.55,852.78Zm-648-80.55c12.19,0,24.39-.23,36.57.11,5.29.14,7.41-1.49,6.91-6.88a77.39,77.39,0,0,1,0-12.18c.26-3.92-1.31-5.06-5.11-5-25.48.13-51,.17-76.45,0-4.82,0-5.5,2.15-5.25,6a54.32,54.32,0,0,1,0,10c-.74,6.22,1.47,8.43,7.92,8.16C1597.88,771.88,1609.71,772.23,1621.53,772.23Zm379.92-121.4H1986c-22.16,0-21.81,0-21.63,21.87,0,6.87,2.66,7.66,8.4,7.52,14.75-.34,29.51-.11,44.27-.11,21.4,0,21.17,0,21-21.3,0-6-1.22-8.52-7.79-8.13C2020.66,651.25,2011,650.83,2001.45,650.83ZM512.78,407.66c37.06,31.08,142,26.1,161.63-.17-27.36-4.16-52.54,8.88-79.58,9.16C567.4,416.92,542,403.45,512.78,407.66ZM2235.84,870.79H2216c-17.86,0-17.86,0-14.23,17.38.82,3.91-1,9.1,6.36,9,21.72-.31,43.45-.08,65.18-.16,1.92,0,5.29.91,4.95-2.4-.76-7.28-1.07-15-3.81-21.55-2-4.84-8.63-2-13.16-2.17C2252.79,870.53,2244.31,870.79,2235.84,870.79ZM1227.61,810.56c13.64,0,27.32-.63,40.9.23,8.82.55,10.14-2.73,10.1-10.55,0-7.45-1.54-10.09-9.61-9.93-27.64.53-55.29.48-82.93,0-7.47-.12-10.5,1.32-9.83,9.44.53,6.55-.57,11.82,9.37,11.06C1199.54,809.77,1213.6,810.56,1227.61,810.56Zm634.83,126.56c12.53,0,25.06-.08,37.59,0,4.7,0,10,0,7.61-6.51-1.94-5.31,5.39-15.56-7.32-15.6-25.43-.1-50.86.29-76.27-.19-10-.19-7,6.51-6.83,11.19.14,4.45-3.71,11.68,6.54,11.21C1836.63,936.67,1849.55,937.12,1862.44,937.12ZM1427.51,369c2.75,10.5-2.13,21.75,15.36,20.36,26-2.07,25.94-.52,24.64-27-.27-5.43-1.93-6.85-7.08-6.7-11.8.32-23.62.05-35.44.14-2.43,0-5.2-.94-7,1.84-8.41,12.79-19.62,22.67-35.83,30.92C1402.1,388.61,1421.43,395.32,1427.51,369Zm572.72,528.05H2018c21.37,0,21.25,0,20.29-21.14-.16-3.64-.61-5.24-4.7-5.21-21.4.17-42.81.09-64.21.08-2.32,0-4.7.17-4.68,3.19.06,7.32-1.28,15.24,1.17,21.69,1.4,3.67,9.45,1.11,14.49,1.32C1986.94,897.27,1993.59,897.06,2000.23,897.06ZM1620.6,937.12c12.55,0,25.13-.44,37.66.13,10.36.48,6.33-6.86,6.44-11.26s3.49-11.36-6.66-11.14c-24.37.53-48.76.39-73.13.07-11.14-.14-5.79,7.87-6.45,12.44s-2.37,10.5,6.69,9.94C1596.92,936.56,1608.78,937.12,1620.6,937.12Zm129.56-817.5c11.75,8.3,20.24,15.67,25.69,25.87,1.13,2.12,2.64,3.38,5.17,3.38,18.16,0,36.32,0,55,0a92.91,92.91,0,0,0-8.83-24.13c-1.39-2.72-2.77-5.12-6.36-5.12C1798.25,119.64,1775.61,119.62,1750.16,119.62Zm-522.6,495c-14.4,0-28.83.5-43.2-.2-7.65-.38-8.44,2.95-8,9,.35,5.1-1.12,9.79,7.46,9.61,28.79-.59,57.6-.49,86.4,0,7.34.12,8.33-2.61,8.35-8.95,0-6.7-1-10-8.9-9.62C1255.64,615.12,1241.59,614.65,1227.56,614.65Zm774.12,157.58c10,0,19.94-.2,29.91.09,4.78.14,6.77-1.44,6.35-6.29a46.06,46.06,0,0,1,0-10c.82-6.32-1.64-8.07-7.88-7.91-16.61.42-33.23.14-49.85.14-16.44,0-16.18,0-15.88,16.46.1,5.63,1.43,7.87,7.42,7.6C1981.72,771.9,1991.71,772.23,2001.68,772.23ZM1812.15,166.84c-7.77,0-15.53-.08-23.3.06-2.24,0-5.42-1.06-5.07,3.51.59,7.73,1,15.48,1,23.23,0,4.61,2.93,4.26,5.92,4.25,14.42,0,28.85-.17,43.26.1,4.82.09,6.06-1.43,6.32-6.26,1.35-24.9,1.52-24.89-23.74-24.89ZM1622.76,790.52c-12.52,0-25.07.48-37.55-.18-7.62-.41-7.77,3.8-6.82,8.73.83,4.29-4.41,11.74,6.13,11.6,24.66-.34,49.34-.42,74,.05,9.48.18,6-6.14,6.25-10.39.23-4.59,2.39-10.53-6.68-10C1646.35,791.05,1634.54,790.52,1622.76,790.52Zm619.54,146.6c10.36,0,20.73-.22,31.08.09,5.55.17,10-.41,8.24-7.43-1.44-5.59,4.21-15.18-8.59-14.88-19.6.45-39.25.82-58.8-.18-10.13-.52-9.9,4.24-10.18,11.56-.31,8.11,1.22,12,10.53,11.05C2223.73,936.38,2233.06,937.12,2242.3,937.12ZM1278,262.29c-14.93,0-30,1.47-44.75-.38-17.24-2.17-25.72,6.4-32,20.07-1.07,2.34-1.91,4.79-3.18,7-3.37,5.85-.56,6.72,4.71,6.6,9.94-.22,19.88,0,29.83-.08,2.45,0,5.17.75,6.79-2.21C1247.93,277.71,1262.45,269.74,1278,262.29ZM2001.77,915c-10,0-20,.55-29.9-.15-10.88-.77-6.91,6.92-7.21,11.78s-2.63,11.12,7.16,10.68c17-.76,34-.21,51-.21,16.21,0,16,0,15.23-16-.22-4.8-1.46-6.4-6.32-6.23C2021.72,915.26,2011.74,915,2001.77,915ZM1644.58,119.58c-20.68,0-41.37.35-62-.17-8.64-.22-10.1,6.43-12.94,11.46-3,5.28,3.2,6.48,5.76,9,2.3,2.33,5.2,4.09,7.92,6,6.8,4.72,28.12,4.39,33.16-.85A250.26,250.26,0,0,1,1644.58,119.58Zm-384,269.23c-9.19-6.61-17.25-11.8-19.78-20.14-3.9-12.82-12.44-14.3-23.35-12.95a28.26,28.26,0,0,1-3.32,0c-23.69,0-23.9.17-13.41,22,2,4.23,2.38,10.86,9.18,11C1225.94,389,1242,388.81,1260.56,388.81Zm361,710.13c-11.77,0-23.58.53-35.32-.19-7.47-.46-8.69,2.63-8.07,8.86.5,5.11-1.86,10.81,7.52,10.57q35.86-.92,71.77,0c9.42.24,7-5.5,7.49-10.57.64-6.23-.59-9.32-8.06-8.86C1645.17,1099.48,1633.36,1098.94,1621.58,1098.94Zm0-466.09c12.16,0,24.35-.43,36.48.17,6.59.32,7.16-2.7,6.92-7.8-.22-4.79,1-9.25-6.91-9.07-24.31.53-48.65.48-73,0-7.76-.15-6.77,4.17-6.95,9.05-.18,5.12.38,8.12,6.95,7.8C1597.24,632.42,1609.43,632.85,1621.59,632.85ZM1437.08,407.06c4.45,11,12.43,15.09,21.54,17.33,17.85,4.38,36.09.82,54.06,2.34,8.66.73,8.44-3.73,8.33-9.77-.1-5.88.49-10.39-8.34-10.14C1487.94,407.5,1463.19,407.06,1437.08,407.06Zm367.07,0c6.92,11.15,16.48,14.67,26.38,17.2,17,4.36,34.52,1.23,51.75,2.42,7.36.51,7.77-3.26,7.13-8.56-.59-4.78,2.85-11.4-7.05-11.22C1857,407.36,1831.57,407.06,1804.15,407.06Zm-688,0c-11.44,0-22.88.22-34.31-.08-6.66-.17-6.68,2.57-4,7.23,5.11,9,13.56,12.07,23.18,12.24,15.12.28,30.3-.57,45.37.35,9.06.55,8-4.32,8.1-10,.1-6,.27-10.69-8.41-9.93C1136.17,407.73,1126.15,407.06,1116.18,407.05ZM2001.4,790.52c-10.31,0-20.62.29-30.91-.09-9.69-.35-5.41,6.72-5.76,10.76s-2.71,9.73,5.91,9.53c20.22-.49,40.47-.11,60.71-.22,2.54,0,5.58,1.36,6.62-3.37,2.71-12.28-.22-16.61-12.29-16.61Zm-415.67-477h-13.29c-17.39,0-17.13,0-16.49,17.43.19,5.32,1.66,6.95,6.94,6.82,12.91-.34,25.89-.82,38.75.12,10.08.74,12.82-2.36,12.61-12.44-.19-9.2-1.63-13.73-11.92-12.09C1596.92,314.26,1591.27,313.56,1585.73,313.56Zm197.11,24.15c18,0,34.52-.13,51.07.09,4.6.06,6.88-1,6.36-6.09a50.31,50.31,0,0,1,0-11c.73-6.15-2.11-7.47-7.63-7.23-8.83.38-17.68,0-26.52.13-6.58.09-14.49-1.72-19.36,1.29s-.94,11.64-2.46,17.61C1783.94,333.89,1783.52,335.29,1782.84,337.71Zm-336.45-42.2c2.58,0,5.24-.41,7.73.07,11.3,2.16,14-2.53,13.5-13.47-1-19.77-.28-19.8-20.41-19.8h-5.53c-14.31,0-14.31,0-14.32,14.57C1427.36,295.51,1427.36,295.51,1446.39,295.51Zm556,803.43c-10.3,0-20.63.52-30.88-.17-7.63-.51-7.55,3.77-6.88,8.76.56,4.24-3.21,10.76,6.2,10.57,20.22-.41,40.45-.09,60.68-.18,2.29,0,5,1,6.35-2.51,3.67-9.51-.92-16.46-11.2-16.47Zm-1.18-466.09c9.57,0,19.17-.33,28.72.12,6,.28,8.39-1.18,8.18-7.74-.2-6-.47-9.34-8.13-9.09-18.77.61-37.57.49-56.35.05-7-.17-9.3,1.51-9.42,9-.12,8,3.76,7.86,9.37,7.72C1982.75,632.67,1992,632.85,2001.18,632.85ZM1464,148.87c-1-9-3.84-16.52-7-24-1.45-3.37-3.23-5.44-7.29-5.39-13.51.16-27,.06-42.87.06,8.71,9.66,10.17,23.58,17.79,27.91,8.42,4.79,21.55,1.29,32.64,1.39C1459,148.89,1460.86,148.87,1464,148.87Zm-16,18c-20.62,0-20.26,0-20.75,20.24-.2,8.1,1.2,12.24,10.47,11a69.47,69.47,0,0,1,18.78,0c9.66,1.35,11.43-2.62,11.12-11.48C1466.88,166.86,1467.36,166.84,1447.94,166.84ZM1071.38,370.33c3.75,5.27,1.94,9.44,2.47,13.29.28,2-.67,5,2.59,5.06,6.25.21,13.16,1.59,18.58-.58,4.28-1.71,1.69-8.67,1.75-13.24.23-19.17.09-19.32-19.83-19-4,.07-8.88-2.43-11.77,3.1-5.67,10.84-13.44,20.21-21.68,28.54C1060.12,394.77,1065.19,382.47,1071.38,370.33Zm265.4,401.2h104.55C1414,754.86,1352.94,756.42,1336.78,771.53ZM898.83,263.35c-37.9-4.35-50.3,2.51-58.92,32.17,5.63,0,11.12.16,16.59-.06,3.77-.15,8.15,1.64,10.74-3.18C874.2,279.38,885.36,270.79,898.83,263.35Zm928.65,509c-27.44-17-88.38-16.38-103.89,0Zm373.51-.18c-25.95-16.88-88.7-15.54-103.39,0ZM1212,313.56c-4,0-8.09.24-12.11-.05-13.45-.95-7.32,9.63-8.79,15.32-1.82,7.08,1.78,9.55,9,9,8.76-.64,17.61-.12,26.42-.17,2.76,0,5.32.67,6.12-3.91,3-17.13.76-20.21-16.27-20.21ZM1447.7,337.7c4.7-5.17,20.35,10.1,20.06-10.8-.15-11-2.63-15.2-13.78-13.49a60.85,60.85,0,0,1-16.51,0c-8.17-1-10.73,1.62-10.35,10.09.65,14.15,0,14.18,14.59,14.18Zm-691,83.79c8.57,0,15.6-.05,22.63,0,4.59.05,8.56.53,8.69-6.48s-3.55-6.56-8.29-6.67c-18.44-.46-36.92,1.34-55.34-1.16-2.51-.34-6.52-1.92-7.7,2-.93,3,1.74,5.37,3.82,7.5,2.48,2.55,5.72,3,9,3.77C739,422.67,748.67,420.76,756.69,421.49Zm-41.94-53.85c0,5.59-.07,8.91,0,12.22.11,4.46-1.74,9.33,6.53,9.3,7.71,0,8.44-3.34,8-9.31-.33-4.42.37-8.93-.2-13.3-.49-3.76,2.92-10.44-4-10.46-6.36,0-14.75-4.56-19.1,3.69-5.5,10.47-13,19.3-20.94,28.07C702.89,393.87,705.18,377.23,714.75,367.64Zm162.87,21.2c-9-9-13-18-16-27.53-.71-2.3,0-5.55-3.87-5.48-7,.12-15.66-2.11-20.36,1.24-4.28,3,1,11.25,2.86,17,1.12,3.46,3.14,6.61,4.58,10s3.69,5,7.62,4.89C860.08,388.66,867.72,388.84,877.62,388.84ZM1253.3,119.71c-14.85,0-28.17-.4-41.44.21-5,.23-9.68,11.79-6.38,14.44a225.83,225.83,0,0,0,18.92,13.4c4.25,2.73,7.53,1,9.89-3.3C1238.92,136,1245.25,128.75,1253.3,119.71ZM1072.47,278.26a24.83,24.83,0,0,1,0,4.4c-2,10.48,2,14.92,12.74,12.94,2.48-.46,5.12-.13,7.69-.06s4.06-.89,4-3.78c-.08-8.44,0-16.88-.05-25.32,0-1.86-.28-4-2.63-4-6.59-.1-13.72-1.44-19.62.62-4.69,1.64-1.34,8.53-2.11,13A13.33,13.33,0,0,0,1072.47,278.26Zm-13.3-158.32c3.52,8.5,7.59,16.29,9.74,24.85.92,3.63,23,6.25,25,3.1.65-1,.24-2.88.06-4.33-2.47-20.21-7.11-24.23-27.63-24C1064.18,119.6,1062,119.79,1059.17,119.94Zm37.71,62.38c-.49-7.53,3.73-16.78-11.28-16-11.08.54-15.2,2.94-13.23,14a39.8,39.8,0,0,1,0,11c-.57,5.46,1.76,7.22,6.92,6.73a44.37,44.37,0,0,1,9.91,0c6.42.85,8.53-1.88,7.71-8A60.06,60.06,0,0,1,1096.88,182.32ZM845.14,337.71c14.14,0,13.38,0,14.59-16.4.81-10.91-6.13-7.6-11.18-7.69-15.33-.25-15-.09-15.63,16.86C832.45,342.52,841.39,335.74,845.14,337.71ZM523.81,263.43c-16-4.51-26.11,1.12-33,13.88-1.38,2.58-3.43,4.95-4.13,7.69-.87,3.36-6.35,7.94-1.28,9.95,3.9,1.55,10.89,3.56,14.23-3.7C504.82,280.05,513.32,271.53,523.81,263.43Zm560,73.94c10.54,2.86,13.82-.67,13.45-11.28-.32-9.24-1.73-12.3-12.23-13.12-16.11-1.26-11.7,8.81-12.78,17.1C1070.69,342,1079.54,336.34,1083.79,337.37ZM510.13,389.13c-7.79-9.79-13-18.92-15.12-29.48-1.28-6.41-6.34-3.34-9.85-3.85-1.84-.26-5.43-.79-4.88,2.41a69.78,69.78,0,0,0,10.85,27.52C495.58,392.26,502.52,387.58,510.13,389.13ZM714.72,278.25c0,2.57-.05,5.15,0,7.72.11,4.79-1.94,10,7,9.92,8.15-.08,7.75-4.19,7.6-9.6s-.32-11.06,0-16.55S728,262,722,262c-5.74,0-8.08,1.52-7.32,7.38A70.25,70.25,0,0,1,714.72,278.25ZM726.56,148c-2.94-27.44-5-29.95-21.93-27.26,1.91,5.82,4.72,11.5,5.53,17.46C711.64,148.94,717.26,151.1,726.56,148Zm151.28-28.4H865.48c-2.94,0-5.91-.23-8.82,0-6,.59-13,11.59-9.38,14.87,4.3,3.84,9.43,8.07,14.76,9,4,.71,4.31-6.6,6.94-9.94C871.89,129.86,874.07,125.6,877.84,119.55ZM729.17,184.11c0-5.33.06-9.39,0-13.44-.08-4.53-3.54-4.2-6.34-3.77s-7.56-2.48-7.88,2.94c-.49,8.45-.19,16.94-.11,25.41,0,2.41,1.94,2.4,3.83,2.73C733.15,200.54,728.63,189.9,729.17,184.11Zm0,142.25c0-1.83-.06-2.94,0-4.05.34-5.22.12-8.95-7.26-9.05s-7.69,3.4-7.25,8.74a19.89,19.89,0,0,1-.11,6.63c-3.08,11.32,4.94,9.87,10.92,8.85C733.15,336.19,727.23,329.42,729.21,326.36ZM492.8,325c-2.47-2.78,5.58-12-6.87-11.63-12.2.36-7.53,9.21-8.44,15-.76,4.82-1.54,9.45,7,9.74C495.11,338.46,492.83,332.16,492.8,325Zm682.06,839.71c2.05,3-3.54,10.07,6.16,10.32,13,.34,7.13-9.1,8.13-14.69s-3.38-6.64-7.6-7C1172.48,1152.55,1175.83,1159.54,1174.86,1164.69Zm470.68-.72c1.57,3.88-3.48,11.18,6.15,11,5.07-.12,10.22-1.59,8.28-7-1.8-5.09,3.61-15.41-8.71-14.71C1642.84,1153.67,1646.74,1159.91,1645.54,1164ZM510.38,120.48c-9.77-2.88-17.35-1.48-19.68,9.11-1.72,7.86,6.33,6.6,9.85,9.73C504,132.74,507.12,126.71,510.38,120.48Zm1168.1,1047.18c0-5.64-2.31-8.81-7.88-8.75-4.94,0-7.73,3.08-7.61,7.63s2.13,8.52,8,8.39C1676.18,1174.82,1678.16,1172,1678.48,1167.66Zm-470.48-.61c0-5.24-2.26-8.3-7.87-8.17-4.83.11-7.69,2.86-7.91,7.34-.24,4.82,1.94,8.46,7.58,8.68S1207.9,1172.41,1208,1167.05Zm503.58-15c-1.54,4-2.7,7.18-7.52,7.81-1.4.18-5.88,6.25-3.4,8.16,3.11,2.39,4.53,8.7,10.78,6.5,4.84-1.71,2.28-5.48,2.38-8.13C1714,1161.92,1715.07,1157.2,1711.58,1152.07Zm-124.49,3.76c-4.65-3.68-9.89-4.79-12.94.47s.38,8.92,6.32,9.76a2.43,2.43,0,0,1,2.32,3c-.31,2.36-1.71,2.77-3.87,2.31-1.75-.37-3.71-3-5.75.81,4.44,3.9,9.76,4.64,13.06,0,6.43-9-6.11-8.58-8.32-13.06C1580.32,1154.76,1584.63,1159.39,1587.09,1155.83ZM1649.8,465c2.9,3.11,7.64-.9,8,3.74.26,3.42-3.25,1.71-5.07,2.17-3.12.77-4.24,2.87-3.79,5.72.56,3.47,3.4,3.22,6,3.17,5.9-.12,6.08-3.83,6-8.5C1660.89,463.4,1656.62,463.38,1649.8,465Zm-54,15.53c2-3.57,5-5.56,8.84-7,5-1.84.8-7.81,4.43-10.36-1-.46-2.54-1.49-2.74-1.27-2.84,3.15-9.13.09-10.29,4.73C1595,471,1595.8,475.9,1595.8,480.54Zm-369.59,693.05c-6.81-3.28-5.5-8.92-5.16-13.94.49-7.22-2.4-8.75-8.94-6.43,6.25,7.08,5.73,13.87-.81,21.16C1216.46,1174.67,1220.67,1175.5,1226.21,1173.59Zm456.26.88c5.23,0,9.1,1.21,13-.93-5.83-2.94-4-8.14-4.07-12.58,0-5.49.45-11-7.78-8C1689,1160.13,1689.1,1167,1682.47,1174.47Zm-53.79-.15c5.13.53,9.1,1.07,13.91-1.26-10.71,1.22,2.2-18.55-13.36-13.2C1635.18,1166.36,1635.19,1167.2,1628.68,1174.32ZM847.11,470.63c-2.54-3.27-7.63-1-7.9-6.11-.31-5.82,6-2.92,7.55-6.16-12.44-1.73-15.7,5-9.35,21.16C839.08,474.42,840.63,469.8,847.11,470.63Zm1181.83,703.91c-9.25,0,2.82-19.29-11.93-14.68,9,4.52,5.12,9.47.81,14.68ZM1589.66,469c-.56-3.48-3.05-4.93-6.9-4.82-5.38.16-6.63,3.66-6.79,8.1-.1,2.59.56,4.76,3.4,5.59C1577.36,468.29,1590.27,477.23,1589.66,469ZM2066,1174.89c.72-5.68,2.88-11.61-1.13-14.79-2.63-2.1-9.83-2.06-12.27.1-3.37,3-1.71,8.77-.54,14.17,3.3-4.28-.47-9.52,4.63-13.69.67,5.1,1.2,9.16,1.77,13.55,3.6-3.69-.24-9.18,3.51-13C2065.7,1165.47,2062.08,1170.65,2066,1174.89ZM976.79,481.66c-1.12-6.05-6.33-3.39-9.62-4.74-5.12-2.11-4.62,2.81-4.71,4.55-.24,4.34,3.37,4.93,6.85,4.89S975.82,485.64,976.79,481.66Zm266.74-.71c-1-4.95-5-3.08-8-3.48-3.86-.53-5.79,2.21-5.49,5.16.48,4.64,4.72,3.54,7.87,3.62C1241.48,486.35,1243.3,484.43,1243.53,481Zm4.42.34c4.84-6.82-.66-16.9,11.34-15.74-5.27-.76-8.25-3.63-11.34-7.92Zm377.24-17.64c-4.75,5.16.63,13.12-5.28,13.34-7.53.29-2.17-7.59-4.23-11.26-.22-.41-1.16-.41-2.2-.74.25,5.05-2.46,10.6,2.61,14.28,1.69,1.23,6,1.37,7.31.12C1627.7,475.32,1624.52,470,1625.19,463.65Zm409.55,694.49c-1.92,6.13-2.73,11.22,1.16,15.74,2.13,2.47,5.46,1.38,11.24-3.51C2032.4,1175.5,2040.91,1162.33,2034.74,1158.14ZM880.33,479.72a7.12,7.12,0,0,0,2.15-.27c2.31-1.08,0-1.46-.43-1.81-4.69-3.73-4.88-7.42,0-11.14,3.41-2.61-.38-2-1.19-2.49-1.68-.93-2.94-5.08-5.45-1-.66,1.08-4.76,1.52-1.7,3.21,4.61,2.54,2.73,6.3,3,9.6C876.85,478.45,877.3,480.09,880.33,479.72Zm123.93-18.26-4.33,3c5.17,3.81.78,11.57,6.26,15.15.71.46,2.74.24,3.08-.32,1.29-2.15-1.28-1.41-2-2.17-2.83-3.19-2.18-6.45-.56-9.94.59-1.26,4.7.57,2.36-2.58C1008,463.1,1005.83,462.43,1004.26,461.46Zm638.12,18.2c-4.47-1.06-4.22-4.72-4.12-8.41s0-7.35,0-11c0-2.61-2.11-3.35-3.65-2.51-4.75,2.57,1.49,1.59,1.29,3.41-.69,6.27,3.13,13.28-4.53,18.53ZM1277.86,479c-7.9-2.86-7.14-7.28-3.85-12.49.62-1,3.83-1.49,2.38-1.31-4.62.59-2.86-5.61-6.45-4.66,1.56,2.68-4.62,3.27-1.81,5.93s1.47,5.47,1.44,8.14C1269.48,480.36,1272.76,480.07,1277.86,479ZM892.29,465.16c3,3.34,2.38,7.22,2,11.11-.12,1.1-4.2,2.27-.12,3.27,1.68.41,4.4.57,5.25-.39,2.09-2.38-2.09-.92-2.08-2.57,0-2.19-.61-4.45-.25-6.55C897.93,464.72,898.09,464.75,892.29,465.16Zm-410.07-6.58c7.58,5.36,1.56,13.51,4.95,19.4,3.71-6-2.74-14.41,4.85-19.42A15.64,15.64,0,0,0,482.22,458.58Zm1199.52,20.95c-8.18-2.11-9-5.81-7.31-10.61.89-2.6-.34-4.16-2.87-4.57-.94-.16-2.63.07-2.88.62-1.12,2.5,2.79.85,2.75,3.2,0,4,1.06,8.18-3.9,11.36Zm-468.85-.3c10.54.59,10.9-.86,10.58-.94-7.18-1.77,3.57-16.25-9.88-13.58C1220.42,469.64,1221.52,474.34,1212.89,479.23Z"/><path class="cls-2" d="M2415.24,1736.35v33.3c-4.73-.33-9.47-.93-14.2-.94q-127.1-.07-254.18-.15c-7.31,0-13.32,2-19.77,5.39-50,26.32-99.92,27.83-149.25-1.82a24.65,24.65,0,0,0-13.53-3.49q-101.55.08-203.12,0c-5.73,0-10.47,1.59-15.57,4.3-51.62,27.3-103.3,29.49-154.52-1.08-4.5-2.69-8.82-3.16-13.61-3.15q-100.46,0-200.9-.08c-6.5,0-12,1.86-17.79,4.65-48.61,23.25-97.66,26.37-146.54,1a45.15,45.15,0,0,0-21.89-5.64q-97.12.27-194.24-.06a70.56,70.56,0,0,0-28.69,6.13c-46.31,19.6-92.87,21.55-139-.75a48.84,48.84,0,0,0-22.1-5.32q-393.48.18-786.95.1c-19.44,0-18.83,0-19.68-19.94-.43-10.18,2.52-12.6,12.61-12.59q379.61.45,759.21.24h13.24c-3.69-6.71-7.86-11.74-9.3-17.46-2.89-11.55-10.1-12.63-20.44-12.62q-368,.4-735.9.21c-19.17,0-18.28-.06-19.49-19.07-.76-11.89,3.48-13.47,14.05-13.46q364.61.45,729.23.24c17.11,0,16.3,0,16.52-16.94.14-10.82-3.3-13.2-13.8-13.18q-362.4.48-724.8.25c-20.88,0-20,0-21.2-20.7C-1,1611.84,3.07,1610,13.8,1610q364.06.46,728.13.24c16.21,0,16.21,0,18.77-16,2.14-13.48,2.14-13.48-12-13.48q-368,0-735.9.27C1.8,1581-1.85,1578,0,1567.56a26.3,26.3,0,0,0,0-4.44c0-14.5,0-14.5,14.87-14.5h735.9c18.55,0,18.55,0,25.1-17.26,4.79-12.61,4.79-12.61-9.28-12.61H18.5c-18.49,0-17.8,0-18.74-18.54-.56-11,2.1-14.07,13.67-14.06q385.16.58,770.31.3c3,0,5.93-.16,8.88,0,4.15.28,6.73-1.57,9.15-4.89,6-8.16,12.36-16,19.38-25H18.85c-18.84,0-18.14,0-19.11-19.29C-.81,1426.4,2.47,1424,13.09,1424q420.11.46,840.23.33a55.13,55.13,0,0,0,22.28-4.91c49.29-21,98.57-22.76,147.25,2.1,5,2.53,9.84,2.73,15,2.73q102.12,0,204.23.09c6.85,0,12.8-1.78,19-4.46,49.13-21,98.22-24.09,146.75,1.93,4.59,2.46,9.17,2.43,13.94,2.43q101.57,0,203.12.06a40.73,40.73,0,0,0,17.13-3.38c49.35-21.84,98.69-25.87,147.65,1.24,3.5,1.93,7,2.09,10.68,2.09q106.54,0,213.11,0a27.2,27.2,0,0,0,12.7-3,146.08,146.08,0,0,1,34.21-12.41c38.58-8.65,76.18-8.43,111.23,13,4.49,2.74,9.18,2.4,13.94,2.4q108.78,0,217.55,0c4,0,8.07-.61,12.11-.94v33.3H2207.92c3,7.6,6.31,13.48,7.72,19.76,1.9,8.54,6.38,10.35,14.68,10.29,57.61-.4,115.22-.19,172.84-.25,4,0,8.05-.61,12.08-.93v33.3l-440.48,0c-18.28,0-18.28,0-23.55,17.35-3.8,12.49-3.8,12.51,9.31,12.51q221.9,0,443.8,0c3.64,0,7.28-.61,10.92-.93v33.3c-3.51-.06-7-.18-10.52-.18q-226.8,0-453.61-.14c-7.08,0-11.44,1.15-11,9.36.14,2.51-.77,5.08-1.26,7.61-2.47,12.67-2.48,12.67,10.58,12.68q226.8,0,453.61,0c4,0,8.11-.29,12.17-.45v35.52c-3.25-.32-6.51-.93-9.76-.93q-230.71-.06-461.44-.19c-6.79,0-9.54,1.61-8.39,8.53a55.66,55.66,0,0,1,.33,8.86c0,8.92,2.65,13,13.38,12.94q232.94-.71,465.88-.35v33.31a58.8,58.8,0,0,0-7.54-.93q-103.14-.07-206.28,0c-2.9,0-6-.44-8.13,2.33-6.83,8.75-13.69,17.48-21.54,27.49Zm-673.73-62.14h162.91c18.21,0,17.37,0,16.74-18.43-.33-10-3.63-11.67-12.81-11.64-111.27.33-222.54.21-333.81.21-17.3,0-17.11,0-16.07,17.11.53,8.76,2.42,13.23,13.36,13.09C1628.38,1673.82,1685,1674.21,1741.51,1674.21Zm0-63.94H1901.3c18.89,0,18-.19,22-18.51,2.26-10.42-1-11.21-9.9-11.19q-164.78.4-329.54.18c-18.2,0-17.36.21-22,18.5-2.71,10.76,1.16,11.22,9.87,11.17C1628.35,1610.12,1684.94,1610.27,1741.53,1610.27Zm198.13-91.52H1599.25c-18.85,0-18.85,0-24.51,17.83-3.81,12-3.81,12,9.34,12q158.54,0,317.09,0c9.57,0,20.93,2.76,28.2-1.43s6.47-17.12,10.49-25.72C1940,1521.15,1939.82,1520.73,1939.66,1518.75Zm-386.62,0H1228.79c-19.15,0-18.77.13-25.23,18.63-3.2,9.15-1.73,11.5,8.44,11.46,101-.38,202-.23,303-.23,29.35,0,29.35,0,38.62-27.59C1553.71,1520.73,1553.45,1520.31,1553,1518.75Zm-191.37,91.52h155.19c17.7,0,17.24-.06,19.32-18.24,1-8.81-.41-11.59-10.25-11.55-103.84.43-207.67.27-311.5.27-19.42,0-18.7.16-23,19.46-2,9.09,0,10.28,8.43,10.23C1253.77,1610.1,1307.72,1610.27,1361.67,1610.27Zm-.88,34.08H1204.32c-18.57,0-18,0-17.25,18.93.36,9.34,3.6,11.21,12.42,11.15,67-.39,133.91-.28,200.86-.11,6.29,0,11.56-.32,14.6-6.87,2.14-4.62,5.58-5.46,9.69-2.06,10.72,8.88,23.35,9.32,36.48,8.95,18.11-.5,36.25-.12,54.38-.12,18.93,0,18.5,0,18.48-19,0-8.49-2.28-11.19-11.18-11.11C1468.8,1644.57,1414.79,1644.35,1360.79,1644.35Zm-194.23-125.6H860.14c-20.29,0-19.84.17-26.75,18.73-3.55,9.54-1.31,11.36,8.38,11.32,95.06-.32,190.12-.14,285.18-.27,9.9,0,22,3.93,29.11-1.77,6.42-5.14,7.57-16.88,11-25.73C1167.18,1520.75,1166.93,1520.33,1166.56,1518.75Zm-184,91.52h143.09c19.44,0,18.79-.14,22.87-19,2-9.41-.47-10.76-9.15-10.74q-147.53.42-295.06.18c-19.88,0-19.26.14-23.9,19.92-2,8.66.18,9.78,8,9.74C879.81,1610.14,931.2,1610.27,982.59,1610.27Zm-2,34.08H832c-19.06,0-18.76,0-17,19.48.74,8.2,3.74,10.68,12.22,10.61,54-.44,108-.89,161.94.2,15.05.31,25.32-3.32,32.22-16.55,3-5.74,6.94-7.91,13-3,20.81,17,44.8,22.25,71.16,19.25,7.67-.87,15.52-.13,23.28-.13,19.5,0,18.9,0,17.59-19.46-.58-8.61-3.2-10.68-11.57-10.62C1083.4,1644.55,1032,1644.35,980.61,1644.35Zm994.92-159.42c4.07,2.54,7.8,1.46,11.31,1.46q102.09.12,204.18.06c2.59,0,5.18,0,7.76,0,1.86-.05,3.43-.24,3.91-2.72,1.67-8.76-13.11-27.08-22.1-27.09q-86.55,0-173.1.06c-3.51,0-7.23-1.18-10.43,2C1989,1466.6,1981.51,1475,1975.53,1484.93Zm200.62,222.13H1946.78c1.7,8.72,6.39,15.33,10,22.44,2.66,5.22,6,7.07,12,7,58.38-.27,116.77-.17,175.15-.15,3.69,0,7.16.19,10.1-3.06C2161.43,1725.22,2169.08,1717.39,2176.15,1707.06Zm-576.37-220.61h198.79c2.59,0,5.18,0,7.77,0,4.59.06,6.28-1.39,3.55-5.91-2.46-4.08-4.64-8.35-6.77-12.61-4.41-8.8-10.94-11.77-21.17-11.63-48.82.63-97.66.29-146.49.28-4.41,0-8.85-.55-12.38,3.16C1615.5,1467.73,1606.73,1474.65,1599.78,1486.45Zm-31,220.35c4.3,7.49,8,13.35,11.11,19.5,3.92,7.72,9.44,10.42,18.45,10.33,49.49-.52,99-.23,148.47-.29,3.93,0,8.11,1.08,11.53-2.28,8.5-8.32,17.12-16.52,24.32-27.26Zm-153.14-220.72c-10-23.83-18.39-29.5-42.38-29.5-32.11,0-64.24.83-96.31-.28-22.71-.78-32.91,14.83-47.23,29.78Zm-32.25,221.16a51.52,51.52,0,0,0-5.35-.7q-84.88,0-169.77,0c-1.48,0-3,0-4.44.07-2.1.08-3.25.85-3.1,3.31.49,8,19.92,26.45,28.26,26.47,30.33.05,60.84-2,90.93.62C1347.47,1739.42,1366.64,1729.21,1383.41,1707.24Zm442.12-250.47c3.49,8.37,7.26,15.57,9.43,23.21,1.59,5.59,4.43,6.57,9.45,6.55,35.11-.15,70.21-.06,105.32-.1,3.21,0,6.54.6,8.93-2.82,6.18-8.82,12.59-17.46,19.39-26.84ZM1942.68,1736c-3.94-9-7.84-17.16-11.17-25.6-1.69-4.28-4.89-3.84-8.14-3.84q-52.15,0-104.3,0c-3.84,0-7.08.42-9.69,3.91-6.28,8.4-12.92,16.52-20.07,25.58Zm-386.84,0c-3.82-8.35-7.68-15.81-10.63-23.62-1.78-4.72-4.51-5.88-9.14-5.86-33.59.14-67.19.08-100.79.07-3,0-5.74.09-7.87,2.88-6.58,8.61-13.35,17.08-20.78,26.53ZM1443.41,1456.8c5.17,8.06,8.78,14.86,10.72,22.23,1.64,6.23,5.1,7.61,11.16,7.56,32.5-.29,65-.11,97.5-.18,3.18,0,6.77,1,9.19-2.26,6.55-8.91,13.09-17.82,20.08-27.35Zm-273,279.3c-4.13-8.44-8.23-15.42-11-22.9-2.09-5.66-5.36-6.83-10.82-6.79-31.81.21-63.62.08-95.42.13-3.23,0-6.81-.88-9.27,2.26-6.86,8.8-13.68,17.63-21.18,27.3ZM1061,1456.76c4,8.19,8.09,14.82,10.44,22,2,6.09,4.95,7.83,11.09,7.78,31.72-.28,63.45-.11,95.18-.15,3.21,0,6.6.76,9-2.58,6.55-8.9,13.26-17.69,20.34-27.09ZM862.1,1485.7h155.07c-12.74-18.53-28.13-29.32-50-29.15-15.88.13-31.76.18-47.64,0C896,1456.26,879.31,1469.11,862.1,1485.7Zm116.8,221.42h-150c13.88,16.89,28.63,28.5,49.7,29.2,11.44.38,23-1,34.33.28C940,1739.72,958.87,1725.41,978.9,1707.12Zm1022.84,61.35c24,15,82.1,14.61,100,0Zm59.51-344.24h78.31C2113.4,1414.71,2087.33,1415.71,2061.25,1424.23ZM1646.68,1767.9c15.69,5.6,29,5.1,42.37,0Z"/><path class="cls-1" d="M2415.24,1798.51c0,40.7-.13,81.41.15,122.11,0,5.55-1.26,7.73-6.82,6.69a17.51,17.51,0,0,0-3.32,0H0q0-57.16.1-114.32c0-14.45,0-14.45,14.59-14.45ZM841.55,1843.15c1.93-.4,4.47.43,5.24-2.26.14-.49-1-1.86-1.72-2-2.83-.51-3.49,1.61-4,3.77-1.56.46-3.49.54-3.21,3a1,1,0,0,0,.7.7C841,1846.63,841.08,1844.71,841.55,1843.15Zm374.44,11.9c3.86,1.75,8.32,4.65,9,3.94,4.32-4.56,3-11,3.4-16.66.12-1.84-4.62-2.72-8.39-2.38C1227.53,1847.6,1226.7,1850.86,1216,1855.05Zm531-8.24c-.42,1.66-.62,2.74-1,3.78-.58,1.74-1.37,3.62.44,5,1.44,1.06,2.62-.28,3.89-1,4.08-2.29-.79-3-.75-4.59.07-2.87-1.22-6.26,1.2-8.33,1.86-1.59,3.37-2.07,1-4.42-1-1-1.59-2.8-2.84-.79-1,1.6-4.63,1.22-3.27,4.61A34.81,34.81,0,0,1,1747,1846.81Zm336.42-10.9c-1.08.73-2.29,1.49-3.44,2.32-.93.68.09,15.72,1.17,16.24a3,3,0,0,0,2.06-.2c1.53-.61,2.08-1.2.79-3-2.52-3.56-3.19-7.24,1.14-10.32,1-.7,4.44,1.21,2.82-2.11C2087.27,1837.46,2085,1836.88,2083.39,1835.91Zm-113-1c5,3.47,1.54,8.86,5.43,15.64-.34-8.12-.69-14.16,8.8-15.21C1978.66,1833.63,1975.08,1833.63,1970.41,1834.9Zm16.94,14.45c1.31-2.7,1.71-3.64,2.21-4.52s1.16-1.82,1.76-2.71c2.09-3.14-.1-7.94-2.41-6C1985.45,1839.1,1986.37,1843.36,1987.35,1849.35Zm-1150.77,6.84c5.91-.51,9.66,2.12,12.23-1.81.56-.86-.08-3.73-.45-3.79C844.51,1850,842,1852.71,836.58,1856.19Zm492-15.07c3.25,2.19,6.25,2.27,10.31-.22C1334.15,1837.59,1331.42,1839.85,1328.58,1841.12Zm7,13.82a9,9,0,0,0-.83-1.71,5.72,5.72,0,0,0-2.78,1c-1.14,1.18,0,1.76,1,1.71A8.9,8.9,0,0,0,1335.57,1854.94Zm-9.94-1.68c-.41.54-.81,1.06-1.2,1.59a8.73,8.73,0,0,0,1.69.48c.17,0,.63-.63.56-.77A8.2,8.2,0,0,0,1325.63,1853.26Zm646.41-.08c-.1.3-.35.63-.29.88.26,1,.75,1.1,1.19.12a1.14,1.14,0,0,0-.18-.91C1972.67,1853.14,1972.29,1853.21,1972,1853.18Zm13.54,1.57c.24-.16.63-.27.7-.48a2.13,2.13,0,0,0-.1-1l-1.1.63C1985.24,1854.22,1985.41,1854.48,1985.58,1854.75Zm-768.81,6.94a6.94,6.94,0,0,0,1.7,1c1,.25,2,0,1.73-1.31-.07-.35-1.13-.74-1.7-.69S1217.37,1861.34,1216.77,1861.69Z"/><path class="cls-3" d="M2415.24,1798.51H14.65c-14.59,0-14.58,0-14.59,14.45q0,57.15-.1,114.32c-.68-.49-2.31,1.12-2.24-1.11.09-3,0-5.92,0-8.88q0-953.54.14-1907.07C-2.12,7-4.68,2.69,0,.22q0,77.7.09,155.4Q.07,768.33-.24,1381c0,11.57,3.12,13.94,14,13.62,27.72-.81,55.49-.1,83.23-.39,6.37-.07,10.45,1.44,14.7,6.85,19.67,25.09,54.63,24.22,73.74-1.6,2.78-3.77,5.27-5.69,9.81-5.17a59.15,59.15,0,0,0,6.66,0H2399.45c5.27,0,10.53,0,15.79.06v28.86c-4,.33-8.07.93-12.11.94q-108.77.07-217.55,0c-4.76,0-9.45.34-13.94-2.4-35-21.42-72.65-21.64-111.23-13a146.08,146.08,0,0,0-34.21,12.41,27.2,27.2,0,0,1-12.7,3q-106.56-.09-213.11,0c-3.69,0-7.18-.16-10.68-2.09-49-27.11-98.3-23.08-147.65-1.24a40.73,40.73,0,0,1-17.13,3.38q-101.57-.12-203.12-.06c-4.77,0-9.35,0-13.94-2.43-48.53-26-97.62-22.95-146.75-1.93-6.25,2.68-12.2,4.47-19,4.46q-102.12-.23-204.23-.09c-5.15,0-10-.2-15-2.73-48.68-24.86-98-23.08-147.25-2.1a55.13,55.13,0,0,1-22.28,4.91q-420.12-.15-840.23-.33c-10.62,0-13.9,2.36-13.35,13.25,1,19.26.27,19.29,19.11,19.29h802.3c-7,9-13.41,16.86-19.38,25-2.42,3.32-5,5.17-9.15,4.89-3-.2-5.92,0-8.88,0q-385.15,0-770.31-.3c-11.57,0-14.23,3.11-13.67,14.06.94,18.5.25,18.54,18.74,18.54H766.61c14.07,0,14.07,0,9.28,12.61-6.55,17.26-6.55,17.26-25.1,17.26H14.89c-14.87,0-14.87,0-14.87,14.5a26.3,26.3,0,0,1,0,4.44C-1.85,1578,1.8,1581,12.84,1581q368-.54,735.9-.27c14.1,0,14.1,0,12,13.48-2.56,16-2.56,16-18.77,16q-364.06,0-728.13-.24C3.07,1610-1,1611.84-.31,1623.65c1.15,20.65.32,20.7,21.2,20.7q362.4,0,724.8-.25c10.5,0,13.94,2.36,13.8,13.18-.22,16.93.59,16.94-16.52,16.94q-364.62,0-729.23-.24c-10.57,0-14.81,1.57-14,13.46,1.21,19,.32,19.07,19.49,19.07q368,0,735.9-.21c10.34,0,17.55,1.07,20.44,12.62,1.44,5.72,5.61,10.75,9.3,17.46H771.58q-379.61,0-759.21-.24c-10.09,0-13,2.41-12.61,12.59.85,19.92.24,19.94,19.68,19.94q393.48,0,786.95-.1a48.84,48.84,0,0,1,22.1,5.32c46.08,22.3,92.64,20.35,139,.75a70.56,70.56,0,0,1,28.69-6.13q97.11.48,194.24.06a45.15,45.15,0,0,1,21.89,5.64c48.88,25.4,97.93,22.28,146.54-1,5.83-2.79,11.29-4.66,17.79-4.65q100.44.21,200.9.08c4.79,0,9.11.46,13.61,3.15,51.22,30.57,102.9,28.38,154.52,1.08,5.1-2.71,9.84-4.31,15.57-4.3q101.57.17,203.12,0a24.65,24.65,0,0,1,13.53,3.49c49.33,29.65,99.28,28.14,149.25,1.82,6.45-3.39,12.46-5.4,19.77-5.39q127.08.27,254.18.15c4.73,0,9.47.61,14.2.94Z"/><path class="cls-4" d="M2415.24,1674.18q-232.93,0-465.88.35c-10.73,0-13.34-4-13.38-12.94a55.66,55.66,0,0,0-.33-8.86c-1.15-6.92,1.6-8.54,8.39-8.53q230.72.3,461.44.19c3.25,0,6.51.61,9.76.93Z"/><path class="cls-4" d="M2415.24,1609.8c-4.06.16-8.12.45-12.17.45q-226.82,0-453.61,0c-13.06,0-13,0-10.58-12.68.49-2.53,1.4-5.1,1.26-7.61-.47-8.21,3.89-9.37,11-9.36q226.82.26,453.61.14c3.51,0,7,.12,10.52.18Z"/><path class="cls-4" d="M2415.24,1547.64c-3.64.32-7.28.93-10.92.93q-221.9.08-443.8,0c-13.11,0-13.11,0-9.31-12.51,5.27-17.35,5.27-17.35,23.55-17.35l440.48,0Z"/><path class="cls-4" d="M2415.24,1736.35H2171.75c7.85-10,14.71-18.74,21.54-27.49,2.16-2.77,5.23-2.33,8.13-2.33q103.14,0,206.28,0a58.8,58.8,0,0,1,7.54.93Z"/><path class="cls-4" d="M2415.24,1485.48c-4,.32-8.06.92-12.08.93-57.62.06-115.23-.15-172.84.25-8.3.06-12.78-1.75-14.68-10.29-1.41-6.28-4.67-12.16-7.72-19.76h207.32Z"/><path class="cls-5" d="M1501.69,1052.66c-3.31,9.27-7.59,16.43-12,23.64-2.42,4-5.64,4-9.4,4-59.51,0-119-.1-178.52.1-5.65,0-9-1.84-11.21-6.8-1.76-4-3.71-8-5.73-11.9-1-1.84-1.44-4.65-4.17-4.44-3.27.26-2.19,3.18-2.36,5.17-1.58,17.84-1.57,17.85-19.26,17.85-24.76,0-49.53-.27-74.29.17-7,.12-8.58-2-8.53-8.73.13-19-.2-19,19-19h306.46Z"/><path class="cls-5" d="M1777.12,1080.27c-27,0-54-.54-80.95.27-10.34.31-16.85-2.62-20.5-12.19a87.7,87.7,0,0,0-4.46-8.88c-.89-1.72-2.22-3.14-4.29-2.73-2.47.49-1.82,2.73-2,4.45-.65,6.1,2.92,14.94-1.67,17.69-5.24,3.14-13.55,1.32-20.52,1.35-18.48.1-37-.29-55.45.2-7.22.19-9.35-1.8-9.22-9.17.33-18.59-.07-18.6,18.33-18.6q38.26,0,76.52,0c17.3,0,34.52-.52,51.68,3.58,9.2,2.19,19.11,1.28,28.68-.3,43-7.08,86.23-1.51,129.31-3.3,4.48-.18,4.68,1.53,3.3,5.33-6.5,17.91-12.43,22.29-31.13,22.29Z"/><path class="cls-5" d="M2039.64,1058.53c-.88,1.31-1.54,1.84-1.59,2.41-1.51,19.33-1.5,19.33-21,19.33-14.4,0-28.82-.26-43.21.11-6.61.18-9.76-.77-9.58-8.79.42-18.91-.1-18.93,19.13-18.93h2.21c38.74.3,77.38-2.37,115.31,11.29,19.16,6.9,40.2,1.83,58.93-7.52a33.47,33.47,0,0,1,15.75-3.86c28,.19,56.1.08,84.74.08-2,9.9-7.94,16.95-13,24.45-3.1,4.59-8,3.1-12.2,3.11-55.78.07-111.56-.3-167.33.35-10.53.13-16.46-3.35-20.63-12.26C2045.53,1064.78,2044.28,1060.68,2039.64,1058.53Z"/><path class="cls-6" d="M1447.58,852.78c-9.62,0-19.25-.18-28.86,0-15.43.34-29.6-1.42-44.5-8.25-23.77-10.9-49.07-8-72.47,4.28a31.6,31.6,0,0,1-15.59,4c-33.67-.15-67.34-.45-101,.18-9.05.17-9.81-3.92-8.65-10.43,1-5.59-4.71-15.41,8.4-14.07,4.76.48,9.62.08,14.42.08,16.28,0,32.59.61,48.83-.18,15.38-.76,30.53,2.23,46.06.56,16.09-1.73,32.52-.38,48.8-.38h97.67c16.28,0,32.56,0,48.84,0,7.8,0,19.5,14.52,17.69,21.93-1,3.9-4.21,2.13-6.37,2.15C1483.1,852.85,1465.34,852.78,1447.58,852.78Z"/><path class="cls-7" d="M1441.38,101c-27.78-2-53.75,2.28-79.73-4.93-21.87-6.08-44.58-4.07-66.71,1.81s-44.75,1.21-67.66,3.09C1262.37,49.91,1393,40.34,1441.38,101Z"/><path class="cls-5" d="M1595.07,100c49.63-49.95,169.62-49.89,212.57,0Z"/><path class="cls-8" d="M188.79,1371.21c0,23.78-17.89,42.93-40.13,43-23.26.12-42.39-19.66-42.19-43.62.2-23.56,19-42.93,41.71-42.92C171.13,1327.72,188.84,1346.69,188.79,1371.21Z"/><path class="cls-8" d="M188.79,823.19c-.13,23.69-18.27,42.83-40.48,42.7-23.42-.14-42.13-19.77-41.84-43.92.28-23.48,19.22-42.68,42.05-42.61S188.93,798.66,188.79,823.19Z"/><path class="cls-8" d="M188.79,636.07c-.36,23.88-18,41.6-41.29,41.39-22.93-.2-41.33-19.64-41-43.36.29-23.28,19.76-43.36,41.84-43.15C171.23,591.17,189.16,611.15,188.79,636.07Z"/><path class="cls-8" d="M188.79,1006c-.15,24.6-17.8,42.56-41.53,42.25-22.54-.3-40.81-19.3-40.8-42.43,0-24,19.42-44.3,42.07-44.09C170.9,961.92,188.94,981.76,188.79,1006Z"/><path class="cls-8" d="M188.79,1188.63c-.06,23.83-17.83,42.59-40.31,42.56-23.8,0-42.23-19.11-42-43.49.21-23.54,19.1-42.75,41.89-42.62C171.47,1145.22,188.86,1164,188.79,1188.63Z"/><path class="cls-6" d="M1605.05,244.35c22-13.77,46.49-17.91,71.44-19.88,31.36-2.49,62.85-2.47,94.2-1.11,10.35.44,16.36-8.59,26.6-7,9.75,1.51,19.94,0,29.9.48,4.3.21,11.2-3.18,12.48,2.88,1.55,7.38.95,15.51-.33,23-.53,3.16-5.93,1.53-9.08,1.54q-98.74.12-197.49.06Z"/><path class="cls-9" d="M1073,100.36c-17.08.36-31.17-.38-46.53-8.09C990,74,951.22,75.52,914.61,92.94c-15.28,7.28-29.91,8-45.84,7.49C903.43,49.18,1029.63,41.12,1073,100.36Z"/><path class="cls-9" d="M1247,244.34c24.67-12.62,51-16.81,77.86-17.41,31.37-.72,62.78-.22,94.17-.29,4.11,0,9.33,1.63,8.43-6-.55-4.68,3.3-3.93,6.11-4,9.23-.06,18.47.2,27.69-.11,5-.17,6,1.79,6.23,6.43,1.18,21.3,1.35,21.29-20,21.29Z"/><path class="cls-10" d="M1224.19,407.43h172C1370.5,442.4,1264.13,445.5,1224.19,407.43Z"/><path class="cls-3" d="M2247.37,810.19H2052.7c7.4-12.48,14.43-20.66,30.75-20.14q64.25,2.06,128.58,0C2228.68,789.56,2239.22,795.28,2247.37,810.19Z"/><path class="cls-3" d="M1874.39,810.19H1680.91c6.71-12.71,13.77-20.72,30.29-20.16,42.82,1.45,85.72.49,128.59.49C1860.77,790.52,1860.77,790.52,1874.39,810.19Z"/><path class="cls-4" d="M1295.33,809.83c6.55-15.41,17.21-20.33,33.88-19.77,41.28,1.39,82.68,1.46,124,0,16.64-.6,26,6,33.57,19.8Z"/><path class="cls-7" d="M1469.83,1099.67c-40.42,39.61-126.69,40.56-159.61,0Z"/><path class="cls-10" d="M1758,407.83c-35.51,36.2-128.07,36.09-164.24.67C1602.56,406.65,1736,406,1758,407.83Z"/><path class="cls-6" d="M1787,368.7c-1.09.66-2.14.92-2.25,1.41-4,17.75-16.2,20.46-32.13,19-13.57-1.25-27.34-.32-41-.38a7.93,7.93,0,0,1-3.42-.8c16.66-2.71,34.44-5.65,46.39-17.13,17.08-16.41,36.47-16,57-15.08,3.69.16,7.4,0,11.09,0,16.48,0,16.73,0,17.4,16,.2,4.81,1.43,6.38,6.29,6.25,11.83-.31,23.67,0,35.5-.14,4.41-.05,7.79-.15,7.72,6.1s-4.19,4.81-7.51,4.82c-25.52.08-51.06-.57-76.54.34-10.34.37-14.72-3.32-16.06-12.77C1789.12,374,1790,371.15,1787,368.7Z"/><path class="cls-6" d="M1227.15,730.05c-14.39,0-28.8-.23-43.19.11-5.62.14-7.51-1.33-7.71-7.31-.76-23.87-1-23.86,23-23.86,23.26,0,46.52.17,69.77-.11,6.51-.07,9.73.69,9.62,8.77-.3,22.39.16,22.4-22.65,22.4Z"/><path class="cls-5" d="M1393.69,1034.68c7.14-9.22,13.11-16.77,15.79-26.05,1.35-4.69,4.18-5.22,8.23-5.21,30.62.09,61.25.14,91.87,0,5.26,0,7.07.89,5.91,6.76-4.83,24.51-4.64,24.54-29.35,24.54Z"/><path class="cls-10" d="M1041.69,407c-38.8,37.13-138.63,37.06-176.65.57,21.33-.95,41.44-1.14,61.62,3.46,21.86,5,44.26,4.25,65.85-.93C1008.3,406.3,1023.77,407.8,1041.69,407Z"/><path class="cls-5" d="M1292.25,1034.68c-38,0-74-.1-109.94.11-5.2,0-6.11-2.12-5.93-6.55a178.43,178.43,0,0,0,0-18.79c-.32-5.06,1.77-6.1,6.38-6.07,29.86.17,59.73.07,89.59.12,2.71,0,5.91-1,6.41,3.73C1279.79,1017.22,1284.43,1025.81,1292.25,1034.68Z"/><path class="cls-9" d="M1469,955.17c14.78,0,29.57.25,44.35-.13,5.76-.15,7.44,1.46,7.51,7.38.29,22.41.54,22.4-21.65,22.4-25.13,0-50.27-.28-75.4.18-7.65.14-9.15-2.3-8.57-9.5,1.66-20.31,1.35-20.33,21.6-20.33Z"/><path class="cls-9" d="M1228.23,955.17c14.41,0,28.82.18,43.22-.1,5.31-.1,6.77,1.76,7,7,1.15,22.77,1.34,22.76-21.12,22.76-24,0-48-.3-72,.18-7.47.16-9.14-2.22-9.06-9.32.22-20.51-.1-20.51,19.83-20.51Z"/><path class="cls-7" d="M1853.21,1098.93c-41.21,36.14-117.81,36.15-153.33,0h153.33Z"/><path class="cls-7" d="M1226.43,680.11c-14.4,0-28.79-.21-43.18.11-5.19.11-6.77-1.28-7-6.7-.86-22.71-1.08-22.7,21.9-22.7,23.62,0,47.24.25,70.86-.15,7-.12,9.56,1.41,9.5,9-.19,20.43.2,20.43-20,20.43Z"/><path class="cls-5" d="M2072.66,1099.28H2223.8C2196.42,1130.7,2111.37,1138.55,2072.66,1099.28Z"/><path class="cls-7" d="M1796.35,1034.69c6.43-9.58,12.53-17.83,15.19-27.82,1.11-4.17,4.31-3.37,7.08-3.37,25.85-.06,51.7.11,77.54-.15,5.62-.06,7.38,1.7,5.87,6.95-.2.71-.49,1.4-.66,2.11-5.08,22.28-5.08,22.28-27.82,22.28Z"/><path class="cls-6" d="M707,100c-9.58,1.7-17,.19-25.16-6.58-23.11-19.17-51.2-23.36-80.21-21.32-25.79,1.81-49.91,9.24-70.47,25.71-6.44,5.16-13.26,1.73-21,3.2C553.92,44.49,670.24,44.47,707,100Z"/><path class="cls-6" d="M1620.9,730.05c-11.81,0-23.63-.31-35.42.13-6,.22-7.24-2-7.39-7.61-.67-23.58-.87-23.58,22.07-23.58,19.19,0,38.38.22,57.55-.13,5.81-.1,7.29,1.59,7.39,7.4.44,23.79.68,23.79-23.17,23.79Z"/><path class="cls-6" d="M1721,828.61c-15.76,5-31.28,10.23-43.25,22.35-2.45,2.48-5.49,1.79-8.37,1.79-27.73,0-55.47-.29-83.2.23-7.48.14-8.22-2.69-8.13-8.91.21-15.46-.08-15.46,14.89-15.46Z"/><path class="cls-6" d="M1518.42,897.06c-33.67,0-66.48-.1-99.3.12-4.43,0-5.67-2.16-6.69-5.58-2-6.63-4-13.22-6.39-20.8,34.37,0,68.52,0,102.66,0,3.67,0,5.08,1.43,5.62,5C1515.33,882.62,1516.9,889.36,1518.42,897.06Z"/><path class="cls-5" d="M1676.14,1034.68c-31.41,0-61-.15-90.56.13-5.78.06-7.35-1.55-7.49-7.36-.54-24-.76-24,22.86-24,18.48,0,37,.39,55.45-.21,6.67-.22,9.21,2,9.84,8.11C1667.09,1019.53,1671.23,1026.5,1676.14,1034.68Z"/><path class="cls-9" d="M1860.43,984.82c-12.18,0-24.36-.15-36.54.07-5.43.1-7.46-.93-7.19-7.39.91-22.32.52-22.33,22.75-22.33,19.56,0,39.13.22,58.68-.13,6.7-.12,9.76.87,9.35,8.85-1.07,20.91-.65,20.93-21.58,20.93Z"/><path class="cls-6" d="M897.62,244.35c13.07-6.84,27.21-9.54,41.59-11,40.94-4.12,82-1.52,123-2.06,6.38-.09,12,.46,10.29-8.74-.8-4.26,1.43-6,5.65-5.9,4.44.14,8.89.22,13.31,0,4.64-.27,5.18,2.18,5.49,6.08,1.74,21.64,1.85,21.63-19.67,21.63Z"/><path class="cls-6" d="M1753.41,828.61c42.26,0,84.51.1,126.77-.14,5.08,0,7.26,2.27,8.81,6.31,2.09,5.45,4.17,10.91,6.88,18h-38.95c-10.34,0-20.69-.23-31,.05-16.12.44-31.57,1.23-44.46-12.46C1774.66,833.18,1763.3,831.67,1753.41,828.61Z"/><path class="cls-6" d="M1784.75,264.49c-36.57.61-73.25-2.56-109.71,2.23-20.72,2.72-40.94,7.25-53.81,26.24-1.86,2.75-4.13,2.56-6.66,2.56h-53.92c2.52-11.53,8.17-20.72,14.76-29.57,2.37-3.19,5-3.72,8.54-3.71q100.42.27,200.85.45A8.91,8.91,0,0,1,1784.75,264.49Z"/><path class="cls-6" d="M1228.88,870.79c15.16,0,30.33.1,45.49-.06,5.1-.05,7.93.57,5.2,6.71s2,15.49-3.26,18.56-13.64,1-20.64,1c-23.3.05-46.62-.36-69.9.23-8,.2-9.75-2.33-9.54-9.88.48-16.59.06-16.6,17.14-16.6Z"/><path class="cls-9" d="M1621.23,984.82c-12.2,0-24.39-.14-36.58.08-4.57.08-6.22-1.18-6.56-6.13-1.64-23.62-1.83-23.6,21.16-23.6,19.21,0,38.43.23,57.63-.14,6.1-.11,8.15,1.33,8.23,7.84.26,22,.56,22-21.72,22Z"/><path class="cls-5" d="M1620.59,680.11c-11.81,0-23.63-.22-35.43.1-5.05.14-6.87-1-7.09-6.59-.87-22.8-1.12-22.79,21.82-22.79,19.19,0,38.39.19,57.57-.12,5.56-.1,7.51,1.11,7.63,7.18.47,22.22.75,22.22-21.25,22.22Z"/><path class="cls-6" d="M1226.46,772.23c-14,0-28.1-.3-42.12.14-6.35.2-8.72-1.8-8-8.1a58.48,58.48,0,0,0,0-11.07c-.31-4.05,1.53-5,5.2-5q45.45.15,90.91,0c4,0,5.62,1,6,5.51,1.61,18.1,1.47,18.47-16.57,18.47Z"/><path class="cls-7" d="M2186.18,1034.69c3-5.45,6.34-9,7.06-13.09,3.21-18,15.06-19.55,30.21-18.39s30.21.65,45.29.07c7.07-.27,8.07,2.49,6.6,8.18s-3.24,11.27-4.33,17c-1,5-3.61,6.34-8.44,6.31C2237.59,1034.59,2212.6,1034.69,2186.18,1034.69Z"/><path class="cls-6" d="M2002.33,699h14.38c22.33,0,25.13,3.68,21.3,26.54-.69,4.1-2.58,4.55-5.85,4.54q-31-.08-62,0c-3.3,0-5.81-.37-5.73-4.61.13-7.37.15-14.76,0-22.13-.12-5.55,3.85-4.27,6.88-4.3C1981.68,698.93,1992,699,2002.33,699Z"/><path class="cls-6" d="M1809.3,870.79c28.83,0,56.48-.07,84.14,0,7.83,0,11.26,7.15,11.34,20.93,0,9.12-6.64,5-10.15,5.1-23.23.39-46.49-.12-69.72.4-6.88.16-9.73-2.11-10.91-8.49C1813,883.08,1811.1,877.54,1809.3,870.79Z"/><path class="cls-9" d="M2242.91,955.17c10.69,0,21.39.23,32.07-.1,5.44-.16,6.76,1.77,6.57,7.08-.78,22.67-.61,22.67-23.56,22.67-15.48,0-31-.19-46.45.11-5.55.1-7.56-1.24-7.59-7.31-.13-22.46-.39-22.45,22.37-22.45Z"/><path class="cls-5" d="M2046.31,1034.68c-25.65,0-50-.17-74.43.13-5.73.08-7.4-1.39-7.53-7.31-.53-24-.77-24,22.79-24,14.79,0,29.57.14,44.35-.09,4.48-.07,6.44.8,6.71,5.89C2038.66,1017.74,2041.72,1025.7,2046.31,1034.68Z"/><path class="cls-6" d="M1666.69,870.79c-.6,3.14-1,5.24-1.41,7.33-1.3,6,2.7,14.67-2,17.71s-12.78,1.18-19.37,1.21c-18.84.07-37.69-.26-56.52.17-6.9.16-10.57-1.29-9.15-8.88a5.87,5.87,0,0,0,0-1.11c-.11-16.43-.11-16.43,16-16.43Z"/><path class="cls-5" d="M1467.33,915c15.17,0,30.35.34,45.5-.11,12.43-.36,6.53,8.77,7.75,14.06,1.31,5.65-.34,8.42-7.26,8.32-30-.41-59.93-.6-89.89.06-10.54.23-7.4-6.35-7.62-11.5-.24-5.68-1.85-11.76,8.26-11.08C1438.43,915.74,1452.9,915,1467.33,915Z"/><path class="cls-9" d="M1663.77,388.83c-28.29,0-56.59-.16-84.88.1-8.17.08-9.07-6.47-11.56-11.33-11.16-21.8-11-21.86,12.82-21.86,4.8,0,9.63.3,14.41-.06,13.46-1,24.61-.12,33.32,13.81C1635.27,381.3,1650.78,383.72,1663.77,388.83Z"/><path class="cls-6" d="M2073.08,828.61c-11,7.13-19.32,13.62-25.57,22.24-2.18,3-5.36,1.87-8.14,1.88-22.16.08-44.33-.24-66.48.22-6.74.13-9.58-1.46-8.47-8.46a35.81,35.81,0,0,0,0-8.84c-.46-5,.86-7.21,6.58-7.17C2004.12,828.74,2037.22,828.61,2073.08,828.61Z"/><path class="cls-9" d="M2001.2,984.82c-10,0-20-.26-29.91.11-5.35.19-6.72-1.63-6.93-6.91-.93-22.86-1.13-22.85,21.89-22.85,14.77,0,29.56.27,44.32-.14,5.9-.16,7.32,1.74,7.46,7.47.53,22.33.76,22.32-21.31,22.32Z"/><path class="cls-3" d="M1227.6,1121.45c-14.39,0-28.83-.69-43.17.24-9.14.6-8.74-4.5-7.83-10,.81-4.88-4.74-13.1,7.19-12.88,28.78.52,57.59.63,86.37-.06,11.22-.27,7.61,6.82,8.15,12.31.64,6.37.65,11.23-8.64,10.65C1255.7,1120.8,1241.63,1121.45,1227.6,1121.45Z"/><path class="cls-7" d="M1226.5,937.12c-14.41,0-28.84-.5-43.22.18-9.1.44-7.25-5.5-6.63-10s-4.71-12.53,6.51-12.4c29.18.34,58.38.46,87.56-.07,10.57-.19,7.29,6.69,7.53,11.85s2.08,11.11-7.42,10.64C1256.08,936.58,1241.28,937.12,1226.5,937.12Z"/><path class="cls-6" d="M536.75,243.59c24.66-8.91,47.24-10.79,70.08-10.81,32.49,0,65-.23,97.46.15,7.62.09,12.21-.9,10.49-9.89-1.12-5.83,2.32-6.53,7.11-6.47s7.16.84,7.49,6.59c1.23,21.21,1.5,21.19-19.26,21.19q-84.17,0-168.34,0C541.07,244.33,540.36,244.13,536.75,243.59Z"/><path class="cls-6" d="M2269.55,852.78c-26.82,0-52.25,0-77.69,0-3.06,0-5.61-.29-7.73-3.07-6-7.92-13.79-14-24.16-21.11,33.56,0,64.68.06,95.8-.07,3.89,0,5.06,2.52,6.18,5.15C2264.5,839.69,2266.78,845.78,2269.55,852.78Z"/><path class="cls-6" d="M1621.53,772.23c-11.82,0-23.65-.35-35.45.14-6.45.27-8.66-1.94-7.92-8.16a54.32,54.32,0,0,0,0-10c-.25-3.89.43-6.08,5.25-6,25.48.2,51,.16,76.45,0,3.8,0,5.37,1.12,5.11,5a77.39,77.39,0,0,0,0,12.18c.5,5.39-1.62,7-6.91,6.88C1645.92,772,1633.72,772.23,1621.53,772.23Z"/><path class="cls-5" d="M2001.45,650.83c9.59,0,19.21.42,28.77-.15,6.57-.39,7.75,2.14,7.79,8.13.15,21.3.38,21.3-21,21.3-14.76,0-29.52-.23-44.27.11-5.74.14-8.35-.65-8.4-7.52-.18-21.88-.53-21.87,21.63-21.87Z"/><path class="cls-10" d="M512.78,407.66c29.21-4.21,54.62,9.26,82.05,9,27-.28,52.22-13.32,79.58-9.16C654.73,433.76,549.84,438.74,512.78,407.66Z"/><path class="cls-6" d="M2235.84,870.79c8.47,0,16.95-.26,25.41.1,4.53.19,11.14-2.67,13.16,2.17,2.74,6.58,3.05,14.27,3.81,21.55.34,3.31-3,2.4-4.95,2.4-21.73.08-43.46-.15-65.18.16-7.37.1-5.54-5.09-6.36-9-3.63-17.38-3.63-17.38,14.23-17.38Z"/><path class="cls-3" d="M1227.61,810.56c-14,0-28.07-.79-42,.27-9.94.76-8.84-4.51-9.37-11.06-.67-8.12,2.36-9.56,9.83-9.44,27.64.46,55.29.51,82.93,0,8.07-.16,9.56,2.48,9.61,9.93,0,7.82-1.28,11.1-10.1,10.55C1254.93,809.93,1241.25,810.56,1227.61,810.56Z"/><path class="cls-5" d="M1862.44,937.12c-12.89,0-25.81-.45-38.68.14-10.25.47-6.4-6.76-6.54-11.21-.15-4.68-3.13-11.38,6.83-11.19,25.41.48,50.84.09,76.27.19,12.71,0,5.38,10.29,7.32,15.6,2.38,6.5-2.91,6.55-7.61,6.51C1887.5,937,1875,937.12,1862.44,937.12Z"/><path class="cls-9" d="M1427.51,369c-6.08,26.31-25.41,19.6-45.38,19.53,16.21-8.25,27.42-18.13,35.83-30.92,1.83-2.78,4.6-1.82,7-1.84,11.82-.09,23.64.18,35.44-.14,5.15-.15,6.81,1.27,7.08,6.7,1.3,26.51,1.37,25-24.64,27C1425.38,390.76,1430.26,379.51,1427.51,369Z"/><path class="cls-6" d="M2000.23,897.06c-6.64,0-13.29.21-19.92-.07-5-.21-13.09,2.35-14.49-1.32-2.45-6.45-1.11-14.37-1.17-21.69,0-3,2.36-3.19,4.68-3.19,21.4,0,42.81.09,64.21-.08,4.09,0,4.54,1.57,4.7,5.21,1,21.15,1.08,21.14-20.29,21.14Z"/><path class="cls-5" d="M1620.6,937.12c-11.82,0-23.68-.56-35.45.18-9.06.56-7.35-5.4-6.69-9.94s-4.69-12.58,6.45-12.44c24.37.32,48.76.46,73.13-.07,10.15-.22,6.77,6.61,6.66,11.14s3.92,11.74-6.44,11.26C1645.73,936.68,1633.15,937.12,1620.6,937.12Z"/><path class="cls-7" d="M1750.16,119.62c25.45,0,48.09,0,70.72,0,3.59,0,5,2.4,6.36,5.12a92.91,92.91,0,0,1,8.83,24.13c-18.73,0-36.89,0-55,0-2.53,0-4-1.26-5.17-3.38C1770.4,135.29,1761.91,127.92,1750.16,119.62Z"/><path class="cls-4" d="M1784.75,264.49a8.91,8.91,0,0,0,0-1.79l53.3.13,1.55,1.56.12,28.92-1.7,1.77H1787l-1.69-1.77Z"/><path class="cls-9" d="M1227.56,614.65c14,0,28.08.47,42.09-.18,7.86-.37,8.93,2.92,8.9,9.62,0,6.34-1,9.07-8.35,8.95-28.8-.45-57.61-.55-86.4,0-8.58.18-7.11-4.51-7.46-9.61-.42-6.07.37-9.4,8-9C1198.73,615.15,1213.16,614.65,1227.56,614.65Z"/><path class="cls-6" d="M2001.68,772.23c-10,0-20-.33-29.91.13-6,.27-7.32-2-7.42-7.6-.3-16.46-.56-16.46,15.88-16.46,16.62,0,33.24.28,49.85-.14,6.24-.16,8.7,1.59,7.88,7.91a46.06,46.06,0,0,0,0,10c.42,4.85-1.57,6.43-6.35,6.29C2021.62,772,2011.65,772.23,2001.68,772.23Z"/><path class="cls-7" d="M1812.15,166.84h4.43c25.26,0,25.09,0,23.74,24.89-.26,4.83-1.5,6.35-6.32,6.26-14.41-.27-28.84-.1-43.26-.1-3,0-5.88.36-5.92-4.25-.07-7.75-.45-15.5-1-23.23-.35-4.57,2.83-3.47,5.07-3.51C1796.62,166.76,1804.38,166.84,1812.15,166.84Z"/><path class="cls-4" d="M1622.76,790.52c11.78,0,23.59.53,35.34-.17,9.07-.55,6.91,5.39,6.68,10-.22,4.25,3.23,10.57-6.25,10.39-24.67-.47-49.35-.39-74-.05-10.54.14-5.3-7.31-6.13-11.6-1-4.93-.8-9.14,6.82-8.73C1597.69,791,1610.24,790.52,1622.76,790.52Z"/><path class="cls-7" d="M2242.3,937.12c-9.24,0-18.57-.74-27.72.21-9.31,1-10.84-2.94-10.53-11.05.28-7.32,0-12.08,10.18-11.56,19.55,1,39.2.63,58.8.18,12.8-.3,7.15,9.29,8.59,14.88,1.8,7-2.69,7.6-8.24,7.43C2263,936.9,2252.66,937.12,2242.3,937.12Z"/><path class="cls-9" d="M1278,262.29c-15.52,7.45-30,15.42-38.57,31-1.62,3-4.34,2.19-6.79,2.21-9.95.05-19.89-.14-29.83.08-5.27.12-8.08-.75-4.71-6.6,1.27-2.21,2.11-4.66,3.18-7,6.25-13.67,14.73-22.24,32-20.07C1247.92,263.76,1263,262.29,1278,262.29Z"/><path class="cls-5" d="M2001.77,915c10,0,20,.24,29.91-.1,4.86-.17,6.1,1.43,6.32,6.23.74,16,1,16-15.23,16-17,0-34-.55-51,.21-9.79.44-7.46-5.77-7.16-10.68s-3.67-12.55,7.21-11.78C1981.79,915.57,1991.8,915,2001.77,915Z"/><path class="cls-7" d="M1644.58,119.58a250.26,250.26,0,0,0-28.13,25.47c-5,5.24-26.36,5.57-33.16.85-2.72-1.89-5.62-3.65-7.92-6-2.56-2.57-8.75-3.77-5.76-9,2.84-5,4.3-11.68,12.94-11.46C1603.21,119.93,1623.9,119.58,1644.58,119.58Z"/><path class="cls-9" d="M1260.56,388.81c-18.56,0-34.62.15-50.68-.07-6.8-.1-7.15-6.73-9.18-11-10.49-21.87-10.28-22,13.41-22a28.26,28.26,0,0,0,3.32,0c10.91-1.35,19.45.13,23.35,12.95C1243.31,377,1251.37,382.2,1260.56,388.81Z"/><path class="cls-4" d="M1621.58,1098.94c11.78,0,23.59.54,35.33-.19,7.47-.46,8.7,2.63,8.06,8.86-.51,5.07,1.93,10.81-7.49,10.57q-35.87-.92-71.77,0c-9.38.24-7-5.46-7.52-10.57-.62-6.23.6-9.32,8.07-8.86C1598,1099.47,1609.81,1098.94,1621.58,1098.94Z"/><path class="cls-7" d="M1621.59,632.85c-12.16,0-24.35-.43-36.48.17-6.57.32-7.13-2.68-6.95-7.8.18-4.88-.81-9.2,6.95-9.05,24.32.46,48.66.51,73,0,8-.18,6.69,4.28,6.91,9.07.24,5.1-.33,8.12-6.92,7.8C1645.94,632.42,1633.75,632.85,1621.59,632.85Z"/><path class="cls-10" d="M1437.08,407.06c26.11,0,50.86.44,75.59-.24,8.83-.25,8.24,4.26,8.34,10.14.11,6,.33,10.5-8.33,9.77-18-1.52-36.21,2-54.06-2.34C1449.51,422.15,1441.53,418,1437.08,407.06Z"/><path class="cls-10" d="M1804.15,407.06c27.42,0,52.82.3,78.21-.16,9.9-.18,6.46,6.44,7.05,11.22.64,5.3.23,9.07-7.13,8.56-17.23-1.19-34.7,1.94-51.75-2.42C1820.63,421.73,1811.07,418.21,1804.15,407.06Z"/><path class="cls-10" d="M1116.18,407.06c10,0,20,.67,29.88-.21,8.68-.76,8.51,3.89,8.41,9.93-.1,5.69,1,10.56-8.1,10-15.07-.92-30.25-.07-45.37-.35-9.62-.17-18.07-3.21-23.18-12.24-2.63-4.66-2.61-7.4,4-7.23C1093.3,407.27,1104.74,407.05,1116.18,407.06Z"/><path class="cls-4" d="M2001.4,790.52h24.28c12.07,0,15,4.33,12.29,16.61-1,4.73-4.08,3.36-6.62,3.37-20.24.11-40.49-.27-60.71.22-8.62.2-6.26-5.51-5.91-9.53s-3.93-11.11,5.76-10.76C1980.78,790.81,1991.09,790.52,2001.4,790.52Z"/><path class="cls-9" d="M1585.73,313.56c5.54,0,11.19.7,16.6-.16,10.29-1.64,11.73,2.89,11.92,12.09.21,10.08-2.53,13.18-12.61,12.44-12.86-.94-25.84-.46-38.75-.12-5.28.13-6.75-1.5-6.94-6.82-.64-17.44-.9-17.43,16.49-17.43Z"/><path class="cls-6" d="M1782.84,337.71c.68-2.42,1.1-3.82,1.46-5.24,1.52-6-2.45-14.57,2.46-17.61s12.78-1.2,19.36-1.29c8.84-.12,17.69.25,26.52-.13,5.52-.24,8.36,1.08,7.63,7.23a50.31,50.31,0,0,0,0,11c.52,5.07-1.76,6.15-6.36,6.09C1817.36,337.58,1800.8,337.71,1782.84,337.71Z"/><path class="cls-5" d="M1446.39,295.51c-19,0-19,0-19-18.63,0-14.57,0-14.57,14.32-14.57h5.53c20.13,0,19.43,0,20.41,19.8.53,10.94-2.2,15.63-13.5,13.47C1451.63,295.1,1449,295.51,1446.39,295.51Z"/><path class="cls-4" d="M2002.36,1098.94h24.27c10.28,0,14.87,7,11.2,16.47-1.37,3.55-4.06,2.5-6.35,2.51-20.23.09-40.46-.23-60.68.18-9.41.19-5.64-6.33-6.2-10.57-.67-5-.75-9.27,6.88-8.76C1981.73,1099.46,1992.06,1098.94,2002.36,1098.94Z"/><path class="cls-7" d="M2001.18,632.85c-9.21,0-18.43-.18-27.63.07-5.61.14-9.49.29-9.37-7.72.12-7.5,2.42-9.18,9.42-9,18.78.44,37.58.56,56.35-.05,7.66-.25,7.93,3.09,8.13,9.09.21,6.56-2.18,8-8.18,7.74C2020.35,632.52,2010.75,632.85,2001.18,632.85Z"/><path class="cls-9" d="M1464,148.87c-3.11,0-4.94,0-6.77,0-11.09-.1-24.22,3.4-32.64-1.39-7.62-4.33-9.08-18.25-17.79-27.91,15.85,0,29.36.1,42.87-.06,4.06-.05,5.84,2,7.29,5.39C1460.13,132.35,1462.93,139.87,1464,148.87Z"/><path class="cls-5" d="M1447.94,166.84c19.42,0,18.94,0,19.62,19.73.31,8.86-1.46,12.83-11.12,11.48a69.47,69.47,0,0,0-18.78,0c-9.27,1.27-10.67-2.87-10.47-11C1427.68,166.85,1427.32,166.84,1447.94,166.84Z"/><path class="cls-9" d="M1071.38,370.33c-6.19,12.14-11.26,24.44-27.89,17.17,8.24-8.33,16-17.7,21.68-28.54,2.89-5.53,7.8-3,11.77-3.1,19.92-.32,20.06-.17,19.83,19-.06,4.57,2.53,11.53-1.75,13.24-5.42,2.17-12.33.79-18.58.58-3.26-.1-2.31-3-2.59-5.06C1073.32,379.77,1075.13,375.6,1071.38,370.33Z"/><path class="cls-11" d="M1336.78,771.53c16.16-15.11,77.18-16.67,104.55,0Z"/><path class="cls-9" d="M898.83,263.35c-13.47,7.44-24.63,16-31.59,28.93-2.59,4.82-7,3-10.74,3.18-5.47.22-11,.06-16.59.06C848.53,265.86,860.93,259,898.83,263.35Z"/><path class="cls-11" d="M1827.48,772.32H1723.59C1739.1,755.94,1800,755.32,1827.48,772.32Z"/><path class="cls-11" d="M2201,772.14H2097.6C2112.29,756.6,2175,755.26,2201,772.14Z"/><path class="cls-9" d="M1212,313.56h4.4c17,0,19.27,3.08,16.27,20.21-.8,4.58-3.36,3.89-6.12,3.91-8.81.05-17.66-.47-26.42.17-7.25.53-10.85-1.94-9-9,1.47-5.69-4.66-16.27,8.79-15.32C1204,313.8,1208,313.56,1212,313.56Z"/><path class="cls-9" d="M1447.7,337.7h-6c-14.56,0-13.94,0-14.59-14.18-.38-8.47,2.18-11.1,10.35-10.09a60.85,60.85,0,0,0,16.51,0c11.15-1.71,13.63,2.44,13.78,13.49C1468.05,347.8,1452.4,332.53,1447.7,337.7Z"/><path class="cls-10" d="M756.69,421.49c-8-.73-17.66,1.18-27.2-1.05-3.27-.76-6.51-1.22-9-3.77-2.08-2.13-4.75-4.46-3.82-7.5,1.18-3.89,5.19-2.31,7.7-2,18.42,2.5,36.9.7,55.34,1.16,4.74.11,8.41-.24,8.29,6.67s-4.1,6.53-8.69,6.48C772.29,421.44,765.26,421.49,756.69,421.49Z"/><path class="cls-6" d="M714.75,367.64c-9.57,9.59-11.86,26.23-29.7,20.21,7.89-8.77,15.44-17.6,20.94-28.07,4.35-8.25,12.74-3.7,19.1-3.69,6.91,0,3.5,6.7,4,10.46.57,4.37-.13,8.88.2,13.3.45,6-.28,9.29-8,9.31-8.27,0-6.42-4.84-6.53-9.3C714.68,376.55,714.75,373.23,714.75,367.64Z"/><path class="cls-6" d="M877.62,388.84c-9.9,0-17.54-.18-25.16.08-3.93.13-6.16-1.45-7.62-4.89s-3.46-6.52-4.58-10c-1.86-5.73-7.14-13.94-2.86-17,4.7-3.35,13.4-1.12,20.36-1.24,3.87-.07,3.16,3.18,3.87,5.48C864.57,370.85,868.61,379.8,877.62,388.84Z"/><path class="cls-7" d="M1253.3,119.71c-8,9-14.38,16.27-19,24.75-2.36,4.32-5.64,6-9.89,3.3a225.83,225.83,0,0,1-18.92-13.4c-3.3-2.65,1.41-14.21,6.38-14.44C1225.13,119.31,1238.45,119.71,1253.3,119.71Z"/><path class="cls-6" d="M1072.47,278.26a13.33,13.33,0,0,1,0-2.19c.77-4.48-2.58-11.37,2.11-13,5.9-2.06,13-.72,19.62-.62,2.35,0,2.63,2.14,2.63,4,0,8.44,0,16.88.05,25.32,0,2.89-1.38,3.85-4,3.78s-5.21-.4-7.69.06c-10.78,2-14.7-2.46-12.74-12.94A24.83,24.83,0,0,0,1072.47,278.26Z"/><path class="cls-9" d="M1059.17,119.94c2.82-.15,5-.34,7.19-.36,20.52-.25,25.16,3.77,27.63,24,.18,1.45.59,3.28-.06,4.33-2,3.15-24.1.53-25-3.1C1066.76,136.23,1062.69,128.44,1059.17,119.94Z"/><path class="cls-6" d="M1096.88,182.32a60.06,60.06,0,0,0,0,7.71c.82,6.08-1.29,8.81-7.71,8a44.37,44.37,0,0,0-9.91,0c-5.16.49-7.49-1.27-6.92-6.73a39.8,39.8,0,0,0,0-11c-2-11,2.15-13.42,13.23-14C1100.61,165.54,1096.39,174.79,1096.88,182.32Z"/><path class="cls-6" d="M845.14,337.71c-3.75-2-12.69,4.81-12.22-7.23.65-17,.3-17.11,15.63-16.86,5.05.09,12-3.22,11.18,7.69C858.52,337.66,859.28,337.72,845.14,337.71Z"/><path class="cls-6" d="M523.81,263.43c-10.49,8.1-19,16.62-24.15,27.82-3.34,7.26-10.33,5.25-14.23,3.7-5.07-2,.41-6.59,1.28-9.95.7-2.74,2.75-5.11,4.13-7.69C497.7,264.55,507.84,258.92,523.81,263.43Z"/><path class="cls-6" d="M1083.79,337.37c-4.25-1-13.1,4.61-11.56-7.3,1.08-8.29-3.33-18.36,12.78-17.1,10.5.82,11.91,3.88,12.23,13.12C1097.61,336.7,1094.33,340.23,1083.79,337.37Z"/><path class="cls-10" d="M510.13,389.13c-7.61-1.55-14.55,3.13-19-3.4a69.78,69.78,0,0,1-10.85-27.52c-.55-3.2,3-2.67,4.88-2.41,3.51.51,8.57-2.56,9.85,3.85C497.12,370.21,502.34,379.34,510.13,389.13Z"/><path class="cls-10" d="M714.72,278.25a70.25,70.25,0,0,0-.06-8.83c-.76-5.86,1.58-7.37,7.32-7.38,6,0,7.72,2.12,7.36,7.7s-.2,11,0,16.55.55,9.52-7.6,9.6c-8.91.1-6.86-5.13-7-9.92C714.67,283.4,714.72,280.82,714.72,278.25Z"/><path class="cls-6" d="M726.55,148c-9.29,3.14-14.91,1-16.39-9.81-.81-6-3.62-11.64-5.53-17.46C721.6,118,723.62,120.51,726.55,148Z"/><path class="cls-6" d="M877.84,119.55c-3.77,6-6,10.31-8.86,14-2.63,3.34-3,10.65-6.94,9.94-5.33-1-10.46-5.18-14.76-9-3.67-3.28,3.36-14.28,9.38-14.87,2.91-.28,5.88,0,8.82,0Z"/><path class="cls-10" d="M729.17,184.11c-.54,5.79,4,16.43-10.52,13.87-1.89-.33-3.8-.32-3.83-2.73-.08-8.47-.38-17,.11-25.41.32-5.42,5.11-2.51,7.88-2.94s6.26-.76,6.34,3.77C729.23,174.72,729.17,178.78,729.17,184.11Z"/><path class="cls-6" d="M729.21,326.36c-2,3.06,3.94,9.83-3.69,11.12-6,1-14,2.47-10.92-8.85a19.89,19.89,0,0,0,.11-6.63c-.44-5.34-.09-8.84,7.25-8.74s7.6,3.83,7.26,9.05C729.15,323.42,729.21,324.53,729.21,326.36Z"/><path class="cls-6" d="M492.8,325c0,7.18,2.31,13.48-8.33,13.11-8.52-.29-7.74-4.92-7-9.74.91-5.79-3.76-14.64,8.44-15C498.38,313,490.33,322.2,492.8,325Z"/><path class="cls-11" d="M1992.87,1170.88c-3.13,5.55-7.69,5.79-11.46,1.58-3.53-3.94-3.32-9.72,1.37-12.43,6.19-3.57,10.39-.13,12.39,7.41.32-9.93,12.92-6.12,16.12-14.59,0,6.19,0,12.39,0,18.58,0,2.13-.79,3.13-3.28,3-3.48-.19-7.34,1.86-9.81-2.46-1.08-1.88-.43-5.81-4.68-4.25l-11,1.07C1986,1174.73,1989.67,1170.42,1992.87,1170.88Zm11.69-9.57c-3.09.36-4.21,2.48-4.37,5.24s.77,5.33,3.77,5.73c3.6.48,3.92-2.62,4-5.1S2008,1162,2004.56,1161.31Z"/><path class="cls-12" d="M1174.86,1164.69c1-5.15-2.38-12.14,6.69-11.37,4.22.36,8.57,1.54,7.6,7s4.91,15-8.13,14.69C1171.32,1174.76,1176.91,1167.66,1174.86,1164.69Z"/><path class="cls-12" d="M1645.54,1164c1.2-4.06-2.7-10.3,5.72-10.78,12.32-.7,6.91,9.62,8.71,14.71,1.94,5.43-3.21,6.9-8.28,7C1642.06,1175.15,1647.11,1167.85,1645.54,1164Z"/><path class="cls-10" d="M510.38,120.48c-3.26,6.23-6.4,12.26-9.83,18.84-3.52-3.13-11.57-1.87-9.85-9.73C493,119,500.61,117.6,510.38,120.48Z"/><path class="cls-12" d="M1678.48,1167.66c-.32,4.31-2.3,7.16-7.46,7.27-5.9.13-7.91-3.73-8-8.39s2.67-7.58,7.61-7.63C1676.17,1158.85,1678.48,1162,1678.48,1167.66Z"/><path class="cls-12" d="M1208,1167c-.09,5.37-2.69,8.08-8.19,7.86s-7.82-3.86-7.58-8.68c.22-4.48,3.08-7.23,7.91-7.34C1205.74,1158.75,1208,1161.81,1208,1167Z"/><path class="cls-12" d="M1711.58,1152.07c3.49,5.13,2.42,9.85,2.24,14.34-.1,2.65,2.46,6.42-2.38,8.13-6.25,2.2-7.67-4.11-10.78-6.5-2.48-1.91,2-8,3.4-8.16C1708.88,1159.25,1710,1156,1711.58,1152.07Z"/><path class="cls-12" d="M1587.09,1155.83c-2.46,3.56-6.77-1.07-9.18,3.3,2.21,4.48,14.75,4,8.32,13.06-3.3,4.62-8.62,3.88-13.06,0,2-3.83,4-1.18,5.75-.81,2.16.46,3.56.05,3.87-2.31a2.43,2.43,0,0,0-2.32-3c-5.94-.84-9.35-4.52-6.32-9.76S1582.44,1152.15,1587.09,1155.83Z"/><path class="cls-13" d="M1238.89,1174c-6.43,2.58-10.13.15-10.56-6.47-.49-7.29,3.49-9.87,10.42-8.32C1241.83,1164.1,1240.07,1169.05,1238.89,1174Z"/><path class="cls-12" d="M1649.8,465c6.82-1.63,11.09-1.61,11.19,6.3,0,4.67-.13,8.38-6,8.5-2.62.05-5.46.3-6-3.17-.45-2.85.67-4.95,3.79-5.72,1.82-.46,5.33,1.25,5.07-2.17C1657.44,464.11,1652.7,468.12,1649.8,465Z"/><path class="cls-11" d="M1604.8,1167.22c-2.47,1.91-6.51-.69-8.67,2.45,2.48,4.54,5.63-.21,8.1,1.54a2.65,2.65,0,0,1-2,3.09c-4.1,1-8.57,1.49-10.29-3.4-1.32-3.73-2-8.41,2.42-10.85s8.48-2,10.67,3.43C1604.94,1164.73,1604.87,1166,1604.8,1167.22Z"/><path class="cls-13" d="M1604.8,1167.22c.07-1.24.14-2.49.22-3.74,5.16-2.83,10.16-6.33,17.81-3.57-6.91,3.25-2.86,9.7-5.26,14.75-6.11-2.05-.86-8.37-5.33-11.37C1609.37,1162.49,1611.82,1175.67,1604.8,1167.22Z"/><path class="cls-13" d="M1595.8,480.54c0-4.64-.85-9.5.24-13.87,1.16-4.64,7.45-1.58,10.29-4.73.2-.22,1.79.81,2.74,1.27-3.63,2.55.56,8.52-4.43,10.36C1600.8,475,1597.78,477,1595.8,480.54Z"/><path class="cls-11" d="M1226.21,1173.59c-5.54,1.91-9.75,1.08-14.91.79,6.54-7.29,7.06-14.08.81-21.16,6.54-2.32,9.43-.79,8.94,6.43C1220.71,1164.67,1219.4,1170.31,1226.21,1173.59Z"/><path class="cls-10" d="M1682.47,1174.47c6.63-7.43,6.51-14.34,1.12-21.48,8.23-3,7.74,2.48,7.78,8,0,4.44-1.76,9.64,4.07,12.58C1691.57,1175.68,1687.7,1174.49,1682.47,1174.47Z"/><path class="cls-11" d="M1628.68,1174.32c6.51-7.12,6.5-8,.55-14.46,15.56-5.35,2.65,14.42,13.36,13.2C1637.78,1175.39,1633.81,1174.85,1628.68,1174.32Z"/><path class="cls-11" d="M1969.1,1159.28c1.28-2.07,1.82-5.68,4.69-5.22,3.49.55,1.85,4.17,2,6.46a48.45,48.45,0,0,1-1,13.83c-1.21-5-3.24-8.86-8-10.53Z"/><path class="cls-14" d="M847.11,470.63c-6.48-.83-8,3.79-9.7,8.89-6.35-16.13-3.09-22.89,9.35-21.16-1.54,3.24-7.86.34-7.55,6.16C839.48,469.62,844.57,467.36,847.11,470.63Z"/><path class="cls-11" d="M2028.94,1174.54h-11.12c4.31-5.21,8.18-10.16-.81-14.68C2031.76,1155.25,2019.69,1174.54,2028.94,1174.54Z"/><path class="cls-12" d="M1589.66,469c.61,8.28-12.3-.66-10.29,8.87-2.84-.83-3.5-3-3.4-5.59.16-4.44,1.41-7.94,6.79-8.1C1586.61,464,1589.1,465.47,1589.66,469Z"/><path class="cls-6" d="M2066,1174.89c-3.92-4.24-.3-9.42-4-13.64-3.75,3.8.09,9.29-3.51,13-.57-4.39-1.1-8.45-1.77-13.55-5.1,4.17-1.33,9.41-4.63,13.69-1.17-5.4-2.83-11.2.54-14.17,2.44-2.16,9.64-2.2,12.27-.1C2068.88,1163.28,2066.72,1169.21,2066,1174.89Z"/><path class="cls-15" d="M976.79,481.66c-1,4-4,4.66-7.48,4.7s-7.09-.55-6.85-4.89c.09-1.74-.41-6.66,4.71-4.55C970.46,478.27,975.67,475.61,976.79,481.66Z"/><path class="cls-13" d="M1969.1,1159.28l-2.45,4.54c-4.57,2.36.32,7.85-4.4,11.23-3.69-6.55-3.76-14.54-1-19.34C1965.26,1148.67,1965.69,1159.32,1969.1,1159.28Z"/><path class="cls-13" d="M1243.54,481c-.24,3.48-2.06,5.4-5.62,5.3-3.15-.08-7.39,1-7.87-3.62-.3-2.95,1.63-5.69,5.49-5.16C1238.5,477.87,1242.52,476,1243.54,481Z"/><path class="cls-16" d="M1248,481.29V457.63c3.09,4.29,6.07,7.16,11.34,7.92C1247.29,464.39,1252.79,474.47,1248,481.29Z"/><path class="cls-12" d="M1625.19,463.65c-.67,6.38,2.51,11.67-1.79,15.74-1.32,1.25-5.62,1.11-7.31-.12-5.07-3.68-2.36-9.23-2.61-14.28,1,.33,2,.33,2.2.74,2.06,3.67-3.3,11.55,4.23,11.26C1625.82,476.77,1620.44,468.81,1625.19,463.65Z"/><path class="cls-13" d="M2034.74,1158.14c6.17,4.19-2.34,17.36,12.4,12.23-5.78,4.89-9.11,6-11.24,3.51C2032,1169.36,2032.82,1164.27,2034.74,1158.14Z"/><path class="cls-15" d="M880.33,479.71c-3,.38-3.48-1.26-3.68-3.89-.24-3.3,1.64-7.06-3-9.6-3.06-1.69,1-2.13,1.7-3.21,2.51-4.08,3.77.07,5.45,1,.81.46,4.6-.12,1.19,2.49-4.85,3.72-4.66,7.41,0,11.14.44.35,2.74.73.43,1.81A6.82,6.82,0,0,1,880.33,479.71Z"/><path class="cls-15" d="M1004.26,461.46c1.57,1,3.75,1.64,4.85,3.12,2.34,3.15-1.77,1.32-2.36,2.58-1.62,3.49-2.27,6.75.56,9.94.68.76,3.25,0,2,2.17-.34.56-2.37.78-3.08.32-5.48-3.58-1.09-11.34-6.26-15.15Z"/><path class="cls-10" d="M1642.38,479.66h-11c7.66-5.25,3.84-12.26,4.53-18.53.2-1.82-6-.84-1.29-3.41,1.54-.84,3.65-.1,3.65,2.51,0,3.67.08,7.35,0,11S1637.91,478.6,1642.38,479.66Z"/><path class="cls-13" d="M1277.86,479c-5.1,1.12-8.38,1.41-8.29-4.39,0-2.67,1.25-5.61-1.44-8.14s3.37-3.25,1.81-5.93c3.59-.95,1.83,5.25,6.45,4.66,1.45-.18-1.76.33-2.38,1.31C1270.72,471.67,1270,476.09,1277.86,479Z"/><path class="cls-16" d="M892.29,465.16c5.8-.41,5.64-.44,4.75,4.87-.36,2.1.26,4.36.25,6.55,0,1.65,4.17.19,2.08,2.57-.85,1-3.57.8-5.25.39-4.08-1,0-2.17.12-3.27C894.67,472.38,895.27,468.5,892.29,465.16Z"/><path class="cls-15" d="M482.22,458.58a15.64,15.64,0,0,1,9.8,0c-7.59,5-1.14,13.42-4.85,19.42C483.78,472.09,489.8,463.94,482.22,458.58Z"/><path class="cls-10" d="M1681.74,479.53h-14.21c5-3.18,3.85-7.33,3.9-11.36,0-2.35-3.87-.7-2.75-3.2.25-.55,1.94-.78,2.88-.62,2.53.41,3.76,2,2.87,4.57C1672.78,473.72,1673.56,477.42,1681.74,479.53Z"/><path class="cls-10" d="M1238.89,1174c1.18-4.94,2.94-9.89-.14-14.79.13-1.47.27-2.94.4-4.41.6-.71,1.2-1.42,1.81-2.12C1243.7,1160.11,1247.3,1167.63,1238.89,1174Z"/><path class="cls-13" d="M1212.89,479.23c8.63-4.89,7.53-9.59.7-14.52,13.45-2.67,2.7,11.81,9.88,13.58C1223.79,478.37,1223.43,479.82,1212.89,479.23Z"/><path class="cls-6" d="M1838.07,295.08l1.7-1.77C1840.2,294.86,1839.56,295.38,1838.07,295.08Z"/><path class="cls-6" d="M1785.29,293.3l1.69,1.77C1785.48,295.37,1784.84,294.84,1785.29,293.3Z"/><path class="cls-6" d="M1839.65,264.39l-1.55-1.56C1839.58,262.39,1840.09,262.92,1839.65,264.39Z"/><path class="cls-13" d="M1241,1152.67c-.61.7-1.21,1.41-1.81,2.12C1238.61,1153.11,1239.28,1152.46,1241,1152.67Z"/><path class="cls-4" d="M1741.51,1674.21c-56.56,0-113.13-.39-169.68.34-10.94.14-12.83-4.33-13.36-13.09-1-17.12-1.23-17.11,16.07-17.11,111.27,0,222.54.12,333.81-.21,9.18,0,12.48,1.66,12.81,11.64.63,18.46,1.47,18.43-16.74,18.43Z"/><path class="cls-4" d="M1741.53,1610.27c-56.59,0-113.18-.15-169.76.15-8.71,0-12.58-.41-9.87-11.17,4.61-18.29,3.77-18.5,22-18.5q164.78,0,329.54-.18c8.91,0,12.16.77,9.9,11.19-4,18.32-3.12,18.51-22,18.51Z"/><path class="cls-4" d="M1939.66,1518.75c.16,2,.33,2.4.2,2.69-4,8.6-3.12,21.47-10.49,25.72s-18.63,1.42-28.2,1.43q-158.55.06-317.09,0c-13.15,0-13.15,0-9.34-12,5.66-17.83,5.66-17.83,24.51-17.83h340.41Z"/><path class="cls-4" d="M1553,1518.75c.41,1.56.67,2,.58,2.27-9.27,27.59-9.27,27.59-38.62,27.59-101,0-202-.15-303,.23-10.17,0-11.64-2.31-8.44-11.46,6.46-18.5,6.08-18.63,25.23-18.63H1553Z"/><path class="cls-4" d="M1361.67,1610.27c-54,0-107.9-.17-161.85.17-8.38,0-10.47-1.14-8.43-10.23,4.34-19.3,3.62-19.46,23-19.46,103.83,0,207.66.16,311.5-.27,9.84,0,11.26,2.74,10.25,11.55-2.08,18.18-1.62,18.24-19.32,18.24Z"/><path class="cls-3" d="M1360.79,1644.35c54,0,108,.22,162-.22,8.9-.08,11.17,2.62,11.18,11.11,0,19,.45,19-18.48,19-18.13,0-36.27-.38-54.38.12-13.13.37-25.76-.07-36.48-8.95-4.11-3.4-7.55-2.56-9.69,2.06-3,6.55-8.31,6.89-14.6,6.87-66.95-.17-133.91-.28-200.86.11-8.82.06-12.06-1.81-12.42-11.15-.72-19-1.32-18.93,17.25-18.93Z"/><path class="cls-4" d="M1166.56,1518.75c.37,1.58.62,2,.51,2.28-3.44,8.85-4.59,20.59-11,25.73-7.12,5.7-19.21,1.76-29.11,1.77-95.06.13-190.12,0-285.18.27-9.69,0-11.93-1.78-8.38-11.32,6.91-18.56,6.46-18.73,26.75-18.73h306.42Z"/><path class="cls-4" d="M982.59,1610.27c-51.39,0-102.78-.13-154.18.14-7.79,0-10-1.08-8-9.74,4.64-19.78,4-19.92,23.9-19.92q147.52,0,295.06-.18c8.68,0,11.19,1.33,9.15,10.74-4.08,18.82-3.43,19-22.87,19Z"/><path class="cls-3" d="M980.61,1644.35c51.4,0,102.79.2,154.19-.21,8.37-.06,11,2,11.57,10.62,1.31,19.5,1.91,19.46-17.59,19.46-7.76,0-15.61-.74-23.28.13-26.36,3-50.35-2.28-71.16-19.25-6-4.92-10-2.75-13,3-6.9,13.23-17.17,16.86-32.22,16.55-54-1.09-108-.64-161.94-.2-8.48.07-11.48-2.41-12.22-10.61-1.77-19.51-2.07-19.48,17-19.48Z"/><path class="cls-3" d="M1975.53,1484.93c6-9.93,13.44-18.33,21.53-26.3,3.2-3.16,6.92-2,10.43-2q86.55-.14,173.1-.06c9,0,23.77,18.33,22.1,27.09-.48,2.48-2.05,2.67-3.91,2.72-2.58.06-5.17,0-7.76,0q-102.09,0-204.18-.06C1983.33,1486.39,1979.6,1487.47,1975.53,1484.93Z"/><path class="cls-4" d="M2176.15,1707.06c-7.07,10.33-14.72,18.16-22.07,26.27-2.94,3.25-6.41,3.06-10.1,3.06-58.38,0-116.77-.12-175.15.15-6.06,0-9.38-1.82-12-7-3.62-7.11-8.31-13.72-10-22.44Z"/><path class="cls-3" d="M1599.78,1486.45c7-11.8,15.72-18.72,23.3-26.71,3.53-3.71,8-3.16,12.38-3.16,48.83,0,97.67.35,146.49-.28,10.23-.14,16.76,2.83,21.17,11.63,2.13,4.26,4.31,8.53,6.77,12.61,2.73,4.52,1,6-3.55,5.91-2.59,0-5.18,0-7.77,0H1599.78Z"/><path class="cls-3" d="M1568.8,1706.8h213.88c-7.2,10.74-15.82,18.94-24.32,27.26-3.42,3.36-7.6,2.27-11.53,2.28-49.49.06-99-.23-148.47.29-9,.09-14.53-2.61-18.45-10.33C1576.78,1720.15,1573.1,1714.29,1568.8,1706.8Z"/><path class="cls-3" d="M1415.66,1486.08H1229.74c14.32-14.95,24.52-30.56,47.23-29.78,32.07,1.11,64.2.28,96.31.28C1397.27,1456.58,1405.62,1462.25,1415.66,1486.08Z"/><path class="cls-3" d="M1383.41,1707.24c-16.77,22-35.94,32.18-63.47,29.74-30.09-2.66-60.6-.57-90.93-.62-8.34,0-27.77-18.46-28.26-26.47-.15-2.46,1-3.23,3.1-3.31,1.48-.06,3-.07,4.44-.07q84.89,0,169.77,0A51.52,51.52,0,0,1,1383.41,1707.24Z"/><path class="cls-3" d="M1825.53,1456.77h152.52c-6.8,9.38-13.21,18-19.39,26.84-2.39,3.42-5.72,2.82-8.93,2.82-35.11,0-70.21,0-105.32.1-5,0-7.86-1-9.45-6.55C1832.79,1472.34,1829,1465.14,1825.53,1456.77Z"/><path class="cls-3" d="M1942.68,1736H1789.31c7.15-9.06,13.79-17.18,20.07-25.58,2.61-3.49,5.85-3.91,9.69-3.91q52.14.07,104.3,0c3.25,0,6.45-.44,8.14,3.84C1934.84,1718.81,1938.74,1727,1942.68,1736Z"/><path class="cls-3" d="M1555.84,1735.92H1406.63c7.43-9.45,14.2-17.92,20.78-26.53,2.13-2.79,4.89-2.88,7.87-2.88,33.6,0,67.2.07,100.79-.07,4.63,0,7.36,1.14,9.14,5.86C1548.16,1720.11,1552,1727.57,1555.84,1735.92Z"/><path class="cls-3" d="M1443.41,1456.8h148.65c-7,9.53-13.53,18.44-20.08,27.35-2.42,3.3-6,2.25-9.19,2.26-32.5.07-65-.11-97.5.18-6.06.05-9.52-1.33-11.16-7.56C1452.19,1471.66,1448.58,1464.86,1443.41,1456.8Z"/><path class="cls-3" d="M1170.39,1736.1H1022.7c7.5-9.67,14.32-18.5,21.18-27.3,2.46-3.14,6-2.26,9.27-2.26,31.8,0,63.61.08,95.42-.13,5.46,0,8.73,1.13,10.82,6.79C1162.16,1720.68,1166.26,1727.66,1170.39,1736.1Z"/><path class="cls-3" d="M1061,1456.76h146.1c-7.08,9.4-13.79,18.19-20.34,27.09-2.45,3.34-5.84,2.57-9,2.58-31.73,0-63.46-.13-95.18.15-6.14.05-9.1-1.69-11.09-7.78C1069.06,1471.58,1065,1465,1061,1456.76Z"/><path class="cls-5" d="M862.1,1485.7c17.21-16.59,33.85-29.44,57.42-29.16,15.88.19,31.76.14,47.64,0,21.88-.17,37.27,10.62,50,29.15Z"/><path class="cls-5" d="M978.9,1707.12c-20,18.29-38.88,32.6-66,29.48-11.3-1.3-22.89.1-34.33-.28-21.07-.7-35.82-12.31-49.7-29.2Z"/><path class="cls-12" d="M2001.74,1768.47h100C2083.84,1783.08,2025.79,1783.5,2001.74,1768.47Z"/><path class="cls-13" d="M2061.25,1424.23c26.08-8.52,52.15-9.52,78.31,0Z"/><path class="cls-16" d="M1646.68,1767.9h42.37C1675.7,1773,1662.37,1773.5,1646.68,1767.9Z"/><path class="cls-16" d="M1216,1855.05c10.71-4.19,11.54-7.45,4-15.1,3.77-.34,8.51.54,8.39,2.38-.38,5.65.92,12.1-3.4,16.66C1224.31,1859.7,1219.85,1856.8,1216,1855.05Z"/><path class="cls-15" d="M1747,1846.81a34.81,34.81,0,0,0-1.35-5.78c-1.36-3.39,2.28-3,3.27-4.61,1.25-2,1.81-.21,2.84.79,2.42,2.35.91,2.83-1,4.42-2.42,2.07-1.13,5.46-1.2,8.33,0,1.58,4.83,2.3.75,4.59-1.27.72-2.45,2.06-3.89,1-1.81-1.34-1-3.22-.44-5C1746.35,1849.55,1746.55,1848.47,1747,1846.81Z"/><path class="cls-14" d="M2083.39,1835.91c1.6,1,3.88,1.55,4.54,2.92,1.62,3.32-1.83,1.41-2.82,2.11-4.33,3.08-3.66,6.76-1.14,10.32,1.29,1.81.74,2.4-.79,3a3,3,0,0,1-2.06.2c-1.08-.52-2.1-15.56-1.17-16.24C2081.1,1837.4,2082.31,1836.64,2083.39,1835.91Z"/><path class="cls-14" d="M1970.41,1834.9c4.67-1.27,8.25-1.27,14.23.43-9.49,1.05-9.14,7.09-8.8,15.21C1972,1843.76,1975.37,1838.37,1970.41,1834.9Z"/><path class="cls-14" d="M1987.35,1849.35c-1-6-1.9-10.25,1.56-13.2,2.31-2,4.5,2.83,2.41,6-.6.89-1.23,1.78-1.76,2.71S1988.66,1846.65,1987.35,1849.35Z"/><path class="cls-2" d="M836.58,1856.19c5.37-3.48,7.93-6.17,11.78-5.6.37.06,1,2.93.45,3.79C846.24,1858.31,842.49,1855.68,836.58,1856.19Z"/><path class="cls-2" d="M1328.58,1841.12c2.84-1.27,5.57-3.53,10.31-.22C1334.83,1843.39,1331.83,1843.31,1328.58,1841.12Z"/><path class="cls-2" d="M841.08,1842.68c.5-2.16,1.16-4.28,4-3.77.71.12,1.86,1.49,1.72,2-.77,2.69-3.31,1.86-5.24,2.26Z"/><path class="cls-2" d="M841.55,1843.15c-.47,1.56-.58,3.48-3,3.19a1,1,0,0,1-.7-.7c-.28-2.42,1.65-2.5,3.21-3Z"/><path class="cls-2" d="M1335.57,1854.94a8.9,8.9,0,0,1-2.61,1c-1,0-2.14-.53-1-1.71a5.72,5.72,0,0,1,2.78-1A9,9,0,0,1,1335.57,1854.94Z"/><path class="cls-2" d="M1325.63,1853.26a8.2,8.2,0,0,1,1,1.3c.07.14-.39.79-.56.77a8.73,8.73,0,0,1-1.69-.48C1324.82,1854.32,1325.22,1853.8,1325.63,1853.26Z"/><path class="cls-14" d="M1972,1853.18c.25,0,.63,0,.72.09a1.14,1.14,0,0,1,.18.91c-.44,1-.93.93-1.19-.12C1971.69,1853.81,1971.94,1853.48,1972,1853.18Z"/><path class="cls-14" d="M1985.58,1854.75c-.17-.27-.34-.53-.5-.8l1.1-.63a2.13,2.13,0,0,1,.1,1C1986.21,1854.48,1985.82,1854.59,1985.58,1854.75Z"/><path class="cls-16" d="M1216.77,1861.69c.6-.35,1.14-.91,1.73-1s1.63.34,1.7.69c.26,1.3-.73,1.56-1.73,1.31A6.94,6.94,0,0,1,1216.77,1861.69Z"/><path class="cls-14" d="M2004.56,1161.31c3.43.67,3.55,3.4,3.43,5.87s-.43,5.58-4,5.1c-3-.4-3.92-3-3.77-5.73S2001.47,1161.67,2004.56,1161.31Z"/><path class="cls-1" d="M1992.87,1170.88c-3.2-.46-6.83,3.85-10.34-2.1l11-1.07C1993.3,1168.77,1993.08,1169.82,1992.87,1170.88Z"/><rect class="cls-1" x="432.02" y="457.39" width="1372.12" height="95.58"/><rect class="cls-1" x="1009.38" y="1140.35" width="1372.12" height="95.58"/><rect class="cls-1" x="793" y="1812.94" width="1372.12" height="95.58"/><circle class="cls-17" cx="1208.38" cy="1837.55" r="0.86"/><circle class="cls-17" cx="1665.45" cy="1830.61" r="1.41"/><text class="cls-18" transform="translate(495.18 488.24)">Thin</text><text class="cls-19" transform="translate(857.23 488.24)">ExtraLight</text><text class="cls-20" transform="translate(1211.3 488.6)">Light</text><text class="cls-21" transform="translate(1166.97 1183.31)">Bold</text><text class="cls-22" transform="translate(1575.3 1183.31)">SemiBold</text><text class="cls-23" transform="translate(1959 1183.31)">Medium</text><text class="cls-24" transform="translate(1954.89 1844.81)">Thin Italic</text><text class="cls-25" transform="translate(1546.73 1844.53)">ExtraLight Italic</text><text class="cls-26" transform="translate(1188.74 1844.72)">Light Italic</text><text class="cls-27" transform="translate(797.3 1845.68)">Italic</text><text class="cls-28" transform="translate(1587.81 488.6)">Regular</text></svg>