<svg id="Layer_1" data-name="Layer 1" xmlns="http://www.w3.org/2000/svg" viewBox="0 0 1980.66 762.73"><defs><style>.cls-1,.cls-2,.cls-3,.cls-4{fill:#fff;}.cls-2,.cls-3,.cls-4{font-size:24px;font-style:italic;}.cls-2{font-family:IBMPlexMono-BoldItalic, IBM Plex Mono;font-weight:700;}.cls-3{font-family:IBMPlexMono-SemiBoldItalic, IBM Plex Mono;font-weight:600;}.cls-4{font-family:IBMPlexMono-MediumItalic, IBM Plex Mono;font-weight:500;}</style></defs><path d="M0,478V443.19c4.33-.15,8.67-.42,13-.42q262.77,0,525.55,0c2.89,0,5.88.39,8.65-.21,1.89-.4,4.76-2,5-3.42,1.71-10.17,2.86-20.44,4.36-32h-12.8q-265.38,0-530.76,0c-4.33,0-8.67-.27-13-.41v-36.5c3.73.25,7.46.72,11.19.72q271.76,0,543.52,0c2.61,0,5.3.34,7.79-.2,1.62-.36,3.76-1.73,4.31-3.16,3.85-10.16,7.35-20.45,11.43-32H567q-130.25,0-260.48,0-153.24,0-306.49-.13v-36.5c4,.25,8,.72,12.05.72q284,.06,567.89.31c12.4,0,21.22-2.07,27.47-13.69,4.06-7.55,10.57-13.78,17.07-22H612.17q-176.71,0-353.41,0-129.37,0-258.76-.13v-36.5c2.88.16,5.76.45,8.64.45q330,0,660-.12c5.3,0,10.79-1.41,15.86-3.13C725.24,211,765.75,208.16,806,226.63a14.64,14.64,0,0,0,5.78,1.42c19.68.1,39.37.17,59.05-.09,1.92,0,5.17-2,5.5-3.61,2.12-10,3.59-20.21,5.46-31.44H0V156.42c2.88.15,5.76.44,8.64.44q434.75,0,869.48,0h9.6c2-12,3.87-23,5.92-35.22H0V85.16c2.31.09,4.62.27,6.93.27q442,0,884,0c2.83,0,5.66-.24,8.77-.38,1.93-11.59,3.75-22.6,5.78-34.81H10.42c-3.48,0-6.95.1-10.42.15V0H1980.66V762.73H0V657H626.49c-12.62-9.3-26.16-18.41-38.57-28.85-5-4.22-9.23-6.5-15.79-6.5q-281.31.24-562.62.15c-3.17,0-6.34.29-9.51.44V585.7c4.05,0,8.1-.13,12.15-.13H561.82c-2.43-9.15-5.53-17-6.42-25.15-.94-8.69-4.68-10.42-12.81-10.41q-266.57.36-533.14.21c-3.15,0-6.3.47-9.45.72v-36.5c4-.14,8.09-.41,12.13-.41q261.95,0,523.88,0h12.66V478.38H536q-261.51,0-523,0C8.67,478.36,4.33,478.09,0,478ZM1145.67,656.43h783.18V621.74H1797.29c-17.35,0-17.34,0-20.35,17.3-.08.49-.63.89-1,1.38h-82.47c.78-6.3,1.48-11.95,2.33-18.87-21.06,2.53-41.6-4.6-61.6,10.45-25.38,19.1-56.73,20-87.44,17.32-21.64-1.89-41.58-9.11-59.11-22.58a23.42,23.42,0,0,0-13-4.79c-35-.38-70.06-.21-105.09-.21-17.15,0-17.35,0-19.62,16.8-.84,6.29-3.22,8.67-9.92,8.58-28.08-.38-56.16-.14-84.24-.19-2.52,0-5-.39-8.28-.65,1.12-8.29,2.14-15.88,3.32-24.69-19.74,1.75-38.58-3.68-56.81,11.55C1179.81,645,1159.84,649.91,1145.67,656.43ZM1442,84.83c2.73.23,5,.59,7.21.59q61.65,0,123.28,0,102,0,204,0c5.65,0,10.08.1,10.28-7.73.17-6.49,2.17-12.93,3.38-19.52h83.13c-1.26,9.16-2.44,17.78-3.63,26.5h59v-34h-480.9C1445.79,62.17,1443.93,73.22,1442,84.83Zm337.39,36.78H1446.72c-1.74,0-3.85-.62-5.13.15-2.45,1.48-5.81,3.42-6.36,5.74-2.18,9.24-3.43,18.69-5.13,28.67h343.7C1775.64,144.71,1777.38,133.92,1779.36,121.61ZM1418.27,228.13c58.17,0,115.28,2.6,172-.72,57.24-3.35,114.26,5.43,171.79-.52,1.79-10.81,3.61-21.83,5.62-34H1436c-2.31,0-5-.69-6.86.2-2.37,1.12-5.44,3.26-5.92,5.46C1421.17,207.81,1420,217.28,1418.27,228.13ZM1020.42,85.45h311.37c1.45,0,3.24.52,4.27-.14,2-1.32,4.85-3,5.27-5,2-9.58,3.29-19.31,4.88-29.28a31.46,31.46,0,0,0-4.58-.71q-154.58-.06-309.17,0c-.58,0-1.36-.23-1.7,0-1.94,1.61-5,3.09-5.42,5.08C1023.36,64.94,1022.11,74.65,1020.42,85.45Zm314,36.16H1076.51c-18.52,0-37-.14-55.55.18-2.51,0-6.78,2-7.17,3.82-2.21,10-3.49,20.21-5.12,30.56h320.1C1330.64,144.73,1332.41,134,1334.44,121.61ZM996.69,227.45c3.18.28,5.42.65,7.66.66q66,0,131.94,0a44.7,44.7,0,0,0,9.4-1.23c22-4.84,44-5.37,66.32-2.83,18.85,2.14,37.85,3.13,56.81,4,13,.6,26,.14,39.06.09,2.82,0,5.65-.26,8.83-.42,1.94-11.57,3.79-22.58,5.83-34.82H1013c-2,0-4.27-.53-6,.17-2,.82-4.76,2.49-5.12,4.23C999.81,207.07,998.4,217,996.69,227.45ZM810.16,621.74c-12.09,0-23.32-.39-34.49.22-3.86.2-7.93,2.36-11.28,4.57-11,7.29-21.68,15.22-32.76,22.44-4.18,2.73-9.18,4.2-13.81,6.24l.37,1.14h374.1c-23.43-5.21-44.73-13.86-61.28-32a9.12,9.12,0,0,0-6.06-2.51c-30.92-.15-61.85-.1-93.52-.1-1.93,10.16-3.78,19.87-5.59,29.34H806C807.38,641.33,808.69,632.08,810.16,621.74Zm722.65-179h90.4c31.52,0,63,.09,94.54-.15,3,0,8.11-1.59,8.5-3.3,2.32-10.21,3.55-20.68,5.23-31.63-4.09-.24-6.65-.52-9.2-.53q-87.61,0-175.21,0c-1.45,0-3.21-.46-4.27.2-1.91,1.2-4.51,2.85-4.89,4.71C1536,421.59,1534.64,431.27,1532.81,442.75Zm-6.28,36.11c0,9.59.11,18.75,0,27.91-.09,5.54,2.25,7.35,7.81,7.33,53.56-.17,107.12-.07,160.68-.18,2.43,0,6.22-.42,7.06-1.93,5.77-10.34,10.93-21,17-33.13ZM1103,441.34c1.58.68,2.11,1.1,2.64,1.1q85.1.17,170.19.11c1.93,0,5.23-2.14,5.56-3.76,2.09-10.06,3.52-20.26,5.28-31.12h-178Q1105.76,424.91,1103,441.34Zm445.64-73,1.68,2.56h169c20.37,0,23.18-3.49,19.47-24.22a31.86,31.86,0,0,1-.89-4.23c-.27-5.64-3.4-7-8.63-7-52.06.13-104.12,0-156.17.2-2.53,0-6.22,1.12-7.37,3C1559.66,348.34,1554.25,358.43,1548.62,368.38ZM1273.14,480.15c-2.5-1-3.26-1.57-4-1.57-55.57-.08-111.14-.18-166.71.11-2,0-5.52,3.79-5.79,6.12-.82,6.85-.05,13.88-.49,20.8-.42,6.46,2,8.53,8.48,8.5,48-.2,96.09-.07,144.14-.22,2.6,0,6.53-.83,7.58-2.61C1262.26,501.24,1267.49,490.8,1273.14,480.15Zm-595.67-37.4h68c29,0,57.91.13,86.87-.2,2.93,0,7.89-2.26,8.4-4.34,2.4-9.7,3.57-19.7,5.17-29.55-1.39-.62-2.16-1.26-2.92-1.26-51.54-.11-103.08-.22-154.62,0-1.9,0-5,2.77-5.46,4.71C680.77,421.62,679.4,431.32,677.47,442.75Zm616.63-72.3c-.93-9.83-1.67-18.63-2.62-27.41-.59-5.5-3.61-7.61-9.38-7.58-45.72.2-91.44.08-137.16.2-2.37,0-5.86.59-7,2.18-6.85,10.11-13.18,20.58-20.73,32.61ZM831.89,479.06H672.22c0,9.59.17,18.52-.06,27.43-.15,5.59,2.09,7.6,7.69,7.58,41.65-.14,83.3,0,124.95-.25,3,0,7.05-1.79,8.6-4.1C819.62,500.41,825.05,490.58,831.89,479.06ZM692.82,368.47l2.24,2.47H832.12c22.5,0,24.31-2.35,19-24.67-.27-1.12-.9-2.17-1.08-3.29-.87-5.5-3.82-7.55-9.53-7.52-40.23.2-80.47,0-120.69.24-2.81,0-6.8,1.16-8.21,3.19C705,348.48,699,358.56,692.82,368.47ZM1929.44,550.94H1791.73c-1.88,11.67-3.65,22.63-5.36,33.19,1.19.69,1.44,1,1.69,1,45.38.16,90.76.36,136.13.19,1.76,0,4.89-3.66,5-5.75C1929.76,570.33,1929.44,561.07,1929.44,550.94ZM1797.84,514h43.66q40,0,79.92,0c3.56,0,8,1,8-5,0-9.78,0-19.57,0-29.09-1.73-.65-2.53-1.22-3.33-1.22-39.08-.11-78.17-.23-117.26,0-1.88,0-5,2.75-5.41,4.69C1801.28,492.85,1799.85,502.54,1797.84,514ZM1810,442.15h118.87V407.78H1815.59C1813.71,419.33,1811.92,430.32,1810,442.15Zm11.9-71.8h107.52c0-10.32.26-20.09-.25-29.82-.09-1.73-3.36-4.71-5.18-4.73q-45.54-.45-91.1-.06c-1.94,0-5.23,2.05-5.57,3.63C1825.18,349.39,1823.71,359.55,1821.9,370.35Zm-415.48-70.7c29.28,0,57,0,84.67-.09a7.77,7.77,0,0,0,5.27-2.12c9.23-10.52,18.23-21.24,27.28-31.91-.13-.25-.27-.71-.41-.71-35.51-.18-71-.39-106.53-.29-1.82,0-4.9,2.43-5.24,4.16C1409.48,278.51,1408.16,288.45,1406.42,299.65ZM1929,264.35c-29.17,0-57.18-.08-85.18.19-1.79,0-4.79,2.56-5.13,4.33-1.93,9.81-3.21,19.74-4.78,30.1H1929Zm-570.26,320.3h97.64c-3.13-10.84-5.73-20.83-9.06-30.58-.62-1.8-4.17-3.68-6.39-3.7q-35.49-.39-71,0c-2.05,0-5.48,2.31-5.86,4.08C1361.89,564.25,1360.48,574.19,1358.72,584.65Zm311.75-33.47H1539.14C1559.31,592.61,1632,592.46,1670.47,551.18ZM1929,192.9c-25.18,0-49.15-.11-73.12.23-1.84,0-4.82,3-5.24,5-2,9.54-3.32,19.23-4.94,29.28H1929Zm-855.59,72.39h-83c-1.93,11.64-3.7,22.35-5.67,34.28,19.93,0,38.9.06,57.86-.11,1.44,0,3.23-1.25,4.24-2.44C1055.56,286.72,1064.17,276.31,1073.36,265.29Zm368.33,248c0-10.47.27-20.26-.25-30-.09-1.71-3.45-4.63-5.35-4.66-18.21-.36-36.43-.33-54.64-.05-1.86,0-5,2.17-5.33,3.79-2.16,10.07-3.69,20.27-5.52,30.93Zm-47.26-142.49c21.65,0,42,0,62.41-.09a4.44,4.44,0,0,0,3.37-2.11c4.29-10.54,8.35-21.18,13-33-23.72,0-46.13-.08-68.53.15-1.66,0-4.44,2.06-4.74,3.56C1397.84,349.36,1396.32,359.51,1394.43,370.82Zm534.22-214.4V121.63c-20.7,0-40.59-.1-60.48.17-1.88,0-5.06,2.13-5.39,3.74-2.11,10-3.57,20.19-5.34,30.88Zm-478.9,250.75c-19.93,0-38.4-.06-56.86.12-1.6,0-4.35,1.4-4.59,2.56-2.16,10.56-3.88,21.21-5.91,32.85,20.13,0,38.6.12,57.06-.18,1.81,0,4.82-2.4,5.16-4.11C1446.6,428.58,1447.94,418.63,1449.75,407.17ZM937.5,585h69.16c-2.81-10.73-5.28-21-8.38-31.12-.51-1.67-3.76-3.49-5.79-3.53q-22.1-.45-44.2,0c-2,0-5.46,2-5.77,3.52C940.5,564,939.16,574.16,937.5,585Zm171.42-34.38c8.25,16.25,25.14,25.51,47.76,26.32,25.53.92,47.6-7.46,67.73-26.32ZM949.21,513.91c14.14,0,27.06.19,40-.26,1.5,0,4-3.57,4.13-5.6.47-7.74,0-15.54.18-23.31.08-4.22-1.22-6.47-5.88-6.38-9.23.18-18.48-.22-27.69.28-2.06.12-5.33,2.69-5.73,4.62C952.19,492.79,951,502.48,949.21,513.91ZM1024,335.6c-14.56,0-27.53-.17-40.48.18-1.86.05-4.91,2.26-5.26,3.92-2.09,10-3.54,20.11-5.38,31.2,12.06,0,23,.15,33.86-.16a6.81,6.81,0,0,0,5-3.38C1015.93,357.34,1019.63,347.15,1024,335.6Zm-22.75,71.66c-11,0-21-.18-31,.2-1.49.06-3.84,2.55-4.17,4.23-1.91,9.79-3.34,19.67-5.06,30.34h34.74C997.59,430.79,999.35,419.58,1001.28,407.26ZM775.8,551H687.58C701.34,573.75,752.34,573.65,775.8,551Zm950-286.16c5.28,10.88,9.9,20.76,14.93,30.43a9.42,9.42,0,0,0,5.42,4.08c1.11.31,4-1.62,4.23-2.9,2-10.3,3.56-20.68,5.35-31.61Zm-443.87,0c4.82,11.07,9.1,21.68,14.18,31.88,1,1.94,5.14,2.28,8.48,3.61l5.85-35.49Zm-437.36-.05c3.87,11,7.3,21.29,11.19,31.37.6,1.54,3.29,3,5.09,3.11,1.28.07,3.6-2.1,3.86-3.55,1.83-10,3.25-20.16,4.9-30.93Zm837.23,320.7c6.63,0,11.23.24,15.78-.13,1.7-.14,4.5-1.47,4.72-2.64,2-10.52,3.46-21.14,5.1-31.72l-3.54-1.52C1696.91,560.93,1689.92,572.33,1681.84,585.53Zm-860-34.13-3.5-1.82-20.71,35.93c6.15,0,10.38.37,14.5-.17,1.69-.22,4.22-2.16,4.52-3.69C818.66,571.62,820.17,561.5,821.84,551.4ZM612.19,727.54c14.23,2.52,14.8,2.1,16.36-10.86a7.58,7.58,0,0,1,1.13-2.28c2.91-5.45,1.21-9.08-4.68-10.12-5-.88-9.93-1.12-10.24,6.51C614.53,716.22,613.15,721.59,612.19,727.54Zm650.24-176.33-3.07-1.16-20,35.5c5.28,0,8.76.5,12-.16,2.35-.48,6-2.17,6.3-3.87C1259.66,571.5,1260.91,561.33,1262.43,551.21ZM1112.25,727.49c14,2.79,15.55,1.76,16.24-10.53a5.17,5.17,0,0,1,.91-2.36c3.42-5.42,1.47-9-4.22-10.23-4.9-1-9.86-1.4-10.18,6.35C1114.78,716.35,1113.21,721.92,1112.25,727.49ZM687,710.66c-2.09,0-5-.84-5.89.15-2.71,2.9-5.53,6.28-6.56,10-.61,2.17,1.7,7.21,3.38,7.55,3.87.77,11.17.5,11.75-1.18,2.61-7.62,3.38-15.87,4.81-23.9l-3.59-.86Zm500.56-.15-1.74-1.39c-3.25,2-7.71,3.34-9.39,6.25s-2,9.88-.44,10.81c3.81,2.25,9.08,2,14.28,2.86,1.4-9.54,2.58-17.61,3.77-25.67l-3.12-.72ZM1691.59,299c-22.92-7.2-45.64-7.27-68.32,0ZM776.18,711.25c-15.69-.1-19.23,1.87-18.77,10.56.68,13,10.33,3.91,15.88,7.17C774.35,722.47,775.26,716.92,776.18,711.25Zm-130.58-.87c-10,.23-12.94,5.2-12.35,10.81.3,2.91,4.73,7,7.92,7.66,5.57,1.23,11.31-5.28,9.9-11C650.28,714.54,646.8,711.92,645.6,710.38Zm630.37.93c-15.85-.35-18.3,1.08-18.23,10.22.12,13.46,9.92,4.23,15.23,7.34C1274,722.68,1274.93,717.42,1276,711.31ZM1489.8,721c2-2.39,3.62-4.31,5.58-6.66-.38,5.08-.7,9.32-1,13.56l2.84.3q1.92-11.69,3.83-23.36-2-1.53-4-3l-5,9.84-5.57-8-2.3.71-3.81,23.44,3.07.48c1.05-4.61,2.09-9.21,3.36-14.83C1487.86,716.3,1488.69,718.33,1489.8,721Zm-756.64,7c-7-6.2-7-14.58,2.51-23.1H719.12c6.79,9.3,4.71,16.51-4.18,23.1Zm296.17-4.7c6.18,6.92,13.5,7.12,16.1,2.2,4.92-9.33-4-10.42-9.26-13.64.1-.81.21-1.63.32-2.45l12.88-1c-5.55-5.33-10.95-6.66-15-2.2-9.32,10.15,4.17,10.73,9.24,17.12Zm54.13-8.4,1.81.08q-.39,6.6-.77,13.19l3,.24,2.56-17.4h-18.19c-.76,5.92-1.46,11.42-2.17,16.92l2.73.44q2-6.83,3.91-13.65l1.66.35v13.06c2.32-1.93,2.79-4,3.35-6C1082,719.67,1082.77,717.28,1083.46,714.88Zm-26.74,9.74-.45-2.26c1.23-.32,2.67-.34,3.65-1a47.14,47.14,0,0,0,7.27-6.06c.35-.36-1.41-3.91-2.19-3.91-3.54,0-8.46-.46-10.26,1.57-2.44,2.76-3.36,7.68-3.16,11.59.08,1.71,4.51,4.42,7,4.48,2.67.06,5.4-2.48,8.11-3.89-.44-.6-.88-1.21-1.31-1.82Zm479.34-14.21c-9.43.12-14.18,3.92-13.62,11.46.87,11.7,9.45,5.11,15.49,6.51,1.27-8.58,2.48-16.67,3.68-24.76l-2.57-.51C1538,705.57,1537,708,1536.06,710.41Zm47.55,17.28,2.69.52,3.82-13.69,1.81.38-.6,13.11,2.16.12q2-6.84,4.06-13.68l1.83.41q-.35,6.5-.68,13l3.1.18c.32-5.41,2.88-12.84.34-15.66s-10.22-1.33-16-1.74C1585.16,717.08,1584.39,722.39,1583.61,727.69ZM656.05,703.23,654,705.39c11.29,3.18,2.68,9.63,4.22,14.41,1,3.09,1.94,6.2,2.9,9.3l9.29-5.71L669,721l-5.26.73c.79-6.47,1.51-12.29,2.34-19.06Zm97.46,9-7.21-8.17-8,8.84c2,3.69,1.62,7.15,2.14,10.47.3,1.93,2.65,5.33,3,5.2a76.63,76.63,0,0,0,10-5c.05,0-.41-1-.9-2.13l-5.77,1.31c-.53-.54-1.06-1.08-1.58-1.63C748,718.22,750.74,715.27,753.51,712.26Zm764.4,11.67h-10.55c3-2.64,6.85-2.7,8.73-4.65,1.42-1.46.35-5.33.39-8.13-4.06,1.21-10.17,1.28-11.65,3.94-1.79,3.2-1.28,10.25,1.16,12.65C1509.57,731.25,1514.93,729.76,1517.91,723.93Zm-735.3-20.7c0,6.48-.32,11.42.12,16.29.28,3.18,1.68,6.26,2.57,9.38l9.55-5.27c-.47-.81-.94-1.62-1.42-2.43L787.7,723c1.06-6.74,2.06-13.05,3.21-20.38Zm449.47,24.82c-6.85-6.58-5.29-16.3,3.43-23.33h-15.87c6.15,6.82,4.76,15.79-3.5,23.33Zm-79.83-6.85v-4.07c-2.86-2.23-5.48-5.86-8.62-6.39-6.68-1.13-9.9,3.76-10.47,9.72-.51,5.39,2.83,9.6,8.1,8.42C1145.29,728,1148.61,723.88,1152.25,721.2Zm534-12.56c-6.83,2.57-12.52,3.46-16.33,6.63-2.05,1.71-2.4,9.66-.85,10.66,3.66,2.35,8.91,2.24,13.9,3.19C1684.08,722.15,1684.92,716.89,1686.24,708.64Zm-445.58,6.49a49.79,49.79,0,0,0,.11,7.69c.26,2,1.55,3.9,2.38,5.85,3.29-1.69,6.59-3.37,9.84-5.14a12,12,0,0,0-.65-2l-5.84,2-1.89-2.21,8.65-8.85-7.41-7.5,2.51,1.8Zm46.75,8.2c1.14-7.06,2.14-13.19,3.22-19.89h-8.39c.58,4.66,1.41,8.55,1.44,12.45,0,3.09-1.27,6.17-1.32,9.27,0,1.21,2.33,3.63,2.63,3.48a87.18,87.18,0,0,0,9-5.33c.2-.13-.07-1-.17-2.18Zm-129.69-20.12c.64,4.92,1.35,8.37,1.44,11.83.06,2.55-.94,5.12-1,7.7,0,1.82.24,4.88,1.19,5.24a8.3,8.3,0,0,0,6.27-.52c1.91-1.06,3.13-3.35,4.66-5.1l-1.14-1.34-6.2,2.23c1.12-7,2.13-13.4,3.3-20.73Zm-320.91,13-.13-4c-3.62-.34-8.8-2.3-10.52-.65-3,2.91-4.75,7.92-5.36,12.28-.19,1.4,4.79,4.91,7.43,4.94s5.45-3,8.18-4.71l-1.55-2.27-8.35,3.07C824.68,715.6,828.85,714,836.81,716.22Zm819-10.82-5.93,6.36c.81,3.14,1.53,5.57,2,8,.62,3,1.07,6,1.6,9l10-4.65-1.2-2.42-5.86,2.24-2-2,8.29-10.13C1660.86,710.06,1658.35,707.73,1655.82,705.4ZM802,711.08c.64,4.67,1,8.66,1.8,12.56a14,14,0,0,0,2.31,4.79,74.43,74.43,0,0,0,9.48-4.36c.39-.21.23-1.46.39-2.85l-6.18.49c.39-3.47.76-6.82,1.19-10.63Zm533.59,4.13c.27-1,.55-2,.83-3-3.38-.39-8.1-2.34-9.83-.84-3,2.64-5.15,7.25-5.72,11.3-.26,1.82,4,5.87,6.47,6.06,2.89.22,6-2.62,9-4.14l-1.22-2.27-8.48,2.58C1325.47,714.63,1325.89,714.22,1335.57,715.21Zm356.72-12.14c1.19,4.1,2.64,6.73,2.53,9.29-.19,4-1.76,7.84-2.09,11.8-.12,1.47,1.62,3.09,2.51,4.65,3-1.88,6-3.73,8.91-5.68.16-.11-.17-1-.38-2l-6.35,2.38c1.07-7.21,2-13.56,3.1-20.82Zm-47.64,1.86h-12.12c.33,4.64,1.35,8.4.66,11.83-.8,4-3.08,7.78-4.56,11.29h12.61C1634.79,721.35,1637.11,709.7,1644.65,704.93Zm-65.43,24.16c.93-7,1.63-12.35,2.34-17.69L1579,711c-4,3.91.32,13.25-9.38,14.41V710.93l-3-.08c-.27,5.39-1.67,11.11-.23,16C1566.82,728.59,1574.19,728.32,1579.22,729.09Zm167.13-3.47-1.41-2.32-8.47,1.42c-.16-2.44-1.36-6.23-.29-7,2.57-2,6.2-2.53,9.41-3.66-2.17-2.09-6.22-4.13-7.92-2.91A18.11,18.11,0,0,0,1731,721c-.48,2.13,2.76,7,4.92,7.38C1739.1,729,1742.83,726.68,1746.35,725.62ZM1109.16,724l-1.65-2.91-5.75,2.26c.52-4.37,1-8.2,1.51-12.75l-9.44.51c1.39,3.55,2.6,6,3.32,8.66.8,2.92,1.17,6,1.73,8.94Zm201.74-13.57-9.59.87c1.36,3.88,2.34,6.6,3.26,9.33s1.82,5.64,2.73,8.46l9-6.08-1.51-2.07-6,2.62C1309.52,719.22,1310.09,715.57,1310.9,710.44Zm415.7,13-1-2-6.79,2.23c.64-4.56,1.19-8.4,1.86-13.1l-7.72.35c1,6.57,1.92,12.15,3.09,19.59Zm-165,.41c-.62-.81-1.23-1.63-1.84-2.45L1553,723.8c.55-4.57,1-8.48,1.58-13.12l-7.56.35c.58,4.81,1,8.17,1.41,11.53.25,1.88.11,5,1,5.36,1.81.66,4.3.2,6.26-.51C1557.82,726.66,1559.65,725.1,1561.61,723.88Z"/><path class="cls-1" d="M0,50.4c3.47,0,6.94-.15,10.42-.15H905.51c-2,12.21-3.85,23.22-5.78,34.81-3.11.14-5.94.38-8.77.38q-442,0-884,0c-2.31,0-4.62-.18-6.93-.27Z"/><path class="cls-1" d="M0,121.66H893.64c-2,12.19-3.9,23.22-5.92,35.22h-9.6q-434.75,0-869.48,0c-2.88,0-5.76-.29-8.64-.44Z"/><path class="cls-1" d="M0,192.91H881.8c-1.87,11.23-3.34,21.41-5.46,31.44-.33,1.57-3.58,3.58-5.5,3.61-19.68.26-39.37.19-59.05.09a14.64,14.64,0,0,1-5.78-1.42c-40.26-18.47-80.77-15.64-121.51-1.76-5.07,1.72-10.56,3.13-15.86,3.13q-330,.24-660,.12c-2.88,0-5.76-.29-8.64-.45Z"/><path class="cls-1" d="M0,264.17q129.38.07,258.76.13,176.7,0,353.41,0h12.31c-6.5,8.18-13,14.41-17.07,22C601.16,297.89,592.34,300,579.94,300q-284-.6-567.89-.31c-4,0-8-.47-12-.72Z"/><path class="cls-1" d="M0,622.2c3.17-.15,6.34-.44,9.51-.44q281.31,0,562.62-.15c6.56,0,10.78,2.28,15.79,6.5,12.41,10.44,26,19.55,38.57,28.85H0Z"/><path class="cls-1" d="M0,406.69c4.33.14,8.67.41,13,.41q265.38,0,530.76,0h12.8c-1.5,11.56-2.65,21.83-4.36,32-.24,1.43-3.11,3-5,3.42-2.77.6-5.76.21-8.65.21q-262.78,0-525.55,0c-4.33,0-8.67.27-13,.42Z"/><path class="cls-1" d="M0,478c4.33.14,8.67.41,13,.41q261.51,0,523,0h12.66V514H536q-261.94,0-523.88,0c-4,0-8.09.27-12.13.41Z"/><path class="cls-1" d="M0,335.43q153.24.06,306.49.13,130.25,0,260.48,0h11.27c-4.08,11.57-7.58,21.86-11.43,32-.55,1.43-2.69,2.8-4.31,3.16-2.49.54-5.18.2-7.79.2q-271.75,0-543.52,0c-3.73,0-7.46-.47-11.19-.72Z"/><path class="cls-1" d="M0,550.94c3.15-.25,6.3-.72,9.45-.72q266.57,0,533.14-.21c8.13,0,11.87,1.72,12.81,10.41.89,8.12,4,16,6.42,25.15H12.15c-4.05,0-8.1.09-12.15.13Z"/><path class="cls-1" d="M1145.67,656.43c14.17-6.52,34.14-11.44,48.32-23.29,18.23-15.23,37.07-9.8,56.81-11.55-1.18,8.81-2.2,16.4-3.32,24.69,3.24.26,5.76.65,8.28.65,28.08.05,56.16-.19,84.24.19,6.7.09,9.08-2.29,9.92-8.58,2.27-16.83,2.47-16.8,19.62-16.8,35,0,70.06-.17,105.09.21a23.42,23.42,0,0,1,13,4.79c17.53,13.47,37.47,20.69,59.11,22.58,30.71,2.68,62.06,1.78,87.44-17.32,20-15,40.54-7.92,61.6-10.45-.85,6.92-1.55,12.57-2.33,18.87H1776c.36-.49.91-.89,1-1.38,3-17.3,3-17.3,20.35-17.3h131.56v34.69Z"/><path class="cls-1" d="M1442,84.83c2-11.61,3.82-22.66,5.75-34.12h480.9v34h-59c1.19-8.72,2.37-17.34,3.63-26.5h-83.13c-1.21,6.59-3.21,13-3.38,19.52-.2,7.83-4.63,7.74-10.28,7.73q-102-.14-204,0-61.64,0-123.28,0C1446.94,85.42,1444.7,85.06,1442,84.83Z"/><path class="cls-1" d="M1779.36,121.61c-2,12.31-3.72,23.1-5.56,34.56H1430.1c1.7-10,3-19.43,5.13-28.67.55-2.32,3.91-4.26,6.36-5.74,1.28-.77,3.39-.15,5.13-.15h332.64Z"/><path class="cls-1" d="M1418.27,228.13c1.72-10.85,2.9-20.32,4.93-29.6.48-2.2,3.55-4.34,5.92-5.46,1.9-.89,4.55-.2,6.86-.2h331.75c-2,12.19-3.83,23.21-5.62,34-57.53,6-114.55-2.83-171.79.52C1533.55,230.73,1476.44,228.13,1418.27,228.13Z"/><path class="cls-1" d="M1020.42,85.45c1.69-10.8,2.94-20.51,4.92-30.07.41-2,3.48-3.47,5.42-5.08.34-.28,1.12,0,1.7,0q154.59,0,309.17,0a31.46,31.46,0,0,1,4.58.71c-1.59,10-2.89,19.7-4.88,29.28-.42,2-3.23,3.71-5.27,5-1,.66-2.82.14-4.27.14H1020.42Z"/><path class="cls-1" d="M1334.44,121.61c-2,12.35-3.8,23.12-5.67,34.56h-320.1c1.63-10.35,2.91-20.56,5.12-30.56.39-1.77,4.66-3.77,7.17-3.82,18.51-.32,37-.18,55.55-.18h257.93Z"/><path class="cls-1" d="M996.69,227.45c1.71-10.44,3.12-20.38,5.15-30.18.36-1.74,3.12-3.41,5.12-4.23,1.75-.7,4-.17,6-.17h309.56c-2,12.24-3.89,23.25-5.83,34.82-3.18.16-6,.42-8.83.42-13,0-26.07.51-39.06-.09-19-.87-38-1.86-56.81-4-22.35-2.54-44.37-2-66.32,2.83a44.7,44.7,0,0,1-9.4,1.23q-66,.12-131.94,0C1002.11,228.1,999.87,227.73,996.69,227.45Z"/><path class="cls-1" d="M810.16,621.74c-1.47,10.34-2.78,19.59-4.17,29.36H925.84c1.81-9.47,3.66-19.18,5.59-29.34,31.67,0,62.6,0,93.52.1a9.12,9.12,0,0,1,6.06,2.51c16.55,18.12,37.85,26.77,61.28,32H718.19l-.37-1.14c4.63-2,9.63-3.51,13.81-6.24,11.08-7.22,21.71-15.15,32.76-22.44,3.35-2.21,7.42-4.37,11.28-4.57C786.84,621.35,798.07,621.74,810.16,621.74Z"/><path class="cls-1" d="M1532.81,442.75c1.83-11.48,3.16-21.16,5.1-30.71.38-1.86,3-3.51,4.89-4.71,1.06-.66,2.82-.2,4.27-.2q87.6,0,175.21,0c2.55,0,5.11.29,9.2.53-1.68,10.95-2.91,21.42-5.23,31.63-.39,1.71-5.53,3.28-8.5,3.3-31.51.24-63,.15-94.54.15h-90.4Z"/><path class="cls-1" d="M1526.53,478.86h192.55C1713,491,1707.81,501.65,1702,512c-.84,1.51-4.63,1.93-7.06,1.93-53.56.11-107.12,0-160.68.18-5.56,0-7.9-1.79-7.81-7.33C1526.64,497.61,1526.53,488.45,1526.53,478.86Z"/><path class="cls-1" d="M1103,441.34q2.79-16.44,5.72-33.67h178c-1.76,10.86-3.19,21.06-5.28,31.12-.33,1.62-3.63,3.76-5.56,3.76q-85.1.18-170.19-.11C1105.09,442.44,1104.56,442,1103,441.34Z"/><path class="cls-1" d="M1548.62,368.38c5.63-9.95,11-20,17.1-29.73,1.15-1.84,4.84-2.95,7.37-3,52.05-.16,104.11-.07,156.17-.2,5.23,0,8.36,1.36,8.63,7a31.86,31.86,0,0,0,.89,4.23c3.71,20.73.9,24.22-19.47,24.22h-169Z"/><path class="cls-1" d="M1273.14,480.15c-5.65,10.65-10.88,21.09-16.8,31.13-1,1.78-5,2.6-7.58,2.61-48,.15-96.1,0-144.14.22-6.43,0-8.9-2-8.48-8.5.44-6.92-.33-13.95.49-20.8.27-2.33,3.75-6.11,5.79-6.12,55.57-.29,111.14-.19,166.71-.11C1269.88,478.58,1270.64,479.15,1273.14,480.15Z"/><path class="cls-1" d="M677.47,442.75c1.93-11.43,3.3-21.13,5.4-30.67.42-1.94,3.56-4.7,5.46-4.71,51.54-.19,103.08-.08,154.62,0,.76,0,1.53.64,2.92,1.26-1.6,9.85-2.77,19.85-5.17,29.55-.51,2.08-5.47,4.31-8.4,4.34-29,.33-57.92.2-86.87.2h-68Z"/><path class="cls-1" d="M1294.1,370.45H1117.26c7.55-12,13.88-22.5,20.73-32.61,1.09-1.59,4.58-2.17,7-2.18,45.72-.12,91.44,0,137.16-.2,5.77,0,8.79,2.08,9.38,7.58C1292.43,351.82,1293.17,360.62,1294.1,370.45Z"/><path class="cls-1" d="M831.89,479.06c-6.84,11.52-12.27,21.35-18.49,30.66-1.55,2.31-5.65,4.08-8.6,4.1-41.65.26-83.3.11-124.95.25-5.6,0-7.84-2-7.69-7.58.23-8.91.06-17.84.06-27.43Z"/><path class="cls-1" d="M692.82,368.47c6.19-9.91,12.13-20,18.78-29.58,1.41-2,5.4-3.17,8.21-3.19,40.22-.2,80.46,0,120.69-.24,5.71,0,8.66,2,9.53,7.52.18,1.12.81,2.17,1.08,3.29,5.32,22.32,3.51,24.67-19,24.67H695.06Z"/><path class="cls-1" d="M1929.44,550.94c0,10.13.32,19.39-.23,28.59-.13,2.09-3.26,5.74-5,5.75-45.37.17-90.75,0-136.13-.19-.25,0-.5-.27-1.69-1,1.71-10.56,3.48-21.52,5.36-33.19Z"/><path class="cls-1" d="M1797.84,514c2-11.47,3.44-21.16,5.58-30.69.44-1.94,3.53-4.68,5.41-4.69,39.09-.21,78.18-.09,117.26,0,.8,0,1.6.57,3.33,1.22,0,9.52,0,19.31,0,29.09,0,6.05-4.45,5-8,5q-40,.09-79.92,0Z"/><path class="cls-1" d="M1810,442.15c1.92-11.83,3.71-22.82,5.59-34.37h113.28v34.37Z"/><path class="cls-1" d="M1821.9,370.35c1.81-10.8,3.28-21,5.42-31,.34-1.58,3.63-3.61,5.57-3.63q45.55-.33,91.1.06c1.82,0,5.09,3,5.18,4.73.51,9.73.25,19.5.25,29.82Z"/><path class="cls-1" d="M1406.42,299.65c1.74-11.2,3.06-21.14,5-31,.34-1.73,3.42-4.16,5.24-4.16,35.51-.1,71,.11,106.53.29.14,0,.28.46.42.71-9.06,10.67-18.06,21.39-27.29,31.91a7.77,7.77,0,0,1-5.27,2.12C1463.4,299.69,1435.7,299.65,1406.42,299.65Z"/><path class="cls-1" d="M1929,264.35V299h-95.09c1.57-10.36,2.85-20.29,4.78-30.1.34-1.77,3.34-4.31,5.13-4.33C1871.8,264.27,1899.81,264.35,1929,264.35Z"/><path class="cls-1" d="M1358.72,584.65c1.76-10.46,3.17-20.4,5.33-30.18.38-1.77,3.81-4.05,5.86-4.08q35.5-.42,71,0c2.22,0,5.77,1.9,6.39,3.7,3.33,9.75,5.93,19.74,9.06,30.58Z"/><path class="cls-1" d="M1670.47,551.18c-38.47,41.28-111.16,41.43-131.33,0Z"/><path class="cls-1" d="M1929,192.9v34.51h-83.3c1.62-10,2.93-19.74,4.94-29.28.42-2,3.4-5,5.24-5C1879.8,192.79,1903.77,192.9,1929,192.9Z"/><path class="cls-1" d="M1073.36,265.29c-9.19,11-17.8,21.43-26.56,31.73-1,1.19-2.8,2.43-4.24,2.44-19,.17-37.93.11-57.86.11,2-11.93,3.74-22.64,5.67-34.28Z"/><path class="cls-1" d="M1441.69,513.31H1370.6c1.83-10.66,3.36-20.86,5.52-30.93.35-1.62,3.47-3.76,5.33-3.79,18.21-.28,36.43-.31,54.64.05,1.9,0,5.26,2.95,5.35,4.66C1442,493.05,1441.69,502.84,1441.69,513.31Z"/><path class="cls-1" d="M1394.43,370.82c1.89-11.31,3.41-21.46,5.47-31.5.3-1.5,3.08-3.54,4.74-3.56,22.4-.23,44.81-.15,68.53-.15-4.61,11.83-8.67,22.47-13,33a4.44,4.44,0,0,1-3.37,2.11C1436.46,370.85,1416.08,370.82,1394.43,370.82Z"/><path class="cls-1" d="M1928.65,156.42h-71.21c1.77-10.69,3.23-20.85,5.34-30.88.33-1.61,3.51-3.71,5.39-3.74,19.89-.27,39.78-.17,60.48-.17Z"/><path class="cls-1" d="M1449.75,407.17c-1.81,11.46-3.15,21.41-5.14,31.24-.34,1.71-3.35,4.08-5.16,4.11-18.46.3-36.93.18-57.06.18,2-11.64,3.75-22.29,5.91-32.85.24-1.16,3-2.55,4.59-2.56C1411.35,407.11,1429.82,407.17,1449.75,407.17Z"/><path class="cls-1" d="M937.5,585c1.66-10.86,3-21.06,5-31.13.31-1.55,3.74-3.48,5.77-3.52q22.1-.45,44.2,0c2,0,5.28,1.86,5.79,3.53,3.1,10.1,5.57,20.39,8.38,31.12Z"/><path class="cls-1" d="M1108.92,550.64h115.49c-20.13,18.86-42.2,27.24-67.73,26.32C1134.06,576.15,1117.17,566.89,1108.92,550.64Z"/><path class="cls-1" d="M949.21,513.91c1.76-11.43,3-21.12,5-30.65.4-1.93,3.67-4.5,5.73-4.62,9.21-.5,18.46-.1,27.69-.28,4.66-.09,6,2.16,5.88,6.38-.14,7.77.29,15.57-.18,23.31-.12,2-2.63,5.55-4.13,5.6C976.27,514.1,963.35,513.91,949.21,513.91Z"/><path class="cls-1" d="M1024,335.6c-4.4,11.55-8.1,21.74-12.25,31.76a6.81,6.81,0,0,1-5,3.38c-10.89.31-21.8.16-33.86.16,1.84-11.09,3.29-21.21,5.38-31.2.35-1.66,3.4-3.87,5.26-3.92C996.5,335.43,1009.47,335.6,1024,335.6Z"/><path class="cls-1" d="M1001.28,407.26c-1.93,12.32-3.69,23.53-5.46,34.77H961.08c1.72-10.67,3.15-20.55,5.06-30.34.33-1.68,2.68-4.17,4.17-4.23C980.3,407.08,990.3,407.26,1001.28,407.26Z"/><path class="cls-1" d="M775.8,551c-23.46,22.64-74.46,22.74-88.22,0Z"/><path class="cls-1" d="M1725.84,264.85h29.93c-1.79,10.93-3.35,21.31-5.35,31.61-.24,1.28-3.12,3.21-4.23,2.9a9.42,9.42,0,0,1-5.42-4.08C1735.74,285.61,1731.12,275.73,1725.84,264.85Z"/><path class="cls-1" d="M1282,264.88h28.51l-5.85,35.49c-3.34-1.33-7.52-1.67-8.48-3.61C1291.07,286.56,1286.79,276,1282,264.88Z"/><path class="cls-1" d="M844.61,264.83h25c-1.65,10.77-3.07,20.89-4.9,30.93-.26,1.45-2.58,3.62-3.86,3.55-1.8-.08-4.49-1.57-5.09-3.11C851.91,286.12,848.48,275.87,844.61,264.83Z"/><path class="cls-1" d="M1681.84,585.53c8.08-13.2,15.07-24.6,22.06-36l3.54,1.52c-1.64,10.58-3.14,21.2-5.1,31.72-.22,1.17-3,2.5-4.72,2.64C1693.07,585.77,1688.47,585.53,1681.84,585.53Z"/><path class="cls-1" d="M821.84,551.4c-1.67,10.1-3.18,20.22-5.19,30.25-.3,1.53-2.83,3.47-4.52,3.69-4.12.54-8.35.17-14.5.17l20.71-35.93Z"/><path class="cls-1" d="M612.19,727.54c1-5.95,2.34-11.32,2.57-16.75.31-7.63,5.24-7.39,10.24-6.51,5.89,1,7.59,4.67,4.68,10.12a7.58,7.58,0,0,0-1.13,2.28C627,729.64,626.42,730.06,612.19,727.54Z"/><path class="cls-1" d="M1262.43,551.21c-1.52,10.12-2.77,20.29-4.81,30.31-.35,1.7-3.95,3.39-6.3,3.87-3.25.66-6.73.16-12,.16l20-35.5Z"/><path class="cls-1" d="M1112.25,727.49c1-5.57,2.53-11.14,2.75-16.77.32-7.75,5.28-7.39,10.18-6.35,5.69,1.22,7.64,4.81,4.22,10.23a5.17,5.17,0,0,0-.91,2.36C1127.8,729.25,1126.3,730.28,1112.25,727.49Z"/><path class="cls-1" d="M687,710.66l3.9-8.28,3.59.86c-1.43,8-2.2,16.28-4.81,23.9-.58,1.68-7.88,2-11.75,1.18-1.68-.34-4-5.38-3.38-7.55,1-3.68,3.85-7.06,6.56-10C682,709.82,684.86,710.66,687,710.66Z"/><path class="cls-1" d="M1187.51,710.51l3.36-7.86,3.12.72c-1.19,8.06-2.37,16.13-3.77,25.67-5.2-.85-10.47-.61-14.28-2.86-1.58-.93-1.25-7.87.44-10.81s6.14-4.23,9.39-6.25Z"/><path class="cls-1" d="M1691.59,299h-68.32C1646,291.77,1668.67,291.84,1691.59,299Z"/><path class="cls-1" d="M776.18,711.25c-.92,5.67-1.83,11.22-2.89,17.73-5.55-3.26-15.2,5.78-15.88-7.17C757,713.12,760.49,711.15,776.18,711.25Z"/><path class="cls-1" d="M645.6,710.38c1.2,1.54,4.68,4.16,5.47,7.43,1.41,5.76-4.33,12.27-9.9,11-3.19-.7-7.62-4.75-7.92-7.66C632.66,715.58,635.58,710.61,645.6,710.38Z"/><path class="cls-1" d="M1276,711.31c-1,6.11-1.94,11.37-3,17.56-5.31-3.11-15.11,6.12-15.23-7.34C1257.67,712.39,1260.12,711,1276,711.31Z"/><path class="cls-1" d="M1489.8,721c-1.11-2.69-1.94-4.72-3.1-7.52-1.27,5.62-2.31,10.22-3.36,14.83l-3.07-.48,3.81-23.44,2.3-.71,5.57,8,5-9.84q2,1.51,4,3-1.92,11.67-3.83,23.36l-2.84-.3c.32-4.24.64-8.48,1-13.56C1493.42,716.71,1491.8,718.63,1489.8,721Z"/><path class="cls-1" d="M733.16,728H714.94c8.89-6.59,11-13.8,4.18-23.1h16.55C726.15,713.4,726.11,721.78,733.16,728Z"/><path class="cls-1" d="M1029.33,723.28h14.24c-5.07-6.39-18.56-7-9.24-17.12,4.09-4.46,9.49-3.13,15,2.2l-12.88,1c-.11.82-.22,1.64-.32,2.45,5.24,3.22,14.18,4.31,9.26,13.64C1042.83,730.4,1035.51,730.2,1029.33,723.28Z"/><path class="cls-1" d="M1083.46,714.88c-.69,2.4-1.42,4.79-2.07,7.2-.56,2-1,4.1-3.35,6V715.05l-1.66-.35q-2,6.82-3.91,13.65l-2.73-.44c.71-5.5,1.41-11,2.17-16.92h18.19l-2.56,17.4-3-.24q.39-6.6.77-13.19Z"/><path class="cls-1" d="M1056.72,724.62l8.68-1.32c.43.61.87,1.22,1.31,1.82-2.71,1.41-5.44,4-8.11,3.89-2.51-.06-6.94-2.77-7-4.48-.2-3.91.72-8.83,3.16-11.59,1.8-2,6.72-1.56,10.26-1.57.78,0,2.54,3.55,2.19,3.91a47.14,47.14,0,0,1-7.27,6.06c-1,.68-2.42.7-3.65,1Z"/><path class="cls-1" d="M1536.06,710.41c1-2.38,2-4.84,3-7.3l2.57.51c-1.2,8.09-2.41,16.18-3.68,24.76-6-1.4-14.62,5.19-15.49-6.51C1521.88,714.33,1526.63,710.53,1536.06,710.41Zm.39,5.7-1.71-2c-2.14.66-5.56.77-6.13,2.1-1.14,2.68-.73,6-1,9.09l3.2,1Z"/><path class="cls-1" d="M1583.61,727.69c.78-5.3,1.55-10.61,2.5-17.06,5.81.41,13.41-1.17,16,1.74s0,10.25-.34,15.66l-3.1-.18q.33-6.5.68-13l-1.83-.41q-2,6.84-4.06,13.68l-2.16-.12.6-13.11-1.81-.38-3.82,13.69Z"/><path class="cls-1" d="M656.05,703.23l10-.58c-.83,6.77-1.55,12.59-2.34,19.06L669,721l1.41,2.41-9.29,5.71c-1-3.1-1.91-6.21-2.9-9.3-1.54-4.78,7.07-11.23-4.22-14.41Z"/><path class="cls-1" d="M753.51,712.26c-2.77,3-5.51,6-8.24,8.92.52.55,1.05,1.09,1.58,1.63l5.77-1.31c.49,1.15,1,2.11.9,2.13a76.63,76.63,0,0,1-10,5c-.37.13-2.72-3.27-3-5.2-.52-3.32-.15-6.78-2.14-10.47l8-8.84Z"/><path class="cls-1" d="M1517.91,723.93c-3,5.83-8.34,7.32-11.92,3.81-2.44-2.4-3-9.45-1.16-12.65,1.48-2.66,7.59-2.73,11.65-3.94,0,2.8,1,6.67-.39,8.13-1.88,2-5.7,2-8.73,4.65Z"/><path class="cls-1" d="M782.61,703.23l8.3-.65c-1.15,7.33-2.15,13.64-3.21,20.38l5.73-1.76c.48.81,1,1.62,1.42,2.43l-9.55,5.27c-.89-3.12-2.29-6.2-2.57-9.38C782.29,714.65,782.61,709.71,782.61,703.23Z"/><path class="cls-1" d="M1232.08,728.05h-15.94c8.26-7.54,9.65-16.51,3.5-23.33h15.87C1226.79,711.75,1225.23,721.47,1232.08,728.05Z"/><path class="cls-1" d="M1152.25,721.2c-3.64,2.68-7,6.78-11,7.68-5.27,1.18-8.61-3-8.1-8.42.57-6,3.79-10.85,10.47-9.72,3.14.53,5.76,4.16,8.62,6.39Zm-3,.4-2.41-3.8-4.07-3.31c-1.47,2.1-3.37,4-4.2,6.38-.31.86,2.12,3.87,2.92,3.73C1144.16,724.13,1146.67,722.68,1149.24,721.6Z"/><path class="cls-1" d="M1686.24,708.64c-1.32,8.25-2.16,13.51-3.28,20.48-5-1-10.24-.84-13.9-3.19-1.55-1-1.2-8.95.85-10.66C1673.72,712.1,1679.41,711.21,1686.24,708.64Zm-4.47,8.3-4.36-3.55c-1.8,2.55-4,4.94-5.17,7.75-.41,1,1.66,3,2.59,4.52Z"/><path class="cls-1" d="M1240.66,715.13l7.7-8.42-2.51-1.8,7.41,7.5-8.65,8.85,1.89,2.21,5.84-2a12,12,0,0,1,.65,2c-3.25,1.77-6.55,3.45-9.84,5.14-.83-1.95-2.12-3.83-2.38-5.85A49.79,49.79,0,0,1,1240.66,715.13Z"/><path class="cls-1" d="M1287.41,723.33l6.41-2.2c.1,1.18.37,2,.17,2.18a87.18,87.18,0,0,1-9,5.33c-.3.15-2.65-2.27-2.63-3.48.05-3.1,1.34-6.18,1.32-9.27,0-3.9-.86-7.79-1.44-12.45h8.39C1289.55,710.14,1288.55,716.27,1287.41,723.33Z"/><path class="cls-1" d="M1157.72,703.21l8.52-.69c-1.17,7.33-2.18,13.69-3.3,20.73l6.2-2.23,1.14,1.34c-1.53,1.75-2.75,4-4.66,5.1a8.3,8.3,0,0,1-6.27.52c-.95-.36-1.23-3.42-1.19-5.24.06-2.58,1.06-5.15,1-7.7C1159.07,711.58,1158.36,708.13,1157.72,703.21Z"/><path class="cls-1" d="M836.81,716.22c-8-2.22-12.13-.62-10.3,8.68l8.35-3.07,1.55,2.27c-2.73,1.7-5.47,4.75-8.18,4.71s-7.62-3.54-7.43-4.94c.61-4.36,2.31-9.37,5.36-12.28,1.72-1.65,6.9.31,10.52.65Z"/><path class="cls-1" d="M1655.82,705.4c2.53,2.33,5,4.66,7,6.43L1654.48,722l2,2,5.86-2.24,1.2,2.42-10,4.65c-.53-3-1-6-1.6-9-.52-2.48-1.24-4.91-2-8Z"/><path class="cls-1" d="M802,711.08h9c-.43,3.81-.8,7.16-1.19,10.63l6.18-.49c-.16,1.39,0,2.64-.39,2.85a74.43,74.43,0,0,1-9.48,4.36,14,14,0,0,1-2.31-4.79C803,719.74,802.62,715.75,802,711.08Z"/><path class="cls-1" d="M1335.57,715.21c-9.68-1-10.1-.58-8.91,9.74l8.48-2.58,1.22,2.27c-3,1.52-6.15,4.36-9,4.14-2.45-.19-6.73-4.24-6.47-6.06.57-4.05,2.7-8.66,5.72-11.3,1.73-1.5,6.45.45,9.83.84C1336.12,713.25,1335.84,714.23,1335.57,715.21Z"/><path class="cls-1" d="M1692.29,703.07l8.23-.38c-1.08,7.26-2,13.61-3.1,20.82l6.35-2.38c.21,1,.54,1.89.38,2-2.94,2-5.93,3.8-8.91,5.68-.89-1.56-2.63-3.18-2.51-4.65.33-4,1.9-7.84,2.09-11.8C1694.93,709.8,1693.48,707.17,1692.29,703.07Z"/><path class="cls-1" d="M1644.65,704.93c-7.54,4.77-9.86,16.42-3.41,23.12h-12.61c1.48-3.51,3.76-7.25,4.56-11.29.69-3.43-.33-7.19-.66-11.83Z"/><path class="cls-1" d="M1579.22,729.09c-5-.77-12.4-.5-12.91-2.25-1.44-4.88,0-10.6.23-16l3,.08v14.44c9.7-1.16,5.4-10.5,9.38-14.41l2.59.44C1580.85,716.74,1580.15,722.08,1579.22,729.09Z"/><path class="cls-1" d="M1746.35,725.62c-3.52,1.06-7.25,3.33-10.46,2.75-2.16-.4-5.4-5.25-4.92-7.38a18.11,18.11,0,0,1,6.7-9.88c1.7-1.22,5.75.82,7.92,2.91-3.21,1.13-6.84,1.7-9.41,3.66-1.07.81.13,4.6.29,7l8.47-1.42Z"/><path class="cls-1" d="M1109.16,724l-10.28,4.71c-.56-3-.93-6-1.73-8.94-.72-2.62-1.93-5.11-3.32-8.66l9.44-.51c-.54,4.55-1,8.38-1.51,12.75l5.75-2.26Z"/><path class="cls-1" d="M1310.9,710.44c-.81,5.13-1.38,8.78-2.06,13.13l6-2.62,1.51,2.07-9,6.08c-.91-2.82-1.79-5.65-2.73-8.46s-1.9-5.45-3.26-9.33Z"/><path class="cls-1" d="M1726.6,723.47l-10.59,7.1c-1.17-7.44-2-13-3.09-19.59l7.72-.35c-.67,4.7-1.22,8.54-1.86,13.1l6.79-2.23Z"/><path class="cls-1" d="M1561.61,723.88c-2,1.22-3.79,2.78-5.91,3.53-2,.71-4.45,1.17-6.26.51-.87-.32-.73-3.48-1-5.36-.44-3.36-.83-6.72-1.41-11.53l7.56-.35c-.56,4.64-1,8.55-1.58,13.12l6.74-2.37C1560.38,722.25,1561,723.07,1561.61,723.88Z"/><path d="M1536.45,716.11l-5.6,10.23-3.2-1c.23-3.07-.18-6.41,1-9.09.57-1.33,4-1.44,6.13-2.1Z"/><path d="M1149.24,721.6c-2.57,1.08-5.08,2.53-7.76,3-.8.14-3.23-2.87-2.92-3.73.83-2.33,2.73-4.28,4.2-6.38l4.07,3.31Z"/><path d="M1681.77,716.94l-6.94,8.72c-.93-1.54-3-3.55-2.59-4.52,1.19-2.81,3.37-5.2,5.17-7.75Z"/><rect x="465.17" y="689.29" width="1509.35" height="73.44"/><text class="cls-2" transform="translate(575.81 703.09)">Bold Italic</text><text class="cls-3" transform="translate(1018.6 703.81)">SemiBold Italic</text><text class="cls-4" transform="translate(1473.95 703.81)">Medium Italic</text></svg>