<?xml version="1.0" encoding="utf-8"?>
<!-- Generator: Adobe Illustrator 24.1.2, SVG Export Plug-In . SVG Version: 6.00 Build 0)  -->
<svg version="1.1" id="Layer_1" xmlns="http://www.w3.org/2000/svg" xmlns:xlink="http://www.w3.org/1999/xlink" x="0px" y="0px"
	 viewBox="0 0 1226 513" style="enable-background:new 0 0 1226 513;" xml:space="preserve">
<style type="text/css">
	.st0{fill:#FFFEFE;}
	.st1{fill:#DA7E26;}
	.st2{fill:#FFFFFF;}
</style>
<g>
	<path class="st0" d="M1225.9,307.98c-405.94,0-811.88,0-1217.82,0c-2.66,0-5.33,0-7.99,0c0-30.99,0-61.98,0-92.96
		c408.6,0,817.2,0,1225.81,0C1225.9,246,1225.9,276.99,1225.9,307.98z M850.98,274.04c1.03,0.17,1.3,0.85,1.21,1.79
		c-0.12,1.24,0.43,1.86,1.72,1.77c1.17-0.08,1.78-0.69,1.96-1.83c1.04-6.55,2.08-13.11,3.14-19.66c0.3-1.83-1.4-3.01-2.06-2
		c-2.06,3.14-3.42,0.94-5.2,0.02c-4.17-2.15-9.05-0.51-12.02,4.02c-2.47,3.77-3.01,8.03-2.73,12.43c0.21,3.39,1.41,6.42,4.98,7.22
		c3.71,0.83,7.36,0.49,9.1-3.84L850.98,274.04z M307.07,276.9c-2.66,0.57-4.06,2.18-3.85,4.93c0.19,2.46,1.76,3.97,4,4.54
		c4.73,1.21,9.51,1.31,14.2-0.24c3.26-1.07,4.94-3.38,4.49-6.82c-0.46-3.53-2.95-5.02-6.25-5.29c-1.98-0.16-3.99-0.01-5.97-0.17
		c-1.97-0.17-5.15,0.94-5.25-1.98c-0.09-2.55,2.79-2.72,5.05-2.51c0.49,0.04,0.99-0.02,1.49-0.07c6.71-0.69,9.98-6.13,6.95-12.1
		c-1.34-2.64-1.68-3.9,1.87-3.75c1.06,0.05,1.99-0.31,1.98-1.65c-0.02-1.72-1.29-1.65-2.46-1.67c-1.5-0.02-3.33-0.23-4.03,1.29
		c-1.09,2.38-2.87,1.66-4.61,1.59c-4.1-0.16-7.77,0.85-9.39,4.98c-1.63,4.16-0.59,7.84,3.71,10.57c-5.09,1.95-4.66,4.99-2.02,8.45
		L307.07,276.9z M248.8,260.83c0,4.66,0.01,9.31,0,13.97c0,1.43,0.05,2.75,2.05,2.59c1.65-0.13,1.67-1.31,1.67-2.52
		c0-2.33-0.1-4.66,0.05-6.98c0.1-1.48-0.89-3.58,1.55-4.12c2.3-0.5,4.07,0.02,5.23,2.51c1.46,3.15,3.45,6.05,5.11,9.11
		c0.93,1.72,2.35,2.76,3.98,1.73c1.69-1.08-0.2-2.32-0.7-3.31c-1.35-2.66-2.91-5.22-4.51-7.74c-1.1-1.73-1.3-2.5,1.14-3.41
		c4.86-1.8,5.81-5.92,5-10.64c-0.85-4.97-4.1-6.93-8.82-7.01c-2.99-0.05-5.99,0.12-8.98-0.05c-2.26-0.13-2.85,0.81-2.79,2.89
		C248.87,252.18,248.8,256.51,248.8,260.83z M790.89,277.65c2,0,4.01,0.14,5.99-0.05c1.43-0.14,3.92,1.03,3.91-1.58
		c-0.01-2.28-2.36-1.29-3.58-1.22c-3.25,0.19-4.02-1.01-3.39-4.12c1.09-5.37,2.12-10.79,2.63-16.24c0.42-4.57,1.76-7.27,6.96-6.22
		c1.12,0.23,2.58,0.06,2.4-1.66c-0.19-1.77-1.76-1.17-2.79-1.19c-4.5-0.07-9-0.08-13.49,0c-1.34,0.02-3.49-0.64-3.4,1.69
		c0.08,2.02,2.11,1.25,3.18,1.14c3.8-0.42,4.52,1.17,3.8,4.6c-1,4.71-1.64,9.5-2.36,14.27c-0.68,4.49-0.9,9.31-7.7,7.71
		c-1.05-0.25-2.03,0.3-1.93,1.63c0.11,1.46,1.35,1.2,2.28,1.22C785.89,277.67,788.39,277.64,790.89,277.65z M396.5,252.95
		c-2.91-0.02-5.61,0.59-7.7,2.81c-0.65,0.69-1.5,1.46-0.54,2.53c0.88,0.99,1.74,0.67,2.53-0.13c2.23-2.24,4.92-2.73,7.8-1.73
		c2.53,0.88,3.48,2.99,3.27,5.54c-0.26,3.03-2.71,1.6-4.25,1.87c-1.13,0.2-2.32,0.03-3.48,0.12c-3.32,0.25-6.24,1.2-7.31,4.82
		c-0.83,2.77-0.33,5.37,1.95,7.21c2.79,2.26,6.23,2.98,9.3,1.17c2.47-1.46,4.19-2.91,6.73-0.17c0.71,0.77,3,1.24,3.84-0.61
		c0.62-1.37-0.39-2-1.75-2.29c-1.85-0.4-1.35-2.03-1.37-3.26c-0.06-2.99,0.06-5.98-0.04-8.96
		C405.26,255.83,402.4,253.04,396.5,252.95z M286.44,277.98c2.66,0.04,5.78-0.9,7.4-2.45c0.97-0.93,2.75-1.88,1.37-3.57
		c-1.57-1.93-2.39,0.07-3.46,0.9c-4.52,3.51-10.11,2.29-11.97-2.53c-0.97-2.53-0.84-4.18,2.54-4.09c3.98,0.11,7.98-0.02,11.96,0.03
		c1.78,0.03,2.68-0.41,2.72-2.48c0.09-5.36-4.34-10.41-9.71-10.79c-6.78-0.48-11.51,4.21-11.87,11.79
		C275.04,272.44,279.59,277.88,286.44,277.98z M425.98,257.59c-1.17-6.35-5.66-3.37-8.72-4.01c-1.12-0.23-2.48-0.11-2.38,1.64
		c0.08,1.34,1.14,1.57,2.16,1.4c4.78-0.8,5.03,2.05,4.76,5.6c-0.19,2.48-0.23,5,0.01,7.46c0.33,3.34-0.64,5.05-4.29,4.53
		c-1.1-0.16-2.52-0.28-2.64,1.4c-0.16,2.09,1.46,1.81,2.75,1.82c4.32,0.02,8.63,0.08,12.95-0.03c1.45-0.04,3.92,0.91,3.89-1.64
		c-0.03-2.61-2.53-1.19-3.93-1.58c-1.72-0.48-4.15,1.18-5.14-1.49c-2.98-8.01,1-14.78,9.14-15.66c1.07-0.12,2.43,0.35,2.48-1.54
		c0.05-2.07-1.34-1.87-2.68-1.96C431.1,253.31,428.55,254.62,425.98,257.59z M351.03,265.66c0-3.16,0.02-6.33-0.01-9.49
		c-0.01-1.12,0.26-2.47-1.51-2.57c-1.86-0.11-2.15,1.05-2.14,2.57c0.04,4-0.15,8,0.05,11.99c0.23,4.48-2.02,6.63-6.16,6.61
		c-3.91-0.02-5.43-2.63-5.41-6.33c0.03-4.16-0.03-8.32,0-12.49c0.01-1.34-0.3-2.27-1.85-2.35c-1.59-0.09-1.97,0.77-1.95,2.15
		c0.07,4.99-0.26,10.02,0.25,14.97c0.57,5.62,6.04,8.71,10.95,6.75c1.79-0.72,3.3-3.59,5.64-0.22c0.74,1.06,2.2-0.39,2.16-2.09
		C350.98,271.99,351.03,268.82,351.03,265.66z M818.1,275.35c-0.08-4.74,1.47-8.55,1.56-12.45c0.12-4.98,2.07-6.83,6.97-6.08
		c1.38,0.21,3.95,0.96,4.01-1.46c0.07-2.71-2.57-1.48-3.83-1.38c-4.14,0.35-6.39-0.49-4.85-5.29c0.32-1,1.21-2.9-0.89-3.23
		c-2.29-0.37-2.05,1.62-2.21,3.04c-0.4,3.5-1.45,6.2-5.85,5.42c-1.28-0.23-2.45,0.25-2.33,1.78c0.14,1.83,1.77,1.26,2.71,1.15
		c3.36-0.38,3.89,0.92,3.13,3.97c-0.96,3.85-1.37,7.82-2.09,11.73c-0.34,1.88-0.57,3.76,1.23,4.95c1.68,1.11,3.53,0.74,5.16-0.28
		c2.52-1.58,5.01-3.23,7.45-4.95c0.97-0.68,2.79-1.26,1.49-2.94c-1-1.29-2.04-0.16-2.99,0.46
		C824.03,271.55,821.28,273.3,818.1,275.35z M873.44,275.25c1.58-8.32,3.08-15.91,4.46-23.51c1.63-8.92,1.59-8.92-7.37-8.39
		c-1.46,0.09-3.45-0.25-3.33,1.92c0.12,2,2.14,1.25,3.22,1.13c4.33-0.48,4.97,1.08,3.96,5.12c-1.76,7.08-2.86,14.33-4.21,21.51
		c-0.31,1.65-0.58,3.45,1.11,4.53c1.51,0.96,3.22,0.72,4.75-0.13c3.09-1.71,5.54-4.24,8.08-6.63c0.76-0.71,2.25-1.42,0.86-2.76
		c-1.28-1.24-2.07,0.16-2.93,0.78C879.42,270.73,877.37,273.43,873.44,275.25z M371.16,258.46c0-2.49,0-4.99,0-7.48
		c0-8.17,0-8.21-8.13-7.92c-1.28,0.05-3.53-0.94-3.61,1.3c-0.1,2.72,2.46,1.75,3.77,1.6c3.79-0.44,4.92,0.98,4.71,4.72
		c-0.31,5.47-0.31,10.98-0.01,16.44c0.26,4.69,0,8.32-6.25,7.12c-1.17-0.22-2.46,0.06-2.3,1.76c0.12,1.31,1.2,1.43,2.22,1.43
		c5.32,0.02,10.64,0.01,15.96,0c1.08,0,2.02-0.32,2.06-1.61c0.04-1.32-0.92-1.81-1.97-1.59c-7.18,1.52-6.72-3.14-6.47-7.8
		C371.27,263.78,371.16,261.11,371.16,258.46z M920.88,267.78c-0.27,3.97,0.75,8.08,5.33,9.74c4.37,1.59,8.6,0.64,11.75-3.11
		c0.96-1.14,3.22-2.45,1.5-4.04c-1.96-1.8-2.72,1-3.71,1.97c-2.51,2.45-5.29,3.71-8.54,2.08c-3.05-1.52-2.99-4.5-2.57-7.43
		c0.17-1.15,0.22-2.33,0.48-3.46c1.67-7.23,6.83-9.14,12.62-4.5c1.09,0.87,1.63,0.74,2.48,0.17c1.22-0.84,0.51-1.74-0.04-2.54
		c-2.16-3.15-5.33-3.84-8.8-3.26C925.1,254.44,921.09,259.85,920.88,267.78z M903.19,274.93c-0.4-0.6-0.76-0.89-0.72-1.12
		c0.68-3.93,1.34-7.86,2.15-11.76c1.73-8.37,1.76-8.41-6.95-8.12c-1.3,0.04-3.52-0.92-3.66,1.28c-0.19,2.89,2.43,1.71,3.7,1.61
		c3.64-0.3,4.63,0.74,3.53,4.39c-1.1,3.64-1.58,7.47-2.18,11.25c-0.28,1.75-0.93,3.82,1,5.03c2.1,1.33,4.2,0.64,5.98-0.84
		c2.3-1.91,4.51-3.93,6.72-5.94c0.7-0.63,1.7-1.37,0.62-2.42c-0.93-0.91-1.8-0.31-2.61,0.37
		C908.25,270.74,905.73,272.81,903.19,274.93z M905.82,248.14c1.57,0.4,2.28-0.82,2.53-2.5c0.24-1.65-0.59-2.55-2.2-2.59
		c-1.94-0.06-3.14,0.87-3.28,2.91C902.75,247.77,903.81,248.25,905.82,248.14z"/>
	<path class="st1" d="M306.99,276.98c-2.64-3.45-3.07-6.49,2.02-8.45c-4.3-2.73-5.33-6.41-3.71-10.57c1.62-4.14,5.29-5.15,9.39-4.98
		c1.74,0.07,3.53,0.79,4.61-1.59c0.7-1.52,2.53-1.31,4.03-1.29c1.17,0.02,2.44-0.06,2.46,1.67c0.01,1.34-0.92,1.7-1.98,1.65
		c-3.55-0.15-3.21,1.12-1.87,3.75c3.03,5.97-0.24,11.41-6.95,12.1c-0.49,0.05-1,0.12-1.49,0.07c-2.26-0.2-5.13-0.04-5.05,2.51
		c0.1,2.93,3.28,1.82,5.25,1.98c1.98,0.17,3.99,0.01,5.97,0.17c3.3,0.27,5.78,1.76,6.25,5.29c0.45,3.44-1.23,5.75-4.49,6.82
		c-4.7,1.55-9.47,1.44-14.2,0.24c-2.24-0.57-3.81-2.08-4-4.54c-0.21-2.75,1.19-4.36,3.85-4.93c-0.42,6.79,0.33,7.53,7.6,7.42
		c1.16-0.02,2.32-0.1,3.48-0.21c2.38-0.22,4.35-1.12,4.29-3.84c-0.06-2.67-2.32-3.01-4.32-3.11
		C314.41,276.98,310.69,277.03,306.99,276.98z M319.14,261.33c0.18-4.01-1.9-5.51-5.49-5.51c-3.45,0-5.23,1.8-5.34,5.15
		c-0.13,3.64,1.85,5.66,5.39,5.66C317.1,266.61,319.45,265.1,319.14,261.33z"/>
	<path class="st1" d="M248.8,260.83c0-4.32,0.08-8.65-0.03-12.97c-0.05-2.08,0.53-3.02,2.79-2.89c2.98,0.17,5.99,0,8.98,0.05
		c4.72,0.07,7.97,2.04,8.82,7.01c0.81,4.72-0.15,8.84-5,10.64c-2.45,0.91-2.24,1.68-1.14,3.41c1.6,2.52,3.16,5.08,4.51,7.74
		c0.5,0.98,2.4,2.23,0.7,3.31c-1.63,1.03-3.05-0.01-3.98-1.73c-1.65-3.07-3.64-5.96-5.11-9.11c-1.16-2.49-2.93-3.02-5.23-2.51
		c-2.43,0.53-1.45,2.64-1.55,4.12c-0.15,2.32-0.04,4.65-0.05,6.98c0,1.21-0.03,2.39-1.67,2.52c-2,0.16-2.05-1.17-2.05-2.59
		C248.8,270.14,248.8,265.49,248.8,260.83z M252.44,253.27c-0.02,6.9-0.02,6.9,4.82,6.93c6.81,0.04,8.49-1.16,8.4-5.98
		c-0.09-4.73-1.82-5.68-8.08-6.1C252.87,247.8,251.72,249.74,252.44,253.27z"/>
	<path class="st1" d="M790.89,277.64c-2.5,0-5,0.03-7.5-0.02c-0.93-0.02-2.17,0.25-2.28-1.22c-0.1-1.32,0.88-1.87,1.93-1.63
		c6.81,1.6,7.03-3.22,7.7-7.71c0.72-4.77,1.37-9.56,2.36-14.27c0.73-3.43,0.01-5.02-3.8-4.6c-1.07,0.12-3.11,0.88-3.18-1.14
		c-0.09-2.33,2.06-1.66,3.4-1.69c4.5-0.08,9-0.07,13.49,0c1.03,0.02,2.6-0.58,2.79,1.19c0.18,1.72-1.27,1.88-2.4,1.66
		c-5.19-1.05-6.53,1.65-6.96,6.22c-0.51,5.45-1.54,10.87-2.63,16.24c-0.63,3.11,0.14,4.31,3.39,4.12c1.21-0.07,3.57-1.06,3.58,1.22
		c0.01,2.61-2.48,1.44-3.91,1.58C794.9,277.79,792.89,277.65,790.89,277.64z"/>
	<path class="st1" d="M396.5,252.95c5.9,0.09,8.76,2.88,8.97,8.91c0.1,2.98-0.02,5.98,0.04,8.96c0.03,1.23-0.48,2.86,1.37,3.26
		c1.36,0.3,2.37,0.92,1.75,2.29c-0.84,1.86-3.13,1.38-3.84,0.61c-2.54-2.73-4.26-1.28-6.73,0.17c-3.08,1.81-6.52,1.09-9.3-1.17
		c-2.28-1.84-2.77-4.44-1.95-7.21c1.08-3.62,3.99-4.57,7.31-4.82c1.16-0.09,2.35,0.08,3.48-0.12c1.55-0.28,4,1.16,4.25-1.87
		c0.22-2.55-0.74-4.66-3.27-5.54c-2.87-1-5.56-0.51-7.8,1.73c-0.79,0.79-1.65,1.11-2.53,0.13c-0.96-1.07-0.11-1.84,0.54-2.53
		C390.88,253.54,393.59,252.94,396.5,252.95z M397.54,266.38c-2.63,0.67-7.16-0.8-7.27,4.57c-0.06,3.18,2.45,4.09,5.15,3.96
		c3.58-0.17,6.41-1.3,6.54-5.71C402.05,265.99,399.98,266.39,397.54,266.38z"/>
	<path class="st1" d="M286.44,277.98c-6.85-0.1-11.4-5.54-11.03-13.19c0.36-7.58,5.09-12.27,11.87-11.79
		c5.38,0.38,9.81,5.43,9.71,10.79c-0.04,2.07-0.94,2.51-2.72,2.48c-3.99-0.06-7.98,0.08-11.96-0.03c-3.38-0.09-3.51,1.56-2.54,4.09
		c1.86,4.82,7.45,6.04,11.97,2.53c1.07-0.83,1.89-2.83,3.46-0.9c1.38,1.69-0.4,2.64-1.37,3.57
		C292.22,277.08,289.09,278.01,286.44,277.98z M286.17,264.02c2.11-1.4,5.7,1.9,6.68-2.08c0.7-2.87-3.16-6.03-6.62-5.95
		c-3.36,0.07-7.49,3.37-6.8,5.97C280.45,265.86,284.01,262.68,286.17,264.02z"/>
	<path class="st1" d="M425.98,257.59c2.57-2.97,5.12-4.28,8.35-4.06c1.34,0.09,2.73-0.11,2.68,1.96c-0.05,1.89-1.41,1.43-2.48,1.54
		c-8.13,0.88-12.12,7.66-9.14,15.66c0.99,2.67,3.42,1,5.14,1.49c1.4,0.39,3.9-1.03,3.93,1.58c0.02,2.55-2.44,1.6-3.89,1.64
		c-4.31,0.12-8.63,0.05-12.95,0.03c-1.29-0.01-2.91,0.27-2.75-1.82c0.13-1.68,1.54-1.56,2.64-1.4c3.65,0.52,4.62-1.2,4.29-4.53
		c-0.24-2.47-0.2-4.99-0.01-7.46c0.27-3.55,0.02-6.4-4.76-5.6c-1.02,0.17-2.08-0.06-2.16-1.4c-0.1-1.75,1.26-1.87,2.38-1.64
		C420.32,254.22,424.81,251.24,425.98,257.59z"/>
	<path class="st1" d="M851.06,273.96c-1.74,4.33-5.39,4.68-9.1,3.84c-3.57-0.8-4.77-3.84-4.98-7.22c-0.27-4.39,0.27-8.65,2.73-12.43
		c2.96-4.53,7.85-6.18,12.02-4.02c1.78,0.92,3.15,3.13,5.2-0.02c0.66-1.01,2.36,0.17,2.06,2c-1.06,6.55-2.11,13.1-3.14,19.66
		c-0.18,1.15-0.79,1.76-1.96,1.83c-1.29,0.08-1.83-0.53-1.72-1.77c0.09-0.94-0.17-1.62-1.21-1.79c1.12-3.75,3.26-7.1,3.55-11.22
		c0.3-4.42-1.83-6.99-6.25-6.44c-3.06,0.38-5.37,2.02-6.27,4.94c-1.2,3.91-2.87,8.11-0.28,11.93
		C844.28,277.02,847.92,273.79,851.06,273.96z"/>
	<path class="st1" d="M351.03,265.66c0,3.16-0.05,6.33,0.02,9.49c0.04,1.7-1.42,3.15-2.16,2.09c-2.34-3.36-3.85-0.49-5.64,0.22
		c-4.92,1.97-10.38-1.12-10.95-6.75c-0.5-4.95-0.17-9.98-0.25-14.97c-0.02-1.38,0.37-2.24,1.95-2.15c1.55,0.09,1.86,1.02,1.85,2.35
		c-0.03,4.16,0.03,8.32,0,12.49c-0.02,3.7,1.5,6.31,5.41,6.33c4.14,0.02,6.39-2.13,6.16-6.61c-0.2-3.99-0.01-7.99-0.05-11.99
		c-0.01-1.52,0.28-2.67,2.14-2.57c1.77,0.1,1.5,1.45,1.51,2.57C351.05,259.33,351.03,262.49,351.03,265.66z"/>
	<path class="st1" d="M818.1,275.35c3.19-2.05,5.93-3.8,8.66-5.58c0.95-0.62,2-1.75,2.99-0.46c1.3,1.68-0.53,2.26-1.49,2.94
		c-2.44,1.71-4.92,3.37-7.45,4.95c-1.63,1.02-3.48,1.39-5.16,0.28c-1.8-1.19-1.58-3.07-1.23-4.95c0.72-3.91,1.13-7.89,2.09-11.73
		c0.76-3.05,0.23-4.35-3.13-3.97c-0.95,0.11-2.58,0.68-2.71-1.15c-0.11-1.53,1.05-2.01,2.33-1.78c4.4,0.78,5.45-1.92,5.85-5.42
		c0.16-1.41-0.07-3.4,2.21-3.04c2.11,0.34,1.21,2.23,0.89,3.23c-1.53,4.8,0.72,5.64,4.85,5.29c1.26-0.11,3.91-1.33,3.83,1.38
		c-0.06,2.42-2.63,1.67-4.01,1.46c-4.9-0.74-6.86,1.11-6.97,6.08C819.56,266.8,818.01,270.61,818.1,275.35z"/>
	<path class="st1" d="M873.44,275.25c3.93-1.82,5.98-4.52,8.62-6.43c0.86-0.62,1.65-2.03,2.93-0.78c1.38,1.34-0.1,2.05-0.86,2.76
		c-2.54,2.39-4.99,4.91-8.08,6.63c-1.53,0.85-3.23,1.09-4.75,0.13c-1.69-1.07-1.42-2.87-1.11-4.53c1.35-7.18,2.45-14.43,4.21-21.51
		c1.01-4.04,0.37-5.6-3.96-5.12c-1.08,0.12-3.11,0.87-3.22-1.13c-0.13-2.17,1.87-1.83,3.33-1.92c8.96-0.53,9-0.53,7.37,8.39
		C876.52,259.34,875.03,266.93,873.44,275.25z"/>
	<path class="st1" d="M371.16,258.46c0,2.66,0.12,5.32-0.03,7.98c-0.25,4.65-0.71,9.32,6.47,7.8c1.06-0.22,2.01,0.27,1.97,1.59
		c-0.04,1.29-0.98,1.6-2.06,1.61c-5.32,0.01-10.64,0.01-15.96,0c-1.01,0-2.09-0.12-2.22-1.43c-0.16-1.7,1.13-1.99,2.3-1.76
		c6.24,1.2,6.5-2.43,6.25-7.12c-0.3-5.47-0.3-10.98,0.01-16.44c0.21-3.74-0.92-5.15-4.71-4.72c-1.31,0.15-3.87,1.12-3.77-1.6
		c0.08-2.23,2.33-1.25,3.61-1.3c8.13-0.29,8.13-0.25,8.13,7.92C371.16,253.47,371.16,255.96,371.16,258.46z"/>
	<path class="st1" d="M920.88,267.78c0.21-7.93,4.23-13.34,10.5-14.39c3.47-0.58,6.64,0.11,8.8,3.26c0.55,0.8,1.27,1.7,0.04,2.54
		c-0.84,0.58-1.39,0.7-2.48-0.17c-5.79-4.64-10.95-2.73-12.62,4.5c-0.26,1.13-0.31,2.31-0.48,3.46c-0.42,2.93-0.48,5.91,2.57,7.43
		c3.25,1.62,6.03,0.37,8.54-2.08c0.99-0.97,1.75-3.77,3.71-1.97c1.72,1.59-0.54,2.91-1.5,4.04c-3.16,3.74-7.38,4.7-11.75,3.11
		C921.63,275.86,920.61,271.76,920.88,267.78z"/>
	<path class="st1" d="M903.19,274.93c2.54-2.11,5.06-4.19,7.57-6.28c0.81-0.68,1.68-1.27,2.61-0.37c1.08,1.05,0.08,1.79-0.62,2.42
		c-2.21,2.02-4.42,4.03-6.72,5.94c-1.78,1.47-3.88,2.16-5.98,0.84c-1.92-1.21-1.28-3.29-1-5.03c0.61-3.77,1.09-7.61,2.18-11.25
		c1.1-3.66,0.11-4.69-3.53-4.39c-1.26,0.1-3.89,1.28-3.7-1.61c0.15-2.2,2.36-1.23,3.66-1.28c8.71-0.29,8.68-0.25,6.95,8.12
		c-0.81,3.9-1.47,7.84-2.15,11.76C902.43,274.03,902.79,274.32,903.19,274.93z"/>
	<path class="st1" d="M905.82,248.14c-2,0.12-3.06-0.37-2.94-2.17c0.13-2.04,1.33-2.97,3.28-2.91c1.6,0.05,2.44,0.94,2.2,2.59
		C908.1,247.32,907.39,248.53,905.82,248.14z"/>
	<path class="st0" d="M319.14,261.33c0.32,3.77-2.04,5.28-5.44,5.29c-3.54,0.01-5.52-2.02-5.39-5.66c0.12-3.35,1.89-5.15,5.34-5.15
		C317.24,255.81,319.32,257.32,319.14,261.33z"/>
	<path class="st0" d="M306.99,276.98c3.71,0.05,7.42,0,11.12,0.18c2,0.1,4.26,0.43,4.32,3.11c0.06,2.72-1.91,3.63-4.29,3.84
		c-1.16,0.11-2.32,0.19-3.48,0.21c-7.27,0.11-8.01-0.63-7.6-7.42C307.07,276.9,306.99,276.98,306.99,276.98z"/>
	<path class="st0" d="M252.44,253.27c-0.72-3.52,0.43-5.46,5.14-5.15c6.27,0.42,8,1.37,8.08,6.1c0.09,4.82-1.59,6.01-8.4,5.98
		C252.42,260.16,252.42,260.16,252.44,253.27z"/>
	<path class="st0" d="M397.54,266.38c2.44,0.01,4.51-0.39,4.42,2.81c-0.13,4.42-2.97,5.54-6.54,5.71c-2.7,0.13-5.21-0.78-5.15-3.96
		C390.37,265.59,394.91,267.05,397.54,266.38z"/>
	<path class="st0" d="M286.17,264.02c-2.16-1.35-5.71,1.83-6.74-2.06c-0.69-2.6,3.44-5.9,6.8-5.97c3.46-0.08,7.32,3.08,6.62,5.95
		C291.87,265.93,288.27,262.62,286.17,264.02z"/>
	<path class="st0" d="M851.06,273.96c-3.14-0.17-6.78,3.06-9.33-0.71c-2.59-3.82-0.92-8.02,0.28-11.93c0.89-2.92,3.2-4.56,6.27-4.94
		c4.42-0.55,6.55,2.02,6.25,6.44c-0.28,4.11-2.43,7.47-3.55,11.22C850.98,274.04,851.06,273.96,851.06,273.96z"/>
</g>
<g>
	<path class="st1" d="M243.15,26.61v27.12h-0.88V26.61h-9.92v-0.8h20.72v0.8H243.15z"/>
	<path class="st1" d="M259.79,24.13h0.84v11.92h0.12c0.35-0.88,1.03-1.67,2.06-2.38c1.03-0.71,2.45-1.06,4.26-1.06
		c2.29,0,4.03,0.65,5.2,1.96c1.17,1.31,1.76,3.21,1.76,5.72v13.44h-0.84V40.41c0-2.48-0.54-4.27-1.62-5.38
		c-1.08-1.11-2.62-1.66-4.62-1.66c-0.83,0-1.62,0.11-2.38,0.34c-0.76,0.23-1.43,0.57-2.02,1.02c-0.59,0.45-1.05,1.03-1.4,1.72
		c-0.35,0.69-0.52,1.49-0.52,2.4v14.88h-0.84V24.13z"/>
	<path class="st1" d="M283.39,52.97h8.2V33.85h-8.2v-0.76h9.04v19.88h7.68v0.76h-16.72V52.97z M291.99,26.09
		c-0.43,0-0.73-0.09-0.9-0.26c-0.17-0.17-0.26-0.39-0.26-0.66v-0.32c0-0.27,0.09-0.49,0.26-0.66c0.17-0.17,0.47-0.26,0.9-0.26
		c0.43,0,0.73,0.09,0.9,0.26c0.17,0.17,0.26,0.39,0.26,0.66v0.32c0,0.27-0.09,0.49-0.26,0.66
		C292.71,26.01,292.41,26.09,291.99,26.09z"/>
	<path class="st1" d="M307.79,53.73V33.09h0.84v2.96h0.12c0.35-0.88,1.03-1.67,2.06-2.38c1.03-0.71,2.45-1.06,4.26-1.06
		c2.29,0,4.03,0.65,5.2,1.96c1.17,1.31,1.76,3.21,1.76,5.72v13.44h-0.84V40.41c0-2.48-0.54-4.27-1.62-5.38
		c-1.08-1.11-2.62-1.66-4.62-1.66c-0.83,0-1.62,0.11-2.38,0.34c-0.76,0.23-1.43,0.57-2.02,1.02c-0.59,0.45-1.05,1.03-1.4,1.72
		c-0.35,0.69-0.52,1.49-0.52,2.4v14.88H307.79z"/>
</g>
<g>
	<path class="st1" d="M234.87,102.01V74.09h16.44v1.32h-15v11.76h14.48v1.32h-14.48v12.2h15v1.32H234.87z"/>
	<path class="st1" d="M257.99,102.01l7.88-10.4l-7.72-10.24h1.68l6.88,9.16h0.08l6.88-9.16h1.6l-7.72,10.2l7.88,10.44h-1.72l-7-9.36
		h-0.08l-7,9.36H257.99z"/>
	<path class="st1" d="M289.91,102.01c-1.31,0-1.96-0.67-1.96-2v-17.4h-7.76v-1.24h6.44c0.91,0,1.36-0.44,1.36-1.32v-5.96h1.36v7.28
		h10.28v1.24h-10.28v18.16h10.28v1.24H289.91z"/>
	<path class="st1" d="M305.87,100.77h6.88V82.61h-6.88v-1.24h8.28v4.28h0.12c0.24-0.59,0.53-1.14,0.86-1.66
		c0.33-0.52,0.76-0.97,1.28-1.36c0.52-0.39,1.14-0.69,1.86-0.92c0.72-0.23,1.56-0.34,2.52-0.34h4.2v1.32h-4.56
		c-0.88,0-1.7,0.14-2.46,0.42c-0.76,0.28-1.42,0.69-1.98,1.22c-0.56,0.53-1.01,1.21-1.34,2.02c-0.33,0.81-0.5,1.74-0.5,2.78v11.64
		h8.8v1.24h-17.08V100.77z"/>
	<path class="st1" d="M345.27,102.01c-0.61,0-1.05-0.15-1.32-0.45c-0.27-0.3-0.41-0.72-0.44-1.26v-1.5h-0.16
		c-0.48,1.03-1.25,1.89-2.32,2.61c-1.07,0.71-2.53,1.07-4.4,1.07c-2.21,0-3.92-0.51-5.12-1.52c-1.2-1.01-1.8-2.45-1.8-4.32
		c0-0.85,0.13-1.64,0.4-2.36c0.27-0.72,0.72-1.34,1.36-1.86c0.64-0.52,1.48-0.92,2.52-1.2c1.04-0.28,2.32-0.42,3.84-0.42h5.64v-2.96
		c0-1.95-0.51-3.39-1.54-4.32c-1.03-0.93-2.43-1.4-4.22-1.4c-1.44,0-2.71,0.3-3.8,0.9c-1.09,0.6-1.92,1.54-2.48,2.82l-1.04-0.68
		c0.56-1.28,1.45-2.31,2.66-3.1s2.78-1.18,4.7-1.18c2.24,0,3.99,0.59,5.24,1.78s1.88,2.86,1.88,5.02v13.08h3.28v1.24H345.27z
		 M336.75,101.25c0.91,0,1.77-0.11,2.58-0.34c0.81-0.23,1.53-0.56,2.14-1c0.61-0.44,1.1-0.98,1.46-1.61
		c0.36-0.64,0.54-1.38,0.54-2.23v-4.14h-5.6c-2.37,0-4.07,0.38-5.1,1.14c-1.03,0.76-1.54,1.75-1.54,2.97v1.2
		c0,1.3,0.51,2.3,1.52,2.99C333.76,100.9,335.09,101.25,336.75,101.25z"/>
	<path class="st1" d="M356.31,102.01V74.09h1.44v26.6h14.16v1.32H356.31z"/>
	<path class="st1" d="M379.26,100.77h8.04V82.61h-8.04v-1.24h9.44v19.4h7.52v1.24h-16.96V100.77z M387.98,74.93
		c-0.53,0-0.91-0.11-1.14-0.34c-0.23-0.23-0.34-0.51-0.34-0.86v-0.36c0-0.35,0.11-0.63,0.34-0.86c0.23-0.23,0.61-0.34,1.14-0.34
		c0.53,0,0.91,0.11,1.14,0.34c0.23,0.23,0.34,0.51,0.34,0.86v0.36c0,0.35-0.11,0.63-0.34,0.86S388.52,74.93,387.98,74.93z"/>
	<path class="st1" d="M420.58,104.49c0,2.08-0.84,3.6-2.52,4.56c-1.68,0.96-4.09,1.44-7.24,1.44c-3.09,0-5.32-0.47-6.68-1.42
		c-1.36-0.95-2.04-2.21-2.04-3.78c0-1.2,0.34-2.18,1.02-2.94c0.68-0.76,1.63-1.33,2.86-1.7v-0.2c-1.39-0.45-2.08-1.36-2.08-2.72
		c0-0.99,0.35-1.76,1.04-2.32c0.69-0.56,1.51-0.97,2.44-1.24v-0.12c-1.17-0.53-2.09-1.33-2.74-2.38c-0.65-1.05-0.98-2.34-0.98-3.86
		c0-1.04,0.17-1.99,0.5-2.84c0.33-0.85,0.81-1.58,1.42-2.18c0.61-0.6,1.37-1.07,2.26-1.4c0.89-0.33,1.89-0.5,2.98-0.5
		c1.71,0,3.16,0.41,4.36,1.24v-1.32c0-0.99,0.49-1.48,1.48-1.48h4.28v1.24h-4.8v2.32c0.61,0.61,1.08,1.33,1.4,2.16
		c0.32,0.83,0.48,1.75,0.48,2.76c0,1.04-0.17,1.99-0.52,2.86c-0.35,0.87-0.84,1.6-1.48,2.2c-0.64,0.6-1.4,1.07-2.28,1.4
		c-0.88,0.33-1.85,0.5-2.92,0.5c-0.72,0-1.44-0.08-2.16-0.24c-1.07,0.27-1.91,0.64-2.54,1.12c-0.63,0.48-0.94,1.11-0.94,1.88
		c0,0.56,0.25,1.04,0.74,1.44c0.49,0.4,1.39,0.6,2.7,0.6h5.2c2.37,0,4.09,0.45,5.16,1.34C420.05,101.8,420.58,102.99,420.58,104.49z
		 M419.22,104.55c0-1.14-0.41-2.04-1.22-2.69s-2.23-0.98-4.26-0.98h-6.4c-1.15,0.32-2.07,0.82-2.76,1.49
		c-0.69,0.68-1.04,1.59-1.04,2.73c0,1.27,0.54,2.28,1.62,3.03c1.08,0.74,2.58,1.11,4.5,1.11h2.24c2.21,0,3.99-0.38,5.32-1.13
		C418.56,107.36,419.22,106.17,419.22,104.55z M410.82,93.61c1.84,0,3.25-0.48,4.22-1.44c0.97-0.96,1.46-2.17,1.46-3.64v-1.44
		c0-1.44-0.49-2.64-1.46-3.6c-0.97-0.96-2.38-1.44-4.22-1.44c-1.84,0-3.24,0.48-4.2,1.44s-1.44,2.16-1.44,3.6v1.44
		c0,1.47,0.49,2.68,1.46,3.64C407.62,93.13,409.01,93.61,410.82,93.61z"/>
	<path class="st1" d="M427.5,72.41h1.4v12h0.12c0.19-0.45,0.45-0.89,0.78-1.32c0.33-0.43,0.75-0.8,1.26-1.12
		c0.51-0.32,1.11-0.58,1.8-0.78c0.69-0.2,1.49-0.3,2.4-0.3c2.27,0,4,0.66,5.2,1.98c1.2,1.32,1.8,3.23,1.8,5.74v13.4h-1.4V88.85
		c0-2.35-0.51-4.05-1.52-5.12c-1.01-1.07-2.48-1.6-4.4-1.6c-0.77,0-1.53,0.11-2.26,0.32c-0.73,0.21-1.38,0.53-1.94,0.96
		s-1.01,0.96-1.34,1.6c-0.33,0.64-0.5,1.39-0.5,2.24v14.76h-1.4V72.41z"/>
	<path class="st1" d="M457.9,102.01c-1.31,0-1.96-0.67-1.96-2v-17.4h-7.76v-1.24h6.44c0.91,0,1.36-0.44,1.36-1.32v-5.96h1.36v7.28
		h10.28v1.24h-10.28v18.16h10.28v1.24H457.9z"/>
</g>
<g>
	<path class="st1" d="M235.91,150.28v-27.92h2.4v25.84h13.68v2.08H235.91z"/>
	<path class="st1" d="M259.11,148.28h7.76v-16.64h-7.76v-2h10.04v18.64h7.24v2h-17.28V148.28z M267.99,124.12
		c-0.72,0-1.23-0.15-1.54-0.46c-0.31-0.31-0.46-0.69-0.46-1.14V122c0-0.45,0.15-0.83,0.46-1.14c0.31-0.31,0.82-0.46,1.54-0.46
		c0.72,0,1.23,0.15,1.54,0.46c0.31,0.31,0.46,0.69,0.46,1.14v0.52c0,0.45-0.15,0.83-0.46,1.14
		C269.22,123.97,268.71,124.12,267.99,124.12z"/>
	<path class="st1" d="M300.87,152.74c0,2.07-0.85,3.59-2.56,4.56c-1.71,0.97-4.21,1.45-7.52,1.45c-3.2,0-5.51-0.45-6.92-1.36
		c-1.41-0.91-2.12-2.17-2.12-3.8c0-1.17,0.32-2.1,0.96-2.78s1.53-1.19,2.68-1.54v-0.32c-1.31-0.51-1.96-1.44-1.96-2.8
		c0-1.01,0.35-1.79,1.04-2.34c0.69-0.55,1.55-0.95,2.56-1.22v-0.16c-1.23-0.53-2.18-1.33-2.86-2.4c-0.68-1.07-1.02-2.35-1.02-3.84
		c0-1.04,0.18-1.99,0.54-2.86c0.36-0.87,0.87-1.61,1.52-2.24c0.65-0.63,1.45-1.11,2.38-1.44c0.93-0.33,1.97-0.5,3.12-0.5
		c1.65,0,3.07,0.35,4.24,1.04v-0.84c0-0.64,0.15-1.15,0.46-1.54c0.31-0.39,0.81-0.58,1.5-0.58h4.04v2h-4.72v1.88
		c0.67,0.61,1.18,1.35,1.54,2.2c0.36,0.85,0.54,1.81,0.54,2.88c0,1.04-0.18,1.99-0.54,2.84c-0.36,0.85-0.87,1.59-1.54,2.22
		c-0.67,0.63-1.47,1.11-2.4,1.44c-0.93,0.33-1.97,0.5-3.12,0.5c-0.37,0-0.72-0.01-1.04-0.04c-0.32-0.03-0.67-0.08-1.04-0.16
		c-0.85,0.21-1.6,0.54-2.24,0.97c-0.64,0.43-0.96,1.01-0.96,1.74c0,1.21,1.12,1.82,3.36,1.82h4.92c2.51,0,4.33,0.47,5.46,1.41
		C300.3,149.88,300.87,151.15,300.87,152.74z M298.71,152.8c0-0.99-0.37-1.77-1.1-2.34c-0.73-0.57-2.03-0.86-3.9-0.86h-6.76
		c-0.93,0.29-1.66,0.73-2.18,1.3c-0.52,0.57-0.78,1.33-0.78,2.26c0,1.09,0.45,1.99,1.34,2.7c0.89,0.71,2.25,1.06,4.06,1.06h2.68
		c2.05,0,3.67-0.34,4.86-1.02C298.11,155.22,298.71,154.19,298.71,152.8z M290.71,141.4c1.73,0,3.03-0.43,3.9-1.28
		c0.87-0.85,1.3-1.95,1.3-3.28v-1.32c0-1.36-0.43-2.46-1.3-3.3c-0.87-0.84-2.17-1.26-3.9-1.26c-1.71,0-2.99,0.42-3.86,1.26
		c-0.87,0.84-1.3,1.94-1.3,3.3v1.32c0,1.33,0.44,2.43,1.32,3.28C287.75,140.98,289.03,141.4,290.71,141.4z"/>
	<path class="st1" d="M307.07,120.68h2.28v12.16h0.16c0.4-0.96,1.07-1.81,2.02-2.56c0.95-0.75,2.29-1.12,4.02-1.12
		c2.24,0,3.98,0.67,5.22,2.02c1.24,1.35,1.86,3.27,1.86,5.78v13.32h-2.28v-12.95c0-2.14-0.46-3.7-1.38-4.69
		c-0.92-0.99-2.26-1.48-4.02-1.48c-0.72,0-1.41,0.09-2.08,0.28c-0.67,0.19-1.26,0.47-1.78,0.84c-0.52,0.37-0.94,0.85-1.26,1.42
		c-0.32,0.57-0.48,1.25-0.48,2.02v14.55h-2.28V120.68z"/>
	<path class="st1" d="M338.79,150.28c-1.12,0-1.94-0.3-2.46-0.9c-0.52-0.6-0.78-1.4-0.78-2.42v-15.33h-7.32v-2h5.8
		c0.59,0,1-0.12,1.24-0.36c0.24-0.24,0.36-0.65,0.36-1.24v-5.68h2.2v7.28h9.84v2h-9.84v16.64h9.84v2H338.79z"/>
</g>
<g>
	<path class="st1" d="M248.51,392.37l0.12-8.4h-0.32l-5.6,14.36l-5.6-14.36h-0.32l0.12,8.4v13.36h-3.96v-27.92h5.48l4.28,11.08h0.28
		l4.32-11.08h5.16v27.92h-3.96V392.37z"/>
	<path class="st1" d="M267.15,406.21c-1.57,0-2.99-0.25-4.24-0.76c-1.25-0.51-2.31-1.23-3.16-2.16c-0.85-0.93-1.51-2.06-1.96-3.38
		c-0.45-1.32-0.68-2.81-0.68-4.46s0.23-3.15,0.7-4.48c0.47-1.33,1.12-2.47,1.96-3.42c0.84-0.95,1.86-1.67,3.06-2.18
		c1.2-0.51,2.53-0.76,4-0.76c1.44,0,2.75,0.25,3.92,0.74c1.17,0.49,2.17,1.19,3,2.1c0.83,0.91,1.46,1.99,1.9,3.24
		c0.44,1.25,0.66,2.64,0.66,4.16v1.64h-14.8v0.68c0,1.62,0.51,2.93,1.52,3.96c1.01,1.02,2.41,1.53,4.2,1.53
		c1.33,0,2.47-0.28,3.42-0.85c0.95-0.57,1.71-1.33,2.3-2.28l2.72,2.41c-0.69,1.2-1.75,2.22-3.18,3.05
		C271.06,405.79,269.28,406.21,267.15,406.21z M266.83,387.93c-0.77,0-1.49,0.13-2.14,0.4c-0.65,0.27-1.21,0.65-1.68,1.14
		c-0.47,0.49-0.83,1.07-1.1,1.74c-0.27,0.67-0.4,1.4-0.4,2.2v0.28h10.36v-0.4c0-1.63-0.46-2.93-1.38-3.9
		C269.57,388.42,268.35,387.93,266.83,387.93z"/>
	<path class="st1" d="M295.19,402.21h-0.24c-0.61,1.25-1.43,2.23-2.44,2.94c-1.01,0.71-2.28,1.06-3.8,1.06
		c-2.43,0-4.36-0.91-5.8-2.72c-1.44-1.81-2.16-4.51-2.16-8.08s0.72-6.27,2.16-8.08c1.44-1.81,3.37-2.72,5.8-2.72
		c1.52,0,2.79,0.35,3.8,1.06c1.01,0.71,1.83,1.69,2.44,2.94h0.24v-12.48h4.36v29.6h-4.36V402.21z M290.51,402.65
		c0.64,0,1.24-0.08,1.8-0.24c0.56-0.16,1.05-0.4,1.48-0.72c0.43-0.32,0.77-0.71,1.02-1.18c0.25-0.47,0.38-1.02,0.38-1.66v-6.88
		c0-0.64-0.13-1.19-0.38-1.66c-0.25-0.47-0.59-0.86-1.02-1.18c-0.43-0.32-0.92-0.56-1.48-0.72c-0.56-0.16-1.16-0.24-1.8-0.24
		c-1.65,0-2.93,0.51-3.82,1.52c-0.89,1.01-1.34,2.36-1.34,4.04v3.36c0,1.68,0.45,3.03,1.34,4.04
		C287.58,402.14,288.85,402.65,290.51,402.65z"/>
	<path class="st1" d="M306.75,402.17h7.04v-13.52h-7.04v-3.56h11.4v17.08h6.6v3.56h-18V402.17z M315.99,381.33
		c-1.12,0-1.9-0.23-2.34-0.68c-0.44-0.45-0.66-1.01-0.66-1.68v-0.84c0-0.67,0.22-1.23,0.66-1.68s1.21-0.68,2.3-0.68
		c1.12,0,1.9,0.23,2.34,0.68s0.66,1.01,0.66,1.68v0.84c0,0.67-0.22,1.23-0.66,1.68C317.85,381.1,317.08,381.33,315.99,381.33z"/>
	<path class="st1" d="M342.99,402.21h-0.2c-0.21,0.53-0.49,1.05-0.82,1.54s-0.74,0.92-1.22,1.28c-0.48,0.36-1.04,0.65-1.68,0.86
		c-0.64,0.21-1.39,0.32-2.24,0.32c-2.08,0-3.76-0.68-5.04-2.04c-1.28-1.36-1.92-3.29-1.92-5.8v-13.28h4.36v12.64
		c0,3.28,1.43,4.92,4.28,4.92c0.56,0,1.11-0.07,1.64-0.22c0.53-0.15,1.01-0.37,1.44-0.66c0.43-0.29,0.77-0.66,1.02-1.1
		c0.25-0.44,0.38-0.97,0.38-1.58v-14h4.36v20.64h-4.36V402.21z"/>
	<path class="st1" d="M352.46,405.73v-20.64h3.72v2.68h0.2c0.32-0.88,0.78-1.63,1.38-2.24c0.6-0.61,1.46-0.92,2.58-0.92
		c1.09,0,1.94,0.3,2.54,0.9c0.6,0.6,0.98,1.42,1.14,2.46h0.16c0.37-0.93,0.89-1.73,1.56-2.38c0.67-0.65,1.63-0.98,2.88-0.98
		c1.6,0,2.71,0.56,3.34,1.68s0.94,2.76,0.94,4.92v14.52h-3.72v-13.96c0-1.44-0.17-2.43-0.52-2.98c-0.35-0.55-0.91-0.82-1.68-0.82
		c-0.69,0-1.27,0.23-1.74,0.7c-0.47,0.47-0.7,1.17-0.7,2.1v14.96h-3.72v-13.96c0-1.44-0.17-2.43-0.5-2.98
		c-0.33-0.55-0.89-0.82-1.66-0.82c-0.72,0-1.31,0.23-1.78,0.7c-0.47,0.47-0.7,1.17-0.7,2.1v14.96H352.46z"/>
</g>
<g>
	<path class="st1" d="M242.39,454.48c-2.4,0-4.45-0.41-6.14-1.23c-1.69-0.82-3.07-1.9-4.14-3.25l3.16-3.28
		c1.04,1.2,2.17,2.09,3.38,2.66c1.21,0.57,2.51,0.86,3.9,0.86c1.6,0,2.83-0.36,3.68-1.09c0.85-0.73,1.28-1.77,1.28-3.14
		c0-1.13-0.32-1.98-0.96-2.56c-0.64-0.58-1.72-0.99-3.24-1.23l-2.96-0.48c-2.59-0.45-4.43-1.39-5.52-2.82
		c-1.09-1.43-1.64-3.11-1.64-5.05c0-2.66,0.87-4.71,2.6-6.13c1.73-1.42,4.13-2.14,7.2-2.14c2.19,0,4.07,0.34,5.66,1.03
		c1.59,0.69,2.86,1.62,3.82,2.81l-3.08,3.28c-0.75-0.88-1.64-1.58-2.68-2.1c-1.04-0.52-2.27-0.78-3.68-0.78
		c-3.04,0-4.56,1.26-4.56,3.79c0,1.08,0.32,1.9,0.96,2.46c0.64,0.56,1.73,0.98,3.28,1.25l2.92,0.52c2.43,0.45,4.23,1.35,5.4,2.68
		c1.17,1.33,1.76,3.04,1.76,5.11c0,1.3-0.23,2.5-0.68,3.58c-0.45,1.08-1.12,2.01-2,2.8c-0.88,0.79-1.97,1.39-3.26,1.82
		C245.55,454.27,244.07,454.48,242.39,454.48z"/>
	<path class="st1" d="M267.19,454.48c-1.65,0-3.12-0.25-4.4-0.76c-1.28-0.51-2.35-1.23-3.22-2.16c-0.87-0.93-1.53-2.06-1.98-3.38
		c-0.45-1.32-0.68-2.81-0.68-4.46c0-1.68,0.23-3.19,0.7-4.52c0.47-1.33,1.13-2.47,1.98-3.4c0.85-0.93,1.89-1.65,3.1-2.16
		c1.21-0.51,2.58-0.76,4.1-0.76c1.49,0,2.84,0.25,4.04,0.74c1.2,0.5,2.22,1.2,3.06,2.11c0.84,0.91,1.49,2.01,1.94,3.29
		c0.45,1.29,0.68,2.7,0.68,4.25v1.69h-14.48v0.52c0,1.49,0.47,2.7,1.4,3.62c0.93,0.92,2.24,1.38,3.92,1.38
		c1.28,0,2.38-0.26,3.3-0.78c0.92-0.52,1.69-1.21,2.3-2.06l2.92,2.9c-0.75,1.09-1.83,2.02-3.26,2.78
		C271.18,454.1,269.37,454.48,267.19,454.48z M266.83,436.64c-1.44,0-2.6,0.46-3.48,1.37c-0.88,0.91-1.32,2.12-1.32,3.63v0.28h9.36
		v-0.36c0-1.5-0.41-2.7-1.22-3.59C269.35,437.09,268.24,436.64,266.83,436.64z"/>
	<path class="st1" d="M280.19,454v-20.64h4.24v2.84h0.24c0.32-0.91,0.78-1.69,1.38-2.34c0.6-0.65,1.45-0.98,2.54-0.98
		c1.04,0,1.87,0.3,2.48,0.9c0.61,0.6,1.01,1.45,1.2,2.54h0.2c0.35-0.93,0.86-1.74,1.54-2.42c0.68-0.68,1.65-1.02,2.9-1.02
		c1.52,0,2.61,0.55,3.28,1.64c0.67,1.09,1,2.71,1,4.84V454h-4.2v-14.04c0-1.2-0.17-2.04-0.5-2.52c-0.33-0.48-0.83-0.72-1.5-0.72
		c-0.61,0-1.13,0.2-1.54,0.6c-0.41,0.4-0.62,1.01-0.62,1.84V454h-4.24v-14.04c0-1.2-0.16-2.04-0.48-2.52
		c-0.32-0.48-0.81-0.72-1.48-0.72c-0.64,0-1.17,0.2-1.58,0.6c-0.41,0.4-0.62,1.01-0.62,1.84V454H280.19z"/>
	<path class="st1" d="M306.63,450h6.8v-12.64h-6.8v-4h11.92V450h6.32v4h-18.24V450z M315.99,430.16c-1.2,0-2.05-0.25-2.54-0.76
		c-0.49-0.51-0.74-1.12-0.74-1.84v-0.96c0-0.72,0.25-1.33,0.74-1.84c0.49-0.51,1.34-0.76,2.54-0.76c1.2,0,2.05,0.25,2.54,0.76
		c0.49,0.51,0.74,1.12,0.74,1.84v0.96c0,0.72-0.25,1.33-0.74,1.84C318.03,429.91,317.19,430.16,315.99,430.16z"/>
	<path class="st1" d="M329.91,426.08h9.72c2.64,0,4.67,0.66,6.1,1.98c1.43,1.32,2.14,3.11,2.14,5.38c0,1.6-0.39,2.88-1.18,3.84
		c-0.79,0.96-1.9,1.65-3.34,2.08v0.2c1.68,0.4,3.01,1.13,3.98,2.18c0.97,1.05,1.46,2.54,1.46,4.46c0,1.17-0.19,2.23-0.58,3.18
		c-0.39,0.95-0.93,1.77-1.64,2.46c-0.71,0.69-1.56,1.23-2.56,1.6c-1,0.37-2.13,0.56-3.38,0.56h-10.72V426.08z M338.35,438
		c1.41,0,2.46-0.25,3.14-0.76c0.68-0.51,1.02-1.39,1.02-2.64v-1.32c0-1.25-0.34-2.13-1.02-2.64c-0.68-0.51-1.73-0.76-3.14-0.76
		h-3.32V438H338.35z M339.03,450.2c1.47,0,2.57-0.27,3.3-0.82c0.73-0.55,1.1-1.49,1.1-2.82v-1.32c0-1.31-0.37-2.23-1.1-2.78
		c-0.73-0.55-1.83-0.82-3.3-0.82h-4v8.56H339.03z"/>
	<path class="st1" d="M362.71,454.48c-1.57,0-2.98-0.25-4.22-0.76c-1.24-0.51-2.29-1.23-3.16-2.16c-0.87-0.93-1.53-2.07-2-3.4
		c-0.47-1.33-0.7-2.83-0.7-4.48s0.23-3.15,0.7-4.48c0.47-1.33,1.13-2.47,2-3.4c0.87-0.93,1.92-1.65,3.16-2.16
		c1.24-0.51,2.65-0.76,4.22-0.76c1.55,0,2.95,0.25,4.2,0.76c1.25,0.51,2.31,1.23,3.18,2.16c0.87,0.93,1.53,2.07,2,3.4
		c0.47,1.33,0.7,2.83,0.7,4.48s-0.23,3.15-0.7,4.48c-0.47,1.33-1.13,2.47-2,3.4c-0.87,0.93-1.93,1.65-3.18,2.16
		C365.65,454.23,364.25,454.48,362.71,454.48z M362.71,450.56c1.47,0,2.63-0.45,3.48-1.34c0.85-0.89,1.28-2.21,1.28-3.94v-3.2
		c0-1.73-0.43-3.05-1.28-3.94c-0.85-0.89-2.01-1.34-3.48-1.34c-1.47,0-2.63,0.45-3.48,1.34c-0.85,0.89-1.28,2.21-1.28,3.94v3.2
		c0,1.73,0.43,3.05,1.28,3.94C360.08,450.12,361.24,450.56,362.71,450.56z"/>
	<path class="st1" d="M377.58,450h6.56v-21.6h-6.56v-4h11.68V450h6.6v4h-18.28V450z"/>
	<path class="st1" d="M414.82,450.36h-0.28c-0.56,1.25-1.33,2.25-2.3,3c-0.97,0.75-2.26,1.12-3.86,1.12c-1.17,0-2.25-0.22-3.22-0.66
		c-0.97-0.44-1.81-1.11-2.5-2c-0.69-0.89-1.23-2.02-1.6-3.38c-0.37-1.36-0.56-2.95-0.56-4.76c0-3.63,0.72-6.33,2.16-8.12
		s3.35-2.68,5.72-2.68c1.6,0,2.89,0.37,3.86,1.12c0.97,0.75,1.74,1.75,2.3,3h0.28v-12.6h5.12V454h-5.12V450.36z M410.54,450.4
		c0.59,0,1.14-0.07,1.66-0.22s0.97-0.36,1.36-0.64c0.39-0.28,0.69-0.64,0.92-1.08c0.23-0.44,0.34-0.95,0.34-1.54v-6.48
		c0-0.59-0.11-1.1-0.34-1.54c-0.23-0.44-0.53-0.8-0.92-1.08c-0.39-0.28-0.84-0.49-1.36-0.64s-1.07-0.22-1.66-0.22
		c-1.49,0-2.65,0.45-3.46,1.36c-0.81,0.91-1.22,2.15-1.22,3.72v3.28c0,1.57,0.41,2.81,1.22,3.72
		C407.9,449.95,409.05,450.4,410.54,450.4z"/>
</g>
<g>
	<path class="st1" d="M233.79,474.36h9.8c2.75,0,4.85,0.67,6.3,2c1.45,1.33,2.18,3.15,2.18,5.44c0,1.6-0.39,2.87-1.18,3.82
		c-0.79,0.95-1.91,1.63-3.38,2.06v0.24c1.73,0.43,3.07,1.17,4.02,2.24c0.95,1.07,1.42,2.55,1.42,4.44c0,2.35-0.74,4.21-2.22,5.6
		c-1.48,1.39-3.55,2.08-6.22,2.08h-10.72V474.36z M241.91,486.2c1.41,0,2.44-0.23,3.08-0.7c0.64-0.47,0.96-1.31,0.96-2.54v-1.2
		c0-1.23-0.32-2.07-0.96-2.52c-0.64-0.45-1.67-0.68-3.08-0.68h-2.28v7.64H241.91z M242.67,498.08c1.44,0,2.49-0.24,3.16-0.72
		c0.67-0.48,1-1.36,1-2.64v-1.16c0-1.28-0.33-2.16-1-2.64c-0.67-0.48-1.72-0.72-3.16-0.72h-3.04v7.88H242.67z"/>
	<path class="st1" d="M266.71,502.76c-1.6,0-3.04-0.25-4.32-0.74c-1.28-0.49-2.37-1.21-3.26-2.14c-0.89-0.93-1.58-2.07-2.06-3.4
		c-0.48-1.33-0.72-2.84-0.72-4.52c0-1.68,0.24-3.19,0.72-4.52c0.48-1.33,1.17-2.47,2.06-3.4c0.89-0.93,1.98-1.65,3.26-2.14
		c1.28-0.49,2.72-0.74,4.32-0.74s3.04,0.25,4.32,0.74c1.28,0.49,2.37,1.21,3.26,2.14c0.89,0.93,1.58,2.07,2.06,3.4
		c0.48,1.33,0.72,2.84,0.72,4.52c0,1.68-0.24,3.19-0.72,4.52c-0.48,1.33-1.17,2.47-2.06,3.4c-0.89,0.93-1.98,1.65-3.26,2.14
		C269.75,502.51,268.31,502.76,266.71,502.76z M266.71,498.36c1.33,0,2.37-0.41,3.12-1.24c0.75-0.83,1.12-2,1.12-3.52v-3.28
		c0-1.52-0.37-2.69-1.12-3.52c-0.75-0.83-1.79-1.24-3.12-1.24c-1.33,0-2.37,0.41-3.12,1.24s-1.12,2-1.12,3.52v3.28
		c0,1.52,0.37,2.69,1.12,3.52C264.33,497.94,265.37,498.36,266.71,498.36z"/>
	<path class="st1" d="M281.43,497.64h6.32v-20.32h-6.32v-4.64h12.24v24.96h6.32v4.64h-18.56V497.64z"/>
	<path class="st1" d="M318.43,498.48h-0.28c-0.53,1.26-1.27,2.29-2.22,3.09c-0.95,0.79-2.25,1.19-3.9,1.19
		c-1.15,0-2.19-0.21-3.14-0.64c-0.95-0.43-1.76-1.08-2.44-1.96c-0.68-0.88-1.21-2-1.6-3.36c-0.39-1.36-0.58-2.97-0.58-4.84
		s0.19-3.48,0.58-4.84c0.39-1.36,0.92-2.48,1.6-3.36c0.68-0.88,1.49-1.53,2.44-1.96c0.95-0.43,1.99-0.64,3.14-0.64
		c0.83,0,1.56,0.11,2.2,0.32s1.21,0.51,1.7,0.89c0.49,0.38,0.92,0.83,1.28,1.35s0.67,1.1,0.94,1.71h0.28v-12.76h5.92v29.6h-5.92
		V498.48z M314.59,498.12c1.04,0,1.94-0.25,2.7-0.75c0.76-0.5,1.14-1.3,1.14-2.38v-6.04c0-1.09-0.38-1.88-1.14-2.38
		c-0.76-0.5-1.66-0.75-2.7-0.75c-1.33,0-2.36,0.4-3.08,1.21c-0.72,0.81-1.08,1.93-1.08,3.36v3.18c0,1.43,0.36,2.55,1.08,3.36
		C312.23,497.71,313.25,498.12,314.59,498.12z"/>
</g>
<g>
	<path class="st1" d="M788.24,392.37l1.56-8.48h-0.32l-8.08,14.36l-3.24-14.36h-0.32l-1.28,8.48l-2.2,13.36h-3.92l4.64-27.92h5.2
		l2.48,11.16h0.28l6.2-11.16h5.32l-4.64,27.92H786L788.24,392.37z"/>
	<path class="st1" d="M805.04,406.21c-2.83,0-4.95-0.75-6.38-2.24c-1.43-1.49-2.14-3.69-2.14-6.6c0-1.89,0.29-3.62,0.86-5.18
		c0.57-1.56,1.37-2.9,2.4-4.02s2.25-1.99,3.68-2.62c1.43-0.63,3.01-0.94,4.74-0.94c1.04,0,2,0.12,2.88,0.36
		c0.88,0.24,1.65,0.59,2.3,1.06c0.65,0.47,1.17,1.05,1.54,1.76c0.37,0.71,0.56,1.51,0.56,2.42c0,0.77-0.17,1.56-0.5,2.36
		c-0.33,0.8-1.02,1.53-2.06,2.2c-1.04,0.67-2.52,1.23-4.44,1.68s-4.45,0.73-7.6,0.84c-0.03,0.19-0.04,0.35-0.04,0.5s0,0.25,0,0.3
		c0,0.64,0.07,1.25,0.22,1.82s0.39,1.07,0.74,1.5c0.35,0.43,0.82,0.76,1.42,1c0.6,0.24,1.37,0.36,2.3,0.36
		c0.67,0,1.27-0.07,1.82-0.22c0.55-0.15,1.07-0.38,1.56-0.7s0.99-0.74,1.48-1.26c0.49-0.52,1.02-1.17,1.58-1.94l2.8,1.8
		c-0.56,0.88-1.16,1.67-1.8,2.38c-0.64,0.71-1.35,1.31-2.14,1.8s-1.65,0.88-2.6,1.16C807.27,406.07,806.21,406.21,805.04,406.21z
		 M807.79,387.85c-1.76,0-3.2,0.52-4.32,1.56s-1.85,2.63-2.2,4.76l-0.08,0.44c2.24-0.08,4.02-0.26,5.34-0.54
		c1.32-0.28,2.33-0.61,3.04-1c0.71-0.39,1.16-0.81,1.36-1.26c0.2-0.45,0.3-0.89,0.3-1.32c0-0.77-0.26-1.41-0.78-1.9
		C809.93,388.1,809.05,387.85,807.79,387.85z"/>
	<path class="st1" d="M833.35,400.85h-0.16c-0.77,1.6-1.71,2.89-2.8,3.88c-1.09,0.99-2.53,1.48-4.32,1.48
		c-2.13,0-3.71-0.69-4.74-2.08s-1.54-3.36-1.54-5.92c0-1.65,0.19-3.29,0.58-4.92s0.98-3.08,1.78-4.36s1.81-2.32,3.02-3.12
		c1.21-0.8,2.65-1.2,4.3-1.2c1.57,0,2.83,0.36,3.76,1.08c0.93,0.72,1.59,1.76,1.96,3.12h0.2l2.08-12.68h4.28l-4.92,29.6h-4.28
		L833.35,400.85z M827.79,402.73c1.57,0,2.99-0.72,4.24-2.16c0.45-0.51,0.88-1.13,1.28-1.88c0.4-0.75,0.68-1.6,0.84-2.56l0.68-4.12
		c0.21-1.2-0.05-2.15-0.78-2.86c-0.73-0.71-1.82-1.06-3.26-1.06c-1.79,0-3.17,0.54-4.14,1.62c-0.97,1.08-1.61,2.46-1.9,4.14
		l-0.48,2.84c-0.05,0.24-0.09,0.51-0.12,0.82c-0.03,0.31-0.04,0.61-0.04,0.9c0,1.31,0.29,2.35,0.88,3.14
		C825.58,402.34,826.51,402.73,827.79,402.73z"/>
	<path class="st1" d="M853.15,406.21c-1.28,0-2.24-0.33-2.88-1c-0.64-0.67-0.96-1.53-0.96-2.6c0-0.35,0.03-0.69,0.08-1.04
		c0.05-0.35,0.12-0.76,0.2-1.24l2.28-11.76h-6.96l0.56-3.48h11.32l-3.36,17.32l0.8,0.32l6.92-6.36l2.44,2.2l-3.12,3.12
		c-0.83,0.83-1.57,1.53-2.24,2.1c-0.67,0.57-1.28,1.04-1.84,1.4c-0.56,0.36-1.1,0.62-1.62,0.78
		C854.25,406.13,853.71,406.21,853.15,406.21z M855.47,381.33c-1.01,0-1.72-0.19-2.12-0.58c-0.4-0.39-0.6-0.85-0.6-1.39
		c0-0.16,0.01-0.35,0.04-0.56c0.03-0.22,0.07-0.44,0.12-0.69c0.13-0.72,0.43-1.3,0.9-1.71c0.47-0.42,1.21-0.63,2.22-0.63
		c1.01,0,1.72,0.2,2.12,0.58c0.4,0.39,0.6,0.85,0.6,1.39c0,0.16-0.01,0.35-0.04,0.56c-0.03,0.21-0.07,0.44-0.12,0.68
		c-0.13,0.73-0.43,1.3-0.9,1.71C857.23,381.12,856.49,381.33,855.47,381.33z"/>
	<path class="st1" d="M881.23,400.85h-0.2c-0.77,1.65-1.68,2.96-2.72,3.92s-2.4,1.44-4.08,1.44c-1.84,0-3.23-0.55-4.18-1.66
		c-0.95-1.11-1.42-2.54-1.42-4.3c0-0.48,0.02-0.98,0.06-1.5c0.04-0.52,0.13-1.13,0.26-1.82l1.96-11.84h4.28l-2,12
		c-0.05,0.37-0.11,0.77-0.16,1.18c-0.05,0.41-0.08,0.79-0.08,1.14c0,0.93,0.23,1.72,0.7,2.36c0.47,0.64,1.23,0.96,2.3,0.96
		c0.8,0,1.51-0.19,2.14-0.56c0.63-0.37,1.21-0.88,1.74-1.52c0.27-0.32,0.65-0.88,1.14-1.68c0.49-0.8,0.83-1.75,1.02-2.84l1.84-11.04
		h4.28l-3.44,20.64h-4.28L881.23,400.85z"/>
	<path class="st1" d="M889.95,405.73l3.44-20.64h3.64l-0.56,3.4h0.2c0.48-1.12,1.07-2.05,1.78-2.78c0.71-0.73,1.62-1.1,2.74-1.1
		c1.12,0,1.95,0.36,2.5,1.08c0.55,0.72,0.77,1.69,0.66,2.92h0.16c0.51-1.2,1.15-2.17,1.94-2.9c0.79-0.73,1.79-1.1,3.02-1.1
		c1.17,0,2.06,0.33,2.66,1c0.6,0.67,0.9,1.64,0.9,2.92c0,0.4-0.03,0.89-0.08,1.46c-0.05,0.57-0.12,1.1-0.2,1.58l-2.36,14.16h-3.64
		l2.28-13.64c0.05-0.37,0.11-0.77,0.16-1.2c0.05-0.43,0.08-0.77,0.08-1.04c0-1.31-0.52-1.96-1.56-1.96c-0.91,0-1.67,0.49-2.28,1.48
		c-0.29,0.48-0.56,1.01-0.8,1.58s-0.41,1.17-0.52,1.78l-2.16,13h-3.64l2.32-13.84c0.05-0.37,0.1-0.73,0.14-1.06s0.06-0.65,0.06-0.94
		c0-1.33-0.48-2-1.44-2c-0.91,0-1.69,0.49-2.36,1.48c-0.35,0.51-0.61,1.03-0.8,1.58s-0.33,1.07-0.44,1.58l-2.2,13.2H889.95z"/>
</g>
<g>
	<path class="st1" d="M780.56,454.48c-2.35,0-4.39-0.4-6.14-1.19c-1.75-0.79-3.05-1.88-3.9-3.25l3.36-3.2
		c0.83,1.15,1.85,2,3.08,2.56c1.23,0.56,2.53,0.84,3.92,0.84c1.73,0,3.06-0.41,3.98-1.22c0.92-0.81,1.38-1.94,1.38-3.39
		c0-1.02-0.27-1.78-0.82-2.31c-0.55-0.52-1.46-0.93-2.74-1.22l-2.84-0.64c-2.08-0.45-3.59-1.29-4.54-2.5
		c-0.95-1.21-1.42-2.7-1.42-4.47c0-1.36,0.25-2.59,0.74-3.68c0.49-1.09,1.2-2.03,2.12-2.8s2.03-1.37,3.32-1.78
		c1.29-0.41,2.74-0.62,4.34-0.62c2.16,0,4.03,0.38,5.6,1.15c1.57,0.77,2.75,1.77,3.52,3.01l-3.44,3.04
		c-0.67-0.93-1.49-1.66-2.46-2.18c-0.97-0.52-2.13-0.78-3.46-0.78c-1.63,0-2.87,0.37-3.72,1.12c-0.85,0.75-1.28,1.75-1.28,3.03
		c0,0.93,0.29,1.64,0.86,2.13c0.57,0.49,1.53,0.9,2.86,1.22l2.72,0.68c2.08,0.53,3.59,1.37,4.54,2.52c0.95,1.15,1.42,2.64,1.42,4.47
		c0,1.41-0.25,2.7-0.74,3.86c-0.49,1.16-1.21,2.15-2.16,2.98c-0.95,0.83-2.1,1.47-3.46,1.94S782.29,454.48,780.56,454.48z"/>
	<path class="st1" d="M805.08,454.48c-2.93,0-5.13-0.77-6.58-2.3c-1.45-1.53-2.18-3.71-2.18-6.54c0-1.89,0.29-3.63,0.86-5.2
		c0.57-1.57,1.38-2.92,2.42-4.04s2.29-1.99,3.76-2.6c1.47-0.61,3.09-0.92,4.88-0.92c1.04,0,2.01,0.12,2.9,0.36
		c0.89,0.24,1.68,0.6,2.36,1.06c0.68,0.47,1.21,1.06,1.6,1.76s0.58,1.53,0.58,2.47c0,0.8-0.17,1.61-0.52,2.43
		c-0.35,0.82-1.03,1.56-2.04,2.23c-1.01,0.67-2.46,1.24-4.34,1.71c-1.88,0.47-4.34,0.76-7.38,0.86c-0.03,0.16-0.04,0.3-0.04,0.42
		c0,0.12,0,0.22,0,0.3c0,1.23,0.31,2.21,0.94,2.96c0.63,0.75,1.75,1.12,3.38,1.12c0.64,0,1.21-0.06,1.72-0.18s0.99-0.33,1.46-0.64
		s0.93-0.7,1.4-1.18c0.47-0.48,0.97-1.08,1.5-1.8l3.2,2.03c-0.56,0.82-1.15,1.58-1.78,2.29c-0.63,0.7-1.33,1.31-2.12,1.81
		c-0.79,0.5-1.67,0.9-2.64,1.17C807.44,454.34,806.33,454.48,805.08,454.48z M807.75,436.56c-1.52,0-2.78,0.44-3.78,1.32
		c-1,0.88-1.7,2.32-2.1,4.32l-0.12,0.61c2.05-0.11,3.67-0.3,4.86-0.57c1.19-0.27,2.09-0.58,2.7-0.93s1.01-0.74,1.18-1.15
		c0.17-0.42,0.26-0.82,0.26-1.2c0-0.73-0.23-1.31-0.7-1.74S808.82,436.56,807.75,436.56z"/>
	<path class="st1" d="M817.67,454l3.44-20.64h4.16l-0.6,3.48h0.24c0.48-1.17,1.08-2.13,1.8-2.86c0.72-0.73,1.64-1.1,2.76-1.1
		c1.09,0,1.92,0.35,2.48,1.06c0.56,0.71,0.77,1.7,0.64,2.98h0.2c0.51-1.2,1.15-2.17,1.92-2.92c0.77-0.75,1.79-1.12,3.04-1.12
		c2.35,0,3.52,1.29,3.52,3.88c0,0.43-0.03,0.92-0.08,1.48c-0.05,0.56-0.12,1.08-0.2,1.56l-2.36,14.2h-4.16l2.28-13.76
		c0.13-0.67,0.2-1.28,0.2-1.84c0-1.17-0.44-1.76-1.32-1.76c-0.37,0-0.73,0.1-1.08,0.3c-0.35,0.2-0.69,0.57-1.04,1.1
		c-0.29,0.48-0.53,0.97-0.72,1.48s-0.32,0.99-0.4,1.44L830.23,454h-4.16l2.28-13.76c0.13-0.67,0.2-1.28,0.2-1.84
		c0-1.17-0.44-1.76-1.32-1.76c-0.37,0-0.73,0.1-1.08,0.3s-0.69,0.57-1.04,1.1c-0.29,0.48-0.53,0.97-0.72,1.48
		c-0.19,0.51-0.32,0.99-0.4,1.44L821.83,454H817.67z"/>
	<path class="st1" d="M853.47,454.48c-1.44,0-2.53-0.38-3.28-1.14c-0.75-0.76-1.12-1.78-1.12-3.06c0-0.37,0.03-0.76,0.08-1.16
		c0.05-0.4,0.15-0.92,0.28-1.56l1.96-10.2h-6.64l0.68-4h11.72l-3.24,16.88l0.76,0.24l6.28-6.04l2.8,2.52l-2.8,2.96
		c-1.49,1.6-2.81,2.76-3.94,3.48C855.88,454.12,854.7,454.48,853.47,454.48z M855.47,430.08c-1.12,0-1.9-0.21-2.34-0.64
		s-0.66-0.95-0.66-1.56c0-0.13,0.01-0.31,0.04-0.52c0.03-0.21,0.07-0.51,0.12-0.88c0.13-0.77,0.46-1.38,0.98-1.82
		c0.52-0.44,1.34-0.66,2.46-0.66c1.12,0,1.9,0.21,2.34,0.64c0.44,0.43,0.66,0.95,0.66,1.56c0,0.13-0.01,0.31-0.04,0.52
		c-0.03,0.21-0.07,0.51-0.12,0.88c-0.13,0.77-0.46,1.38-0.98,1.82C857.41,429.86,856.59,430.08,855.47,430.08z"/>
	<path class="st1" d="M872.03,426.08h9.36c2.37,0,4.18,0.58,5.42,1.74s1.86,2.73,1.86,4.7c0,1.92-0.48,3.47-1.44,4.66
		s-2.36,2.02-4.2,2.5l-0.04,0.16c1.41,0.32,2.51,0.92,3.3,1.8c0.79,0.88,1.18,2.08,1.18,3.6c0,1.28-0.22,2.45-0.66,3.52
		c-0.44,1.07-1.06,1.99-1.86,2.76s-1.77,1.38-2.92,1.82c-1.15,0.44-2.43,0.66-3.84,0.66h-10.8L872.03,426.08z M877.07,450.24
		c1.41,0,2.55-0.27,3.42-0.8c0.87-0.53,1.38-1.37,1.54-2.52l0.16-1.12c0.05-0.24,0.09-0.49,0.12-0.74c0.03-0.25,0.04-0.47,0.04-0.66
		c0-1.87-1.23-2.8-3.68-2.8h-4.16l-1.44,8.64H877.07z M878.43,438c1.44,0,2.53-0.24,3.28-0.72c0.75-0.48,1.23-1.32,1.44-2.52
		l0.2-1.08c0.05-0.19,0.09-0.39,0.1-0.6c0.01-0.21,0.02-0.41,0.02-0.6c0-0.96-0.31-1.64-0.92-2.04c-0.61-0.4-1.48-0.6-2.6-0.6h-3.48
		l-1.36,8.16H878.43z"/>
	<path class="st1" d="M900.47,454.48c-1.36,0-2.58-0.21-3.66-0.62s-1.99-1.01-2.72-1.78s-1.29-1.71-1.68-2.8
		c-0.39-1.09-0.58-2.31-0.58-3.64c0-1.97,0.28-3.75,0.84-5.32s1.35-2.91,2.36-4.02c1.01-1.11,2.22-1.95,3.62-2.54
		c1.4-0.59,2.94-0.88,4.62-0.88c1.36,0,2.58,0.21,3.66,0.62c1.08,0.41,1.99,1.01,2.72,1.78s1.29,1.71,1.68,2.8
		c0.39,1.09,0.58,2.31,0.58,3.64c0,1.97-0.28,3.75-0.84,5.32c-0.56,1.57-1.35,2.91-2.36,4.02c-1.01,1.11-2.22,1.95-3.62,2.54
		C903.69,454.19,902.15,454.48,900.47,454.48z M900.83,450.56c1.49,0,2.69-0.44,3.58-1.33c0.89-0.89,1.49-2.15,1.78-3.8l0.48-2.82
		c0.05-0.32,0.1-0.64,0.14-0.95s0.06-0.6,0.06-0.83c0-1.35-0.35-2.36-1.06-3.02s-1.67-1-2.9-1c-1.49,0-2.69,0.44-3.58,1.33
		c-0.89,0.89-1.49,2.15-1.78,3.8l-0.48,2.82c-0.05,0.32-0.1,0.64-0.14,0.96s-0.06,0.6-0.06,0.83c0,1.35,0.35,2.36,1.06,3.02
		C898.64,450.23,899.61,450.56,900.83,450.56z"/>
	<path class="st1" d="M924.43,454.48c-1.49,0-2.59-0.39-3.28-1.16s-1.04-1.8-1.04-3.08c0-0.37,0.02-0.75,0.06-1.12
		c0.04-0.37,0.13-0.87,0.26-1.48l3.6-19.24h-6.44l0.68-4h11.56l-4.88,25.84l0.72,0.24l6.36-6.08l2.8,2.52l-2.96,3.08
		c-1.52,1.6-2.84,2.75-3.96,3.44S925.63,454.48,924.43,454.48z"/>
	<path class="st1" d="M952.95,449.12h-0.16c-0.4,0.8-0.82,1.53-1.26,2.18c-0.44,0.65-0.94,1.21-1.5,1.68
		c-0.56,0.47-1.19,0.83-1.9,1.1c-0.71,0.27-1.5,0.4-2.38,0.4c-2.13,0-3.69-0.71-4.68-2.14c-0.99-1.43-1.48-3.38-1.48-5.86
		c0-1.84,0.21-3.59,0.62-5.24c0.41-1.65,1.03-3.1,1.84-4.34s1.82-2.22,3.02-2.94c1.2-0.72,2.57-1.08,4.12-1.08
		c1.6,0,2.84,0.37,3.72,1.1s1.49,1.78,1.84,3.14h0.2l2.12-12.72h5.04l-4.92,29.6h-5.04L952.95,449.12z M947.91,450.48
		c0.77,0,1.47-0.17,2.1-0.52c0.63-0.35,1.22-0.85,1.78-1.52c0.37-0.45,0.75-1.02,1.14-1.7s0.66-1.47,0.82-2.38l0.64-3.84
		c0.21-1.15,0.01-2.04-0.62-2.68c-0.63-0.64-1.62-0.96-2.98-0.96c-1.63,0-2.88,0.48-3.76,1.44c-0.88,0.96-1.45,2.25-1.72,3.88
		l-0.44,2.64c-0.05,0.24-0.09,0.51-0.12,0.82c-0.03,0.31-0.04,0.62-0.04,0.94c0,1.15,0.25,2.08,0.74,2.8
		C945.95,450.12,946.76,450.48,947.91,450.48z"/>
</g>
<g>
	<path class="st1" d="M775.96,474.36h9.48c2.43,0,4.28,0.59,5.56,1.76c1.28,1.17,1.92,2.73,1.92,4.68c0,3.89-1.93,6.32-5.8,7.28
		l-0.04,0.2c1.47,0.29,2.59,0.88,3.38,1.76c0.79,0.88,1.18,2.07,1.18,3.56c0,1.31-0.22,2.49-0.66,3.56
		c-0.44,1.07-1.07,1.98-1.9,2.74c-0.83,0.76-1.83,1.35-3.02,1.76c-1.19,0.41-2.51,0.62-3.98,0.62h-10.8L775.96,474.36z
		 M780.79,498.12c1.33,0,2.39-0.23,3.16-0.68c0.77-0.45,1.25-1.23,1.44-2.32l0.16-0.96c0.05-0.24,0.1-0.49,0.14-0.76
		s0.06-0.48,0.06-0.64c0-0.93-0.27-1.6-0.8-2c-0.53-0.4-1.4-0.6-2.6-0.6h-3.28l-1.32,7.96H780.79z M782.04,486.2
		c1.41,0,2.48-0.21,3.2-0.62c0.72-0.41,1.19-1.22,1.4-2.42l0.16-0.96c0.03-0.13,0.05-0.33,0.08-0.58c0.03-0.25,0.04-0.47,0.04-0.66
		c0-0.91-0.29-1.54-0.86-1.9s-1.39-0.54-2.46-0.54h-2.56l-1.28,7.68H782.04z"/>
	<path class="st1" d="M804.47,502.76c-2.83,0-5.01-0.79-6.56-2.38s-2.32-3.75-2.32-6.5c0-1.97,0.29-3.75,0.86-5.32s1.37-2.91,2.4-4
		c1.03-1.09,2.25-1.93,3.68-2.52c1.43-0.59,3.01-0.88,4.74-0.88c2.83,0,5.01,0.79,6.56,2.38c1.55,1.59,2.32,3.75,2.32,6.5
		c0,1.97-0.29,3.75-0.86,5.32c-0.57,1.57-1.37,2.91-2.4,4c-1.03,1.09-2.25,1.93-3.68,2.52
		C807.79,502.46,806.21,502.76,804.47,502.76z M804.91,498.4c1.28,0,2.33-0.39,3.14-1.16c0.81-0.77,1.34-1.88,1.58-3.32l0.52-3.12
		c0.05-0.24,0.1-0.51,0.14-0.82s0.06-0.58,0.06-0.82c0-1.23-0.31-2.14-0.94-2.74c-0.63-0.6-1.49-0.9-2.58-0.9
		c-1.28,0-2.33,0.39-3.14,1.16s-1.34,1.88-1.58,3.32l-0.52,3.12c-0.05,0.24-0.1,0.51-0.14,0.82s-0.06,0.58-0.06,0.82
		c0,1.23,0.31,2.14,0.94,2.74C802.96,498.1,803.82,498.4,804.91,498.4z"/>
	<path class="st1" d="M828.67,502.76c-1.65,0-2.88-0.43-3.68-1.3c-0.8-0.87-1.2-2.03-1.2-3.5c0-0.45,0.03-0.89,0.08-1.32
		c0.05-0.43,0.16-1.05,0.32-1.88l3.24-17.52h-6.08l0.76-4.56h11.96L829.39,498l0.6,0.2l5.6-5.71l3.2,2.87l-2.44,2.8
		c-1.36,1.52-2.63,2.67-3.82,3.44C831.35,502.37,830.06,502.76,828.67,502.76z"/>
	<path class="st1" d="M856.55,497.32h-0.2c-0.4,0.81-0.82,1.54-1.26,2.2c-0.44,0.66-0.93,1.23-1.48,1.71
		c-0.55,0.48-1.16,0.86-1.84,1.13c-0.68,0.27-1.46,0.4-2.34,0.4c-1.09,0-2.02-0.19-2.78-0.56s-1.38-0.91-1.86-1.62
		c-0.48-0.71-0.83-1.55-1.06-2.54c-0.23-0.99-0.34-2.08-0.34-3.28c0-2.05,0.23-3.91,0.68-5.58c0.45-1.67,1.09-3.09,1.92-4.28
		c0.83-1.19,1.82-2.11,2.98-2.76c1.16-0.65,2.46-0.98,3.9-0.98c1.63,0,2.86,0.38,3.7,1.15s1.41,1.84,1.7,3.21h0.28l2.12-12.84h5.84
		l-4.92,29.6h-5.84L856.55,497.32z M852.03,498.2c0.72,0,1.36-0.17,1.92-0.52c0.56-0.34,1.08-0.82,1.56-1.43
		c0.32-0.37,0.68-0.89,1.08-1.57c0.4-0.67,0.67-1.44,0.8-2.28l0.56-3.3c0.19-1.09,0.02-1.92-0.5-2.5c-0.52-0.58-1.42-0.87-2.7-0.87
		c-1.44,0-2.55,0.42-3.32,1.25c-0.77,0.83-1.29,2.03-1.56,3.6l-0.4,2.38c-0.05,0.24-0.09,0.51-0.12,0.82
		c-0.03,0.3-0.04,0.63-0.04,0.97c0.03,0.98,0.23,1.8,0.62,2.46C850.32,497.87,851.02,498.2,852.03,498.2z"/>
</g>
<g>
	<path class="st1" d="M785.77,26.61l-4.52,27.12h-0.88l4.52-27.12h-9.92l0.12-0.8h20.72l-0.12,0.8H785.77z"/>
	<path class="st1" d="M802.97,24.13h0.84l-2.24,13.56h0.12c0.77-1.59,1.73-2.83,2.88-3.73c1.15-0.9,2.6-1.35,4.36-1.35
		c1.79,0,3.15,0.49,4.1,1.48c0.95,0.99,1.42,2.37,1.42,4.16c0,0.37-0.02,0.75-0.06,1.14c-0.04,0.39-0.09,0.77-0.14,1.14l-2.2,13.2
		h-0.84l2.2-13.13c0.13-0.75,0.2-1.5,0.2-2.27c0-1.65-0.41-2.88-1.22-3.69c-0.81-0.81-2.01-1.22-3.58-1.22
		c-0.93,0-1.87,0.19-2.8,0.58c-0.93,0.39-1.79,1.06-2.56,2.02c-0.43,0.53-0.89,1.25-1.4,2.16c-0.51,0.9-0.87,1.94-1.08,3.11
		l-2.08,12.46h-0.84L802.97,24.13z"/>
	<path class="st1" d="M827.45,54.21c-0.48,0-0.72-0.25-0.72-0.76c0-0.08,0.01-0.21,0.04-0.38c0.03-0.17,0.09-0.51,0.2-1.02
		l3.52-18.2h-8.32l0.12-0.76h9.2l-3.92,20.12l0.2,0.12l10.6-7.16l0.44,0.6l-9.72,6.6c-0.35,0.21-0.65,0.41-0.9,0.58
		C827.93,54.13,827.69,54.21,827.45,54.21z M832.53,26.09c-0.4,0-0.67-0.07-0.82-0.22c-0.15-0.15-0.22-0.31-0.22-0.5
		c0-0.08,0.01-0.16,0.02-0.24s0.03-0.19,0.06-0.32c0.13-0.59,0.53-0.88,1.2-0.88c0.4,0,0.67,0.07,0.82,0.22
		c0.15,0.15,0.22,0.31,0.22,0.5c0,0.08-0.01,0.16-0.02,0.24c-0.01,0.08-0.03,0.19-0.06,0.32C833.59,25.8,833.19,26.09,832.53,26.09z
		"/>
	<path class="st1" d="M846.05,53.73l3.44-20.64h0.84l-0.76,4.56h0.12c0.77-1.57,1.73-2.81,2.88-3.7s2.6-1.34,4.36-1.34
		c1.79,0,3.15,0.49,4.1,1.48c0.95,0.99,1.42,2.37,1.42,4.16c0,0.37-0.02,0.75-0.06,1.14c-0.04,0.39-0.09,0.77-0.14,1.14l-2.2,13.2
		h-0.84l2.2-13.16c0.13-0.75,0.2-1.51,0.2-2.28c0-1.65-0.41-2.89-1.22-3.7c-0.81-0.81-2.01-1.22-3.58-1.22
		c-0.93,0-1.87,0.19-2.8,0.58c-0.93,0.39-1.79,1.06-2.56,2.02c-0.43,0.53-0.89,1.25-1.4,2.16c-0.51,0.91-0.87,1.95-1.08,3.12
		l-2.08,12.48H846.05z"/>
</g>
<g>
	<path class="st1" d="M772.97,102.01l4.64-27.92h16.44l-0.2,1.32h-15l-1.96,11.76h14.44l-0.2,1.32h-14.48l-2.04,12.2h15l-0.2,1.32
		H772.97z"/>
	<path class="st1" d="M799.17,102.49c-1.17,0-2.11-0.39-2.8-1.16s-1.04-1.92-1.04-3.44c0-0.32,0.02-0.73,0.06-1.24
		s0.11-1.01,0.22-1.52l1.36-0.08c-0.11,0.51-0.18,0.96-0.22,1.36c-0.04,0.4-0.06,0.84-0.06,1.32c0,1.23,0.24,2.13,0.72,2.72
		c0.48,0.59,1.15,0.88,2,0.88c0.77,0,1.48-0.23,2.12-0.68c0.64-0.45,1.21-1.05,1.72-1.78c0.51-0.73,0.94-1.56,1.3-2.48
		c0.36-0.92,0.66-1.85,0.9-2.78s0.42-1.83,0.54-2.68c0.12-0.85,0.18-1.59,0.18-2.2c0-0.72-0.05-1.43-0.16-2.12s-0.25-1.33-0.44-1.92
		c-0.19-0.59-0.4-1.11-0.64-1.56c-0.24-0.45-0.48-0.81-0.72-1.08l-0.36-0.08l-6.96,3.4l-0.48-0.92l5.24-2.72
		c0.53-0.29,0.99-0.51,1.36-0.64c0.37-0.13,0.75-0.2,1.12-0.2c0.4,0,0.79,0.17,1.16,0.52c0.37,0.35,0.71,0.85,1,1.5
		c0.29,0.65,0.53,1.45,0.7,2.38c0.17,0.93,0.27,1.97,0.3,3.12h0.16c0.61-2.56,1.51-4.45,2.7-5.68c1.19-1.23,2.5-1.84,3.94-1.84
		c1.17,0,2.11,0.39,2.8,1.16c0.69,0.77,1.04,1.92,1.04,3.44c0,0.32-0.02,0.73-0.06,1.24s-0.11,1.01-0.22,1.52l-1.36,0.08
		c0.11-0.51,0.18-0.96,0.22-1.36c0.04-0.4,0.06-0.84,0.06-1.32c0-1.23-0.24-2.13-0.72-2.72c-0.48-0.59-1.15-0.88-2-0.88
		c-0.77,0-1.48,0.23-2.12,0.68c-0.64,0.45-1.21,1.05-1.72,1.78c-0.51,0.73-0.94,1.56-1.3,2.48s-0.66,1.85-0.9,2.78
		c-0.24,0.93-0.42,1.83-0.54,2.68c-0.12,0.85-0.18,1.59-0.18,2.2c0,0.72,0.05,1.43,0.16,2.12c0.11,0.69,0.25,1.33,0.44,1.92
		c0.19,0.59,0.4,1.11,0.64,1.56c0.24,0.45,0.49,0.81,0.76,1.08l0.36,0.08l6.68-3.72l0.56,0.88l-5.08,3
		c-0.61,0.37-1.08,0.62-1.4,0.74c-0.32,0.12-0.65,0.18-1,0.18c-0.4,0-0.79-0.17-1.18-0.52c-0.39-0.35-0.73-0.85-1.02-1.5
		c-0.29-0.65-0.53-1.44-0.72-2.36s-0.29-1.97-0.32-3.14h-0.16c-0.61,2.56-1.51,4.45-2.7,5.68
		C801.92,101.87,800.61,102.49,799.17,102.49z"/>
	<path class="st1" d="M827.29,102.49c-0.4,0-0.71-0.11-0.94-0.32c-0.23-0.21-0.34-0.48-0.34-0.8c0-0.21,0.01-0.42,0.02-0.64
		c0.01-0.21,0.06-0.53,0.14-0.96l2.96-17.17h-7.52l0.2-1.24h6.24c0.88,0,1.4-0.44,1.56-1.32l0.96-5.96h1.36l-1.2,7.28h10.08
		l-0.2,1.24h-10.12l-3.12,18.36l0.4,0.2l10.68-6.68l0.68,0.97l-8.88,5.55c-0.72,0.48-1.29,0.85-1.72,1.1
		C828.1,102.36,827.69,102.49,827.29,102.49z"/>
	<path class="st1" d="M850.77,102.01l3.24-19.4h-6.8l0.2-1.24h8.16l-0.64,3.96h0.12c0.37-0.61,0.77-1.17,1.2-1.66
		c0.43-0.49,0.91-0.91,1.46-1.24c0.55-0.33,1.17-0.59,1.86-0.78c0.69-0.19,1.51-0.28,2.44-0.28h4.36l-0.2,1.32h-4.44
		c-1.76,0-3.29,0.48-4.6,1.44c-0.61,0.45-1.19,1.05-1.72,1.78c-0.53,0.73-0.88,1.61-1.04,2.62l-2.24,13.48H850.77z"/>
	<path class="st1" d="M882.77,102.01l0.76-4.68h-0.12c-0.77,1.55-1.74,2.79-2.9,3.74s-2.65,1.42-4.46,1.42
		c-1.12,0-2.11-0.19-2.96-0.58c-0.85-0.39-1.57-0.93-2.14-1.62s-1.01-1.53-1.3-2.5c-0.29-0.97-0.44-2.05-0.44-3.22
		c0-1.84,0.21-3.59,0.64-5.24c0.43-1.65,1.05-3.11,1.88-4.36c0.83-1.25,1.85-2.25,3.06-2.98c1.21-0.73,2.59-1.1,4.14-1.1
		c1.76,0,3.19,0.38,4.28,1.14c1.09,0.76,1.84,1.77,2.24,3.02h0.16l0.6-3.68h1.36l-3.44,20.64H882.77z M876.29,101.25
		c0.88,0,1.7-0.14,2.46-0.42c0.76-0.28,1.49-0.74,2.18-1.38c0.72-0.67,1.39-1.5,2-2.5c0.61-1,1.03-2.13,1.24-3.38l0.96-5.68
		c0.11-0.69,0.07-1.39-0.1-2.08c-0.17-0.69-0.5-1.31-0.98-1.86c-0.48-0.55-1.13-0.99-1.96-1.32c-0.83-0.33-1.81-0.5-2.96-0.5
		c-1.09,0-2.09,0.21-3,0.64c-0.91,0.43-1.7,1.01-2.38,1.76c-0.68,0.75-1.25,1.63-1.7,2.64c-0.45,1.01-0.77,2.11-0.96,3.28l-0.36,2.2
		c-0.11,0.61-0.16,1.27-0.16,1.96c0,0.93,0.11,1.8,0.34,2.6s0.57,1.5,1.02,2.1c0.45,0.6,1.04,1.07,1.76,1.42
		S875.27,101.25,876.29,101.25z"/>
	<path class="st1" d="M894.41,102.01l4.64-27.92h1.44l-4.44,26.6h14.12l-0.2,1.32H894.41z"/>
	<path class="st1" d="M923.93,102.49c-0.43,0-0.75-0.11-0.96-0.34c-0.21-0.23-0.32-0.53-0.32-0.9c0-0.13,0.01-0.29,0.04-0.48
		c0.03-0.19,0.08-0.5,0.16-0.96l3.36-17.21h-8.12l0.2-1.24h9.52l-3.8,19.6l0.36,0.2l9.96-7.08l0.72,0.9l-8.2,5.91
		c-0.77,0.53-1.36,0.93-1.76,1.2C924.69,102.35,924.3,102.49,923.93,102.49z M928.45,74.93c-0.53,0-0.89-0.09-1.08-0.28
		s-0.28-0.4-0.28-0.64c0-0.16,0.04-0.4,0.12-0.72c0.08-0.35,0.24-0.62,0.48-0.82s0.59-0.3,1.04-0.3c0.53,0,0.89,0.09,1.08,0.28
		s0.28,0.4,0.28,0.64c0,0.16-0.04,0.4-0.12,0.72c-0.08,0.35-0.24,0.62-0.48,0.82C929.25,74.83,928.9,74.93,928.45,74.93z"/>
	<path class="st1" d="M946.84,110.49c-1.55,0-2.85-0.24-3.9-0.72c-1.05-0.48-1.93-1.15-2.62-2l1-0.92c0.56,0.75,1.29,1.33,2.18,1.76
		c0.89,0.43,2.02,0.64,3.38,0.64c2.13,0,3.87-0.55,5.2-1.64c1.33-1.09,2.2-2.88,2.6-5.36l0.84-5.08h-0.12
		c-0.77,1.55-1.74,2.79-2.9,3.74s-2.65,1.42-4.46,1.42c-1.12,0-2.11-0.19-2.96-0.58s-1.57-0.93-2.14-1.62
		c-0.57-0.69-1.01-1.53-1.3-2.5c-0.29-0.97-0.44-2.05-0.44-3.22c0-1.81,0.22-3.54,0.66-5.18c0.44-1.64,1.07-3.08,1.9-4.32
		c0.83-1.24,1.84-2.22,3.04-2.94c1.2-0.72,2.57-1.08,4.12-1.08c1.76,0,3.19,0.38,4.3,1.14c1.11,0.76,1.86,1.77,2.26,3.02h0.12
		l0.6-3.68h1.36l-3.56,21.2c-0.45,2.75-1.47,4.75-3.04,6.02S949.35,110.49,946.84,110.49z M948.29,101.09c0.88,0,1.7-0.14,2.46-0.42
		s1.49-0.74,2.18-1.38c0.69-0.61,1.35-1.42,1.98-2.42c0.63-1,1.05-2.14,1.26-3.42l0.96-5.56c0.11-0.69,0.07-1.39-0.1-2.08
		c-0.17-0.69-0.5-1.31-0.98-1.86c-0.48-0.55-1.13-0.99-1.96-1.32c-0.83-0.33-1.81-0.5-2.96-0.5c-1.09,0-2.09,0.21-3,0.64
		c-0.91,0.43-1.71,1.01-2.4,1.74c-0.69,0.73-1.27,1.61-1.72,2.62c-0.45,1.01-0.77,2.12-0.96,3.32l-0.32,2
		c-0.11,0.61-0.16,1.27-0.16,1.96c0,0.93,0.11,1.81,0.34,2.62s0.57,1.52,1.02,2.12c0.45,0.6,1.04,1.07,1.76,1.42
		C946.41,100.91,947.27,101.09,948.29,101.09z"/>
	<path class="st1" d="M970.68,72.41h1.4l-2.28,13.6h0.16c0.77-1.6,1.72-2.85,2.84-3.76c1.12-0.91,2.56-1.36,4.32-1.36
		c1.76,0,3.12,0.5,4.08,1.5s1.44,2.41,1.44,4.22c0,0.37-0.02,0.76-0.06,1.16c-0.04,0.4-0.09,0.8-0.14,1.2l-2.2,13.04h-1.36
		l2.16-12.92c0.05-0.37,0.1-0.76,0.14-1.16c0.04-0.4,0.06-0.77,0.06-1.12c0-3.12-1.49-4.68-4.48-4.68c-0.93,0-1.84,0.19-2.72,0.58
		c-0.88,0.39-1.68,1.03-2.4,1.94c-0.19,0.24-0.4,0.53-0.64,0.86c-0.24,0.33-0.48,0.72-0.72,1.16c-0.24,0.44-0.46,0.92-0.66,1.44
		c-0.2,0.52-0.35,1.07-0.46,1.66l-2.04,12.24h-1.36L970.68,72.41z"/>
	<path class="st1" d="M995.28,102.49c-0.4,0-0.71-0.11-0.94-0.32c-0.23-0.21-0.34-0.48-0.34-0.8c0-0.21,0.01-0.42,0.02-0.64
		c0.01-0.21,0.06-0.53,0.14-0.96l2.96-17.17h-7.52l0.2-1.24h6.24c0.88,0,1.4-0.44,1.56-1.32l0.96-5.96h1.36l-1.2,7.28h10.08
		l-0.2,1.24h-10.12l-3.12,18.36l0.4,0.2l10.68-6.68l0.68,0.97l-8.88,5.55c-0.72,0.48-1.29,0.85-1.72,1.1
		C996.1,102.36,995.68,102.49,995.28,102.49z"/>
</g>
<g>
	<path class="st1" d="M774.05,150.28l4.64-27.92h2.36l-4.28,25.84h13.68l-0.36,2.08H774.05z"/>
	<path class="st1" d="M804.65,150.76c-0.69,0-1.23-0.19-1.6-0.56c-0.37-0.37-0.56-0.85-0.56-1.44c0-0.19,0.02-0.39,0.06-0.62
		c0.04-0.23,0.09-0.53,0.14-0.9l3.04-15.68h-7.76l0.32-1.92h10.04l-3.64,18.88l0.6,0.24l9-6.93l1.2,1.41l-5.92,4.56
		c-0.69,0.53-1.27,0.99-1.74,1.36c-0.47,0.37-0.89,0.68-1.26,0.92c-0.37,0.24-0.71,0.41-1,0.52
		C805.27,150.71,804.97,150.76,804.65,150.76z M808.37,124.12c-0.69,0-1.17-0.13-1.44-0.4c-0.27-0.27-0.4-0.56-0.4-0.88
		c0-0.13,0.01-0.29,0.04-0.46c0.03-0.17,0.05-0.33,0.08-0.46c0.08-0.45,0.27-0.82,0.58-1.1c0.31-0.28,0.79-0.42,1.46-0.42
		c0.69,0,1.17,0.13,1.44,0.4c0.27,0.27,0.4,0.56,0.4,0.88c0,0.13-0.01,0.29-0.04,0.46c-0.03,0.17-0.05,0.33-0.08,0.46
		c-0.08,0.45-0.27,0.82-0.58,1.1C809.52,123.98,809.03,124.12,808.37,124.12z"/>
	<path class="st1" d="M826.93,158.76c-1.6,0-2.97-0.24-4.12-0.72c-1.15-0.48-2.07-1.16-2.76-2.04l1.56-1.52
		c0.56,0.72,1.27,1.28,2.14,1.68c0.87,0.4,1.97,0.6,3.3,0.6c2,0,3.62-0.51,4.86-1.52c1.24-1.01,2.05-2.72,2.42-5.12l0.84-5.04h-0.12
		c-0.77,1.6-1.74,2.88-2.9,3.84c-1.16,0.96-2.65,1.44-4.46,1.44c-2.19,0-3.85-0.71-4.98-2.12c-1.13-1.41-1.7-3.33-1.7-5.76
		c0-1.6,0.2-3.19,0.6-4.78c0.4-1.59,1-3.01,1.8-4.28s1.81-2.29,3.02-3.08c1.21-0.79,2.65-1.18,4.3-1.18c1.65,0,3.01,0.37,4.06,1.1
		c1.05,0.73,1.79,1.74,2.22,3.02h0.12l0.6-3.64h2.24l-3.48,20.92c-0.51,2.88-1.59,4.97-3.26,6.26
		C831.56,158.11,829.46,158.76,826.93,158.76z M828.33,148.36c0.88,0,1.72-0.15,2.52-0.46c0.8-0.31,1.55-0.83,2.24-1.58
		c0.53-0.53,1.07-1.25,1.62-2.14c0.55-0.89,0.93-1.94,1.14-3.14l0.8-4.76c0.11-0.69,0.07-1.35-0.1-1.98
		c-0.17-0.63-0.49-1.17-0.96-1.64c-0.47-0.47-1.06-0.83-1.78-1.1c-0.72-0.27-1.56-0.4-2.52-0.4c-2.08,0-3.75,0.68-5,2.04
		c-1.25,1.36-2.07,3.12-2.44,5.28l-0.36,2.12c-0.05,0.37-0.1,0.71-0.14,1c-0.04,0.29-0.06,0.59-0.06,0.88
		c0,1.76,0.41,3.18,1.22,4.26S826.59,148.36,828.33,148.36z"/>
	<path class="st1" d="M850.29,120.68h2.24l-2.32,13.72h0.16c0.77-1.63,1.71-2.91,2.82-3.84c1.11-0.93,2.51-1.4,4.22-1.4
		c1.76,0,3.13,0.51,4.1,1.54c0.97,1.03,1.46,2.46,1.46,4.3c0,0.37-0.02,0.78-0.06,1.22s-0.1,0.87-0.18,1.3l-2.12,12.76h-2.24
		l2.08-12.52c0.08-0.45,0.13-0.88,0.16-1.28c0.03-0.4,0.04-0.75,0.04-1.04c0-1.39-0.33-2.45-0.98-3.18c-0.65-0.73-1.63-1.1-2.94-1.1
		c-1.84,0-3.43,0.79-4.76,2.36c-0.4,0.48-0.85,1.13-1.36,1.94s-0.87,1.81-1.08,2.98l-1.96,11.84h-2.24L850.29,120.68z"/>
	<path class="st1" d="M875.69,150.76c-1.39,0-2.08-0.69-2.08-2.08c0-0.37,0.04-0.88,0.12-1.52l2.68-15.6h-6.76l0.32-1.92h5.24
		c0.56,0,0.99-0.12,1.28-0.36c0.29-0.24,0.49-0.65,0.6-1.24l0.96-5.68h2.12l-1.2,7.28h9.32l-0.32,1.92h-9.32l-2.84,16.88l0.56,0.32
		l9.88-6.29l1.12,1.41l-6.76,4.44c-1.28,0.88-2.27,1.51-2.98,1.88C876.92,150.57,876.27,150.76,875.69,150.76z"/>
</g>
<rect x="0.1" y="215.01" class="st1" width="1225.81" height="92.96"/>
<g>
	<path class="st2" d="M239.02,274.05h-3.53v-29.32h10.67c2.72,0,4.79,0.74,6.22,2.23c1.43,1.48,2.14,3.56,2.14,6.22
		c0,2.38-0.62,4.28-1.85,5.71c-1.23,1.43-3.02,2.25-5.38,2.48l7.48,12.68h-3.95l-7.14-12.52h-4.66V274.05z M246.07,258.55
		c1.48,0,2.64-0.37,3.47-1.11c0.83-0.74,1.24-1.8,1.24-3.17v-2.18c0-1.37-0.41-2.43-1.24-3.17c-0.83-0.74-1.98-1.11-3.47-1.11h-7.06
		v10.75H246.07z"/>
	<path class="st2" d="M269.89,274.55c-1.57,0-2.98-0.27-4.22-0.8c-1.25-0.53-2.31-1.29-3.19-2.29s-1.56-2.18-2.04-3.57
		s-0.71-2.93-0.71-4.64c0-1.74,0.24-3.3,0.73-4.7c0.49-1.4,1.17-2.6,2.04-3.59c0.87-0.99,1.91-1.76,3.13-2.29
		c1.22-0.53,2.57-0.8,4.05-0.8c1.46,0,2.78,0.27,3.97,0.8c1.19,0.53,2.21,1.27,3.05,2.21c0.84,0.94,1.48,2.05,1.93,3.34
		c0.45,1.29,0.67,2.7,0.67,4.24v1.6h-16.04v1.01c0,0.95,0.15,1.83,0.46,2.65c0.31,0.81,0.75,1.51,1.32,2.1
		c0.57,0.59,1.27,1.04,2.1,1.37c0.83,0.32,1.74,0.48,2.75,0.48c1.46,0,2.72-0.34,3.78-1.01c1.06-0.67,1.88-1.6,2.44-2.77l2.48,1.68
		c-0.64,1.46-1.72,2.65-3.21,3.59C273.87,274.08,272.04,274.55,269.89,274.55z M269.68,254.64c-0.92,0-1.78,0.17-2.56,0.5
		c-0.78,0.34-1.46,0.8-2.04,1.39c-0.57,0.59-1.02,1.28-1.34,2.08c-0.32,0.8-0.48,1.67-0.48,2.63v0.29h12.43v-0.46
		c0-0.95-0.15-1.82-0.44-2.6s-0.7-1.46-1.22-2.04c-0.52-0.57-1.15-1.01-1.89-1.32C271.39,254.8,270.57,254.64,269.68,254.64z"/>
	<path class="st2" d="M305.67,276.55c0,2.18-0.91,3.79-2.73,4.83c-1.82,1.05-4.55,1.57-8.19,1.57c-3.5,0-6.01-0.46-7.54-1.39
		c-1.53-0.92-2.29-2.25-2.29-3.99c0-1.18,0.31-2.09,0.92-2.73c0.62-0.64,1.48-1.12,2.6-1.43v-0.5c-0.62-0.31-1.09-0.7-1.43-1.18
		c-0.34-0.48-0.5-1.08-0.5-1.81c0-1.12,0.37-1.96,1.11-2.52c0.74-0.56,1.67-0.98,2.79-1.26v-0.17c-1.34-0.59-2.39-1.46-3.13-2.6
		c-0.74-1.15-1.11-2.49-1.11-4.03c0-1.09,0.2-2.1,0.59-3.02c0.39-0.92,0.96-1.71,1.7-2.37c0.74-0.66,1.63-1.17,2.67-1.53
		c1.04-0.36,2.18-0.55,3.44-0.55c1.62,0,3.05,0.29,4.28,0.88v-0.38c0-0.83,0.2-1.52,0.59-2.07c0.39-0.55,1.06-0.83,2.02-0.83h3.99
		v2.9h-4.87v1.47c0.78,0.67,1.39,1.47,1.81,2.39c0.42,0.92,0.63,1.96,0.63,3.11c0,1.09-0.2,2.1-0.61,3.02
		c-0.41,0.92-0.97,1.71-1.7,2.37c-0.73,0.66-1.62,1.17-2.67,1.53c-1.05,0.36-2.21,0.55-3.46,0.55c-0.36,0-0.71-0.01-1.05-0.04
		c-0.34-0.03-0.67-0.07-1.01-0.13c-0.34,0.06-0.69,0.15-1.05,0.28c-0.36,0.13-0.7,0.3-1.01,0.51s-0.56,0.46-0.76,0.74
		c-0.2,0.28-0.29,0.61-0.29,0.98c0,0.65,0.32,1.08,0.97,1.29c0.64,0.21,1.48,0.32,2.52,0.32h4.79c2.8,0,4.83,0.52,6.09,1.57
		C305.04,273.39,305.67,274.79,305.67,276.55z M302.52,276.69c0-0.87-0.35-1.56-1.05-2.08c-0.7-0.52-1.92-0.78-3.65-0.78h-7.52
		c-1.46,0.59-2.18,1.57-2.18,2.94c0,0.95,0.38,1.77,1.13,2.46c0.76,0.69,2.02,1.03,3.78,1.03h3.28c1.96,0,3.49-0.3,4.58-0.9
		C301.97,278.76,302.52,277.87,302.52,276.69z M294.58,264.22c1.68,0,2.92-0.39,3.72-1.18s1.2-1.82,1.2-3.11v-1.22
		c0-1.29-0.4-2.32-1.2-3.09c-0.8-0.77-2.04-1.15-3.72-1.15c-1.68,0-2.91,0.38-3.7,1.15c-0.78,0.77-1.18,1.8-1.18,3.09v1.22
		c0,1.29,0.39,2.32,1.18,3.11C291.67,263.83,292.9,264.22,294.58,264.22z"/>
	<path class="st2" d="M325.03,270.52h-0.17c-0.22,0.53-0.5,1.04-0.84,1.53c-0.34,0.49-0.75,0.92-1.24,1.28
		c-0.49,0.36-1.07,0.66-1.74,0.88s-1.46,0.34-2.35,0.34c-2.27,0-4.09-0.72-5.46-2.16c-1.37-1.44-2.06-3.48-2.06-6.11v-13.9h3.36
		v13.31c0,1.99,0.43,3.46,1.3,4.43c0.87,0.97,2.14,1.45,3.82,1.45c0.67,0,1.33-0.08,1.97-0.25s1.22-0.42,1.72-0.76
		s0.91-0.76,1.22-1.28c0.31-0.52,0.46-1.14,0.46-1.87v-15.04h3.36v21.67h-3.36V270.52z"/>
	<path class="st2" d="M335.87,271.15h7.56v-25.28h-7.56v-2.9h10.92v28.18h7.56v2.9h-18.48V271.15z"/>
	<path class="st2" d="M378.5,274.05c-1.32,0-2.25-0.34-2.81-1.01c-0.56-0.67-0.91-1.51-1.05-2.52h-0.21
		c-0.48,1.26-1.24,2.25-2.29,2.96c-1.05,0.71-2.46,1.07-4.22,1.07c-2.27,0-4.07-0.59-5.42-1.76c-1.34-1.18-2.02-2.79-2.02-4.83
		c0-2.02,0.73-3.57,2.21-4.66c1.47-1.09,3.84-1.64,7.12-1.64h4.62v-2.13c0-1.59-0.45-2.78-1.34-3.57c-0.9-0.79-2.17-1.19-3.82-1.19
		c-1.46,0-2.65,0.29-3.57,0.86c-0.92,0.57-1.67,1.35-2.23,2.33l-2.27-1.68c0.28-0.56,0.66-1.11,1.13-1.64
		c0.48-0.54,1.06-1.01,1.76-1.42c0.7-0.41,1.5-0.74,2.39-0.98c0.9-0.24,1.89-0.36,2.98-0.36c2.55,0,4.57,0.65,6.07,1.94
		c1.5,1.29,2.25,3.09,2.25,5.39v11.95h3.02v2.9H378.5z M368.5,271.74c0.87,0,1.66-0.1,2.37-0.31s1.34-0.49,1.87-0.84
		c0.53-0.35,0.94-0.77,1.24-1.26c0.29-0.49,0.44-1.01,0.44-1.57v-3.57h-4.62c-2.02,0-3.49,0.28-4.41,0.84
		c-0.92,0.56-1.39,1.37-1.39,2.44v0.88c0,1.12,0.4,1.97,1.2,2.54S367.1,271.74,368.5,271.74z"/>
	<path class="st2" d="M386.14,271.15h6.34v-15.88h-6.34v-2.9h9.7v5.46h0.21c0.45-1.71,1.29-3.05,2.54-4.01
		c1.25-0.97,2.83-1.45,4.77-1.45h3.02v3.36h-4.07c-1.93,0-3.49,0.56-4.68,1.68c-1.19,1.12-1.79,2.58-1.79,4.4v9.34h8.4v2.9h-18.1
		V271.15z"/>
</g>
<g>
	<path class="st2" d="M765.37,274.05l0.46-2.77h7.35l3.99-23.77h-7.35l0.46-2.77h18.14l-0.46,2.77h-7.35l-3.99,23.77h7.35
		l-0.46,2.77H765.37z"/>
	<path class="st2" d="M798.88,274.55c-0.98,0-1.74-0.27-2.29-0.8c-0.55-0.53-0.82-1.3-0.82-2.31c0-0.2,0.01-0.46,0.02-0.8
		c0.01-0.33,0.05-0.61,0.1-0.84l2.52-14.58h-6.26l0.46-2.86h4.41c0.73,0,1.27-0.15,1.62-0.44c0.35-0.29,0.59-0.8,0.74-1.53
		l0.97-5.67h3.11l-1.3,7.64h8.95l-0.46,2.86h-8.95l-2.69,15.96l0.84,0.5l9.45-6.29l1.64,2.14l-4.75,3.35
		c-0.98,0.7-1.83,1.28-2.54,1.74c-0.71,0.46-1.36,0.83-1.93,1.11c-0.57,0.28-1.09,0.48-1.53,0.61
		C799.74,274.49,799.3,274.55,798.88,274.55z"/>
	<path class="st2" d="M830.13,274.05l0.84-5.1h-0.13c-0.84,1.7-1.85,3.06-3.04,4.07c-1.19,1.02-2.74,1.53-4.64,1.53
		c-2.18,0-3.86-0.7-5.02-2.1c-1.16-1.4-1.74-3.5-1.74-6.3c0-1.46,0.17-3.02,0.52-4.68c0.35-1.67,0.92-3.21,1.72-4.64
		c0.8-1.43,1.85-2.61,3.17-3.55c1.32-0.94,2.93-1.41,4.83-1.41c1.6,0,2.93,0.35,4.01,1.06c1.08,0.71,1.85,1.77,2.33,3.19h0.13
		l0.63-3.75h3.28l-3.61,21.67H830.13z M824.29,271.7c0.9,0,1.78-0.19,2.65-0.57c0.87-0.38,1.68-0.99,2.44-1.84
		c0.56-0.62,1.06-1.35,1.49-2.19c0.43-0.84,0.74-1.77,0.9-2.79l0.8-4.81c0.25-1.52-0.11-2.69-1.07-3.52
		c-0.97-0.83-2.26-1.25-3.88-1.25c-2.1,0-3.75,0.63-4.94,1.9c-1.19,1.27-1.95,2.91-2.29,4.94l-0.5,3.04
		c-0.06,0.39-0.1,0.74-0.13,1.03c-0.03,0.3-0.04,0.58-0.04,0.87c0,1.63,0.38,2.91,1.16,3.82
		C821.64,271.24,822.78,271.7,824.29,271.7z"/>
	<path class="st2" d="M849.7,274.55c-1.15,0-1.96-0.28-2.44-0.84c-0.48-0.56-0.71-1.27-0.71-2.14c0-0.2,0.01-0.42,0.02-0.67
		c0.01-0.25,0.05-0.48,0.1-0.67l4.7-24.41h-7.64l0.46-2.86h11.05l-5.46,28.39l1.05,0.34l8.61-7.32l1.89,1.83l-4.37,3.94
		c-1.01,0.92-1.88,1.67-2.6,2.24c-0.73,0.57-1.37,1.02-1.91,1.34c-0.55,0.32-1.04,0.54-1.47,0.65
		C850.55,274.5,850.12,274.55,849.7,274.55z"/>
	<path class="st2" d="M875.87,274.55c-1.06,0-1.87-0.27-2.42-0.82c-0.55-0.54-0.82-1.24-0.82-2.07c0-0.28,0.02-0.57,0.06-0.86
		c0.04-0.29,0.09-0.57,0.15-0.82l2.86-14.75h-7.81l0.46-2.86h11.17l-3.65,18.94l0.97,0.38l8.27-7.16l1.97,1.84l-3.82,3.52
		c-0.98,0.92-1.83,1.68-2.54,2.26s-1.35,1.06-1.91,1.42c-0.56,0.36-1.07,0.61-1.53,0.75S876.34,274.55,875.87,274.55z M878.72,247.5
		c-0.9,0-1.53-0.17-1.89-0.5c-0.36-0.34-0.55-0.73-0.55-1.18c0-0.17,0.01-0.35,0.04-0.55c0.03-0.2,0.07-0.42,0.13-0.67
		c0.11-0.64,0.39-1.14,0.84-1.49c0.45-0.35,1.09-0.52,1.93-0.52c0.9,0,1.53,0.17,1.89,0.5s0.55,0.73,0.55,1.18
		c0,0.17-0.01,0.35-0.04,0.55c-0.03,0.2-0.07,0.42-0.13,0.67c-0.11,0.64-0.39,1.14-0.84,1.49S879.56,247.5,878.72,247.5z"/>
	<path class="st2" d="M900.98,274.55c-1.34,0-2.53-0.22-3.55-0.67c-1.02-0.45-1.88-1.07-2.56-1.87c-0.69-0.8-1.2-1.76-1.55-2.9
		c-0.35-1.13-0.53-2.37-0.53-3.72c0-2.07,0.29-3.94,0.88-5.61c0.59-1.67,1.39-3.09,2.39-4.26c1.01-1.18,2.19-2.08,3.55-2.71
		s2.81-0.94,4.35-0.94c1.15,0,2.15,0.14,3,0.42c0.85,0.28,1.59,0.65,2.2,1.11s1.11,1.02,1.49,1.66c0.38,0.64,0.67,1.32,0.86,2.02
		l-2.81,1.09c-0.42-1.34-1.04-2.25-1.87-2.73c-0.83-0.48-1.91-0.71-3.26-0.71c-1.85,0-3.35,0.6-4.51,1.81
		c-1.16,1.21-1.94,2.94-2.33,5.21l-0.42,2.52c-0.08,0.5-0.14,0.9-0.17,1.18c-0.03,0.28-0.04,0.56-0.04,0.84
		c0,1.85,0.48,3.21,1.45,4.1c0.97,0.88,2.25,1.32,3.84,1.32c0.48,0,0.96-0.06,1.45-0.17c0.49-0.11,1.02-0.35,1.6-0.71
		c0.57-0.36,1.2-0.9,1.87-1.6s1.44-1.64,2.31-2.81l2.35,1.39c-0.67,1.09-1.36,2.06-2.06,2.92s-1.45,1.56-2.25,2.12
		c-0.8,0.56-1.67,0.99-2.6,1.28C903.13,274.41,902.1,274.55,900.98,274.55z"/>
</g>
</svg>
