<?xml version="1.0" encoding="utf-8"?>
<!-- Generator: Adobe Illustrator 24.1.2, SVG Export Plug-In . SVG Version: 6.00 Build 0)  -->
<svg version="1.1" id="Layer_1" xmlns="http://www.w3.org/2000/svg" xmlns:xlink="http://www.w3.org/1999/xlink" x="0px" y="0px"
	 viewBox="0 0 1235 455" style="enable-background:new 0 0 1235 455;" xml:space="preserve">
<style type="text/css">
	.st0{fill:#FAF9F9;}
	.st1{fill:#FCFCFC;}
	.st2{fill:#F7F6F6;}
	.st3{fill:#F5F4F3;}
	.st4{fill:#E84325;}
	.st5{fill:#E54325;}
	.st6{fill:#BE3723;}
	.st7{fill:#CC3B25;}
	.st8{fill:#DC3F26;}
</style>
<g>
	<path class="st0" d="M1049.24,261.25c-6.23-1.12-12.39-1.9-18.75-0.38c-11.38,2.72-19.52,12.2-20.62,23.87
		c-1.19,12.56,2.49,23.6,9.87,33.48c18.49,24.76,38.64,48.18,58.04,72.21c0.38,0.47,0.96,0.78,1.72,1.37
		c1.91-4.67,1.66-9.37,2.58-13.83c5.91,0,11.82,0.01,17.73,0.01c-0.73,8.11-2.59,16.02-5.51,23.55c-1.45,3.74-0.65,5.98,1.7,8.7
		c10.09,11.69,20.03,23.5,30.03,35.27c0.62,0.73,1.2,1.5,2.45,3.08c-9.36,0-17.89,0.06-26.42-0.04c-2.25-0.03-3.2-2.22-4.45-3.67
		c-6.5-7.55-12.91-15.18-19.33-22.79c-1.27-1.51-2.37-3.19-4.19-4.14c-2.03-2.05-4.06-4.09-6.09-6.14c-0.62-0.96-1.15-2-1.88-2.88
		c-15.61-18.77-31.32-37.46-46.78-56.36c-2.37-2.9-3.68-2.43-6.28-0.61c-15.54,10.91-21.64,26.05-21.16,44.62
		c0.41,15.92,8.48,27.72,23.72,32.36c14.55,4.43,28.5,2.64,41.5-5.49c3.27,2.87,6.54,5.74,9.81,8.6
		c-6.21,10.07-15.53,15.74-26.8,18.13c-19,4.02-37.25,2.48-52.88-10.23c-14.43-11.73-19.81-27.78-19.51-45.94
		c0.42-25.17,12.48-43.43,33.77-56.08c1.26-0.75,2.75-1.15,3.65-2.57c-6.1-8.45-12.39-16.9-15.64-26.96
		c-13.74-42.64,20.23-72.87,57.83-67.81c8.43,1.13,16.43,3.78,23.37,8.98C1063.57,253.46,1056.41,257.36,1049.24,261.25z"/>
	<path class="st0" d="M425.9,223.36c-2.54,1.41-5.08,2.81-7.67,4.25c0.98,1.79,2.65,1.76,3.96,2.23c13.25,4.79,23,12.96,24.72,27.68
		c1.95,16.62-2.65,31.29-17.98,39.65c-20.77,11.33-42.44,11.28-63.31-0.03c-14.02-7.59-18.97-20.78-18.23-36.13
		c0.77-16.07,10.14-25.65,24.63-31.06c1.41-0.53,3.83-0.14,3.95-2.13c0.1-1.75-2.19-1.65-3.47-2.24
		c-15.36-7.09-22.19-19.46-20.48-37.2c1.27-13.15,12.23-24.66,27.2-28.28c8.12-1.96,16.37-2.84,24.73-1.65
		c-0.02,4.74-0.04,9.48-0.07,14.22c-4.82-0.2-9.63-0.26-14.44,0.34c-11.06,1.39-18.86,8.33-20.3,18.11
		c-1.99,13.58,2.33,23.54,12.95,27.2c13.12,4.52,26.09,4.36,37.88-4.34C421.96,217.11,423.93,220.24,425.9,223.36z M397.58,235
		c-1.99,0-3.99-0.09-5.98,0.02c-12.46,0.68-22.93,7.7-25.42,17.27c-1.65,6.34-1.69,12.79-0.28,19.22c1.27,5.79,4.34,10.3,9.4,13.42
		c11.05,6.81,22.95,6.89,35.04,4.03c9.14-2.16,16.36-7.39,18.37-16.88c2.31-10.95,2.46-22.02-7.33-30.25
		C414.51,236.07,406.21,234.8,397.58,235z"/>
	<path class="st0" d="M629.73,143.21c-4.82,10.38-11.75,18.41-23.46,21.18c-11.63,2.75-23.18,2.53-34.23-2.12
		c-15.33-6.45-23.27-20.2-21.51-36.17c1.83-16.59,11.3-26.3,28.89-30.09c14.67-3.16,29.51-1.93,44.29-1.94
		c4.62,0,6.12-1.21,5.64-5.75c-0.49-4.62,0.14-9.41-0.71-13.93c-2.16-11.49-11.59-18.62-24.52-19.31
		c-7.57-0.41-14.93,0.36-21.97,3.34c-4.44-3.44-8.87-6.89-13.31-10.33c12.78-8.76,27.12-10.17,41.94-8.47
		c11.73,1.35,22.05,5.83,29.69,15.36c4.29,5.35,7.02,11.5,7.38,18.18c0.79,14.62,0.63,29.27,0.11,43.91
		c-6.15,0.01-12.29,0.02-18.44,0.03c-0.08-1.32-0.42-2.69-0.18-3.95c0.88-4.65-1.3-5.39-5.42-5.24c-8.96,0.32-17.95-0.01-26.92,0.2
		c-5.81,0.13-11.51,1.11-16.89,3.56c-7.71,3.53-10.11,9.83-9.91,17.82c0.2,7.82,2.23,14.41,10.08,17.77
		c9.74,4.17,19.69,3.78,29.64,0.98c9.41-2.64,16.92-7.51,19.38-17.79C629.45,134.7,629.59,138.95,629.73,143.21z"/>
	<path class="st1" d="M1187.77,40.98c0.65,3.92-1.61,9.2,0.92,11.49c2.71,2.45,7.92,0.66,12.04,0.71
		c8.66,0.11,17.32,0.19,25.97-0.04c3.35-0.09,4.17,0.99,4.15,4.22c-0.05,9.82,0.09,9.82-9.88,9.82c-9.66,0-19.31,0.08-28.97-0.05
		c-2.75-0.04-4.16,0.26-4.14,3.67c0.15,23.97,0.12,47.94,0.03,71.9c-0.01,2.63,0.74,3.39,3.37,3.36
		c10.15-0.14,20.32,0.12,30.47-0.15c3.62-0.1,4.34,1.03,4.28,4.42c-0.19,9.7-0.02,9.7-9.88,9.7c-25.14,0-50.28-0.07-75.42,0.08
		c-3.65,0.02-5.15-0.55-5-4.72c0.34-9.37,0.09-9.38,9.25-9.38c7.66,0,15.32-0.09,22.98,0.05c2.6,0.05,3.85-0.36,3.83-3.46
		c-0.13-23.97-0.12-47.94-0.01-71.9c0.01-2.97-1.06-3.6-3.78-3.56c-9.99,0.14-19.98-0.04-29.97,0.11c-2.98,0.05-4.33-0.35-4.29-3.92
		c0.14-10.1-0.06-10.1,10.12-10.1c7.99,0,15.99-0.13,23.97,0.07c3,0.07,4.21-0.69,3.95-3.87c-0.23-2.79,0.12-5.63,0.21-8.45
		C1177.23,40.97,1182.5,40.97,1187.77,40.98z"/>
	<path class="st2" d="M63.15,105.56c-4.27,7.18-10.31,9.78-17.97,8.38c-7.11-1.3-11.19-6.24-13.08-12.89
		c-3.26-11.44-3.43-23.08,0.29-34.36c4.21-12.81,19.11-16.74,27.22-7.61c1.14,1.28,1.98,2.82,3.27,4.7
		c0.68-5.57,0.23-10.43-1.3-15.18c-2.78-8.65-8.55-13.19-17.02-13.52C33.1,34.62,26.69,38.26,22.89,47.2
		c-3.26,7.66-4.01,15.75-3.96,23.9c0.08,12.8-0.98,25.64,1.14,38.39c2.51,15.1,11.23,22.52,26.64,22.53c4.67,0,9.33,0.09,14-0.04
		c2.05-0.06,2.87,0.82,2.38,2.61c-0.58,2.13,1.74,6.13-1.54,6.21c-10.24,0.24-20.65,1.51-30.64-2.23
		c-12.51-4.68-17.97-14.92-20.2-26.97c-3.85-20.8-4.27-41.73,1.43-62.29c5.96-21.49,27.49-30.15,46.95-19.07
		C69.45,36.14,72.73,46.29,73,57.31c0.42,17.15-0.01,34.32,0.24,51.47c0.06,3.84-1.74,4.09-4.47,3.73
		c-2.36-0.31-6.25,1.69-5.64-3.51C63.26,107.87,63.15,106.71,63.15,105.56z M63.13,84.31c0-3.99,0.11-7.98-0.03-11.97
		c-0.17-4.8-3.17-8.4-7.47-9.29c-6.13-1.27-11.69,0.43-13.25,5.09c-3.57,10.64-3.53,21.56-0.04,32.22c1.42,4.33,7.19,6.43,12.2,5.41
		c5.17-1.06,8.37-4.48,8.55-9.49C63.24,92.3,63.13,88.31,63.13,84.31z"/>
	<path class="st2" d="M860.56,116.23c22.61-1.45,38.87,12.08,40.43,34.43c1.73,24.76,0.3,49.59,0.75,74.39
		c0.05,2.58-1,3.08-3.24,2.98c-4.47-0.21-10.25,1.37-13.02-0.85c-2.18-1.75-0.74-8.11-0.75-12.42c-0.04-17.48,0.04-34.97-0.06-52.45
		c-0.02-3.98-0.24-8.03-1.03-11.91c-2.46-12.03-9.34-17.7-23.05-19.51C860.58,126,860.57,121.12,860.56,116.23z"/>
	<path class="st1" d="M831.49,131.91c0.14,1.45,0.28,2.91,0.41,4.36c0.03,3.23,0.06,6.47,0.09,9.7
		c-1.23,25.63-0.32,51.28-0.44,76.92c-0.02,4-0.71,5.72-5.05,5.18c-3.76-0.47-8.83,1.17-11.1-0.74c-2.66-2.25-0.84-7.46-0.85-11.36
		c-0.09-30.81,0.01-61.62-0.13-92.43c-0.02-3.76,0.73-5.52,4.86-5.03c2.96,0.35,5.99,0.17,8.99,0.05c2.37-0.09,3.34,0.97,3.28,3.18
		C831.53,125.09,831.51,128.5,831.49,131.91z"/>
	<path class="st0" d="M222.18,65.2c15.31-0.06,30.63-0.07,45.94-0.22c2.34-0.02,2.87,0.64,3.17,3c0.86,6.85-2.04,12.61-4.59,18.5
		c-10.72,24.71-21.62,49.35-32.11,74.16c-1.76,4.16-3.67,6.17-8.24,5.44c-2.21-0.35-4.53-0.06-7.27-0.06
		c8.9-20.26,17.58-40.06,26.29-59.84c3.79-8.62,7.66-17.21,11.45-25.83c2.21-5.02,2.18-5.01-3.17-5.05
		c-10.48-0.08-20.96-0.18-31.44-0.27C222.2,71.75,222.19,68.48,222.18,65.2z"/>
	<path class="st3" d="M706.4,381.97c-0.09-22.13-0.19-44.26-0.27-66.38c-0.03-7.91,0-7.91-8.16-7.91c-9.49,0-18.99-0.26-28.47,0.1
		c-5.78,0.22-3.56-3.7-3.99-6.36c-0.53-3.24,0.35-4.63,4.13-4.57c15.15,0.24,30.3,0.09,45.45,0.11c1.85,0,3.94-0.74,3.92,2.68
		c-0.18,27.46-0.2,54.92-0.27,82.38C714.63,382,710.52,381.99,706.4,381.97z"/>
	<path class="st2" d="M149.27,304.87c0-24.93,0-49.86,0-74.65c-1.89-0.87-2.41,0.57-3.14,1.25c-6.22,5.77-12.62,11.38-18.46,17.51
		c-3.54,3.72-4.62,0.2-6.43-1.39c-1.88-1.65-3.64-3.1-0.58-5.73c5.8-4.98,11.47-10.17,16.71-15.73c3.73-3.95,7.71-5.48,13.13-5.26
		c10.07,0.4,10.09,0.11,10.08,10.12c-0.02,24.63-0.05,49.27-0.07,73.9C156.76,304.89,153.01,304.88,149.27,304.87z"/>
	<path class="st4" d="M1099.82,377.98c-5.91,0-11.82-0.01-17.73-0.01c0.6-12.76,1.26-25.51,1.77-38.27
		c0.09-2.15,0.77-2.87,2.91-2.86c11.79,0.07,23.58,0.09,35.37-0.01c2.44-0.02,3.33,0.91,3.07,3.22c-0.02,0.16,0.01,0.33,0,0.5
		c-0.23,4.95,2.02,11.32-0.83,14.46c-2.93,3.23-9.44,1.21-14.31,0.94c-5.05-0.28-7.38,0.82-7.72,6.4
		C1102.04,367.57,1101.6,372.93,1099.82,377.98z"/>
	<path class="st4" d="M425.9,223.36c-1.97-3.13-3.94-6.25-5.92-9.38c13.4-17.31,5.57-37.4-16.09-41.31
		c0.02-4.74,0.04-9.48,0.07-14.22c11.38,0.71,21.82,3.83,30.09,12.16C449.19,185.86,444.95,213.16,425.9,223.36z"/>
	<path class="st4" d="M629.52,117.09c6.15-0.01,12.29-0.02,18.44-0.03c0.07,8.29,0.3,16.58,0.12,24.86c-0.08,3.71,0.7,5.8,4.87,5.04
		c0.32-0.06,0.66-0.01,0.99-0.01c12.54,0.02,13.27,0.92,11.53,13.64c-0.21,1.54-0.53,2.48-2.3,2.45
		c-5.47-0.12-10.99,0.26-16.39-0.37c-7.96-0.92-12.37-6.25-14.89-13.54c-0.68-1.98-0.38-4.35-2.16-5.93
		c-0.14-4.25-0.28-8.51-0.42-12.76C629.38,125.99,629.45,121.54,629.52,117.09z"/>
	<path class="st4" d="M1187.77,40.98c-5.27-0.01-10.54-0.01-15.81-0.02c-0.15-6.12-0.85-12.27,0.86-18.3
		c2.76-9.76,9.32-15.14,19.44-15.51c6.14-0.23,12.29,0.04,18.44,0.08c0,4.56,0.01,9.13,0.01,13.69c-6.33,0.05-12.66,0.3-18.98,0.08
		c-3.2-0.11-3.95,1-3.85,3.99C1188.05,30.32,1187.82,35.65,1187.77,40.98z"/>
	<path class="st5" d="M149.27,304.87c3.74,0.01,7.49,0.01,11.23,0.02c6.81,0.08,13.64,0.48,20.43,0.14
		c4.47-0.22,4.21,2.19,4.23,5.19c0.02,2.87,0.19,4.91-3.97,4.86c-18.29-0.24-36.59-0.23-54.88-0.01c-4.25,0.05-3.91-2.21-3.91-4.99
		c0-2.8-0.29-5.17,3.94-5.04C133.98,305.29,141.63,304.96,149.27,304.87z"/>
	<path class="st4" d="M1049.24,261.25c7.16-3.9,14.33-7.79,21.49-11.69c7.25,4.53,12.44,10.87,16.38,18.38
		c1.2,2.28,1.03,3.63-1.45,4.61c-1.38,0.55-2.63,1.42-3.96,2.09c-3.7,1.88-7.39,5.15-11.13,5.22c-4.12,0.08-4.57-5.82-7.28-8.65
		C1059.2,266.96,1054.66,263.55,1049.24,261.25z"/>
	<path class="st5" d="M706.4,381.97c4.12,0.01,8.23,0.03,12.35,0.04c0.2,4.29,0.48,8.56-0.54,12.82
		c-2.05,8.6-7.29,12.95-16.16,13.08c-2.81,0.04-5.62-0.1-8.43-0.16c0-3.27-0.01-6.54-0.01-9.81c1.47-0.07,2.94-0.19,4.41-0.2
		c8.15-0.05,8.14-0.04,8.16-8.42C706.2,386.88,706.33,384.43,706.4,381.97z"/>
	<path class="st5" d="M222.18,65.2c0.01,3.27,0.01,6.55,0.02,9.82c-8.09,0.52-8.09,0.52-8.09,8.82c0,1.66-0.24,3.36,0.04,4.98
		c0.8,4.59-1.25,5.4-5.46,5.42c-4.3,0.02-5.83-0.96-5.54-5.49c0.42-6.62,0.2-13.29,0.06-19.93c-0.05-2.62,0.47-3.99,3.51-3.84
		C211.88,65.24,217.03,65.15,222.18,65.2z"/>
	<path class="st5" d="M831.99,145.97c-0.03-3.23-0.06-6.47-0.09-9.7c4.18-6.44,7.63-13.49,15.38-16.72
		c4.28-1.79,8.57-3.33,13.27-3.31c0.01,4.88,0.02,9.77,0.03,14.65c-4.77,0.14-9.48,0.53-14.07,2.06
		C839.76,135.2,834.92,139.49,831.99,145.97z"/>
	<path class="st4" d="M568.84,48.08c4.44,3.44,8.87,6.89,13.31,10.33c-5.24,3.01-9.73,6.86-13.29,11.77
		c-0.48,0.66-1.27,1.86-1.55,1.76c-4.46-1.54-7.88-4.78-11.38-7.72c-2.47-2.06,0.44-3.86,1.48-5.39
		C560.39,54.44,563.9,50.47,568.84,48.08z"/>
	<path class="st0" d="M712.34,279.19c-7.1-0.07-9.6-2.41-9.59-8.97c0.02-6.52,3.04-9.3,10.06-9.24c6.64,0.06,9.67,2.95,9.66,9.21
		C722.46,276.84,719.73,279.26,712.34,279.19z"/>
	<path class="st0" d="M1210.7,20.93c0-4.56-0.01-9.13-0.01-13.69c5.66-0.06,11.32-0.03,16.98-0.22c2.34-0.08,3.06,0.62,3.17,3.06
		c0.47,11.02,0.56,11.03-10.15,11.01C1217.36,21.07,1214.03,20.98,1210.7,20.93z"/>
	<path class="st0" d="M693.62,397.95c0,3.27,0.01,6.54,0.01,9.81c-7.94,0.06-15.88,0.02-23.82,0.24c-2.61,0.07-2.86-1.03-2.9-3.2
		c-0.15-7.13-0.23-7.17,6.87-7.12C680.4,397.73,687.01,397.86,693.62,397.95z"/>
	<path class="st5" d="M1068.01,411.81c2.03,2.05,4.06,4.09,6.09,6.14c-2.41,4.69-3.38,10.12-7.17,14.1
		c-3.27-2.87-6.54-5.74-9.81-8.6C1061.26,420.04,1064.87,416.15,1068.01,411.81z"/>
	<path class="st5" d="M831.49,131.91c0.02-3.41,0.04-6.82,0.05-10.19C831.53,125.15,831.51,128.53,831.49,131.91z"/>
	<path class="st6" d="M422.95,245.83c0,10.86,0,20.44,0,31.16C420.72,272.3,420.69,250.82,422.95,245.83z"/>
	<path class="st7" d="M373.83,247.29c0,9.46,0,18.91,0,28.37c-0.34,0.01-0.68,0.01-1.01,0.02c0-9.45,0-18.89,0-28.34
		C373.15,247.33,373.49,247.31,373.83,247.29z"/>
	<path class="st6" d="M576.36,136.9c-1.42-4.91-1.42-9.82,0-14.74C577.74,127.08,577.74,131.99,576.36,136.9z"/>
	<path class="st8" d="M59.84,71.32c0,8.49,0,16.97,0,25.46c-0.33,0.01-0.67,0.01-1,0.02c0-8.48,0-16.96,0-25.43
		C59.17,71.34,59.5,71.33,59.84,71.32z"/>
	<path class="st8" d="M45.72,71.34c0,8.48,0,16.96,0,25.45c-0.33,0.01-0.67,0.01-1,0.02c0-8.48,0-16.95,0-25.43
		C45.05,71.36,45.39,71.35,45.72,71.34z"/>
</g>
</svg>
